<?xml version="1.0" encoding="UTF-8" standalone="no"?>
<!DOCTYPE svg PUBLIC "-//W3C//DTD SVG 1.1//EN"
 "http://www.w3.org/Graphics/SVG/1.1/DTD/svg11.dtd">
<!-- Generated by graphviz version 2.43.0 (0)
 -->
<!-- Title: ADXL343.cpp Pages: 1 -->
<svg width="687pt" height="196pt"
 viewBox="0.00 0.00 687.00 196.00" xmlns="http://www.w3.org/2000/svg" xmlns:xlink="http://www.w3.org/1999/xlink">
<g id="graph0" class="graph" transform="scale(1 1) rotate(0) translate(4 192)">
<title>ADXL343.cpp</title>
<polygon fill="white" stroke="transparent" points="-4,4 -4,-192 683,-192 683,4 -4,4"/>
<!-- Node1 -->
<g id="node1" class="node">
<title>Node1</title>
<g id="a_node1"><a xlink:title=" ">
<polygon fill="#bfbfbf" stroke="black" points="415.5,-168.5 415.5,-187.5 496.5,-187.5 496.5,-168.5 415.5,-168.5"/>
<text text-anchor="middle" x="456" y="-175.5" font-family="Helvetica,sans-Serif" font-size="10.00">ADXL343.cpp</text>
</a>
</g>
</g>
<!-- Node2 -->
<g id="node2" class="node">
<title>Node2</title>
<g id="a_node2"><a xlink:title=" ">
<polygon fill="white" stroke="#bfbfbf" points="341,-0.5 341,-19.5 389,-19.5 389,-0.5 341,-0.5"/>
<text text-anchor="middle" x="365" y="-7.5" font-family="Helvetica,sans-Serif" font-size="10.00">Wire.h</text>
</a>
</g>
</g>
<!-- Node1&#45;&gt;Node2 -->
<g id="edge1" class="edge">
<title>Node1&#45;&gt;Node2</title>
<path fill="none" stroke="midnightblue" d="M467.45,-168.27C493.18,-147.62 551.09,-94.6 522,-56 507.25,-36.43 440.84,-22.77 399.26,-15.96"/>
<polygon fill="midnightblue" stroke="midnightblue" points="399.7,-12.49 389.27,-14.38 398.6,-19.4 399.7,-12.49"/>
</g>
<!-- Node3 -->
<g id="node3" class="node">
<title>Node3</title>
<g id="a_node3"><a xlink:title=" ">
<polygon fill="white" stroke="#bfbfbf" points="0,-56.5 0,-75.5 102,-75.5 102,-56.5 0,-56.5"/>
<text text-anchor="middle" x="51" y="-63.5" font-family="Helvetica,sans-Serif" font-size="10.00">Adafruit_Sensor.h</text>
</a>
</g>
</g>
<!-- Node1&#45;&gt;Node3 -->
<g id="edge2" class="edge">
<title>Node1&#45;&gt;Node3</title>
<path fill="none" stroke="midnightblue" d="M422.66,-168.45C387.98,-159.51 332.12,-145.01 284,-132 216.01,-113.62 137.12,-91.43 90.78,-78.31"/>
<polygon fill="midnightblue" stroke="midnightblue" points="91.69,-74.93 81.12,-75.57 89.79,-81.66 91.69,-74.93"/>
</g>
<!-- Node4 -->
<g id="node4" class="node">
<title>Node4</title>
<g id="a_node4"><a xlink:title=" ">
<polygon fill="white" stroke="#bfbfbf" points="399,-56.5 399,-75.5 513,-75.5 513,-56.5 399,-56.5"/>
<text text-anchor="middle" x="456" y="-63.5" font-family="Helvetica,sans-Serif" font-size="10.00">Adafruit_ADXL343.h</text>
</a>
</g>
</g>
<!-- Node1&#45;&gt;Node4 -->
<g id="edge3" class="edge">
<title>Node1&#45;&gt;Node4</title>
<path fill="none" stroke="midnightblue" d="M456,-168.37C456,-150.62 456,-109.67 456,-85.6"/>
<polygon fill="midnightblue" stroke="midnightblue" points="459.5,-85.59 456,-75.59 452.5,-85.59 459.5,-85.59"/>
</g>
<!-- Node5 -->
<g id="node5" class="node">
<title>Node5</title>
<g id="a_node5"><a xlink:href="_a_d_x_l343_8h.html" target="_top" xlink:title=" ">
<polygon fill="white" stroke="black" points="293,-112.5 293,-131.5 363,-131.5 363,-112.5 293,-112.5"/>
<text text-anchor="middle" x="328" y="-119.5" font-family="Helvetica,sans-Serif" font-size="10.00">ADXL343.h</text>
</a>
</g>
</g>
<!-- Node1&#45;&gt;Node5 -->
<g id="edge4" class="edge">
<title>Node1&#45;&gt;Node5</title>
<path fill="none" stroke="midnightblue" d="M435.72,-168.44C414.65,-159.56 381.48,-145.56 357.51,-135.45"/>
<polygon fill="midnightblue" stroke="midnightblue" points="358.76,-132.18 348.19,-131.52 356.04,-138.63 358.76,-132.18"/>
</g>
<!-- Node8 -->
<g id="node8" class="node">
<title>Node8</title>
<g id="a_node8"><a xlink:href="_acceleration_data_8h.html" target="_top" xlink:title=" ">
<polygon fill="white" stroke="black" points="569,-112.5 569,-131.5 679,-131.5 679,-112.5 569,-112.5"/>
<text text-anchor="middle" x="624" y="-119.5" font-family="Helvetica,sans-Serif" font-size="10.00">AccelerationData.h</text>
</a>
</g>
</g>
<!-- Node1&#45;&gt;Node8 -->
<g id="edge10" class="edge">
<title>Node1&#45;&gt;Node8</title>
<path fill="none" stroke="midnightblue" d="M482.62,-168.44C511.01,-159.32 556.14,-144.81 587.75,-134.65"/>
<polygon fill="midnightblue" stroke="midnightblue" points="589.06,-137.91 597.5,-131.52 586.91,-131.24 589.06,-137.91"/>
</g>
<!-- Node5&#45;&gt;Node3 -->
<g id="edge5" class="edge">
<title>Node5&#45;&gt;Node3</title>
<path fill="none" stroke="midnightblue" d="M292.92,-114.16C245.5,-104.92 160.5,-88.35 104.93,-77.51"/>
<polygon fill="midnightblue" stroke="midnightblue" points="105.4,-74.04 94.92,-75.56 104.06,-80.91 105.4,-74.04"/>
</g>
<!-- Node5&#45;&gt;Node4 -->
<g id="edge6" class="edge">
<title>Node5&#45;&gt;Node4</title>
<path fill="none" stroke="midnightblue" d="M348.28,-112.44C369.35,-103.56 402.52,-89.56 426.49,-79.45"/>
<polygon fill="midnightblue" stroke="midnightblue" points="427.96,-82.63 435.81,-75.52 425.24,-76.18 427.96,-82.63"/>
</g>
<!-- Node6 -->
<g id="node6" class="node">
<title>Node6</title>
<g id="a_node6"><a xlink:title=" ">
<polygon fill="white" stroke="#bfbfbf" points="275.5,-56.5 275.5,-75.5 380.5,-75.5 380.5,-56.5 275.5,-56.5"/>
<text text-anchor="middle" x="328" y="-63.5" font-family="Helvetica,sans-Serif" font-size="10.00">../Accelerometer.h</text>
</a>
</g>
</g>
<!-- Node5&#45;&gt;Node6 -->
<g id="edge7" class="edge">
<title>Node5&#45;&gt;Node6</title>
<path fill="none" stroke="midnightblue" d="M328,-112.08C328,-105.01 328,-94.86 328,-85.99"/>
<polygon fill="midnightblue" stroke="midnightblue" points="331.5,-85.75 328,-75.75 324.5,-85.75 331.5,-85.75"/>
</g>
<!-- Node7 -->
<g id="node7" class="node">
<title>Node7</title>
<g id="a_node7"><a xlink:href="_accelerometer_config_8h.html" target="_top" xlink:title=" ">
<polygon fill="white" stroke="black" points="120.5,-56.5 120.5,-75.5 257.5,-75.5 257.5,-56.5 120.5,-56.5"/>
<text text-anchor="middle" x="189" y="-63.5" font-family="Helvetica,sans-Serif" font-size="10.00">../AccelerometerConfig.h</text>
</a>
</g>
</g>
<!-- Node5&#45;&gt;Node7 -->
<g id="edge8" class="edge">
<title>Node5&#45;&gt;Node7</title>
<path fill="none" stroke="midnightblue" d="M305.98,-112.44C282.9,-103.48 246.44,-89.31 220.36,-79.18"/>
<polygon fill="midnightblue" stroke="midnightblue" points="221.51,-75.88 210.92,-75.52 218.98,-82.4 221.51,-75.88"/>
</g>
<!-- Node7&#45;&gt;Node2 -->
<g id="edge9" class="edge">
<title>Node7&#45;&gt;Node2</title>
<path fill="none" stroke="midnightblue" d="M216.89,-56.44C247.9,-46.93 297.98,-31.56 331.19,-21.37"/>
<polygon fill="midnightblue" stroke="midnightblue" points="332.39,-24.67 340.92,-18.39 330.33,-17.98 332.39,-24.67"/>
</g>
</g>
</svg>
