<?xml version="1.0" encoding="UTF-8" standalone="no"?>
<!DOCTYPE svg PUBLIC "-//W3C//DTD SVG 1.1//EN"
 "http://www.w3.org/Graphics/SVG/1.1/DTD/svg11.dtd">
<!-- Generated by graphviz version 2.43.0 (0)
 -->
<!-- Title: ADXL343.cpp Pages: 1 -->
<svg width="668pt" height="196pt"
 viewBox="0.00 0.00 668.00 196.00" xmlns="http://www.w3.org/2000/svg" xmlns:xlink="http://www.w3.org/1999/xlink">
<g id="graph0" class="graph" transform="scale(1 1) rotate(0) translate(4 192)">
<title>ADXL343.cpp</title>
<polygon fill="white" stroke="transparent" points="-4,4 -4,-192 664,-192 664,4 -4,4"/>
<!-- Node1 -->
<g id="node1" class="node">
<title>Node1</title>
<g id="a_node1"><a xlink:title=" ">
<polygon fill="#bfbfbf" stroke="black" points="396.5,-168.5 396.5,-187.5 477.5,-187.5 477.5,-168.5 396.5,-168.5"/>
<text text-anchor="middle" x="437" y="-175.5" font-family="Helvetica,sans-Serif" font-size="10.00">ADXL343.cpp</text>
</a>
</g>
</g>
<!-- Node2 -->
<g id="node2" class="node">
<title>Node2</title>
<g id="a_node2"><a xlink:title=" ">
<polygon fill="white" stroke="#bfbfbf" points="329,-0.5 329,-19.5 377,-19.5 377,-0.5 329,-0.5"/>
<text text-anchor="middle" x="353" y="-7.5" font-family="Helvetica,sans-Serif" font-size="10.00">Wire.h</text>
</a>
</g>
</g>
<!-- Node1&#45;&gt;Node2 -->
<g id="edge1" class="edge">
<title>Node1&#45;&gt;Node2</title>
<path fill="none" stroke="midnightblue" d="M448.42,-168.3C474.08,-147.7 531.85,-94.78 503,-56 476.53,-20.42 422.89,-11.91 387.45,-10.42"/>
<polygon fill="midnightblue" stroke="midnightblue" points="387.17,-6.91 377.09,-10.16 387,-13.91 387.17,-6.91"/>
</g>
<!-- Node3 -->
<g id="node3" class="node">
<title>Node3</title>
<g id="a_node3"><a xlink:title=" ">
<polygon fill="white" stroke="#bfbfbf" points="0,-56.5 0,-75.5 102,-75.5 102,-56.5 0,-56.5"/>
<text text-anchor="middle" x="51" y="-63.5" font-family="Helvetica,sans-Serif" font-size="10.00">Adafruit_Sensor.h</text>
</a>
</g>
</g>
<!-- Node1&#45;&gt;Node3 -->
<g id="edge2" class="edge">
<title>Node1&#45;&gt;Node3</title>
<path fill="none" stroke="midnightblue" d="M404.29,-168.45C370.58,-159.57 316.52,-145.17 270,-132 206.1,-113.91 132.09,-91.67 88.54,-78.46"/>
<polygon fill="midnightblue" stroke="midnightblue" points="89.52,-75.1 78.94,-75.54 87.49,-81.79 89.52,-75.1"/>
</g>
<!-- Node4 -->
<g id="node4" class="node">
<title>Node4</title>
<g id="a_node4"><a xlink:title=" ">
<polygon fill="white" stroke="#bfbfbf" points="380,-56.5 380,-75.5 494,-75.5 494,-56.5 380,-56.5"/>
<text text-anchor="middle" x="437" y="-63.5" font-family="Helvetica,sans-Serif" font-size="10.00">Adafruit_ADXL343.h</text>
</a>
</g>
</g>
<!-- Node1&#45;&gt;Node4 -->
<g id="edge3" class="edge">
<title>Node1&#45;&gt;Node4</title>
<path fill="none" stroke="midnightblue" d="M437,-168.37C437,-150.62 437,-109.67 437,-85.6"/>
<polygon fill="midnightblue" stroke="midnightblue" points="440.5,-85.59 437,-75.59 433.5,-85.59 440.5,-85.59"/>
</g>
<!-- Node5 -->
<g id="node5" class="node">
<title>Node5</title>
<g id="a_node5"><a xlink:href="_a_d_x_l343_8h.html" target="_top" xlink:title=" ">
<polygon fill="white" stroke="black" points="279,-112.5 279,-131.5 349,-131.5 349,-112.5 279,-112.5"/>
<text text-anchor="middle" x="314" y="-119.5" font-family="Helvetica,sans-Serif" font-size="10.00">ADXL343.h</text>
</a>
</g>
</g>
<!-- Node1&#45;&gt;Node5 -->
<g id="edge4" class="edge">
<title>Node1&#45;&gt;Node5</title>
<path fill="none" stroke="midnightblue" d="M417.51,-168.44C397.36,-159.6 365.68,-145.69 342.67,-135.59"/>
<polygon fill="midnightblue" stroke="midnightblue" points="343.96,-132.33 333.4,-131.52 341.15,-138.74 343.96,-132.33"/>
</g>
<!-- Node8 -->
<g id="node8" class="node">
<title>Node8</title>
<g id="a_node8"><a xlink:href="_acceleration_data_8h.html" target="_top" xlink:title=" ">
<polygon fill="white" stroke="black" points="550,-112.5 550,-131.5 660,-131.5 660,-112.5 550,-112.5"/>
<text text-anchor="middle" x="605" y="-119.5" font-family="Helvetica,sans-Serif" font-size="10.00">AccelerationData.h</text>
</a>
</g>
</g>
<!-- Node1&#45;&gt;Node8 -->
<g id="edge10" class="edge">
<title>Node1&#45;&gt;Node8</title>
<path fill="none" stroke="midnightblue" d="M463.62,-168.44C492.01,-159.32 537.14,-144.81 568.75,-134.65"/>
<polygon fill="midnightblue" stroke="midnightblue" points="570.06,-137.91 578.5,-131.52 567.91,-131.24 570.06,-137.91"/>
</g>
<!-- Node5&#45;&gt;Node3 -->
<g id="edge5" class="edge">
<title>Node5&#45;&gt;Node3</title>
<path fill="none" stroke="midnightblue" d="M278.8,-113.77C233.53,-104.48 154.55,-88.26 102.51,-77.58"/>
<polygon fill="midnightblue" stroke="midnightblue" points="102.98,-74.1 92.48,-75.52 101.58,-80.96 102.98,-74.1"/>
</g>
<!-- Node5&#45;&gt;Node4 -->
<g id="edge6" class="edge">
<title>Node5&#45;&gt;Node4</title>
<path fill="none" stroke="midnightblue" d="M333.49,-112.44C353.64,-103.6 385.32,-89.69 408.33,-79.59"/>
<polygon fill="midnightblue" stroke="midnightblue" points="409.85,-82.74 417.6,-75.52 407.04,-76.33 409.85,-82.74"/>
</g>
<!-- Node6 -->
<g id="node6" class="node">
<title>Node6</title>
<g id="a_node6"><a xlink:title=" ">
<polygon fill="white" stroke="#bfbfbf" points="266,-56.5 266,-75.5 362,-75.5 362,-56.5 266,-56.5"/>
<text text-anchor="middle" x="314" y="-63.5" font-family="Helvetica,sans-Serif" font-size="10.00">Accelerometer.h</text>
</a>
</g>
</g>
<!-- Node5&#45;&gt;Node6 -->
<g id="edge7" class="edge">
<title>Node5&#45;&gt;Node6</title>
<path fill="none" stroke="midnightblue" d="M314,-112.08C314,-105.01 314,-94.86 314,-85.99"/>
<polygon fill="midnightblue" stroke="midnightblue" points="317.5,-85.75 314,-75.75 310.5,-85.75 317.5,-85.75"/>
</g>
<!-- Node7 -->
<g id="node7" class="node">
<title>Node7</title>
<g id="a_node7"><a xlink:href="_accelerometer_config_8h.html" target="_top" xlink:title=" ">
<polygon fill="white" stroke="black" points="120,-56.5 120,-75.5 248,-75.5 248,-56.5 120,-56.5"/>
<text text-anchor="middle" x="184" y="-63.5" font-family="Helvetica,sans-Serif" font-size="10.00">AccelerometerConfig.h</text>
</a>
</g>
</g>
<!-- Node5&#45;&gt;Node7 -->
<g id="edge8" class="edge">
<title>Node5&#45;&gt;Node7</title>
<path fill="none" stroke="midnightblue" d="M293.4,-112.44C272.01,-103.56 238.32,-89.56 213.98,-79.45"/>
<polygon fill="midnightblue" stroke="midnightblue" points="215.08,-76.12 204.5,-75.52 212.39,-82.58 215.08,-76.12"/>
</g>
<!-- Node7&#45;&gt;Node2 -->
<g id="edge9" class="edge">
<title>Node7&#45;&gt;Node2</title>
<path fill="none" stroke="midnightblue" d="M210.78,-56.44C240.09,-47.08 287.15,-32.04 319.03,-21.85"/>
<polygon fill="midnightblue" stroke="midnightblue" points="320.35,-25.11 328.81,-18.73 318.22,-18.44 320.35,-25.11"/>
</g>
</g>
</svg>
