<?xml version="1.0" encoding="UTF-8" standalone="no"?>
<!DOCTYPE svg PUBLIC "-//W3C//DTD SVG 1.1//EN"
 "http://www.w3.org/Graphics/SVG/1.1/DTD/svg11.dtd">
<!-- Generated by graphviz version 2.43.0 (0)
 -->
<!-- Title: AccelerometerConfig.h Pages: 1 -->
<svg width="769pt" height="140pt"
 viewBox="0.00 0.00 769.00 140.00" xmlns="http://www.w3.org/2000/svg" xmlns:xlink="http://www.w3.org/1999/xlink">
<g id="graph0" class="graph" transform="scale(1 1) rotate(0) translate(4 136)">
<title>AccelerometerConfig.h</title>
<polygon fill="white" stroke="transparent" points="-4,4 -4,-136 765,-136 765,4 -4,4"/>
<!-- Node1 -->
<g id="node1" class="node">
<title>Node1</title>
<g id="a_node1"><a xlink:title=" ">
<polygon fill="#bfbfbf" stroke="black" points="531.5,-112.5 531.5,-131.5 659.5,-131.5 659.5,-112.5 531.5,-112.5"/>
<text text-anchor="middle" x="595.5" y="-119.5" font-family="Helvetica,sans-Serif" font-size="10.00">AccelerometerConfig.h</text>
</a>
</g>
</g>
<!-- Node2 -->
<g id="node2" class="node">
<title>Node2</title>
<g id="a_node2"><a xlink:href="_config_8h.html" target="_top" xlink:title=" ">
<polygon fill="white" stroke="black" points="319.5,-56.5 319.5,-75.5 375.5,-75.5 375.5,-56.5 319.5,-56.5"/>
<text text-anchor="middle" x="347.5" y="-63.5" font-family="Helvetica,sans-Serif" font-size="10.00">Config.h</text>
</a>
</g>
</g>
<!-- Node1&#45;&gt;Node2 -->
<g id="edge1" class="edge">
<title>Node1&#45;&gt;Node2</title>
<path fill="none" stroke="midnightblue" d="M546.38,-110.3C495.38,-99.2 417.35,-82.21 375.81,-73.16"/>
<polygon fill="midnightblue" stroke="midnightblue" points="545.69,-113.74 556.2,-112.44 547.18,-106.9 545.69,-113.74"/>
</g>
<!-- Node9 -->
<g id="node9" class="node">
<title>Node9</title>
<g id="a_node9"><a xlink:href="_a_d_x_l343_8h.html" target="_top" xlink:title=" ">
<polygon fill="white" stroke="black" points="679.5,-56.5 679.5,-75.5 749.5,-75.5 749.5,-56.5 679.5,-56.5"/>
<text text-anchor="middle" x="714.5" y="-63.5" font-family="Helvetica,sans-Serif" font-size="10.00">ADXL343.h</text>
</a>
</g>
</g>
<!-- Node1&#45;&gt;Node9 -->
<g id="edge8" class="edge">
<title>Node1&#45;&gt;Node9</title>
<path fill="none" stroke="midnightblue" d="M623.64,-108.23C645.9,-98.13 676.36,-84.31 695.73,-75.52"/>
<polygon fill="midnightblue" stroke="midnightblue" points="622.02,-105.12 614.36,-112.44 624.91,-111.5 622.02,-105.12"/>
</g>
<!-- Node11 -->
<g id="node11" class="node">
<title>Node11</title>
<g id="a_node11"><a xlink:href="_accelerometer_base_8h.html" target="_top" xlink:title=" ">
<polygon fill="white" stroke="black" points="535,-56.5 535,-75.5 656,-75.5 656,-56.5 535,-56.5"/>
<text text-anchor="middle" x="595.5" y="-63.5" font-family="Helvetica,sans-Serif" font-size="10.00">AccelerometerBase.h</text>
</a>
</g>
</g>
<!-- Node1&#45;&gt;Node11 -->
<g id="edge10" class="edge">
<title>Node1&#45;&gt;Node11</title>
<path fill="none" stroke="midnightblue" d="M595.5,-101.8C595.5,-92.91 595.5,-82.78 595.5,-75.75"/>
<polygon fill="midnightblue" stroke="midnightblue" points="592,-102.08 595.5,-112.08 599,-102.08 592,-102.08"/>
</g>
<!-- Node3 -->
<g id="node3" class="node">
<title>Node3</title>
<g id="a_node3"><a xlink:href="_pins_8cpp.html" target="_top" xlink:title=" ">
<polygon fill="white" stroke="black" points="0,-0.5 0,-19.5 57,-19.5 57,-0.5 0,-0.5"/>
<text text-anchor="middle" x="28.5" y="-7.5" font-family="Helvetica,sans-Serif" font-size="10.00">Pins.cpp</text>
</a>
</g>
</g>
<!-- Node2&#45;&gt;Node3 -->
<g id="edge2" class="edge">
<title>Node2&#45;&gt;Node3</title>
<path fill="none" stroke="midnightblue" d="M309.12,-59.87C254.7,-52.38 152.08,-37.41 65.5,-20 62.78,-19.45 59.95,-18.84 57.13,-18.21"/>
<polygon fill="midnightblue" stroke="midnightblue" points="308.97,-63.38 319.35,-61.27 309.91,-56.45 308.97,-63.38"/>
</g>
<!-- Node4 -->
<g id="node4" class="node">
<title>Node4</title>
<g id="a_node4"><a xlink:href="_rotary_switch_8cpp.html" target="_top" xlink:title=" ">
<polygon fill="white" stroke="black" points="75,-0.5 75,-19.5 176,-19.5 176,-0.5 75,-0.5"/>
<text text-anchor="middle" x="125.5" y="-7.5" font-family="Helvetica,sans-Serif" font-size="10.00">RotarySwitch.cpp</text>
</a>
</g>
</g>
<!-- Node2&#45;&gt;Node4 -->
<g id="edge3" class="edge">
<title>Node2&#45;&gt;Node4</title>
<path fill="none" stroke="midnightblue" d="M309.6,-55.78C267.86,-45.63 201.31,-29.44 160.7,-19.56"/>
<polygon fill="midnightblue" stroke="midnightblue" points="308.84,-59.2 319.38,-58.16 310.49,-52.4 308.84,-59.2"/>
</g>
<!-- Node5 -->
<g id="node5" class="node">
<title>Node5</title>
<g id="a_node5"><a xlink:href="_beep_and_blink_8cpp.html" target="_top" xlink:title=" ">
<polygon fill="white" stroke="black" points="194,-0.5 194,-19.5 299,-19.5 299,-0.5 194,-0.5"/>
<text text-anchor="middle" x="246.5" y="-7.5" font-family="Helvetica,sans-Serif" font-size="10.00">BeepAndBlink.cpp</text>
</a>
</g>
</g>
<!-- Node2&#45;&gt;Node5 -->
<g id="edge4" class="edge">
<title>Node2&#45;&gt;Node5</title>
<path fill="none" stroke="midnightblue" d="M322.42,-51.59C303.74,-41.61 278.8,-28.27 262.69,-19.65"/>
<polygon fill="midnightblue" stroke="midnightblue" points="320.8,-54.7 331.27,-56.32 324.1,-48.52 320.8,-54.7"/>
</g>
<!-- Node6 -->
<g id="node6" class="node">
<title>Node6</title>
<g id="a_node6"><a xlink:href="_main_8cpp.html" target="_top" xlink:title=" ">
<polygon fill="white" stroke="black" points="317,-0.5 317,-19.5 378,-19.5 378,-0.5 317,-0.5"/>
<text text-anchor="middle" x="347.5" y="-7.5" font-family="Helvetica,sans-Serif" font-size="10.00">Main.cpp</text>
</a>
</g>
</g>
<!-- Node2&#45;&gt;Node6 -->
<g id="edge5" class="edge">
<title>Node2&#45;&gt;Node6</title>
<path fill="none" stroke="midnightblue" d="M347.5,-45.8C347.5,-36.91 347.5,-26.78 347.5,-19.75"/>
<polygon fill="midnightblue" stroke="midnightblue" points="344,-46.08 347.5,-56.08 351,-46.08 344,-46.08"/>
</g>
<!-- Node7 -->
<g id="node7" class="node">
<title>Node7</title>
<g id="a_node7"><a xlink:href="_pre_launch_stage_8cpp.html" target="_top" xlink:title=" ">
<polygon fill="white" stroke="black" points="396,-0.5 396,-19.5 511,-19.5 511,-0.5 396,-0.5"/>
<text text-anchor="middle" x="453.5" y="-7.5" font-family="Helvetica,sans-Serif" font-size="10.00">PreLaunchStage.cpp</text>
</a>
</g>
</g>
<!-- Node2&#45;&gt;Node7 -->
<g id="edge6" class="edge">
<title>Node2&#45;&gt;Node7</title>
<path fill="none" stroke="midnightblue" d="M373.56,-51.73C393.18,-41.73 419.53,-28.31 436.51,-19.65"/>
<polygon fill="midnightblue" stroke="midnightblue" points="371.85,-48.67 364.53,-56.32 375.03,-54.9 371.85,-48.67"/>
</g>
<!-- Node8 -->
<g id="node8" class="node">
<title>Node8</title>
<g id="a_node8"><a xlink:href="_accelerometer_base_8cpp.html" target="_top" xlink:title=" ">
<polygon fill="white" stroke="black" points="529.5,-0.5 529.5,-19.5 661.5,-19.5 661.5,-0.5 529.5,-0.5"/>
<text text-anchor="middle" x="595.5" y="-7.5" font-family="Helvetica,sans-Serif" font-size="10.00">AccelerometerBase.cpp</text>
</a>
</g>
</g>
<!-- Node2&#45;&gt;Node8 -->
<g id="edge7" class="edge">
<title>Node2&#45;&gt;Node8</title>
<path fill="none" stroke="midnightblue" d="M385.9,-56.64C432.25,-46.55 509.76,-29.67 556.41,-19.51"/>
<polygon fill="midnightblue" stroke="midnightblue" points="384.98,-53.26 375.95,-58.81 386.46,-60.1 384.98,-53.26"/>
</g>
<!-- Node10 -->
<g id="node10" class="node">
<title>Node10</title>
<g id="a_node10"><a xlink:href="_a_d_x_l343_8cpp.html" target="_top" xlink:title=" ">
<polygon fill="white" stroke="black" points="680,-0.5 680,-19.5 761,-19.5 761,-0.5 680,-0.5"/>
<text text-anchor="middle" x="720.5" y="-7.5" font-family="Helvetica,sans-Serif" font-size="10.00">ADXL343.cpp</text>
</a>
</g>
</g>
<!-- Node9&#45;&gt;Node10 -->
<g id="edge9" class="edge">
<title>Node9&#45;&gt;Node10</title>
<path fill="none" stroke="midnightblue" d="M716.6,-46.1C717.6,-37.14 718.74,-26.86 719.53,-19.75"/>
<polygon fill="midnightblue" stroke="midnightblue" points="713.12,-45.76 715.49,-56.08 720.07,-46.53 713.12,-45.76"/>
</g>
<!-- Node11&#45;&gt;Node8 -->
<g id="edge11" class="edge">
<title>Node11&#45;&gt;Node8</title>
<path fill="none" stroke="midnightblue" d="M595.5,-45.8C595.5,-36.91 595.5,-26.78 595.5,-19.75"/>
<polygon fill="midnightblue" stroke="midnightblue" points="592,-46.08 595.5,-56.08 599,-46.08 592,-46.08"/>
</g>
</g>
</svg>
