<?xml version="1.0" encoding="UTF-8" standalone="no"?>
<!DOCTYPE svg PUBLIC "-//W3C//DTD SVG 1.1//EN"
 "http://www.w3.org/Graphics/SVG/1.1/DTD/svg11.dtd">
<!-- Generated by graphviz version 2.43.0 (0)
 -->
<!-- Title: AccelerometerBase.cpp Pages: 1 -->
<svg width="636pt" height="196pt"
 viewBox="0.00 0.00 636.00 196.00" xmlns="http://www.w3.org/2000/svg" xmlns:xlink="http://www.w3.org/1999/xlink">
<g id="graph0" class="graph" transform="scale(1 1) rotate(0) translate(4 192)">
<title>AccelerometerBase.cpp</title>
<polygon fill="white" stroke="transparent" points="-4,4 -4,-192 632,-192 632,4 -4,4"/>
<!-- Node1 -->
<g id="node1" class="node">
<title>Node1</title>
<g id="a_node1"><a xlink:title=" ">
<polygon fill="#bfbfbf" stroke="black" points="208,-168.5 208,-187.5 340,-187.5 340,-168.5 208,-168.5"/>
<text text-anchor="middle" x="274" y="-175.5" font-family="Helvetica,sans-Serif" font-size="10.00">AccelerometerBase.cpp</text>
</a>
</g>
</g>
<!-- Node2 -->
<g id="node2" class="node">
<title>Node2</title>
<g id="a_node2"><a xlink:href="_config_8h.html" target="_top" xlink:title=" ">
<polygon fill="white" stroke="black" points="132,-112.5 132,-131.5 188,-131.5 188,-112.5 132,-112.5"/>
<text text-anchor="middle" x="160" y="-119.5" font-family="Helvetica,sans-Serif" font-size="10.00">Config.h</text>
</a>
</g>
</g>
<!-- Node1&#45;&gt;Node2 -->
<g id="edge1" class="edge">
<title>Node1&#45;&gt;Node2</title>
<path fill="none" stroke="midnightblue" d="M255.94,-168.44C237.43,-159.68 208.42,-145.94 187.14,-135.86"/>
<polygon fill="midnightblue" stroke="midnightblue" points="188.51,-132.63 177.98,-131.52 185.52,-138.96 188.51,-132.63"/>
</g>
<!-- Node7 -->
<g id="node7" class="node">
<title>Node7</title>
<g id="a_node7"><a xlink:href="_accelerometer_base_8h.html" target="_top" xlink:title=" ">
<polygon fill="white" stroke="black" points="327.5,-112.5 327.5,-131.5 448.5,-131.5 448.5,-112.5 327.5,-112.5"/>
<text text-anchor="middle" x="388" y="-119.5" font-family="Helvetica,sans-Serif" font-size="10.00">AccelerometerBase.h</text>
</a>
</g>
</g>
<!-- Node1&#45;&gt;Node7 -->
<g id="edge7" class="edge">
<title>Node1&#45;&gt;Node7</title>
<path fill="none" stroke="midnightblue" d="M292.06,-168.44C310.57,-159.68 339.58,-145.94 360.86,-135.86"/>
<polygon fill="midnightblue" stroke="midnightblue" points="362.48,-138.96 370.02,-131.52 359.49,-132.63 362.48,-138.96"/>
</g>
<!-- Node3 -->
<g id="node3" class="node">
<title>Node3</title>
<g id="a_node3"><a xlink:title=" ">
<polygon fill="white" stroke="#bfbfbf" points="0,-56.5 0,-75.5 50,-75.5 50,-56.5 0,-56.5"/>
<text text-anchor="middle" x="25" y="-63.5" font-family="Helvetica,sans-Serif" font-size="10.00">cstdint</text>
</a>
</g>
</g>
<!-- Node2&#45;&gt;Node3 -->
<g id="edge2" class="edge">
<title>Node2&#45;&gt;Node3</title>
<path fill="none" stroke="midnightblue" d="M138.61,-112.44C116.29,-103.52 81.1,-89.44 55.79,-79.32"/>
<polygon fill="midnightblue" stroke="midnightblue" points="56.88,-75.98 46.29,-75.52 54.28,-82.48 56.88,-75.98"/>
</g>
<!-- Node4 -->
<g id="node4" class="node">
<title>Node4</title>
<g id="a_node4"><a xlink:title=" ">
<polygon fill="white" stroke="#bfbfbf" points="163,-0.5 163,-19.5 211,-19.5 211,-0.5 163,-0.5"/>
<text text-anchor="middle" x="187" y="-7.5" font-family="Helvetica,sans-Serif" font-size="10.00">Wire.h</text>
</a>
</g>
</g>
<!-- Node2&#45;&gt;Node4 -->
<g id="edge3" class="edge">
<title>Node2&#45;&gt;Node4</title>
<path fill="none" stroke="midnightblue" d="M140.32,-112.43C116.89,-100.93 82.62,-79.26 97,-56 109.18,-36.3 132.89,-24.93 152.91,-18.55"/>
<polygon fill="midnightblue" stroke="midnightblue" points="154.04,-21.87 162.67,-15.73 152.1,-15.15 154.04,-21.87"/>
</g>
<!-- Node5 -->
<g id="node5" class="node">
<title>Node5</title>
<g id="a_node5"><a xlink:href="_accelerometer_config_8h.html" target="_top" xlink:title=" ">
<polygon fill="white" stroke="black" points="232,-56.5 232,-75.5 360,-75.5 360,-56.5 232,-56.5"/>
<text text-anchor="middle" x="296" y="-63.5" font-family="Helvetica,sans-Serif" font-size="10.00">AccelerometerConfig.h</text>
</a>
</g>
</g>
<!-- Node2&#45;&gt;Node5 -->
<g id="edge4" class="edge">
<title>Node2&#45;&gt;Node5</title>
<path fill="none" stroke="midnightblue" d="M181.55,-112.44C204.03,-103.52 239.49,-89.44 264.98,-79.32"/>
<polygon fill="midnightblue" stroke="midnightblue" points="266.55,-82.46 274.55,-75.52 263.97,-75.95 266.55,-82.46"/>
</g>
<!-- Node6 -->
<g id="node6" class="node">
<title>Node6</title>
<g id="a_node6"><a xlink:title=" ">
<polygon fill="white" stroke="#bfbfbf" points="106,-56.5 106,-75.5 214,-75.5 214,-56.5 106,-56.5"/>
<text text-anchor="middle" x="160" y="-63.5" font-family="Helvetica,sans-Serif" font-size="10.00">BarometerConfig.h</text>
</a>
</g>
</g>
<!-- Node2&#45;&gt;Node6 -->
<g id="edge6" class="edge">
<title>Node2&#45;&gt;Node6</title>
<path fill="none" stroke="midnightblue" d="M160,-112.08C160,-105.01 160,-94.86 160,-85.99"/>
<polygon fill="midnightblue" stroke="midnightblue" points="163.5,-85.75 160,-75.75 156.5,-85.75 163.5,-85.75"/>
</g>
<!-- Node5&#45;&gt;Node4 -->
<g id="edge5" class="edge">
<title>Node5&#45;&gt;Node4</title>
<path fill="none" stroke="midnightblue" d="M278.49,-56.32C260.93,-47.62 233.67,-34.12 213.47,-24.11"/>
<polygon fill="midnightblue" stroke="midnightblue" points="214.98,-20.96 204.47,-19.65 211.88,-27.23 214.98,-20.96"/>
</g>
<!-- Node7&#45;&gt;Node5 -->
<g id="edge12" class="edge">
<title>Node7&#45;&gt;Node5</title>
<path fill="none" stroke="midnightblue" d="M373.22,-112.32C358.73,-103.82 336.43,-90.73 319.51,-80.8"/>
<polygon fill="midnightblue" stroke="midnightblue" points="321.14,-77.7 310.74,-75.65 317.6,-83.74 321.14,-77.7"/>
</g>
<!-- Node8 -->
<g id="node8" class="node">
<title>Node8</title>
<g id="a_node8"><a xlink:title=" ">
<polygon fill="white" stroke="#bfbfbf" points="361,-0.5 361,-19.5 417,-19.5 417,-0.5 361,-0.5"/>
<text text-anchor="middle" x="389" y="-7.5" font-family="Helvetica,sans-Serif" font-size="10.00">optional</text>
</a>
</g>
</g>
<!-- Node7&#45;&gt;Node8 -->
<g id="edge8" class="edge">
<title>Node7&#45;&gt;Node8</title>
<path fill="none" stroke="midnightblue" d="M388.08,-112.37C388.24,-94.62 388.61,-53.67 388.83,-29.6"/>
<polygon fill="midnightblue" stroke="midnightblue" points="392.33,-29.62 388.92,-19.59 385.33,-29.56 392.33,-29.62"/>
</g>
<!-- Node9 -->
<g id="node9" class="node">
<title>Node9</title>
<g id="a_node9"><a xlink:href="_sensor_base_8h.html" target="_top" xlink:title=" ">
<polygon fill="white" stroke="black" points="416.5,-56.5 416.5,-75.5 499.5,-75.5 499.5,-56.5 416.5,-56.5"/>
<text text-anchor="middle" x="458" y="-63.5" font-family="Helvetica,sans-Serif" font-size="10.00">SensorBase.h</text>
</a>
</g>
</g>
<!-- Node7&#45;&gt;Node9 -->
<g id="edge9" class="edge">
<title>Node7&#45;&gt;Node9</title>
<path fill="none" stroke="midnightblue" d="M399.25,-112.32C409.8,-104.18 425.8,-91.84 438.44,-82.09"/>
<polygon fill="midnightblue" stroke="midnightblue" points="440.77,-84.71 446.55,-75.83 436.49,-79.17 440.77,-84.71"/>
</g>
<!-- Node11 -->
<g id="node11" class="node">
<title>Node11</title>
<g id="a_node11"><a xlink:href="_acceleration_data_8h.html" target="_top" xlink:title=" ">
<polygon fill="white" stroke="black" points="518,-56.5 518,-75.5 628,-75.5 628,-56.5 518,-56.5"/>
<text text-anchor="middle" x="573" y="-63.5" font-family="Helvetica,sans-Serif" font-size="10.00">AccelerationData.h</text>
</a>
</g>
</g>
<!-- Node7&#45;&gt;Node11 -->
<g id="edge13" class="edge">
<title>Node7&#45;&gt;Node11</title>
<path fill="none" stroke="midnightblue" d="M417.31,-112.44C448.84,-103.24 499.13,-88.56 533.99,-78.39"/>
<polygon fill="midnightblue" stroke="midnightblue" points="535.2,-81.68 543.82,-75.52 533.24,-74.96 535.2,-81.68"/>
</g>
<!-- Node9&#45;&gt;Node8 -->
<g id="edge10" class="edge">
<title>Node9&#45;&gt;Node8</title>
<path fill="none" stroke="midnightblue" d="M446.91,-56.32C436.51,-48.18 420.74,-35.84 408.28,-26.09"/>
<polygon fill="midnightblue" stroke="midnightblue" points="410.32,-23.24 400.29,-19.83 406.01,-28.75 410.32,-23.24"/>
</g>
<!-- Node10 -->
<g id="node10" class="node">
<title>Node10</title>
<g id="a_node10"><a xlink:title=" ">
<polygon fill="white" stroke="#bfbfbf" points="436,-0.5 436,-19.5 480,-19.5 480,-0.5 436,-0.5"/>
<text text-anchor="middle" x="458" y="-7.5" font-family="Helvetica,sans-Serif" font-size="10.00">bitset</text>
</a>
</g>
</g>
<!-- Node9&#45;&gt;Node10 -->
<g id="edge11" class="edge">
<title>Node9&#45;&gt;Node10</title>
<path fill="none" stroke="midnightblue" d="M458,-56.08C458,-49.01 458,-38.86 458,-29.99"/>
<polygon fill="midnightblue" stroke="midnightblue" points="461.5,-29.75 458,-19.75 454.5,-29.75 461.5,-29.75"/>
</g>
</g>
</svg>
