<?xml version="1.0" encoding="UTF-8" standalone="no"?>
<!DOCTYPE svg PUBLIC "-//W3C//DTD SVG 1.1//EN"
 "http://www.w3.org/Graphics/SVG/1.1/DTD/svg11.dtd">
<!-- Generated by graphviz version 2.43.0 (0)
 -->
<!-- Title: Accelerometer.cpp Pages: 1 -->
<svg width="719pt" height="196pt"
 viewBox="0.00 0.00 718.50 196.00" xmlns="http://www.w3.org/2000/svg" xmlns:xlink="http://www.w3.org/1999/xlink">
<g id="graph0" class="graph" transform="scale(1 1) rotate(0) translate(4 192)">
<title>Accelerometer.cpp</title>
<polygon fill="white" stroke="transparent" points="-4,4 -4,-192 714.5,-192 714.5,4 -4,4"/>
<!-- Node1 -->
<g id="node1" class="node">
<title>Node1</title>
<g id="a_node1"><a xlink:title=" ">
<polygon fill="#bfbfbf" stroke="black" points="93,-168.5 93,-187.5 200,-187.5 200,-168.5 93,-168.5"/>
<text text-anchor="middle" x="146.5" y="-175.5" font-family="Helvetica,sans-Serif" font-size="10.00">Accelerometer.cpp</text>
</a>
</g>
</g>
<!-- Node2 -->
<g id="node2" class="node">
<title>Node2</title>
<g id="a_node2"><a xlink:href="_config_8h.html" target="_top" xlink:title=" ">
<polygon fill="white" stroke="black" points="199.5,-112.5 199.5,-131.5 255.5,-131.5 255.5,-112.5 199.5,-112.5"/>
<text text-anchor="middle" x="227.5" y="-119.5" font-family="Helvetica,sans-Serif" font-size="10.00">Config.h</text>
</a>
</g>
</g>
<!-- Node1&#45;&gt;Node2 -->
<g id="edge1" class="edge">
<title>Node1&#45;&gt;Node2</title>
<path fill="none" stroke="midnightblue" d="M159.51,-168.32C172.03,-159.98 191.18,-147.21 205.97,-137.35"/>
<polygon fill="midnightblue" stroke="midnightblue" points="208.14,-140.11 214.52,-131.65 204.26,-134.29 208.14,-140.11"/>
</g>
<!-- Node5 -->
<g id="node5" class="node">
<title>Node5</title>
<g id="a_node5"><a xlink:title=" ">
<polygon fill="white" stroke="#bfbfbf" points="0,-56.5 0,-75.5 131,-75.5 131,-56.5 0,-56.5"/>
<text text-anchor="middle" x="65.5" y="-63.5" font-family="Helvetica,sans-Serif" font-size="10.00">WocketAccelerometer.h</text>
</a>
</g>
</g>
<!-- Node1&#45;&gt;Node5 -->
<g id="edge10" class="edge">
<title>Node1&#45;&gt;Node5</title>
<path fill="none" stroke="midnightblue" d="M140.14,-168.37C126.72,-150.14 95.27,-107.43 77.78,-83.68"/>
<polygon fill="midnightblue" stroke="midnightblue" points="80.57,-81.57 71.83,-75.59 74.94,-85.72 80.57,-81.57"/>
</g>
<!-- Node3 -->
<g id="node3" class="node">
<title>Node3</title>
<g id="a_node3"><a xlink:title=" ">
<polygon fill="white" stroke="#bfbfbf" points="149.5,-56.5 149.5,-75.5 199.5,-75.5 199.5,-56.5 149.5,-56.5"/>
<text text-anchor="middle" x="174.5" y="-63.5" font-family="Helvetica,sans-Serif" font-size="10.00">cstdint</text>
</a>
</g>
</g>
<!-- Node2&#45;&gt;Node3 -->
<g id="edge2" class="edge">
<title>Node2&#45;&gt;Node3</title>
<path fill="none" stroke="midnightblue" d="M218.75,-112.08C211.03,-104.22 199.6,-92.57 190.28,-83.08"/>
<polygon fill="midnightblue" stroke="midnightblue" points="192.59,-80.44 183.09,-75.75 187.6,-85.34 192.59,-80.44"/>
</g>
<!-- Node4 -->
<g id="node4" class="node">
<title>Node4</title>
<g id="a_node4"><a xlink:title=" ">
<polygon fill="white" stroke="#bfbfbf" points="344.5,-0.5 344.5,-19.5 392.5,-19.5 392.5,-0.5 344.5,-0.5"/>
<text text-anchor="middle" x="368.5" y="-7.5" font-family="Helvetica,sans-Serif" font-size="10.00">Wire.h</text>
</a>
</g>
</g>
<!-- Node2&#45;&gt;Node4 -->
<g id="edge3" class="edge">
<title>Node2&#45;&gt;Node4</title>
<path fill="none" stroke="midnightblue" d="M227.66,-112.22C228.38,-98.48 231.74,-71.82 246.5,-56 269.45,-31.41 307,-20.2 334.39,-15.13"/>
<polygon fill="midnightblue" stroke="midnightblue" points="335.05,-18.57 344.34,-13.47 333.9,-11.66 335.05,-18.57"/>
</g>
<!-- Node2&#45;&gt;Node5 -->
<g id="edge4" class="edge">
<title>Node2&#45;&gt;Node5</title>
<path fill="none" stroke="midnightblue" d="M201.83,-112.44C174.58,-103.36 131.32,-88.94 100.85,-78.78"/>
<polygon fill="midnightblue" stroke="midnightblue" points="101.64,-75.36 91.05,-75.52 99.43,-82 101.64,-75.36"/>
</g>
<!-- Node6 -->
<g id="node6" class="node">
<title>Node6</title>
<g id="a_node6"><a xlink:title=" ">
<polygon fill="white" stroke="#bfbfbf" points="256,-56.5 256,-75.5 419,-75.5 419,-56.5 256,-56.5"/>
<text text-anchor="middle" x="337.5" y="-63.5" font-family="Helvetica,sans-Serif" font-size="10.00">WocketAccelerometerConfig.h</text>
</a>
</g>
</g>
<!-- Node2&#45;&gt;Node6 -->
<g id="edge5" class="edge">
<title>Node2&#45;&gt;Node6</title>
<path fill="none" stroke="midnightblue" d="M245.17,-112.32C262.89,-103.62 290.4,-90.12 310.79,-80.11"/>
<polygon fill="midnightblue" stroke="midnightblue" points="312.44,-83.2 319.87,-75.65 309.35,-76.92 312.44,-83.2"/>
</g>
<!-- Node7 -->
<g id="node7" class="node">
<title>Node7</title>
<g id="a_node7"><a xlink:href="_wocket_barometer_8h.html" target="_top" xlink:title=" ">
<polygon fill="white" stroke="black" points="598.5,-56.5 598.5,-75.5 710.5,-75.5 710.5,-56.5 598.5,-56.5"/>
<text text-anchor="middle" x="654.5" y="-63.5" font-family="Helvetica,sans-Serif" font-size="10.00">WocketBarometer.h</text>
</a>
</g>
</g>
<!-- Node2&#45;&gt;Node7 -->
<g id="edge6" class="edge">
<title>Node2&#45;&gt;Node7</title>
<path fill="none" stroke="midnightblue" d="M255.68,-117.63C315.07,-110.51 457.69,-93.24 588.3,-76.14"/>
<polygon fill="midnightblue" stroke="midnightblue" points="589.03,-79.58 598.49,-74.81 588.12,-72.64 589.03,-79.58"/>
</g>
<!-- Node9 -->
<g id="node9" class="node">
<title>Node9</title>
<g id="a_node9"><a xlink:href="_wocket_barometer_config_8h.html" target="_top" xlink:title=" ">
<polygon fill="white" stroke="black" points="437,-56.5 437,-75.5 580,-75.5 580,-56.5 437,-56.5"/>
<text text-anchor="middle" x="508.5" y="-63.5" font-family="Helvetica,sans-Serif" font-size="10.00">WocketBarometerConfig.h</text>
</a>
</g>
</g>
<!-- Node2&#45;&gt;Node9 -->
<g id="edge8" class="edge">
<title>Node2&#45;&gt;Node9</title>
<path fill="none" stroke="midnightblue" d="M255.73,-115.58C302.04,-106.68 394.92,-88.83 454.28,-77.42"/>
<polygon fill="midnightblue" stroke="midnightblue" points="455.07,-80.83 464.23,-75.51 453.75,-73.96 455.07,-80.83"/>
</g>
<!-- Node8 -->
<g id="node8" class="node">
<title>Node8</title>
<g id="a_node8"><a xlink:title=" ">
<polygon fill="white" stroke="#bfbfbf" points="608,-0.5 608,-19.5 701,-19.5 701,-0.5 608,-0.5"/>
<text text-anchor="middle" x="654.5" y="-7.5" font-family="Helvetica,sans-Serif" font-size="10.00">WocketSensor.h</text>
</a>
</g>
</g>
<!-- Node7&#45;&gt;Node8 -->
<g id="edge7" class="edge">
<title>Node7&#45;&gt;Node8</title>
<path fill="none" stroke="midnightblue" d="M654.5,-56.08C654.5,-49.01 654.5,-38.86 654.5,-29.99"/>
<polygon fill="midnightblue" stroke="midnightblue" points="658,-29.75 654.5,-19.75 651,-29.75 658,-29.75"/>
</g>
<!-- Node9&#45;&gt;Node4 -->
<g id="edge9" class="edge">
<title>Node9&#45;&gt;Node4</title>
<path fill="none" stroke="midnightblue" d="M486.32,-56.44C463.07,-47.48 426.35,-33.31 400.08,-23.18"/>
<polygon fill="midnightblue" stroke="midnightblue" points="401.17,-19.85 390.58,-19.52 398.65,-26.38 401.17,-19.85"/>
</g>
</g>
</svg>
