<?xml version="1.0" encoding="UTF-8" standalone="no"?>
<!DOCTYPE svg PUBLIC "-//W3C//DTD SVG 1.1//EN"
 "http://www.w3.org/Graphics/SVG/1.1/DTD/svg11.dtd">
<!-- Generated by graphviz version 2.43.0 (0)
 -->
<!-- Title: AccelerationData.h Pages: 1 -->
<svg width="234pt" height="140pt"
 viewBox="0.00 0.00 233.50 140.00" xmlns="http://www.w3.org/2000/svg" xmlns:xlink="http://www.w3.org/1999/xlink">
<g id="graph0" class="graph" transform="scale(1 1) rotate(0) translate(4 136)">
<title>AccelerationData.h</title>
<polygon fill="white" stroke="transparent" points="-4,4 -4,-136 229.5,-136 229.5,4 -4,4"/>
<!-- Node1 -->
<g id="node1" class="node">
<title>Node1</title>
<g id="a_node1"><a xlink:title=" ">
<polygon fill="#bfbfbf" stroke="black" points="44.5,-112.5 44.5,-131.5 154.5,-131.5 154.5,-112.5 44.5,-112.5"/>
<text text-anchor="middle" x="99.5" y="-119.5" font-family="Helvetica,sans-Serif" font-size="10.00">AccelerationData.h</text>
</a>
</g>
</g>
<!-- Node2 -->
<g id="node2" class="node">
<title>Node2</title>
<g id="a_node2"><a xlink:href="_a_d_x_l343_8cpp.html" target="_top" xlink:title=" ">
<polygon fill="white" stroke="black" points="0,-56.5 0,-75.5 81,-75.5 81,-56.5 0,-56.5"/>
<text text-anchor="middle" x="40.5" y="-63.5" font-family="Helvetica,sans-Serif" font-size="10.00">ADXL343.cpp</text>
</a>
</g>
</g>
<!-- Node1&#45;&gt;Node2 -->
<g id="edge1" class="edge">
<title>Node1&#45;&gt;Node2</title>
<path fill="none" stroke="midnightblue" d="M82.61,-105.54C72.09,-95.91 58.93,-83.87 50.15,-75.83"/>
<polygon fill="midnightblue" stroke="midnightblue" points="80.28,-108.15 90.02,-112.32 85.01,-102.99 80.28,-108.15"/>
</g>
<!-- Node3 -->
<g id="node3" class="node">
<title>Node3</title>
<g id="a_node3"><a xlink:href="_accelerometer_base_8h.html" target="_top" xlink:title=" ">
<polygon fill="white" stroke="black" points="99,-56.5 99,-75.5 220,-75.5 220,-56.5 99,-56.5"/>
<text text-anchor="middle" x="159.5" y="-63.5" font-family="Helvetica,sans-Serif" font-size="10.00">AccelerometerBase.h</text>
</a>
</g>
</g>
<!-- Node1&#45;&gt;Node3 -->
<g id="edge2" class="edge">
<title>Node1&#45;&gt;Node3</title>
<path fill="none" stroke="midnightblue" d="M116.68,-105.54C127.38,-95.91 140.76,-83.87 149.68,-75.83"/>
<polygon fill="midnightblue" stroke="midnightblue" points="114.23,-103.03 109.14,-112.32 118.91,-108.24 114.23,-103.03"/>
</g>
<!-- Node4 -->
<g id="node4" class="node">
<title>Node4</title>
<g id="a_node4"><a xlink:href="_accelerometer_base_8cpp.html" target="_top" xlink:title=" ">
<polygon fill="white" stroke="black" points="93.5,-0.5 93.5,-19.5 225.5,-19.5 225.5,-0.5 93.5,-0.5"/>
<text text-anchor="middle" x="159.5" y="-7.5" font-family="Helvetica,sans-Serif" font-size="10.00">AccelerometerBase.cpp</text>
</a>
</g>
</g>
<!-- Node3&#45;&gt;Node4 -->
<g id="edge3" class="edge">
<title>Node3&#45;&gt;Node4</title>
<path fill="none" stroke="midnightblue" d="M159.5,-45.8C159.5,-36.91 159.5,-26.78 159.5,-19.75"/>
<polygon fill="midnightblue" stroke="midnightblue" points="156,-46.08 159.5,-56.08 163,-46.08 156,-46.08"/>
</g>
</g>
</svg>
