<?xml version="1.0" encoding="UTF-8" standalone="no"?>
<!DOCTYPE svg PUBLIC "-//W3C//DTD SVG 1.1//EN"
 "http://www.w3.org/Graphics/SVG/1.1/DTD/svg11.dtd">
<!-- Generated by graphviz version 2.43.0 (0)
 -->
<!-- Title: AccelerometerBase.cpp Pages: 1 -->
<svg width="510pt" height="196pt"
 viewBox="0.00 0.00 510.00 196.00" xmlns="http://www.w3.org/2000/svg" xmlns:xlink="http://www.w3.org/1999/xlink">
<g id="graph0" class="graph" transform="scale(1 1) rotate(0) translate(4 192)">
<title>AccelerometerBase.cpp</title>
<polygon fill="white" stroke="transparent" points="-4,4 -4,-192 506,-192 506,4 -4,4"/>
<!-- Node1 -->
<g id="node1" class="node">
<title>Node1</title>
<g id="a_node1"><a xlink:title=" ">
<polygon fill="#bfbfbf" stroke="black" points="104,-168.5 104,-187.5 236,-187.5 236,-168.5 104,-168.5"/>
<text text-anchor="middle" x="170" y="-175.5" font-family="Helvetica,sans-Serif" font-size="10.00">AccelerometerBase.cpp</text>
</a>
</g>
</g>
<!-- Node2 -->
<g id="node2" class="node">
<title>Node2</title>
<g id="a_node2"><a xlink:href="_config_8h.html" target="_top" xlink:title=" ">
<polygon fill="white" stroke="black" points="50,-112.5 50,-131.5 106,-131.5 106,-112.5 50,-112.5"/>
<text text-anchor="middle" x="78" y="-119.5" font-family="Helvetica,sans-Serif" font-size="10.00">Config.h</text>
</a>
</g>
</g>
<!-- Node1&#45;&gt;Node2 -->
<g id="edge1" class="edge">
<title>Node1&#45;&gt;Node2</title>
<path fill="none" stroke="midnightblue" d="M155.22,-168.32C140.73,-159.82 118.43,-146.73 101.51,-136.8"/>
<polygon fill="midnightblue" stroke="midnightblue" points="103.14,-133.7 92.74,-131.65 99.6,-139.74 103.14,-133.7"/>
</g>
<!-- Node5 -->
<g id="node5" class="node">
<title>Node5</title>
<g id="a_node5"><a xlink:href="_accelerometer_base_8h.html" target="_top" xlink:title=" ">
<polygon fill="white" stroke="black" points="201.5,-112.5 201.5,-131.5 322.5,-131.5 322.5,-112.5 201.5,-112.5"/>
<text text-anchor="middle" x="262" y="-119.5" font-family="Helvetica,sans-Serif" font-size="10.00">AccelerometerBase.h</text>
</a>
</g>
</g>
<!-- Node1&#45;&gt;Node5 -->
<g id="edge4" class="edge">
<title>Node1&#45;&gt;Node5</title>
<path fill="none" stroke="midnightblue" d="M184.78,-168.32C199.27,-159.82 221.57,-146.73 238.49,-136.8"/>
<polygon fill="midnightblue" stroke="midnightblue" points="240.4,-139.74 247.26,-131.65 236.86,-133.7 240.4,-139.74"/>
</g>
<!-- Node3 -->
<g id="node3" class="node">
<title>Node3</title>
<g id="a_node3"><a xlink:title=" ">
<polygon fill="white" stroke="#bfbfbf" points="0,-56.5 0,-75.5 50,-75.5 50,-56.5 0,-56.5"/>
<text text-anchor="middle" x="25" y="-63.5" font-family="Helvetica,sans-Serif" font-size="10.00">cstdint</text>
</a>
</g>
</g>
<!-- Node2&#45;&gt;Node3 -->
<g id="edge2" class="edge">
<title>Node2&#45;&gt;Node3</title>
<path fill="none" stroke="midnightblue" d="M69.25,-112.08C61.53,-104.22 50.1,-92.57 40.78,-83.08"/>
<polygon fill="midnightblue" stroke="midnightblue" points="43.09,-80.44 33.59,-75.75 38.1,-85.34 43.09,-80.44"/>
</g>
<!-- Node4 -->
<g id="node4" class="node">
<title>Node4</title>
<g id="a_node4"><a xlink:title=" ">
<polygon fill="white" stroke="#bfbfbf" points="100,-0.5 100,-19.5 148,-19.5 148,-0.5 100,-0.5"/>
<text text-anchor="middle" x="124" y="-7.5" font-family="Helvetica,sans-Serif" font-size="10.00">Wire.h</text>
</a>
</g>
</g>
<!-- Node2&#45;&gt;Node4 -->
<g id="edge3" class="edge">
<title>Node2&#45;&gt;Node4</title>
<path fill="none" stroke="midnightblue" d="M79.79,-112.34C82.57,-99.65 88.52,-75.39 97,-56 101.2,-46.4 107.07,-36.35 112.27,-28.18"/>
<polygon fill="midnightblue" stroke="midnightblue" points="115.34,-29.88 117.92,-19.6 109.5,-26.03 115.34,-29.88"/>
</g>
<!-- Node6 -->
<g id="node6" class="node">
<title>Node6</title>
<g id="a_node6"><a xlink:title=" ">
<polygon fill="white" stroke="#bfbfbf" points="234,-0.5 234,-19.5 290,-19.5 290,-0.5 234,-0.5"/>
<text text-anchor="middle" x="262" y="-7.5" font-family="Helvetica,sans-Serif" font-size="10.00">optional</text>
</a>
</g>
</g>
<!-- Node5&#45;&gt;Node6 -->
<g id="edge5" class="edge">
<title>Node5&#45;&gt;Node6</title>
<path fill="none" stroke="midnightblue" d="M262,-112.37C262,-94.62 262,-53.67 262,-29.6"/>
<polygon fill="midnightblue" stroke="midnightblue" points="265.5,-29.59 262,-19.59 258.5,-29.59 265.5,-29.59"/>
</g>
<!-- Node7 -->
<g id="node7" class="node">
<title>Node7</title>
<g id="a_node7"><a xlink:href="_sensor_base_8h.html" target="_top" xlink:title=" ">
<polygon fill="white" stroke="black" points="290.5,-56.5 290.5,-75.5 373.5,-75.5 373.5,-56.5 290.5,-56.5"/>
<text text-anchor="middle" x="332" y="-63.5" font-family="Helvetica,sans-Serif" font-size="10.00">SensorBase.h</text>
</a>
</g>
</g>
<!-- Node5&#45;&gt;Node7 -->
<g id="edge6" class="edge">
<title>Node5&#45;&gt;Node7</title>
<path fill="none" stroke="midnightblue" d="M273.25,-112.32C283.8,-104.18 299.8,-91.84 312.44,-82.09"/>
<polygon fill="midnightblue" stroke="midnightblue" points="314.77,-84.71 320.55,-75.83 310.49,-79.17 314.77,-84.71"/>
</g>
<!-- Node10 -->
<g id="node10" class="node">
<title>Node10</title>
<g id="a_node10"><a xlink:href="_accelerometer_config_8h.html" target="_top" xlink:title=" ">
<polygon fill="white" stroke="black" points="106,-56.5 106,-75.5 234,-75.5 234,-56.5 106,-56.5"/>
<text text-anchor="middle" x="170" y="-63.5" font-family="Helvetica,sans-Serif" font-size="10.00">AccelerometerConfig.h</text>
</a>
</g>
</g>
<!-- Node5&#45;&gt;Node10 -->
<g id="edge10" class="edge">
<title>Node5&#45;&gt;Node10</title>
<path fill="none" stroke="midnightblue" d="M247.22,-112.32C232.73,-103.82 210.43,-90.73 193.51,-80.8"/>
<polygon fill="midnightblue" stroke="midnightblue" points="195.14,-77.7 184.74,-75.65 191.6,-83.74 195.14,-77.7"/>
</g>
<!-- Node11 -->
<g id="node11" class="node">
<title>Node11</title>
<g id="a_node11"><a xlink:href="_acceleration_data_8h.html" target="_top" xlink:title=" ">
<polygon fill="white" stroke="black" points="392,-56.5 392,-75.5 502,-75.5 502,-56.5 392,-56.5"/>
<text text-anchor="middle" x="447" y="-63.5" font-family="Helvetica,sans-Serif" font-size="10.00">AccelerationData.h</text>
</a>
</g>
</g>
<!-- Node5&#45;&gt;Node11 -->
<g id="edge12" class="edge">
<title>Node5&#45;&gt;Node11</title>
<path fill="none" stroke="midnightblue" d="M291.31,-112.44C322.84,-103.24 373.13,-88.56 407.99,-78.39"/>
<polygon fill="midnightblue" stroke="midnightblue" points="409.2,-81.68 417.82,-75.52 407.24,-74.96 409.2,-81.68"/>
</g>
<!-- Node7&#45;&gt;Node6 -->
<g id="edge7" class="edge">
<title>Node7&#45;&gt;Node6</title>
<path fill="none" stroke="midnightblue" d="M320.75,-56.32C310.2,-48.18 294.2,-35.84 281.56,-26.09"/>
<polygon fill="midnightblue" stroke="midnightblue" points="283.51,-23.17 273.45,-19.83 279.23,-28.71 283.51,-23.17"/>
</g>
<!-- Node8 -->
<g id="node8" class="node">
<title>Node8</title>
<g id="a_node8"><a xlink:title=" ">
<polygon fill="white" stroke="#bfbfbf" points="309,-0.5 309,-19.5 353,-19.5 353,-0.5 309,-0.5"/>
<text text-anchor="middle" x="331" y="-7.5" font-family="Helvetica,sans-Serif" font-size="10.00">bitset</text>
</a>
</g>
</g>
<!-- Node7&#45;&gt;Node8 -->
<g id="edge8" class="edge">
<title>Node7&#45;&gt;Node8</title>
<path fill="none" stroke="midnightblue" d="M331.83,-56.08C331.7,-49.01 331.52,-38.86 331.35,-29.99"/>
<polygon fill="midnightblue" stroke="midnightblue" points="334.85,-29.68 331.16,-19.75 327.85,-29.81 334.85,-29.68"/>
</g>
<!-- Node9 -->
<g id="node9" class="node">
<title>Node9</title>
<g id="a_node9"><a xlink:href="_sensor_data_8h.html" target="_top" xlink:title=" ">
<polygon fill="white" stroke="black" points="371,-0.5 371,-19.5 453,-19.5 453,-0.5 371,-0.5"/>
<text text-anchor="middle" x="412" y="-7.5" font-family="Helvetica,sans-Serif" font-size="10.00">SensorData.h</text>
</a>
</g>
</g>
<!-- Node7&#45;&gt;Node9 -->
<g id="edge9" class="edge">
<title>Node7&#45;&gt;Node9</title>
<path fill="none" stroke="midnightblue" d="M344.85,-56.32C357.22,-47.98 376.13,-35.21 390.74,-25.35"/>
<polygon fill="midnightblue" stroke="midnightblue" points="392.85,-28.15 399.18,-19.65 388.93,-22.35 392.85,-28.15"/>
</g>
<!-- Node10&#45;&gt;Node4 -->
<g id="edge11" class="edge">
<title>Node10&#45;&gt;Node4</title>
<path fill="none" stroke="midnightblue" d="M162.4,-56.08C155.77,-48.3 145.98,-36.8 137.94,-27.37"/>
<polygon fill="midnightblue" stroke="midnightblue" points="140.6,-25.09 131.45,-19.75 135.27,-29.63 140.6,-25.09"/>
</g>
</g>
</svg>
