<?xml version="1.0" encoding="UTF-8" standalone="no"?>
<!DOCTYPE svg PUBLIC "-//W3C//DTD SVG 1.1//EN"
 "http://www.w3.org/Graphics/SVG/1.1/DTD/svg11.dtd">
<!-- Generated by graphviz version 2.43.0 (0)
 -->
<!-- Title: ArduinoBuzzer.cpp Pages: 1 -->
<svg width="172pt" height="140pt"
 viewBox="0.00 0.00 172.00 140.00" xmlns="http://www.w3.org/2000/svg" xmlns:xlink="http://www.w3.org/1999/xlink">
<g id="graph0" class="graph" transform="scale(1 1) rotate(0) translate(4 136)">
<title>ArduinoBuzzer.cpp</title>
<polygon fill="white" stroke="transparent" points="-4,4 -4,-136 168,-136 168,4 -4,4"/>
<!-- Node1 -->
<g id="node1" class="node">
<title>Node1</title>
<g id="a_node1"><a xlink:title=" ">
<polygon fill="#bfbfbf" stroke="black" points="16,-112.5 16,-131.5 123,-131.5 123,-112.5 16,-112.5"/>
<text text-anchor="middle" x="69.5" y="-119.5" font-family="Helvetica,sans-Serif" font-size="10.00">ArduinoBuzzer.cpp</text>
</a>
</g>
</g>
<!-- Node2 -->
<g id="node2" class="node">
<title>Node2</title>
<g id="a_node2"><a xlink:title=" ">
<polygon fill="white" stroke="#bfbfbf" points="0,-0.5 0,-19.5 63,-19.5 63,-0.5 0,-0.5"/>
<text text-anchor="middle" x="31.5" y="-7.5" font-family="Helvetica,sans-Serif" font-size="10.00">Arduino.h</text>
</a>
</g>
</g>
<!-- Node1&#45;&gt;Node2 -->
<g id="edge1" class="edge">
<title>Node1&#45;&gt;Node2</title>
<path fill="none" stroke="midnightblue" d="M65.84,-112.45C62.04,-103.46 56.04,-88.85 51.5,-76 46.03,-60.52 40.6,-42.68 36.78,-29.61"/>
<polygon fill="midnightblue" stroke="midnightblue" points="40.12,-28.55 33.99,-19.91 33.4,-30.48 40.12,-28.55"/>
</g>
<!-- Node3 -->
<g id="node3" class="node">
<title>Node3</title>
<g id="a_node3"><a xlink:href="_arduino_buzzer_8h.html" target="_top" xlink:title=" ">
<polygon fill="white" stroke="black" points="60,-56.5 60,-75.5 155,-75.5 155,-56.5 60,-56.5"/>
<text text-anchor="middle" x="107.5" y="-63.5" font-family="Helvetica,sans-Serif" font-size="10.00">ArduinoBuzzer.h</text>
</a>
</g>
</g>
<!-- Node1&#45;&gt;Node3 -->
<g id="edge2" class="edge">
<title>Node1&#45;&gt;Node3</title>
<path fill="none" stroke="midnightblue" d="M75.77,-112.08C81.14,-104.46 89.02,-93.26 95.58,-83.94"/>
<polygon fill="midnightblue" stroke="midnightblue" points="98.45,-85.94 101.34,-75.75 92.72,-81.91 98.45,-85.94"/>
</g>
<!-- Node3&#45;&gt;Node2 -->
<g id="edge4" class="edge">
<title>Node3&#45;&gt;Node2</title>
<path fill="none" stroke="midnightblue" d="M95.29,-56.32C83.72,-48.11 66.12,-35.6 52.34,-25.81"/>
<polygon fill="midnightblue" stroke="midnightblue" points="54.11,-22.77 43.93,-19.83 50.06,-28.48 54.11,-22.77"/>
</g>
<!-- Node4 -->
<g id="node4" class="node">
<title>Node4</title>
<g id="a_node4"><a xlink:href="_buzzer_base_8h.html" target="_top" xlink:title=" ">
<polygon fill="white" stroke="black" points="81,-0.5 81,-19.5 164,-19.5 164,-0.5 81,-0.5"/>
<text text-anchor="middle" x="122.5" y="-7.5" font-family="Helvetica,sans-Serif" font-size="10.00">BuzzerBase.h</text>
</a>
</g>
</g>
<!-- Node3&#45;&gt;Node4 -->
<g id="edge3" class="edge">
<title>Node3&#45;&gt;Node4</title>
<path fill="none" stroke="midnightblue" d="M109.98,-56.08C111.99,-48.85 114.89,-38.41 117.39,-29.4"/>
<polygon fill="midnightblue" stroke="midnightblue" points="120.76,-30.32 120.07,-19.75 114.02,-28.45 120.76,-30.32"/>
</g>
</g>
</svg>
