<?xml version="1.0" encoding="UTF-8" standalone="no"?>
<!DOCTYPE svg PUBLIC "-//W3C//DTD SVG 1.1//EN"
 "http://www.w3.org/Graphics/SVG/1.1/DTD/svg11.dtd">
<!-- Generated by graphviz version 2.43.0 (0)
 -->
<!-- Title: BarometerBase.cpp Pages: 1 -->
<svg width="222pt" height="196pt"
 viewBox="0.00 0.00 221.50 196.00" xmlns="http://www.w3.org/2000/svg" xmlns:xlink="http://www.w3.org/1999/xlink">
<g id="graph0" class="graph" transform="scale(1 1) rotate(0) translate(4 192)">
<title>BarometerBase.cpp</title>
<polygon fill="white" stroke="transparent" points="-4,4 -4,-192 217.5,-192 217.5,4 -4,4"/>
<!-- Node1 -->
<g id="node1" class="node">
<title>Node1</title>
<g id="a_node1"><a xlink:title=" ">
<polygon fill="#bfbfbf" stroke="black" points="60.5,-168.5 60.5,-187.5 173.5,-187.5 173.5,-168.5 60.5,-168.5"/>
<text text-anchor="middle" x="117" y="-175.5" font-family="Helvetica,sans-Serif" font-size="10.00">BarometerBase.cpp</text>
</a>
</g>
</g>
<!-- Node2 -->
<g id="node2" class="node">
<title>Node2</title>
<g id="a_node2"><a xlink:href="_barometer_base_8h.html" target="_top" xlink:title=" ">
<polygon fill="white" stroke="black" points="11.5,-112.5 11.5,-131.5 112.5,-131.5 112.5,-112.5 11.5,-112.5"/>
<text text-anchor="middle" x="62" y="-119.5" font-family="Helvetica,sans-Serif" font-size="10.00">BarometerBase.h</text>
</a>
</g>
</g>
<!-- Node1&#45;&gt;Node2 -->
<g id="edge1" class="edge">
<title>Node1&#45;&gt;Node2</title>
<path fill="none" stroke="midnightblue" d="M107.92,-168.08C99.83,-160.14 87.8,-148.34 78.09,-138.8"/>
<polygon fill="midnightblue" stroke="midnightblue" points="80.5,-136.26 70.91,-131.75 75.6,-141.25 80.5,-136.26"/>
</g>
<!-- Node6 -->
<g id="node6" class="node">
<title>Node6</title>
<g id="a_node6"><a xlink:title=" ">
<polygon fill="white" stroke="#bfbfbf" points="130.5,-112.5 130.5,-131.5 213.5,-131.5 213.5,-112.5 130.5,-112.5"/>
<text text-anchor="middle" x="172" y="-119.5" font-family="Helvetica,sans-Serif" font-size="10.00">../../../Config.h</text>
</a>
</g>
</g>
<!-- Node1&#45;&gt;Node6 -->
<g id="edge5" class="edge">
<title>Node1&#45;&gt;Node6</title>
<path fill="none" stroke="midnightblue" d="M126.08,-168.08C134.17,-160.14 146.2,-148.34 155.91,-138.8"/>
<polygon fill="midnightblue" stroke="midnightblue" points="158.4,-141.25 163.09,-131.75 153.5,-136.26 158.4,-141.25"/>
</g>
<!-- Node3 -->
<g id="node3" class="node">
<title>Node3</title>
<g id="a_node3"><a xlink:href="_sensor_base_8h.html" target="_top" xlink:title=" ">
<polygon fill="white" stroke="black" points="20.5,-56.5 20.5,-75.5 103.5,-75.5 103.5,-56.5 20.5,-56.5"/>
<text text-anchor="middle" x="62" y="-63.5" font-family="Helvetica,sans-Serif" font-size="10.00">SensorBase.h</text>
</a>
</g>
</g>
<!-- Node2&#45;&gt;Node3 -->
<g id="edge2" class="edge">
<title>Node2&#45;&gt;Node3</title>
<path fill="none" stroke="midnightblue" d="M62,-112.08C62,-105.01 62,-94.86 62,-85.99"/>
<polygon fill="midnightblue" stroke="midnightblue" points="65.5,-85.75 62,-75.75 58.5,-85.75 65.5,-85.75"/>
</g>
<!-- Node4 -->
<g id="node4" class="node">
<title>Node4</title>
<g id="a_node4"><a xlink:title=" ">
<polygon fill="white" stroke="#bfbfbf" points="0,-0.5 0,-19.5 56,-19.5 56,-0.5 0,-0.5"/>
<text text-anchor="middle" x="28" y="-7.5" font-family="Helvetica,sans-Serif" font-size="10.00">optional</text>
</a>
</g>
</g>
<!-- Node3&#45;&gt;Node4 -->
<g id="edge3" class="edge">
<title>Node3&#45;&gt;Node4</title>
<path fill="none" stroke="midnightblue" d="M56.39,-56.08C51.63,-48.53 44.68,-37.49 38.85,-28.23"/>
<polygon fill="midnightblue" stroke="midnightblue" points="41.8,-26.35 33.51,-19.75 35.88,-30.08 41.8,-26.35"/>
</g>
<!-- Node5 -->
<g id="node5" class="node">
<title>Node5</title>
<g id="a_node5"><a xlink:title=" ">
<polygon fill="white" stroke="#bfbfbf" points="74,-0.5 74,-19.5 118,-19.5 118,-0.5 74,-0.5"/>
<text text-anchor="middle" x="96" y="-7.5" font-family="Helvetica,sans-Serif" font-size="10.00">bitset</text>
</a>
</g>
</g>
<!-- Node3&#45;&gt;Node5 -->
<g id="edge4" class="edge">
<title>Node3&#45;&gt;Node5</title>
<path fill="none" stroke="midnightblue" d="M67.61,-56.08C72.37,-48.53 79.32,-37.49 85.15,-28.23"/>
<polygon fill="midnightblue" stroke="midnightblue" points="88.12,-30.08 90.49,-19.75 82.2,-26.35 88.12,-30.08"/>
</g>
</g>
</svg>
