<?xml version="1.0" encoding="UTF-8" standalone="no"?>
<!DOCTYPE svg PUBLIC "-//W3C//DTD SVG 1.1//EN"
 "http://www.w3.org/Graphics/SVG/1.1/DTD/svg11.dtd">
<!-- Generated by graphviz version 2.43.0 (0)
 -->
<!-- Title: BeepAndBlink.cpp Pages: 1 -->
<svg width="612pt" height="196pt"
 viewBox="0.00 0.00 611.50 196.00" xmlns="http://www.w3.org/2000/svg" xmlns:xlink="http://www.w3.org/1999/xlink">
<g id="graph0" class="graph" transform="scale(1 1) rotate(0) translate(4 192)">
<title>BeepAndBlink.cpp</title>
<polygon fill="white" stroke="transparent" points="-4,4 -4,-192 607.5,-192 607.5,4 -4,4"/>
<!-- Node1 -->
<g id="node1" class="node">
<title>Node1</title>
<g id="a_node1"><a xlink:title=" ">
<polygon fill="#bfbfbf" stroke="black" points="221.5,-168.5 221.5,-187.5 326.5,-187.5 326.5,-168.5 221.5,-168.5"/>
<text text-anchor="middle" x="274" y="-175.5" font-family="Helvetica,sans-Serif" font-size="10.00">BeepAndBlink.cpp</text>
</a>
</g>
</g>
<!-- Node2 -->
<g id="node2" class="node">
<title>Node2</title>
<g id="a_node2"><a xlink:title=" ">
<polygon fill="white" stroke="#bfbfbf" points="14.5,-112.5 14.5,-131.5 77.5,-131.5 77.5,-112.5 14.5,-112.5"/>
<text text-anchor="middle" x="46" y="-119.5" font-family="Helvetica,sans-Serif" font-size="10.00">Arduino.h</text>
</a>
</g>
</g>
<!-- Node1&#45;&gt;Node2 -->
<g id="edge1" class="edge">
<title>Node1&#45;&gt;Node2</title>
<path fill="none" stroke="midnightblue" d="M237.87,-168.44C196.95,-158.75 130.4,-142.99 87.41,-132.81"/>
<polygon fill="midnightblue" stroke="midnightblue" points="88.09,-129.37 77.55,-130.47 86.48,-136.18 88.09,-129.37"/>
</g>
<!-- Node3 -->
<g id="node3" class="node">
<title>Node3</title>
<g id="a_node3"><a xlink:href="_config_8h.html" target="_top" xlink:title=" ">
<polygon fill="white" stroke="black" points="96,-112.5 96,-131.5 152,-131.5 152,-112.5 96,-112.5"/>
<text text-anchor="middle" x="124" y="-119.5" font-family="Helvetica,sans-Serif" font-size="10.00">Config.h</text>
</a>
</g>
</g>
<!-- Node1&#45;&gt;Node3 -->
<g id="edge2" class="edge">
<title>Node1&#45;&gt;Node3</title>
<path fill="none" stroke="midnightblue" d="M250.23,-168.44C225.11,-159.4 185.29,-145.06 157.1,-134.92"/>
<polygon fill="midnightblue" stroke="midnightblue" points="158.25,-131.61 147.66,-131.52 155.88,-138.2 158.25,-131.61"/>
</g>
<!-- Node8 -->
<g id="node8" class="node">
<title>Node8</title>
<g id="a_node8"><a xlink:href="_beep_and_blink_8h.html" target="_top" xlink:title=" ">
<polygon fill="white" stroke="black" points="170,-112.5 170,-131.5 264,-131.5 264,-112.5 170,-112.5"/>
<text text-anchor="middle" x="217" y="-119.5" font-family="Helvetica,sans-Serif" font-size="10.00">BeepAndBlink.h</text>
</a>
</g>
</g>
<!-- Node1&#45;&gt;Node8 -->
<g id="edge8" class="edge">
<title>Node1&#45;&gt;Node8</title>
<path fill="none" stroke="midnightblue" d="M264.84,-168.32C256.5,-160.42 243.97,-148.55 233.82,-138.94"/>
<polygon fill="midnightblue" stroke="midnightblue" points="235.99,-136.17 226.32,-131.83 231.18,-141.25 235.99,-136.17"/>
</g>
<!-- Node9 -->
<g id="node9" class="node">
<title>Node9</title>
<g id="a_node9"><a xlink:title=" ">
<polygon fill="white" stroke="#bfbfbf" points="282,-112.5 282,-131.5 382,-131.5 382,-112.5 282,-112.5"/>
<text text-anchor="middle" x="332" y="-119.5" font-family="Helvetica,sans-Serif" font-size="10.00">Hardware/LEDs.h</text>
</a>
</g>
</g>
<!-- Node1&#45;&gt;Node9 -->
<g id="edge9" class="edge">
<title>Node1&#45;&gt;Node9</title>
<path fill="none" stroke="midnightblue" d="M283.32,-168.32C291.89,-160.34 304.81,-148.31 315.19,-138.65"/>
<polygon fill="midnightblue" stroke="midnightblue" points="317.58,-141.21 322.51,-131.83 312.81,-136.09 317.58,-141.21"/>
</g>
<!-- Node10 -->
<g id="node10" class="node">
<title>Node10</title>
<g id="a_node10"><a xlink:title=" ">
<polygon fill="white" stroke="#bfbfbf" points="400,-112.5 400,-131.5 534,-131.5 534,-112.5 400,-112.5"/>
<text text-anchor="middle" x="467" y="-119.5" font-family="Helvetica,sans-Serif" font-size="10.00">Hardware/PiezoBuzzer.h</text>
</a>
</g>
</g>
<!-- Node1&#45;&gt;Node10 -->
<g id="edge10" class="edge">
<title>Node1&#45;&gt;Node10</title>
<path fill="none" stroke="midnightblue" d="M304.58,-168.44C337.61,-159.2 390.39,-144.44 426.77,-134.26"/>
<polygon fill="midnightblue" stroke="midnightblue" points="427.87,-137.58 436.56,-131.52 425.99,-130.84 427.87,-137.58"/>
</g>
<!-- Node11 -->
<g id="node11" class="node">
<title>Node11</title>
<g id="a_node11"><a xlink:href="_state_8h.html" target="_top" xlink:title=" ">
<polygon fill="white" stroke="black" points="552.5,-112.5 552.5,-131.5 603.5,-131.5 603.5,-112.5 552.5,-112.5"/>
<text text-anchor="middle" x="578" y="-119.5" font-family="Helvetica,sans-Serif" font-size="10.00">State.h</text>
</a>
</g>
</g>
<!-- Node1&#45;&gt;Node11 -->
<g id="edge11" class="edge">
<title>Node1&#45;&gt;Node11</title>
<path fill="none" stroke="midnightblue" d="M326.57,-169.57C378.86,-161.88 461.53,-148.89 542.57,-131.93"/>
<polygon fill="midnightblue" stroke="midnightblue" points="543.39,-135.33 552.45,-129.84 541.94,-128.49 543.39,-135.33"/>
</g>
<!-- Node4 -->
<g id="node4" class="node">
<title>Node4</title>
<g id="a_node4"><a xlink:title=" ">
<polygon fill="white" stroke="#bfbfbf" points="0,-56.5 0,-75.5 50,-75.5 50,-56.5 0,-56.5"/>
<text text-anchor="middle" x="25" y="-63.5" font-family="Helvetica,sans-Serif" font-size="10.00">cstdint</text>
</a>
</g>
</g>
<!-- Node3&#45;&gt;Node4 -->
<g id="edge3" class="edge">
<title>Node3&#45;&gt;Node4</title>
<path fill="none" stroke="midnightblue" d="M108.09,-112.32C92.36,-103.74 68.06,-90.49 49.79,-80.52"/>
<polygon fill="midnightblue" stroke="midnightblue" points="51.32,-77.37 40.87,-75.65 47.97,-83.52 51.32,-77.37"/>
</g>
<!-- Node5 -->
<g id="node5" class="node">
<title>Node5</title>
<g id="a_node5"><a xlink:title=" ">
<polygon fill="white" stroke="#bfbfbf" points="100,-0.5 100,-19.5 148,-19.5 148,-0.5 100,-0.5"/>
<text text-anchor="middle" x="124" y="-7.5" font-family="Helvetica,sans-Serif" font-size="10.00">Wire.h</text>
</a>
</g>
</g>
<!-- Node3&#45;&gt;Node5 -->
<g id="edge4" class="edge">
<title>Node3&#45;&gt;Node5</title>
<path fill="none" stroke="midnightblue" d="M116.39,-112.41C106.52,-100.2 91.19,-76.96 97,-56 99.79,-45.92 105.51,-35.83 110.97,-27.77"/>
<polygon fill="midnightblue" stroke="midnightblue" points="113.82,-29.79 116.85,-19.64 108.15,-25.69 113.82,-29.79"/>
</g>
<!-- Node6 -->
<g id="node6" class="node">
<title>Node6</title>
<g id="a_node6"><a xlink:href="_accelerometer_config_8h.html" target="_top" xlink:title=" ">
<polygon fill="white" stroke="black" points="106,-56.5 106,-75.5 234,-75.5 234,-56.5 106,-56.5"/>
<text text-anchor="middle" x="170" y="-63.5" font-family="Helvetica,sans-Serif" font-size="10.00">AccelerometerConfig.h</text>
</a>
</g>
</g>
<!-- Node3&#45;&gt;Node6 -->
<g id="edge5" class="edge">
<title>Node3&#45;&gt;Node6</title>
<path fill="none" stroke="midnightblue" d="M131.6,-112.08C138.23,-104.3 148.02,-92.8 156.06,-83.37"/>
<polygon fill="midnightblue" stroke="midnightblue" points="158.73,-85.63 162.55,-75.75 153.4,-81.09 158.73,-85.63"/>
</g>
<!-- Node7 -->
<g id="node7" class="node">
<title>Node7</title>
<g id="a_node7"><a xlink:title=" ">
<polygon fill="white" stroke="#bfbfbf" points="252,-56.5 252,-75.5 360,-75.5 360,-56.5 252,-56.5"/>
<text text-anchor="middle" x="306" y="-63.5" font-family="Helvetica,sans-Serif" font-size="10.00">BarometerConfig.h</text>
</a>
</g>
</g>
<!-- Node3&#45;&gt;Node7 -->
<g id="edge7" class="edge">
<title>Node3&#45;&gt;Node7</title>
<path fill="none" stroke="midnightblue" d="M152.04,-112.68C182.99,-103.5 232.99,-88.66 267.57,-78.4"/>
<polygon fill="midnightblue" stroke="midnightblue" points="268.74,-81.71 277.33,-75.51 266.75,-75 268.74,-81.71"/>
</g>
<!-- Node6&#45;&gt;Node5 -->
<g id="edge6" class="edge">
<title>Node6&#45;&gt;Node5</title>
<path fill="none" stroke="midnightblue" d="M162.4,-56.08C155.77,-48.3 145.98,-36.8 137.94,-27.37"/>
<polygon fill="midnightblue" stroke="midnightblue" points="140.6,-25.09 131.45,-19.75 135.27,-29.63 140.6,-25.09"/>
</g>
</g>
</svg>
