<?xml version="1.0" encoding="UTF-8" standalone="no"?>
<!DOCTYPE svg PUBLIC "-//W3C//DTD SVG 1.1//EN"
 "http://www.w3.org/Graphics/SVG/1.1/DTD/svg11.dtd">
<!-- Generated by graphviz version 2.43.0 (0)
 -->
<!-- Title: BeepAndBlink.cpp Pages: 1 -->
<svg width="528pt" height="140pt"
 viewBox="0.00 0.00 527.50 140.00" xmlns="http://www.w3.org/2000/svg" xmlns:xlink="http://www.w3.org/1999/xlink">
<g id="graph0" class="graph" transform="scale(1 1) rotate(0) translate(4 136)">
<title>BeepAndBlink.cpp</title>
<polygon fill="white" stroke="transparent" points="-4,4 -4,-136 523.5,-136 523.5,4 -4,4"/>
<!-- Node1 -->
<g id="node1" class="node">
<title>Node1</title>
<g id="a_node1"><a xlink:title=" ">
<polygon fill="#bfbfbf" stroke="black" points="150,-112.5 150,-131.5 255,-131.5 255,-112.5 150,-112.5"/>
<text text-anchor="middle" x="202.5" y="-119.5" font-family="Helvetica,sans-Serif" font-size="10.00">BeepAndBlink.cpp</text>
</a>
</g>
</g>
<!-- Node2 -->
<g id="node2" class="node">
<title>Node2</title>
<g id="a_node2"><a xlink:title=" ">
<polygon fill="white" stroke="#bfbfbf" points="0,-56.5 0,-75.5 63,-75.5 63,-56.5 0,-56.5"/>
<text text-anchor="middle" x="31.5" y="-63.5" font-family="Helvetica,sans-Serif" font-size="10.00">Arduino.h</text>
</a>
</g>
</g>
<!-- Node1&#45;&gt;Node2 -->
<g id="edge1" class="edge">
<title>Node1&#45;&gt;Node2</title>
<path fill="none" stroke="midnightblue" d="M175.4,-112.44C146.51,-103.32 100.58,-88.81 68.39,-78.65"/>
<polygon fill="midnightblue" stroke="midnightblue" points="69.06,-75.19 58.47,-75.52 66.95,-81.87 69.06,-75.19"/>
</g>
<!-- Node3 -->
<g id="node3" class="node">
<title>Node3</title>
<g id="a_node3"><a xlink:href="_config_8h.html" target="_top" xlink:title=" ">
<polygon fill="white" stroke="black" points="81.5,-56.5 81.5,-75.5 137.5,-75.5 137.5,-56.5 81.5,-56.5"/>
<text text-anchor="middle" x="109.5" y="-63.5" font-family="Helvetica,sans-Serif" font-size="10.00">Config.h</text>
</a>
</g>
</g>
<!-- Node1&#45;&gt;Node3 -->
<g id="edge2" class="edge">
<title>Node1&#45;&gt;Node3</title>
<path fill="none" stroke="midnightblue" d="M187.56,-112.32C172.91,-103.82 150.37,-90.73 133.26,-80.8"/>
<polygon fill="midnightblue" stroke="midnightblue" points="134.81,-77.65 124.4,-75.65 131.3,-83.7 134.81,-77.65"/>
</g>
<!-- Node6 -->
<g id="node6" class="node">
<title>Node6</title>
<g id="a_node6"><a xlink:href="_beep_and_blink_8h.html" target="_top" xlink:title=" ">
<polygon fill="white" stroke="black" points="155.5,-56.5 155.5,-75.5 249.5,-75.5 249.5,-56.5 155.5,-56.5"/>
<text text-anchor="middle" x="202.5" y="-63.5" font-family="Helvetica,sans-Serif" font-size="10.00">BeepAndBlink.h</text>
</a>
</g>
</g>
<!-- Node1&#45;&gt;Node6 -->
<g id="edge5" class="edge">
<title>Node1&#45;&gt;Node6</title>
<path fill="none" stroke="midnightblue" d="M202.5,-112.08C202.5,-105.01 202.5,-94.86 202.5,-85.99"/>
<polygon fill="midnightblue" stroke="midnightblue" points="206,-85.75 202.5,-75.75 199,-85.75 206,-85.75"/>
</g>
<!-- Node7 -->
<g id="node7" class="node">
<title>Node7</title>
<g id="a_node7"><a xlink:href="_l_e_ds_8h.html" target="_top" xlink:title=" ">
<polygon fill="white" stroke="black" points="267.5,-56.5 267.5,-75.5 367.5,-75.5 367.5,-56.5 267.5,-56.5"/>
<text text-anchor="middle" x="317.5" y="-63.5" font-family="Helvetica,sans-Serif" font-size="10.00">Hardware/LEDs.h</text>
</a>
</g>
</g>
<!-- Node1&#45;&gt;Node7 -->
<g id="edge6" class="edge">
<title>Node1&#45;&gt;Node7</title>
<path fill="none" stroke="midnightblue" d="M220.72,-112.44C239.4,-103.68 268.66,-89.94 290.12,-79.86"/>
<polygon fill="midnightblue" stroke="midnightblue" points="291.8,-82.93 299.36,-75.52 288.82,-76.6 291.8,-82.93"/>
</g>
<!-- Node8 -->
<g id="node8" class="node">
<title>Node8</title>
<g id="a_node8"><a xlink:title=" ">
<polygon fill="white" stroke="#bfbfbf" points="385.5,-56.5 385.5,-75.5 519.5,-75.5 519.5,-56.5 385.5,-56.5"/>
<text text-anchor="middle" x="452.5" y="-63.5" font-family="Helvetica,sans-Serif" font-size="10.00">Hardware/PiezoBuzzer.h</text>
</a>
</g>
</g>
<!-- Node1&#45;&gt;Node8 -->
<g id="edge7" class="edge">
<title>Node1&#45;&gt;Node8</title>
<path fill="none" stroke="midnightblue" d="M242.11,-112.44C285.73,-103.02 355.9,-87.87 403.08,-77.68"/>
<polygon fill="midnightblue" stroke="midnightblue" points="404.04,-81.05 413.07,-75.52 402.56,-74.21 404.04,-81.05"/>
</g>
<!-- Node4 -->
<g id="node4" class="node">
<title>Node4</title>
<g id="a_node4"><a xlink:title=" ">
<polygon fill="white" stroke="#bfbfbf" points="50.5,-0.5 50.5,-19.5 100.5,-19.5 100.5,-0.5 50.5,-0.5"/>
<text text-anchor="middle" x="75.5" y="-7.5" font-family="Helvetica,sans-Serif" font-size="10.00">cstdint</text>
</a>
</g>
</g>
<!-- Node3&#45;&gt;Node4 -->
<g id="edge3" class="edge">
<title>Node3&#45;&gt;Node4</title>
<path fill="none" stroke="midnightblue" d="M103.89,-56.08C99.13,-48.53 92.18,-37.49 86.35,-28.23"/>
<polygon fill="midnightblue" stroke="midnightblue" points="89.3,-26.35 81.01,-19.75 83.38,-30.08 89.3,-26.35"/>
</g>
<!-- Node5 -->
<g id="node5" class="node">
<title>Node5</title>
<g id="a_node5"><a xlink:title=" ">
<polygon fill="white" stroke="#bfbfbf" points="118.5,-0.5 118.5,-19.5 166.5,-19.5 166.5,-0.5 118.5,-0.5"/>
<text text-anchor="middle" x="142.5" y="-7.5" font-family="Helvetica,sans-Serif" font-size="10.00">Wire.h</text>
</a>
</g>
</g>
<!-- Node3&#45;&gt;Node5 -->
<g id="edge4" class="edge">
<title>Node3&#45;&gt;Node5</title>
<path fill="none" stroke="midnightblue" d="M114.95,-56.08C119.51,-48.61 126.17,-37.72 131.79,-28.52"/>
<polygon fill="midnightblue" stroke="midnightblue" points="134.92,-30.11 137.15,-19.75 128.95,-26.46 134.92,-30.11"/>
</g>
</g>
</svg>
