<?xml version="1.0" encoding="UTF-8" standalone="no"?>
<!DOCTYPE svg PUBLIC "-//W3C//DTD SVG 1.1//EN"
 "http://www.w3.org/Graphics/SVG/1.1/DTD/svg11.dtd">
<!-- Generated by graphviz version 2.43.0 (0)
 -->
<!-- Title: BuzzerBase.h Pages: 1 -->
<svg width="220pt" height="140pt"
 viewBox="0.00 0.00 219.50 140.00" xmlns="http://www.w3.org/2000/svg" xmlns:xlink="http://www.w3.org/1999/xlink">
<g id="graph0" class="graph" transform="scale(1 1) rotate(0) translate(4 136)">
<title>BuzzerBase.h</title>
<polygon fill="white" stroke="transparent" points="-4,4 -4,-136 215.5,-136 215.5,4 -4,4"/>
<!-- Node1 -->
<g id="node1" class="node">
<title>Node1</title>
<g id="a_node1"><a xlink:title=" ">
<polygon fill="#bfbfbf" stroke="black" points="60.5,-112.5 60.5,-131.5 143.5,-131.5 143.5,-112.5 60.5,-112.5"/>
<text text-anchor="middle" x="102" y="-119.5" font-family="Helvetica,sans-Serif" font-size="10.00">BuzzerBase.h</text>
</a>
</g>
</g>
<!-- Node2 -->
<g id="node2" class="node">
<title>Node2</title>
<g id="a_node2"><a xlink:href="_buzzer_factory_8h.html" target="_top" xlink:title=" ">
<polygon fill="white" stroke="black" points="0,-56.5 0,-75.5 92,-75.5 92,-56.5 0,-56.5"/>
<text text-anchor="middle" x="46" y="-63.5" font-family="Helvetica,sans-Serif" font-size="10.00">BuzzerFactory.h</text>
</a>
</g>
</g>
<!-- Node1&#45;&gt;Node2 -->
<g id="edge1" class="edge">
<title>Node1&#45;&gt;Node2</title>
<path fill="none" stroke="midnightblue" d="M85.67,-105.25C75.74,-95.67 63.41,-83.79 55.16,-75.83"/>
<polygon fill="midnightblue" stroke="midnightblue" points="83.37,-107.9 93,-112.32 88.23,-102.86 83.37,-107.9"/>
</g>
<!-- Node3 -->
<g id="node3" class="node">
<title>Node3</title>
<g id="a_node3"><a xlink:href="_arduino_buzzer_8h.html" target="_top" xlink:title=" ">
<polygon fill="white" stroke="black" points="110.5,-56.5 110.5,-75.5 205.5,-75.5 205.5,-56.5 110.5,-56.5"/>
<text text-anchor="middle" x="158" y="-63.5" font-family="Helvetica,sans-Serif" font-size="10.00">ArduinoBuzzer.h</text>
</a>
</g>
</g>
<!-- Node1&#45;&gt;Node3 -->
<g id="edge2" class="edge">
<title>Node1&#45;&gt;Node3</title>
<path fill="none" stroke="midnightblue" d="M118.33,-105.25C128.26,-95.67 140.59,-83.79 148.84,-75.83"/>
<polygon fill="midnightblue" stroke="midnightblue" points="115.77,-102.86 111,-112.32 120.63,-107.9 115.77,-102.86"/>
</g>
<!-- Node4 -->
<g id="node4" class="node">
<title>Node4</title>
<g id="a_node4"><a xlink:href="_arduino_buzzer_8cpp.html" target="_top" xlink:title=" ">
<polygon fill="white" stroke="black" points="104.5,-0.5 104.5,-19.5 211.5,-19.5 211.5,-0.5 104.5,-0.5"/>
<text text-anchor="middle" x="158" y="-7.5" font-family="Helvetica,sans-Serif" font-size="10.00">ArduinoBuzzer.cpp</text>
</a>
</g>
</g>
<!-- Node3&#45;&gt;Node4 -->
<g id="edge3" class="edge">
<title>Node3&#45;&gt;Node4</title>
<path fill="none" stroke="midnightblue" d="M158,-45.8C158,-36.91 158,-26.78 158,-19.75"/>
<polygon fill="midnightblue" stroke="midnightblue" points="154.5,-46.08 158,-56.08 161.5,-46.08 154.5,-46.08"/>
</g>
</g>
</svg>
