<?xml version="1.0" encoding="UTF-8" standalone="no"?>
<!DOCTYPE svg PUBLIC "-//W3C//DTD SVG 1.1//EN"
 "http://www.w3.org/Graphics/SVG/1.1/DTD/svg11.dtd">
<!-- Generated by graphviz version 2.43.0 (0)
 -->
<!-- Title: BuzzerFactory.h Pages: 1 -->
<svg width="160pt" height="84pt"
 viewBox="0.00 0.00 159.50 84.00" xmlns="http://www.w3.org/2000/svg" xmlns:xlink="http://www.w3.org/1999/xlink">
<g id="graph0" class="graph" transform="scale(1 1) rotate(0) translate(4 80)">
<title>BuzzerFactory.h</title>
<polygon fill="white" stroke="transparent" points="-4,4 -4,-80 155.5,-80 155.5,4 -4,4"/>
<!-- Node1 -->
<g id="node1" class="node">
<title>Node1</title>
<g id="a_node1"><a xlink:title=" ">
<polygon fill="#bfbfbf" stroke="black" points="21,-56.5 21,-75.5 113,-75.5 113,-56.5 21,-56.5"/>
<text text-anchor="middle" x="67" y="-63.5" font-family="Helvetica,sans-Serif" font-size="10.00">BuzzerFactory.h</text>
</a>
</g>
</g>
<!-- Node2 -->
<g id="node2" class="node">
<title>Node2</title>
<g id="a_node2"><a xlink:title=" ">
<polygon fill="white" stroke="#bfbfbf" points="0,-0.5 0,-19.5 50,-19.5 50,-0.5 0,-0.5"/>
<text text-anchor="middle" x="25" y="-7.5" font-family="Helvetica,sans-Serif" font-size="10.00">cstdint</text>
</a>
</g>
</g>
<!-- Node1&#45;&gt;Node2 -->
<g id="edge1" class="edge">
<title>Node1&#45;&gt;Node2</title>
<path fill="none" stroke="midnightblue" d="M60.06,-56.08C54.07,-48.38 45.25,-37.03 37.95,-27.65"/>
<polygon fill="midnightblue" stroke="midnightblue" points="40.71,-25.5 31.81,-19.75 35.18,-29.79 40.71,-25.5"/>
</g>
<!-- Node3 -->
<g id="node3" class="node">
<title>Node3</title>
<g id="a_node3"><a xlink:href="_buzzer_base_8h.html" target="_top" xlink:title=" ">
<polygon fill="white" stroke="black" points="68.5,-0.5 68.5,-19.5 151.5,-19.5 151.5,-0.5 68.5,-0.5"/>
<text text-anchor="middle" x="110" y="-7.5" font-family="Helvetica,sans-Serif" font-size="10.00">BuzzerBase.h</text>
</a>
</g>
</g>
<!-- Node1&#45;&gt;Node3 -->
<g id="edge2" class="edge">
<title>Node1&#45;&gt;Node3</title>
<path fill="none" stroke="midnightblue" d="M74.1,-56.08C80.24,-48.38 89.27,-37.03 96.74,-27.65"/>
<polygon fill="midnightblue" stroke="midnightblue" points="99.54,-29.75 103.03,-19.75 94.06,-25.39 99.54,-29.75"/>
</g>
</g>
</svg>
