<?xml version="1.0" encoding="UTF-8" standalone="no"?>
<!DOCTYPE svg PUBLIC "-//W3C//DTD SVG 1.1//EN"
 "http://www.w3.org/Graphics/SVG/1.1/DTD/svg11.dtd">
<!-- Generated by graphviz version 2.43.0 (0)
 -->
<!-- Title: Config.h Pages: 1 -->
<svg width="670pt" height="84pt"
 viewBox="0.00 0.00 669.50 84.00" xmlns="http://www.w3.org/2000/svg" xmlns:xlink="http://www.w3.org/1999/xlink">
<g id="graph0" class="graph" transform="scale(1 1) rotate(0) translate(4 80)">
<title>Config.h</title>
<polygon fill="white" stroke="transparent" points="-4,4 -4,-80 665.5,-80 665.5,4 -4,4"/>
<!-- Node1 -->
<g id="node1" class="node">
<title>Node1</title>
<g id="a_node1"><a xlink:title=" ">
<polygon fill="#bfbfbf" stroke="black" points="268.5,-56.5 268.5,-75.5 324.5,-75.5 324.5,-56.5 268.5,-56.5"/>
<text text-anchor="middle" x="296.5" y="-63.5" font-family="Helvetica,sans-Serif" font-size="10.00">Config.h</text>
</a>
</g>
</g>
<!-- Node2 -->
<g id="node2" class="node">
<title>Node2</title>
<g id="a_node2"><a xlink:href="_pins_8cpp.html" target="_top" xlink:title=" ">
<polygon fill="white" stroke="black" points="0,-0.5 0,-19.5 57,-19.5 57,-0.5 0,-0.5"/>
<text text-anchor="middle" x="28.5" y="-7.5" font-family="Helvetica,sans-Serif" font-size="10.00">Pins.cpp</text>
</a>
</g>
</g>
<!-- Node1&#45;&gt;Node2 -->
<g id="edge1" class="edge">
<title>Node1&#45;&gt;Node2</title>
<path fill="none" stroke="midnightblue" d="M258.22,-58.1C212.31,-49.7 133.08,-34.79 65.5,-20 62.79,-19.41 59.97,-18.77 57.15,-18.11"/>
<polygon fill="midnightblue" stroke="midnightblue" points="257.86,-61.59 268.32,-59.94 259.11,-54.71 257.86,-61.59"/>
</g>
<!-- Node3 -->
<g id="node3" class="node">
<title>Node3</title>
<g id="a_node3"><a xlink:href="_rotary_switch_8cpp.html" target="_top" xlink:title=" ">
<polygon fill="white" stroke="black" points="75,-0.5 75,-19.5 176,-19.5 176,-0.5 75,-0.5"/>
<text text-anchor="middle" x="125.5" y="-7.5" font-family="Helvetica,sans-Serif" font-size="10.00">RotarySwitch.cpp</text>
</a>
</g>
</g>
<!-- Node1&#45;&gt;Node3 -->
<g id="edge2" class="edge">
<title>Node1&#45;&gt;Node3</title>
<path fill="none" stroke="midnightblue" d="M259.46,-53.3C227.24,-43.13 181.31,-28.62 152.47,-19.52"/>
<polygon fill="midnightblue" stroke="midnightblue" points="258.81,-56.77 269.4,-56.44 260.92,-50.09 258.81,-56.77"/>
</g>
<!-- Node4 -->
<g id="node4" class="node">
<title>Node4</title>
<g id="a_node4"><a xlink:href="_beep_and_blink_8cpp.html" target="_top" xlink:title=" ">
<polygon fill="white" stroke="black" points="194,-0.5 194,-19.5 299,-19.5 299,-0.5 194,-0.5"/>
<text text-anchor="middle" x="246.5" y="-7.5" font-family="Helvetica,sans-Serif" font-size="10.00">BeepAndBlink.cpp</text>
</a>
</g>
</g>
<!-- Node1&#45;&gt;Node4 -->
<g id="edge3" class="edge">
<title>Node1&#45;&gt;Node4</title>
<path fill="none" stroke="midnightblue" d="M281.42,-48.72C272.61,-39.2 261.83,-27.56 254.6,-19.75"/>
<polygon fill="midnightblue" stroke="midnightblue" points="278.88,-51.12 288.24,-56.08 284.02,-46.37 278.88,-51.12"/>
</g>
<!-- Node5 -->
<g id="node5" class="node">
<title>Node5</title>
<g id="a_node5"><a xlink:href="_main_8cpp.html" target="_top" xlink:title=" ">
<polygon fill="white" stroke="black" points="317,-0.5 317,-19.5 378,-19.5 378,-0.5 317,-0.5"/>
<text text-anchor="middle" x="347.5" y="-7.5" font-family="Helvetica,sans-Serif" font-size="10.00">Main.cpp</text>
</a>
</g>
</g>
<!-- Node1&#45;&gt;Node5 -->
<g id="edge4" class="edge">
<title>Node1&#45;&gt;Node5</title>
<path fill="none" stroke="midnightblue" d="M311.88,-48.72C320.87,-39.2 331.86,-27.56 339.24,-19.75"/>
<polygon fill="midnightblue" stroke="midnightblue" points="309.24,-46.41 304.92,-56.08 314.33,-51.22 309.24,-46.41"/>
</g>
<!-- Node6 -->
<g id="node6" class="node">
<title>Node6</title>
<g id="a_node6"><a xlink:href="_pre_launch_stage_8cpp.html" target="_top" xlink:title=" ">
<polygon fill="white" stroke="black" points="396,-0.5 396,-19.5 511,-19.5 511,-0.5 396,-0.5"/>
<text text-anchor="middle" x="453.5" y="-7.5" font-family="Helvetica,sans-Serif" font-size="10.00">PreLaunchStage.cpp</text>
</a>
</g>
</g>
<!-- Node1&#45;&gt;Node6 -->
<g id="edge5" class="edge">
<title>Node1&#45;&gt;Node6</title>
<path fill="none" stroke="midnightblue" d="M330.89,-53.17C360.45,-43 402.37,-28.59 428.74,-19.52"/>
<polygon fill="midnightblue" stroke="midnightblue" points="329.7,-49.88 321.38,-56.44 331.97,-56.5 329.7,-49.88"/>
</g>
<!-- Node7 -->
<g id="node7" class="node">
<title>Node7</title>
<g id="a_node7"><a xlink:href="_accelerometer_base_8cpp.html" target="_top" xlink:title=" ">
<polygon fill="white" stroke="black" points="529.5,-0.5 529.5,-19.5 661.5,-19.5 661.5,-0.5 529.5,-0.5"/>
<text text-anchor="middle" x="595.5" y="-7.5" font-family="Helvetica,sans-Serif" font-size="10.00">AccelerometerBase.cpp</text>
</a>
</g>
</g>
<!-- Node1&#45;&gt;Node7 -->
<g id="edge6" class="edge">
<title>Node1&#45;&gt;Node7</title>
<path fill="none" stroke="midnightblue" d="M334.57,-58.13C389.01,-48.29 489.07,-30.22 548.2,-19.54"/>
<polygon fill="midnightblue" stroke="midnightblue" points="333.85,-54.7 324.63,-59.92 335.09,-61.59 333.85,-54.7"/>
</g>
</g>
</svg>
