<?xml version="1.0" encoding="UTF-8" standalone="no"?>
<!DOCTYPE svg PUBLIC "-//W3C//DTD SVG 1.1//EN"
 "http://www.w3.org/Graphics/SVG/1.1/DTD/svg11.dtd">
<!-- Generated by graphviz version 2.43.0 (0)
 -->
<!-- Title: Config.h Pages: 1 -->
<svg width="414pt" height="84pt"
 viewBox="0.00 0.00 413.50 84.00" xmlns="http://www.w3.org/2000/svg" xmlns:xlink="http://www.w3.org/1999/xlink">
<g id="graph0" class="graph" transform="scale(1 1) rotate(0) translate(4 80)">
<title>Config.h</title>
<polygon fill="white" stroke="transparent" points="-4,4 -4,-80 409.5,-80 409.5,4 -4,4"/>
<!-- Node1 -->
<g id="node1" class="node">
<title>Node1</title>
<g id="a_node1"><a xlink:title=" ">
<polygon fill="#bfbfbf" stroke="black" points="127.5,-56.5 127.5,-75.5 183.5,-75.5 183.5,-56.5 127.5,-56.5"/>
<text text-anchor="middle" x="155.5" y="-63.5" font-family="Helvetica,sans-Serif" font-size="10.00">Config.h</text>
</a>
</g>
</g>
<!-- Node2 -->
<g id="node2" class="node">
<title>Node2</title>
<g id="a_node2"><a xlink:href="_main_8cpp.html" target="_top" xlink:title=" ">
<polygon fill="white" stroke="black" points="0,-0.5 0,-19.5 61,-19.5 61,-0.5 0,-0.5"/>
<text text-anchor="middle" x="30.5" y="-7.5" font-family="Helvetica,sans-Serif" font-size="10.00">Main.cpp</text>
</a>
</g>
</g>
<!-- Node1&#45;&gt;Node2 -->
<g id="edge1" class="edge">
<title>Node1&#45;&gt;Node2</title>
<path fill="none" stroke="midnightblue" d="M126.26,-52.37C102.85,-42.26 70.66,-28.35 50.21,-19.52"/>
<polygon fill="midnightblue" stroke="midnightblue" points="125.13,-55.69 135.69,-56.44 127.9,-49.26 125.13,-55.69"/>
</g>
<!-- Node3 -->
<g id="node3" class="node">
<title>Node3</title>
<g id="a_node3"><a xlink:href="_pins_8cpp.html" target="_top" xlink:title=" ">
<polygon fill="white" stroke="black" points="79,-0.5 79,-19.5 136,-19.5 136,-0.5 79,-0.5"/>
<text text-anchor="middle" x="107.5" y="-7.5" font-family="Helvetica,sans-Serif" font-size="10.00">Pins.cpp</text>
</a>
</g>
</g>
<!-- Node1&#45;&gt;Node3 -->
<g id="edge2" class="edge">
<title>Node1&#45;&gt;Node3</title>
<path fill="none" stroke="midnightblue" d="M140.77,-48.43C132.36,-38.97 122.15,-27.48 115.28,-19.75"/>
<polygon fill="midnightblue" stroke="midnightblue" points="138.31,-50.93 147.57,-56.08 143.55,-46.28 138.31,-50.93"/>
</g>
<!-- Node4 -->
<g id="node4" class="node">
<title>Node4</title>
<g id="a_node4"><a xlink:href="_rotary_switch_8cpp.html" target="_top" xlink:title=" ">
<polygon fill="white" stroke="black" points="154,-0.5 154,-19.5 255,-19.5 255,-0.5 154,-0.5"/>
<text text-anchor="middle" x="204.5" y="-7.5" font-family="Helvetica,sans-Serif" font-size="10.00">RotarySwitch.cpp</text>
</a>
</g>
</g>
<!-- Node1&#45;&gt;Node4 -->
<g id="edge3" class="edge">
<title>Node1&#45;&gt;Node4</title>
<path fill="none" stroke="midnightblue" d="M170.53,-48.43C179.12,-38.97 189.54,-27.48 196.56,-19.75"/>
<polygon fill="midnightblue" stroke="midnightblue" points="167.72,-46.33 163.59,-56.08 172.9,-51.03 167.72,-46.33"/>
</g>
<!-- Node5 -->
<g id="node5" class="node">
<title>Node5</title>
<g id="a_node5"><a xlink:href="_accelerometer_base_8cpp.html" target="_top" xlink:title=" ">
<polygon fill="white" stroke="black" points="273.5,-0.5 273.5,-19.5 405.5,-19.5 405.5,-0.5 273.5,-0.5"/>
<text text-anchor="middle" x="339.5" y="-7.5" font-family="Helvetica,sans-Serif" font-size="10.00">AccelerometerBase.cpp</text>
</a>
</g>
</g>
<!-- Node1&#45;&gt;Node5 -->
<g id="edge4" class="edge">
<title>Node1&#45;&gt;Node5</title>
<path fill="none" stroke="midnightblue" d="M193.64,-53.81C228.39,-43.61 278.97,-28.77 310.51,-19.51"/>
<polygon fill="midnightblue" stroke="midnightblue" points="192.46,-50.51 183.85,-56.68 194.43,-57.22 192.46,-50.51"/>
</g>
</g>
</svg>
