<?xml version="1.0" encoding="UTF-8" standalone="no"?>
<!DOCTYPE svg PUBLIC "-//W3C//DTD SVG 1.1//EN"
 "http://www.w3.org/Graphics/SVG/1.1/DTD/svg11.dtd">
<!-- Generated by graphviz version 2.43.0 (0)
 -->
<!-- Title: DataLogger.cpp Pages: 1 -->
<svg width="220pt" height="140pt"
 viewBox="0.00 0.00 219.50 140.00" xmlns="http://www.w3.org/2000/svg" xmlns:xlink="http://www.w3.org/1999/xlink">
<g id="graph0" class="graph" transform="scale(1 1) rotate(0) translate(4 136)">
<title>DataLogger.cpp</title>
<polygon fill="white" stroke="transparent" points="-4,4 -4,-136 215.5,-136 215.5,4 -4,4"/>
<!-- Node1 -->
<g id="node1" class="node">
<title>Node1</title>
<g id="a_node1"><a xlink:title=" ">
<polygon fill="#bfbfbf" stroke="black" points="54.5,-112.5 54.5,-131.5 146.5,-131.5 146.5,-112.5 54.5,-112.5"/>
<text text-anchor="middle" x="100.5" y="-119.5" font-family="Helvetica,sans-Serif" font-size="10.00">DataLogger.cpp</text>
</a>
</g>
</g>
<!-- Node2 -->
<g id="node2" class="node">
<title>Node2</title>
<g id="a_node2"><a xlink:title=" ">
<polygon fill="white" stroke="#bfbfbf" points="0,-0.5 0,-19.5 63,-19.5 63,-0.5 0,-0.5"/>
<text text-anchor="middle" x="31.5" y="-7.5" font-family="Helvetica,sans-Serif" font-size="10.00">Arduino.h</text>
</a>
</g>
</g>
<!-- Node1&#45;&gt;Node2 -->
<g id="edge1" class="edge">
<title>Node1&#45;&gt;Node2</title>
<path fill="none" stroke="midnightblue" d="M67.51,-112.44C49.04,-105.77 27.55,-94.45 16.5,-76 7.79,-61.45 13.95,-42.27 20.82,-28.53"/>
<polygon fill="midnightblue" stroke="midnightblue" points="23.97,-30.07 25.75,-19.62 17.85,-26.68 23.97,-30.07"/>
</g>
<!-- Node3 -->
<g id="node3" class="node">
<title>Node3</title>
<g id="a_node3"><a xlink:title=" ">
<polygon fill="white" stroke="#bfbfbf" points="81,-0.5 81,-19.5 120,-19.5 120,-0.5 81,-0.5"/>
<text text-anchor="middle" x="100.5" y="-7.5" font-family="Helvetica,sans-Serif" font-size="10.00">SD.h</text>
</a>
</g>
</g>
<!-- Node1&#45;&gt;Node3 -->
<g id="edge2" class="edge">
<title>Node1&#45;&gt;Node3</title>
<path fill="none" stroke="midnightblue" d="M104.61,-112.28C108.56,-103.38 114.24,-89.07 116.5,-76 119.27,-59.91 114.19,-41.91 109.03,-28.94"/>
<polygon fill="midnightblue" stroke="midnightblue" points="112.23,-27.52 105.03,-19.75 105.81,-30.31 112.23,-27.52"/>
</g>
<!-- Node4 -->
<g id="node4" class="node">
<title>Node4</title>
<g id="a_node4"><a xlink:href="_data_logger_8h.html" target="_top" xlink:title=" ">
<polygon fill="white" stroke="black" points="26,-56.5 26,-75.5 107,-75.5 107,-56.5 26,-56.5"/>
<text text-anchor="middle" x="66.5" y="-63.5" font-family="Helvetica,sans-Serif" font-size="10.00">DataLogger.h</text>
</a>
</g>
</g>
<!-- Node1&#45;&gt;Node4 -->
<g id="edge3" class="edge">
<title>Node1&#45;&gt;Node4</title>
<path fill="none" stroke="midnightblue" d="M94.89,-112.08C90.13,-104.53 83.18,-93.49 77.35,-84.23"/>
<polygon fill="midnightblue" stroke="midnightblue" points="80.3,-82.35 72.01,-75.75 74.38,-86.08 80.3,-82.35"/>
</g>
<!-- Node5 -->
<g id="node5" class="node">
<title>Node5</title>
<g id="a_node5"><a xlink:href="_error_8h.html" target="_top" xlink:title=" ">
<polygon fill="white" stroke="black" points="163.5,-56.5 163.5,-75.5 211.5,-75.5 211.5,-56.5 163.5,-56.5"/>
<text text-anchor="middle" x="187.5" y="-63.5" font-family="Helvetica,sans-Serif" font-size="10.00">Error.h</text>
</a>
</g>
</g>
<!-- Node1&#45;&gt;Node5 -->
<g id="edge6" class="edge">
<title>Node1&#45;&gt;Node5</title>
<path fill="none" stroke="midnightblue" d="M114.48,-112.32C128.05,-103.9 148.88,-90.97 164.82,-81.07"/>
<polygon fill="midnightblue" stroke="midnightblue" points="166.91,-83.9 173.56,-75.65 163.21,-77.95 166.91,-83.9"/>
</g>
<!-- Node4&#45;&gt;Node2 -->
<g id="edge4" class="edge">
<title>Node4&#45;&gt;Node2</title>
<path fill="none" stroke="midnightblue" d="M60.72,-56.08C55.83,-48.53 48.67,-37.49 42.67,-28.23"/>
<polygon fill="midnightblue" stroke="midnightblue" points="45.55,-26.24 37.17,-19.75 39.67,-30.05 45.55,-26.24"/>
</g>
<!-- Node4&#45;&gt;Node3 -->
<g id="edge5" class="edge">
<title>Node4&#45;&gt;Node3</title>
<path fill="none" stroke="midnightblue" d="M72.11,-56.08C76.87,-48.53 83.82,-37.49 89.65,-28.23"/>
<polygon fill="midnightblue" stroke="midnightblue" points="92.62,-30.08 94.99,-19.75 86.7,-26.35 92.62,-30.08"/>
</g>
</g>
</svg>
