<?xml version="1.0" encoding="UTF-8" standalone="no"?>
<!DOCTYPE svg PUBLIC "-//W3C//DTD SVG 1.1//EN"
 "http://www.w3.org/Graphics/SVG/1.1/DTD/svg11.dtd">
<!-- Generated by graphviz version 2.43.0 (0)
 -->
<!-- Title: KalmanFilter.h Pages: 1 -->
<svg width="413pt" height="84pt"
 viewBox="0.00 0.00 413.00 84.00" xmlns="http://www.w3.org/2000/svg" xmlns:xlink="http://www.w3.org/1999/xlink">
<g id="graph0" class="graph" transform="scale(1 1) rotate(0) translate(4 80)">
<title>KalmanFilter.h</title>
<polygon fill="white" stroke="transparent" points="-4,4 -4,-80 409,-80 409,4 -4,4"/>
<!-- Node1 -->
<g id="node1" class="node">
<title>Node1</title>
<g id="a_node1"><a xlink:title=" ">
<polygon fill="#bfbfbf" stroke="black" points="183.5,-56.5 183.5,-75.5 270.5,-75.5 270.5,-56.5 183.5,-56.5"/>
<text text-anchor="middle" x="227" y="-63.5" font-family="Helvetica,sans-Serif" font-size="10.00">KalmanFilter.h</text>
</a>
</g>
</g>
<!-- Node2 -->
<g id="node2" class="node">
<title>Node2</title>
<g id="a_node2"><a xlink:href="_kalman_filter_8cpp.html" target="_top" xlink:title=" ">
<polygon fill="white" stroke="black" points="0,-0.5 0,-19.5 98,-19.5 98,-0.5 0,-0.5"/>
<text text-anchor="middle" x="49" y="-7.5" font-family="Helvetica,sans-Serif" font-size="10.00">KalmanFilter.cpp</text>
</a>
</g>
</g>
<!-- Node1&#45;&gt;Node2 -->
<g id="edge1" class="edge">
<title>Node1&#45;&gt;Node2</title>
<path fill="none" stroke="midnightblue" d="M188.88,-53.44C155.32,-43.26 107.23,-28.66 77.07,-19.52"/>
<polygon fill="midnightblue" stroke="midnightblue" points="188.21,-56.89 198.8,-56.44 190.24,-50.19 188.21,-56.89"/>
</g>
<!-- Node3 -->
<g id="node3" class="node">
<title>Node3</title>
<g id="a_node3"><a xlink:href="_pre_launch_stage_8cpp.html" target="_top" xlink:title=" ">
<polygon fill="white" stroke="black" points="116.5,-0.5 116.5,-19.5 231.5,-19.5 231.5,-0.5 116.5,-0.5"/>
<text text-anchor="middle" x="174" y="-7.5" font-family="Helvetica,sans-Serif" font-size="10.00">PreLaunchStage.cpp</text>
</a>
</g>
</g>
<!-- Node1&#45;&gt;Node3 -->
<g id="edge2" class="edge">
<title>Node1&#45;&gt;Node3</title>
<path fill="none" stroke="midnightblue" d="M211.02,-48.72C201.68,-39.2 190.25,-27.56 182.59,-19.75"/>
<polygon fill="midnightblue" stroke="midnightblue" points="208.75,-51.4 218.25,-56.08 213.74,-46.49 208.75,-51.4"/>
</g>
<!-- Node4 -->
<g id="node4" class="node">
<title>Node4</title>
<g id="a_node4"><a xlink:href="_main_8cpp.html" target="_top" xlink:title=" ">
<polygon fill="white" stroke="black" points="249.5,-0.5 249.5,-19.5 310.5,-19.5 310.5,-0.5 249.5,-0.5"/>
<text text-anchor="middle" x="280" y="-7.5" font-family="Helvetica,sans-Serif" font-size="10.00">Main.cpp</text>
</a>
</g>
</g>
<!-- Node1&#45;&gt;Node4 -->
<g id="edge3" class="edge">
<title>Node1&#45;&gt;Node4</title>
<path fill="none" stroke="midnightblue" d="M242.98,-48.72C252.32,-39.2 263.75,-27.56 271.41,-19.75"/>
<polygon fill="midnightblue" stroke="midnightblue" points="240.26,-46.49 235.75,-56.08 245.25,-51.4 240.26,-46.49"/>
</g>
<!-- Node5 -->
<g id="node5" class="node">
<title>Node5</title>
<g id="a_node5"><a xlink:href="_m_s5637_8cpp.html" target="_top" xlink:title=" ">
<polygon fill="white" stroke="black" points="329,-0.5 329,-19.5 405,-19.5 405,-0.5 329,-0.5"/>
<text text-anchor="middle" x="367" y="-7.5" font-family="Helvetica,sans-Serif" font-size="10.00">MS5637.cpp</text>
</a>
</g>
</g>
<!-- Node1&#45;&gt;Node5 -->
<g id="edge4" class="edge">
<title>Node1&#45;&gt;Node5</title>
<path fill="none" stroke="midnightblue" d="M258.7,-52.77C285,-42.63 321.72,-28.47 344.92,-19.52"/>
<polygon fill="midnightblue" stroke="midnightblue" points="257.25,-49.58 249.18,-56.44 259.77,-56.11 257.25,-49.58"/>
</g>
</g>
</svg>
