<?xml version="1.0" encoding="UTF-8" standalone="no"?>
<!DOCTYPE svg PUBLIC "-//W3C//DTD SVG 1.1//EN"
 "http://www.w3.org/Graphics/SVG/1.1/DTD/svg11.dtd">
<!-- Generated by graphviz version 2.43.0 (0)
 -->
<!-- Title: LEDs.cpp Pages: 1 -->
<svg width="204pt" height="84pt"
 viewBox="0.00 0.00 203.50 84.00" xmlns="http://www.w3.org/2000/svg" xmlns:xlink="http://www.w3.org/1999/xlink">
<g id="graph0" class="graph" transform="scale(1 1) rotate(0) translate(4 80)">
<title>LEDs.cpp</title>
<polygon fill="white" stroke="transparent" points="-4,4 -4,-80 199.5,-80 199.5,4 -4,4"/>
<!-- Node1 -->
<g id="node1" class="node">
<title>Node1</title>
<g id="a_node1"><a xlink:title=" ">
<polygon fill="#bfbfbf" stroke="black" points="76,-56.5 76,-75.5 137,-75.5 137,-56.5 76,-56.5"/>
<text text-anchor="middle" x="106.5" y="-63.5" font-family="Helvetica,sans-Serif" font-size="10.00">LEDs.cpp</text>
</a>
</g>
</g>
<!-- Node2 -->
<g id="node2" class="node">
<title>Node2</title>
<g id="a_node2"><a xlink:title=" ">
<polygon fill="white" stroke="#bfbfbf" points="0,-0.5 0,-19.5 63,-19.5 63,-0.5 0,-0.5"/>
<text text-anchor="middle" x="31.5" y="-7.5" font-family="Helvetica,sans-Serif" font-size="10.00">Arduino.h</text>
</a>
</g>
</g>
<!-- Node1&#45;&gt;Node2 -->
<g id="edge1" class="edge">
<title>Node1&#45;&gt;Node2</title>
<path fill="none" stroke="midnightblue" d="M94.45,-56.32C83.04,-48.11 65.67,-35.6 52.07,-25.81"/>
<polygon fill="midnightblue" stroke="midnightblue" points="53.93,-22.84 43.77,-19.83 49.84,-28.52 53.93,-22.84"/>
</g>
<!-- Node3 -->
<g id="node3" class="node">
<title>Node3</title>
<g id="a_node3"><a xlink:href="_l_e_ds_8h.html" target="_top" xlink:title=" ">
<polygon fill="white" stroke="black" points="81.5,-0.5 81.5,-19.5 131.5,-19.5 131.5,-0.5 81.5,-0.5"/>
<text text-anchor="middle" x="106.5" y="-7.5" font-family="Helvetica,sans-Serif" font-size="10.00">LEDs.h</text>
</a>
</g>
</g>
<!-- Node1&#45;&gt;Node3 -->
<g id="edge2" class="edge">
<title>Node1&#45;&gt;Node3</title>
<path fill="none" stroke="midnightblue" d="M106.5,-56.08C106.5,-49.01 106.5,-38.86 106.5,-29.99"/>
<polygon fill="midnightblue" stroke="midnightblue" points="110,-29.75 106.5,-19.75 103,-29.75 110,-29.75"/>
</g>
<!-- Node4 -->
<g id="node4" class="node">
<title>Node4</title>
<g id="a_node4"><a xlink:href="_pins_8h.html" target="_top" xlink:title=" ">
<polygon fill="white" stroke="black" points="149.5,-0.5 149.5,-19.5 195.5,-19.5 195.5,-0.5 149.5,-0.5"/>
<text text-anchor="middle" x="172.5" y="-7.5" font-family="Helvetica,sans-Serif" font-size="10.00">Pins.h</text>
</a>
</g>
</g>
<!-- Node1&#45;&gt;Node4 -->
<g id="edge3" class="edge">
<title>Node1&#45;&gt;Node4</title>
<path fill="none" stroke="midnightblue" d="M117.1,-56.32C126.96,-48.26 141.85,-36.08 153.72,-26.37"/>
<polygon fill="midnightblue" stroke="midnightblue" points="156.18,-28.88 161.7,-19.83 151.75,-23.46 156.18,-28.88"/>
</g>
</g>
</svg>
