<?xml version="1.0" encoding="UTF-8" standalone="no"?>
<!DOCTYPE svg PUBLIC "-//W3C//DTD SVG 1.1//EN"
 "http://www.w3.org/Graphics/SVG/1.1/DTD/svg11.dtd">
<!-- Generated by graphviz version 2.43.0 (0)
 -->
<!-- Title: MS5637.h Pages: 1 -->
<svg width="472pt" height="207pt"
 viewBox="0.00 0.00 472.00 207.00" xmlns="http://www.w3.org/2000/svg" xmlns:xlink="http://www.w3.org/1999/xlink">
<g id="graph0" class="graph" transform="scale(1 1) rotate(0) translate(4 203)">
<title>MS5637.h</title>
<polygon fill="white" stroke="transparent" points="-4,4 -4,-203 468,-203 468,4 -4,4"/>
<!-- Node1 -->
<g id="node1" class="node">
<title>Node1</title>
<g id="a_node1"><a xlink:title=" ">
<polygon fill="#bfbfbf" stroke="black" points="178.5,-179.5 178.5,-198.5 243.5,-198.5 243.5,-179.5 178.5,-179.5"/>
<text text-anchor="middle" x="211" y="-186.5" font-family="Helvetica,sans-Serif" font-size="10.00">MS5637.h</text>
</a>
</g>
</g>
<!-- Node2 -->
<g id="node2" class="node">
<title>Node2</title>
<g id="a_node2"><a xlink:title=" ">
<polygon fill="white" stroke="#bfbfbf" points="0,-118 0,-137 48,-137 48,-118 0,-118"/>
<text text-anchor="middle" x="24" y="-125" font-family="Helvetica,sans-Serif" font-size="10.00">Wire.h</text>
</a>
</g>
</g>
<!-- Node1&#45;&gt;Node2 -->
<g id="edge1" class="edge">
<title>Node1&#45;&gt;Node2</title>
<path fill="none" stroke="midnightblue" d="M178.46,-179.81C147.01,-171.58 98.22,-158.01 57,-143 55.34,-142.4 53.65,-141.75 51.95,-141.08"/>
<polygon fill="midnightblue" stroke="midnightblue" points="52.91,-137.68 42.33,-137.06 50.21,-144.14 52.91,-137.68"/>
</g>
<!-- Node3 -->
<g id="node3" class="node">
<title>Node3</title>
<g id="a_node3"><a xlink:title=" ">
<polygon fill="white" stroke="#bfbfbf" points="65.5,-112.5 65.5,-142.5 214.5,-142.5 214.5,-112.5 65.5,-112.5"/>
<text text-anchor="start" x="73.5" y="-130.5" font-family="Helvetica,sans-Serif" font-size="10.00">SparkFun_MS5637_Arduino</text>
<text text-anchor="middle" x="140" y="-119.5" font-family="Helvetica,sans-Serif" font-size="10.00">_Library.h</text>
</a>
</g>
</g>
<!-- Node1&#45;&gt;Node3 -->
<g id="edge2" class="edge">
<title>Node1&#45;&gt;Node3</title>
<path fill="none" stroke="midnightblue" d="M200.83,-179.48C191.39,-171.57 176.97,-159.48 164.54,-149.07"/>
<polygon fill="midnightblue" stroke="midnightblue" points="166.65,-146.26 156.73,-142.52 162.15,-151.63 166.65,-146.26"/>
</g>
<!-- Node4 -->
<g id="node4" class="node">
<title>Node4</title>
<g id="a_node4"><a xlink:href="_barometer_base_8h.html" target="_top" xlink:title=" ">
<polygon fill="white" stroke="black" points="232.5,-118 232.5,-137 333.5,-137 333.5,-118 232.5,-118"/>
<text text-anchor="middle" x="283" y="-125" font-family="Helvetica,sans-Serif" font-size="10.00">BarometerBase.h</text>
</a>
</g>
</g>
<!-- Node1&#45;&gt;Node4 -->
<g id="edge3" class="edge">
<title>Node1&#45;&gt;Node4</title>
<path fill="none" stroke="midnightblue" d="M221.32,-179.48C232.65,-170.11 251.07,-154.88 264.84,-143.51"/>
<polygon fill="midnightblue" stroke="midnightblue" points="267.22,-146.08 272.7,-137.01 262.77,-140.68 267.22,-146.08"/>
</g>
<!-- Node9 -->
<g id="node9" class="node">
<title>Node9</title>
<g id="a_node9"><a xlink:title=" ">
<polygon fill="white" stroke="#bfbfbf" points="352,-118 352,-137 464,-137 464,-118 352,-118"/>
<text text-anchor="middle" x="408" y="-125" font-family="Helvetica,sans-Serif" font-size="10.00">WocketBarometer.h</text>
</a>
</g>
</g>
<!-- Node1&#45;&gt;Node9 -->
<g id="edge8" class="edge">
<title>Node1&#45;&gt;Node9</title>
<path fill="none" stroke="midnightblue" d="M239.23,-179.48C273.6,-169.09 331.81,-151.51 370.08,-139.95"/>
<polygon fill="midnightblue" stroke="midnightblue" points="371.27,-143.25 379.83,-137.01 369.24,-136.55 371.27,-143.25"/>
</g>
<!-- Node5 -->
<g id="node5" class="node">
<title>Node5</title>
<g id="a_node5"><a xlink:href="_sensor_base_8h.html" target="_top" xlink:title=" ">
<polygon fill="white" stroke="black" points="241.5,-56.5 241.5,-75.5 324.5,-75.5 324.5,-56.5 241.5,-56.5"/>
<text text-anchor="middle" x="283" y="-63.5" font-family="Helvetica,sans-Serif" font-size="10.00">SensorBase.h</text>
</a>
</g>
</g>
<!-- Node4&#45;&gt;Node5 -->
<g id="edge4" class="edge">
<title>Node4&#45;&gt;Node5</title>
<path fill="none" stroke="midnightblue" d="M283,-117.98C283,-109.58 283,-96.48 283,-85.66"/>
<polygon fill="midnightblue" stroke="midnightblue" points="286.5,-85.51 283,-75.51 279.5,-85.51 286.5,-85.51"/>
</g>
<!-- Node6 -->
<g id="node6" class="node">
<title>Node6</title>
<g id="a_node6"><a xlink:title=" ">
<polygon fill="white" stroke="#bfbfbf" points="187,-0.5 187,-19.5 243,-19.5 243,-0.5 187,-0.5"/>
<text text-anchor="middle" x="215" y="-7.5" font-family="Helvetica,sans-Serif" font-size="10.00">optional</text>
</a>
</g>
</g>
<!-- Node5&#45;&gt;Node6 -->
<g id="edge5" class="edge">
<title>Node5&#45;&gt;Node6</title>
<path fill="none" stroke="midnightblue" d="M272.07,-56.32C261.83,-48.18 246.28,-35.84 234,-26.09"/>
<polygon fill="midnightblue" stroke="midnightblue" points="236.13,-23.31 226.12,-19.83 231.78,-28.79 236.13,-23.31"/>
</g>
<!-- Node7 -->
<g id="node7" class="node">
<title>Node7</title>
<g id="a_node7"><a xlink:title=" ">
<polygon fill="white" stroke="#bfbfbf" points="261,-0.5 261,-19.5 305,-19.5 305,-0.5 261,-0.5"/>
<text text-anchor="middle" x="283" y="-7.5" font-family="Helvetica,sans-Serif" font-size="10.00">bitset</text>
</a>
</g>
</g>
<!-- Node5&#45;&gt;Node7 -->
<g id="edge6" class="edge">
<title>Node5&#45;&gt;Node7</title>
<path fill="none" stroke="midnightblue" d="M283,-56.08C283,-49.01 283,-38.86 283,-29.99"/>
<polygon fill="midnightblue" stroke="midnightblue" points="286.5,-29.75 283,-19.75 279.5,-29.75 286.5,-29.75"/>
</g>
<!-- Node8 -->
<g id="node8" class="node">
<title>Node8</title>
<g id="a_node8"><a xlink:href="_sensor_data_8h.html" target="_top" xlink:title=" ">
<polygon fill="white" stroke="black" points="323,-0.5 323,-19.5 405,-19.5 405,-0.5 323,-0.5"/>
<text text-anchor="middle" x="364" y="-7.5" font-family="Helvetica,sans-Serif" font-size="10.00">SensorData.h</text>
</a>
</g>
</g>
<!-- Node5&#45;&gt;Node8 -->
<g id="edge7" class="edge">
<title>Node5&#45;&gt;Node8</title>
<path fill="none" stroke="midnightblue" d="M296.01,-56.32C308.53,-47.98 327.68,-35.21 342.47,-25.35"/>
<polygon fill="midnightblue" stroke="midnightblue" points="344.64,-28.11 351.02,-19.65 340.76,-22.29 344.64,-28.11"/>
</g>
</g>
</svg>
