<?xml version="1.0" encoding="UTF-8" standalone="no"?>
<!DOCTYPE svg PUBLIC "-//W3C//DTD SVG 1.1//EN"
 "http://www.w3.org/Graphics/SVG/1.1/DTD/svg11.dtd">
<!-- Generated by graphviz version 2.43.0 (0)
 -->
<!-- Title: MS5637.cpp Pages: 1 -->
<svg width="381pt" height="207pt"
 viewBox="0.00 0.00 381.00 207.00" xmlns="http://www.w3.org/2000/svg" xmlns:xlink="http://www.w3.org/1999/xlink">
<g id="graph0" class="graph" transform="scale(1 1) rotate(0) translate(4 203)">
<title>MS5637.cpp</title>
<polygon fill="white" stroke="transparent" points="-4,4 -4,-203 377,-203 377,4 -4,4"/>
<!-- Node1 -->
<g id="node1" class="node">
<title>Node1</title>
<g id="a_node1"><a xlink:title=" ">
<polygon fill="#bfbfbf" stroke="black" points="179.5,-179.5 179.5,-198.5 255.5,-198.5 255.5,-179.5 179.5,-179.5"/>
<text text-anchor="middle" x="217.5" y="-186.5" font-family="Helvetica,sans-Serif" font-size="10.00">MS5637.cpp</text>
</a>
</g>
</g>
<!-- Node2 -->
<g id="node2" class="node">
<title>Node2</title>
<g id="a_node2"><a xlink:title=" ">
<polygon fill="white" stroke="#bfbfbf" points="0,-112.5 0,-142.5 149,-142.5 149,-112.5 0,-112.5"/>
<text text-anchor="start" x="8" y="-130.5" font-family="Helvetica,sans-Serif" font-size="10.00">SparkFun_MS5637_Arduino</text>
<text text-anchor="middle" x="74.5" y="-119.5" font-family="Helvetica,sans-Serif" font-size="10.00">_Library.h</text>
</a>
</g>
</g>
<!-- Node1&#45;&gt;Node2 -->
<g id="edge1" class="edge">
<title>Node1&#45;&gt;Node2</title>
<path fill="none" stroke="midnightblue" d="M197.01,-179.48C176.38,-170.89 143.92,-157.38 117.59,-146.43"/>
<polygon fill="midnightblue" stroke="midnightblue" points="118.78,-143.13 108.2,-142.52 116.09,-149.6 118.78,-143.13"/>
</g>
<!-- Node3 -->
<g id="node3" class="node">
<title>Node3</title>
<g id="a_node3"><a xlink:href="_barometer_base_8h.html" target="_top" xlink:title=" ">
<polygon fill="white" stroke="black" points="167,-118 167,-137 268,-137 268,-118 167,-118"/>
<text text-anchor="middle" x="217.5" y="-125" font-family="Helvetica,sans-Serif" font-size="10.00">BarometerBase.h</text>
</a>
</g>
</g>
<!-- Node1&#45;&gt;Node3 -->
<g id="edge2" class="edge">
<title>Node1&#45;&gt;Node3</title>
<path fill="none" stroke="midnightblue" d="M217.5,-179.48C217.5,-171.08 217.5,-157.98 217.5,-147.16"/>
<polygon fill="midnightblue" stroke="midnightblue" points="221,-147.01 217.5,-137.01 214,-147.01 221,-147.01"/>
</g>
<!-- Node8 -->
<g id="node8" class="node">
<title>Node8</title>
<g id="a_node8"><a xlink:href="_kalman_filter_8h.html" target="_top" xlink:title=" ">
<polygon fill="white" stroke="black" points="286,-118 286,-137 373,-137 373,-118 286,-118"/>
<text text-anchor="middle" x="329.5" y="-125" font-family="Helvetica,sans-Serif" font-size="10.00">KalmanFilter.h</text>
</a>
</g>
</g>
<!-- Node1&#45;&gt;Node8 -->
<g id="edge7" class="edge">
<title>Node1&#45;&gt;Node8</title>
<path fill="none" stroke="midnightblue" d="M233.55,-179.48C252.09,-169.62 282.84,-153.29 304.52,-141.77"/>
<polygon fill="midnightblue" stroke="midnightblue" points="306.29,-144.79 313.48,-137.01 303.01,-138.61 306.29,-144.79"/>
</g>
<!-- Node4 -->
<g id="node4" class="node">
<title>Node4</title>
<g id="a_node4"><a xlink:href="_sensor_base_8h.html" target="_top" xlink:title=" ">
<polygon fill="white" stroke="black" points="176,-56.5 176,-75.5 259,-75.5 259,-56.5 176,-56.5"/>
<text text-anchor="middle" x="217.5" y="-63.5" font-family="Helvetica,sans-Serif" font-size="10.00">SensorBase.h</text>
</a>
</g>
</g>
<!-- Node3&#45;&gt;Node4 -->
<g id="edge3" class="edge">
<title>Node3&#45;&gt;Node4</title>
<path fill="none" stroke="midnightblue" d="M217.5,-117.98C217.5,-109.58 217.5,-96.48 217.5,-85.66"/>
<polygon fill="midnightblue" stroke="midnightblue" points="221,-85.51 217.5,-75.51 214,-85.51 221,-85.51"/>
</g>
<!-- Node5 -->
<g id="node5" class="node">
<title>Node5</title>
<g id="a_node5"><a xlink:title=" ">
<polygon fill="white" stroke="#bfbfbf" points="121.5,-0.5 121.5,-19.5 177.5,-19.5 177.5,-0.5 121.5,-0.5"/>
<text text-anchor="middle" x="149.5" y="-7.5" font-family="Helvetica,sans-Serif" font-size="10.00">optional</text>
</a>
</g>
</g>
<!-- Node4&#45;&gt;Node5 -->
<g id="edge4" class="edge">
<title>Node4&#45;&gt;Node5</title>
<path fill="none" stroke="midnightblue" d="M206.57,-56.32C196.33,-48.18 180.78,-35.84 168.5,-26.09"/>
<polygon fill="midnightblue" stroke="midnightblue" points="170.63,-23.31 160.62,-19.83 166.28,-28.79 170.63,-23.31"/>
</g>
<!-- Node6 -->
<g id="node6" class="node">
<title>Node6</title>
<g id="a_node6"><a xlink:title=" ">
<polygon fill="white" stroke="#bfbfbf" points="195.5,-0.5 195.5,-19.5 239.5,-19.5 239.5,-0.5 195.5,-0.5"/>
<text text-anchor="middle" x="217.5" y="-7.5" font-family="Helvetica,sans-Serif" font-size="10.00">bitset</text>
</a>
</g>
</g>
<!-- Node4&#45;&gt;Node6 -->
<g id="edge5" class="edge">
<title>Node4&#45;&gt;Node6</title>
<path fill="none" stroke="midnightblue" d="M217.5,-56.08C217.5,-49.01 217.5,-38.86 217.5,-29.99"/>
<polygon fill="midnightblue" stroke="midnightblue" points="221,-29.75 217.5,-19.75 214,-29.75 221,-29.75"/>
</g>
<!-- Node7 -->
<g id="node7" class="node">
<title>Node7</title>
<g id="a_node7"><a xlink:href="_sensor_data_8h.html" target="_top" xlink:title=" ">
<polygon fill="white" stroke="black" points="257.5,-0.5 257.5,-19.5 339.5,-19.5 339.5,-0.5 257.5,-0.5"/>
<text text-anchor="middle" x="298.5" y="-7.5" font-family="Helvetica,sans-Serif" font-size="10.00">SensorData.h</text>
</a>
</g>
</g>
<!-- Node4&#45;&gt;Node7 -->
<g id="edge6" class="edge">
<title>Node4&#45;&gt;Node7</title>
<path fill="none" stroke="midnightblue" d="M230.51,-56.32C243.03,-47.98 262.18,-35.21 276.97,-25.35"/>
<polygon fill="midnightblue" stroke="midnightblue" points="279.14,-28.11 285.52,-19.65 275.26,-22.29 279.14,-28.11"/>
</g>
</g>
</svg>
