<?xml version="1.0" encoding="UTF-8" standalone="no"?>
<!DOCTYPE svg PUBLIC "-//W3C//DTD SVG 1.1//EN"
 "http://www.w3.org/Graphics/SVG/1.1/DTD/svg11.dtd">
<!-- Generated by graphviz version 2.43.0 (0)
 -->
<!-- Title: Main.cpp Pages: 1 -->
<svg width="1676pt" height="196pt"
 viewBox="0.00 0.00 1676.00 196.00" xmlns="http://www.w3.org/2000/svg" xmlns:xlink="http://www.w3.org/1999/xlink">
<g id="graph0" class="graph" transform="scale(1 1) rotate(0) translate(4 192)">
<title>Main.cpp</title>
<polygon fill="white" stroke="transparent" points="-4,4 -4,-192 1672,-192 1672,4 -4,4"/>
<!-- Node1 -->
<g id="node1" class="node">
<title>Node1</title>
<g id="a_node1"><a xlink:title=" ">
<polygon fill="#bfbfbf" stroke="black" points="754,-168.5 754,-187.5 815,-187.5 815,-168.5 754,-168.5"/>
<text text-anchor="middle" x="784.5" y="-175.5" font-family="Helvetica,sans-Serif" font-size="10.00">Main.cpp</text>
</a>
</g>
</g>
<!-- Node2 -->
<g id="node2" class="node">
<title>Node2</title>
<g id="a_node2"><a xlink:title=" ">
<polygon fill="white" stroke="#bfbfbf" points="409,-56.5 409,-75.5 448,-75.5 448,-56.5 409,-56.5"/>
<text text-anchor="middle" x="428.5" y="-63.5" font-family="Helvetica,sans-Serif" font-size="10.00">SD.h</text>
</a>
</g>
</g>
<!-- Node1&#45;&gt;Node2 -->
<g id="edge1" class="edge">
<title>Node1&#45;&gt;Node2</title>
<path fill="none" stroke="midnightblue" d="M753.74,-175.5C669.8,-171.1 441.55,-156.93 419.5,-132 408.33,-119.36 413.09,-99.6 419.09,-85.18"/>
<polygon fill="midnightblue" stroke="midnightblue" points="422.41,-86.35 423.47,-75.81 416.07,-83.39 422.41,-86.35"/>
</g>
<!-- Node3 -->
<g id="node3" class="node">
<title>Node3</title>
<g id="a_node3"><a xlink:title=" ">
<polygon fill="white" stroke="#bfbfbf" points="210,-112.5 210,-131.5 277,-131.5 277,-112.5 210,-112.5"/>
<text text-anchor="middle" x="243.5" y="-119.5" font-family="Helvetica,sans-Serif" font-size="10.00">EEPROM.h</text>
</a>
</g>
</g>
<!-- Node1&#45;&gt;Node3 -->
<g id="edge2" class="edge">
<title>Node1&#45;&gt;Node3</title>
<path fill="none" stroke="midnightblue" d="M753.75,-175.47C676.87,-171.37 469.95,-158.72 287.29,-131.94"/>
<polygon fill="midnightblue" stroke="midnightblue" points="287.64,-128.45 277.23,-130.45 286.61,-135.38 287.64,-128.45"/>
</g>
<!-- Node4 -->
<g id="node4" class="node">
<title>Node4</title>
<g id="a_node4"><a xlink:title=" ">
<polygon fill="white" stroke="#bfbfbf" points="295.5,-112.5 295.5,-131.5 371.5,-131.5 371.5,-112.5 295.5,-112.5"/>
<text text-anchor="middle" x="333.5" y="-119.5" font-family="Helvetica,sans-Serif" font-size="10.00">pico/stdlib.h</text>
</a>
</g>
</g>
<!-- Node1&#45;&gt;Node4 -->
<g id="edge3" class="edge">
<title>Node1&#45;&gt;Node4</title>
<path fill="none" stroke="midnightblue" d="M753.89,-174.17C686.93,-167.84 522.48,-151.56 385.5,-132 384.22,-131.82 382.93,-131.63 381.63,-131.43"/>
<polygon fill="midnightblue" stroke="midnightblue" points="381.94,-127.94 371.51,-129.85 380.85,-134.85 381.94,-127.94"/>
</g>
<!-- Node5 -->
<g id="node5" class="node">
<title>Node5</title>
<g id="a_node5"><a xlink:title=" ">
<polygon fill="white" stroke="#bfbfbf" points="660.5,-0.5 660.5,-19.5 708.5,-19.5 708.5,-0.5 660.5,-0.5"/>
<text text-anchor="middle" x="684.5" y="-7.5" font-family="Helvetica,sans-Serif" font-size="10.00">Wire.h</text>
</a>
</g>
</g>
<!-- Node1&#45;&gt;Node5 -->
<g id="edge4" class="edge">
<title>Node1&#45;&gt;Node5</title>
<path fill="none" stroke="midnightblue" d="M753.99,-173.13C710.24,-166.9 633.01,-153.18 615.5,-132 593.95,-105.93 595.01,-85.53 611.5,-56 620.01,-40.75 636.05,-30.03 650.93,-22.89"/>
<polygon fill="midnightblue" stroke="midnightblue" points="652.71,-25.93 660.45,-18.7 649.89,-19.52 652.71,-25.93"/>
</g>
<!-- Node6 -->
<g id="node6" class="node">
<title>Node6</title>
<g id="a_node6"><a xlink:title=" ">
<polygon fill="white" stroke="#bfbfbf" points="428,-112.5 428,-131.5 469,-131.5 469,-112.5 428,-112.5"/>
<text text-anchor="middle" x="448.5" y="-119.5" font-family="Helvetica,sans-Serif" font-size="10.00">SPI.h</text>
</a>
</g>
</g>
<!-- Node1&#45;&gt;Node6 -->
<g id="edge5" class="edge">
<title>Node1&#45;&gt;Node6</title>
<path fill="none" stroke="midnightblue" d="M753.83,-173.98C700.09,-168.38 585.32,-154.98 478.98,-131.8"/>
<polygon fill="midnightblue" stroke="midnightblue" points="479.57,-128.34 469.05,-129.6 478.06,-135.18 479.57,-128.34"/>
</g>
<!-- Node7 -->
<g id="node7" class="node">
<title>Node7</title>
<g id="a_node7"><a xlink:href="_circular_buffer_8h.html" target="_top" xlink:title=" ">
<polygon fill="white" stroke="black" points="99.5,-112.5 99.5,-131.5 191.5,-131.5 191.5,-112.5 99.5,-112.5"/>
<text text-anchor="middle" x="145.5" y="-119.5" font-family="Helvetica,sans-Serif" font-size="10.00">CircularBuffer.h</text>
</a>
</g>
</g>
<!-- Node1&#45;&gt;Node7 -->
<g id="edge6" class="edge">
<title>Node1&#45;&gt;Node7</title>
<path fill="none" stroke="midnightblue" d="M753.7,-175.55C667.94,-171.33 418.95,-157.74 201.67,-132.04"/>
<polygon fill="midnightblue" stroke="midnightblue" points="202.02,-128.56 191.67,-130.85 201.19,-135.51 202.02,-128.56"/>
</g>
<!-- Node11 -->
<g id="node11" class="node">
<title>Node11</title>
<g id="a_node11"><a xlink:href="_config_8h.html" target="_top" xlink:title=" ">
<polygon fill="white" stroke="black" points="624.5,-112.5 624.5,-131.5 680.5,-131.5 680.5,-112.5 624.5,-112.5"/>
<text text-anchor="middle" x="652.5" y="-119.5" font-family="Helvetica,sans-Serif" font-size="10.00">Config.h</text>
</a>
</g>
</g>
<!-- Node1&#45;&gt;Node11 -->
<g id="edge10" class="edge">
<title>Node1&#45;&gt;Node11</title>
<path fill="none" stroke="midnightblue" d="M763.58,-168.44C741.76,-159.52 707.35,-145.44 682.61,-135.32"/>
<polygon fill="midnightblue" stroke="midnightblue" points="683.9,-132.06 673.32,-131.52 681.25,-138.54 683.9,-132.06"/>
</g>
<!-- Node15 -->
<g id="node15" class="node">
<title>Node15</title>
<g id="a_node15"><a xlink:href="_data_logger_8h.html" target="_top" xlink:title=" ">
<polygon fill="white" stroke="black" points="487,-112.5 487,-131.5 568,-131.5 568,-112.5 487,-112.5"/>
<text text-anchor="middle" x="527.5" y="-119.5" font-family="Helvetica,sans-Serif" font-size="10.00">DataLogger.h</text>
</a>
</g>
</g>
<!-- Node1&#45;&gt;Node15 -->
<g id="edge16" class="edge">
<title>Node1&#45;&gt;Node15</title>
<path fill="none" stroke="midnightblue" d="M753.76,-170.54C710.29,-161.41 630.35,-144.61 578.07,-133.63"/>
<polygon fill="midnightblue" stroke="midnightblue" points="578.5,-130.14 568,-131.51 577.07,-136.99 578.5,-130.14"/>
</g>
<!-- Node17 -->
<g id="node17" class="node">
<title>Node17</title>
<g id="a_node17"><a xlink:href="_kalman_filter_8h.html" target="_top" xlink:title=" ">
<polygon fill="white" stroke="black" points="699,-112.5 699,-131.5 786,-131.5 786,-112.5 699,-112.5"/>
<text text-anchor="middle" x="742.5" y="-119.5" font-family="Helvetica,sans-Serif" font-size="10.00">KalmanFilter.h</text>
</a>
</g>
</g>
<!-- Node1&#45;&gt;Node17 -->
<g id="edge19" class="edge">
<title>Node1&#45;&gt;Node17</title>
<path fill="none" stroke="midnightblue" d="M777.56,-168.08C771.57,-160.38 762.75,-149.03 755.45,-139.65"/>
<polygon fill="midnightblue" stroke="midnightblue" points="758.21,-137.5 749.31,-131.75 752.68,-141.79 758.21,-137.5"/>
</g>
<!-- Node18 -->
<g id="node18" class="node">
<title>Node18</title>
<g id="a_node18"><a xlink:href="_pins_8h.html" target="_top" xlink:title=" ">
<polygon fill="white" stroke="black" points="804.5,-112.5 804.5,-131.5 850.5,-131.5 850.5,-112.5 804.5,-112.5"/>
<text text-anchor="middle" x="827.5" y="-119.5" font-family="Helvetica,sans-Serif" font-size="10.00">Pins.h</text>
</a>
</g>
</g>
<!-- Node1&#45;&gt;Node18 -->
<g id="edge20" class="edge">
<title>Node1&#45;&gt;Node18</title>
<path fill="none" stroke="midnightblue" d="M791.6,-168.08C797.74,-160.38 806.77,-149.03 814.24,-139.65"/>
<polygon fill="midnightblue" stroke="midnightblue" points="817.04,-141.75 820.53,-131.75 811.56,-137.39 817.04,-141.75"/>
</g>
<!-- Node19 -->
<g id="node19" class="node">
<title>Node19</title>
<g id="a_node19"><a xlink:href="_l_e_ds_8h.html" target="_top" xlink:title=" ">
<polygon fill="white" stroke="black" points="868.5,-112.5 868.5,-131.5 918.5,-131.5 918.5,-112.5 868.5,-112.5"/>
<text text-anchor="middle" x="893.5" y="-119.5" font-family="Helvetica,sans-Serif" font-size="10.00">LEDs.h</text>
</a>
</g>
</g>
<!-- Node1&#45;&gt;Node19 -->
<g id="edge21" class="edge">
<title>Node1&#45;&gt;Node19</title>
<path fill="none" stroke="midnightblue" d="M802.01,-168.32C819.57,-159.62 846.83,-146.12 867.03,-136.11"/>
<polygon fill="midnightblue" stroke="midnightblue" points="868.62,-139.23 876.03,-131.65 865.52,-132.96 868.62,-139.23"/>
</g>
<!-- Node20 -->
<g id="node20" class="node">
<title>Node20</title>
<g id="a_node20"><a xlink:href="_battery_8h.html" target="_top" xlink:title=" ">
<polygon fill="white" stroke="black" points="936.5,-112.5 936.5,-131.5 996.5,-131.5 996.5,-112.5 936.5,-112.5"/>
<text text-anchor="middle" x="966.5" y="-119.5" font-family="Helvetica,sans-Serif" font-size="10.00">Battery.h</text>
</a>
</g>
</g>
<!-- Node1&#45;&gt;Node20 -->
<g id="edge22" class="edge">
<title>Node1&#45;&gt;Node20</title>
<path fill="none" stroke="midnightblue" d="M813.34,-168.44C844.36,-159.24 893.83,-144.56 928.12,-134.39"/>
<polygon fill="midnightblue" stroke="midnightblue" points="929.21,-137.72 937.8,-131.52 927.21,-131.01 929.21,-137.72"/>
</g>
<!-- Node21 -->
<g id="node21" class="node">
<title>Node21</title>
<g id="a_node21"><a xlink:href="_servo_motor_8h.html" target="_top" xlink:title=" ">
<polygon fill="white" stroke="black" points="1015,-112.5 1015,-131.5 1096,-131.5 1096,-112.5 1015,-112.5"/>
<text text-anchor="middle" x="1055.5" y="-119.5" font-family="Helvetica,sans-Serif" font-size="10.00">ServoMotor.h</text>
</a>
</g>
</g>
<!-- Node1&#45;&gt;Node21 -->
<g id="edge23" class="edge">
<title>Node1&#45;&gt;Node21</title>
<path fill="none" stroke="midnightblue" d="M815.06,-170.91C861.19,-161.72 949.14,-144.19 1004.92,-133.08"/>
<polygon fill="midnightblue" stroke="midnightblue" points="1005.82,-136.47 1014.94,-131.08 1004.45,-129.6 1005.82,-136.47"/>
</g>
<!-- Node23 -->
<g id="node23" class="node">
<title>Node23</title>
<g id="a_node23"><a xlink:title=" ">
<polygon fill="white" stroke="#bfbfbf" points="1114,-112.5 1114,-131.5 1259,-131.5 1259,-112.5 1114,-112.5"/>
<text text-anchor="middle" x="1186.5" y="-119.5" font-family="Helvetica,sans-Serif" font-size="10.00">WocketAccelerationData.h</text>
</a>
</g>
</g>
<!-- Node1&#45;&gt;Node23 -->
<g id="edge25" class="edge">
<title>Node1&#45;&gt;Node23</title>
<path fill="none" stroke="midnightblue" d="M815.05,-172.9C878.03,-164.44 1023.88,-144.84 1112.93,-132.88"/>
<polygon fill="midnightblue" stroke="midnightblue" points="1113.52,-136.33 1122.97,-131.53 1112.59,-129.4 1113.52,-136.33"/>
</g>
<!-- Node24 -->
<g id="node24" class="node">
<title>Node24</title>
<g id="a_node24"><a xlink:href="_beep_and_blink_8h.html" target="_top" xlink:title=" ">
<polygon fill="white" stroke="black" points="1277.5,-112.5 1277.5,-131.5 1371.5,-131.5 1371.5,-112.5 1277.5,-112.5"/>
<text text-anchor="middle" x="1324.5" y="-119.5" font-family="Helvetica,sans-Serif" font-size="10.00">BeepAndBlink.h</text>
</a>
</g>
</g>
<!-- Node1&#45;&gt;Node24 -->
<g id="edge26" class="edge">
<title>Node1&#45;&gt;Node24</title>
<path fill="none" stroke="midnightblue" d="M815.16,-174.86C890.35,-169.47 1090.11,-154.22 1267.45,-132.05"/>
<polygon fill="midnightblue" stroke="midnightblue" points="1268,-135.51 1277.48,-130.79 1267.12,-128.57 1268,-135.51"/>
</g>
<!-- Node25 -->
<g id="node25" class="node">
<title>Node25</title>
<g id="a_node25"><a xlink:href="_rotary_switch_8h.html" target="_top" xlink:title=" ">
<polygon fill="white" stroke="black" points="1389.5,-112.5 1389.5,-131.5 1479.5,-131.5 1479.5,-112.5 1389.5,-112.5"/>
<text text-anchor="middle" x="1434.5" y="-119.5" font-family="Helvetica,sans-Serif" font-size="10.00">RotarySwitch.h</text>
</a>
</g>
</g>
<!-- Node1&#45;&gt;Node25 -->
<g id="edge27" class="edge">
<title>Node1&#45;&gt;Node25</title>
<path fill="none" stroke="midnightblue" d="M815.3,-175.65C902.24,-171.64 1157.06,-158.46 1379.24,-132.04"/>
<polygon fill="midnightblue" stroke="midnightblue" points="1379.95,-135.48 1389.46,-130.82 1379.12,-128.53 1379.95,-135.48"/>
</g>
<!-- Node26 -->
<g id="node26" class="node">
<title>Node26</title>
<g id="a_node26"><a xlink:href="_state_8h.html" target="_top" xlink:title=" ">
<polygon fill="white" stroke="black" points="1498,-112.5 1498,-131.5 1549,-131.5 1549,-112.5 1498,-112.5"/>
<text text-anchor="middle" x="1523.5" y="-119.5" font-family="Helvetica,sans-Serif" font-size="10.00">State.h</text>
</a>
</g>
</g>
<!-- Node1&#45;&gt;Node26 -->
<g id="edge28" class="edge">
<title>Node1&#45;&gt;Node26</title>
<path fill="none" stroke="midnightblue" d="M815.26,-177.09C912.6,-176.93 1222.57,-173.13 1487.43,-131.84"/>
<polygon fill="midnightblue" stroke="midnightblue" points="1488.29,-135.25 1497.62,-130.23 1487.2,-128.34 1488.29,-135.25"/>
</g>
<!-- Node27 -->
<g id="node27" class="node">
<title>Node27</title>
<g id="a_node27"><a xlink:href="_launch_detector_8h.html" target="_top" xlink:title=" ">
<polygon fill="white" stroke="black" points="1567,-112.5 1567,-131.5 1668,-131.5 1668,-112.5 1567,-112.5"/>
<text text-anchor="middle" x="1617.5" y="-119.5" font-family="Helvetica,sans-Serif" font-size="10.00">LaunchDetector.h</text>
</a>
</g>
</g>
<!-- Node1&#45;&gt;Node27 -->
<g id="edge29" class="edge">
<title>Node1&#45;&gt;Node27</title>
<path fill="none" stroke="midnightblue" d="M815.19,-176.24C918.39,-173.49 1262.51,-162.54 1556.69,-132.1"/>
<polygon fill="midnightblue" stroke="midnightblue" points="1557.11,-135.58 1566.69,-131.06 1556.38,-128.62 1557.11,-135.58"/>
</g>
<!-- Node8 -->
<g id="node8" class="node">
<title>Node8</title>
<g id="a_node8"><a xlink:title=" ">
<polygon fill="white" stroke="#bfbfbf" points="119,-56.5 119,-75.5 172,-75.5 172,-56.5 119,-56.5"/>
<text text-anchor="middle" x="145.5" y="-63.5" font-family="Helvetica,sans-Serif" font-size="10.00">stdint.h</text>
</a>
</g>
</g>
<!-- Node7&#45;&gt;Node8 -->
<g id="edge7" class="edge">
<title>Node7&#45;&gt;Node8</title>
<path fill="none" stroke="midnightblue" d="M145.5,-112.08C145.5,-105.01 145.5,-94.86 145.5,-85.99"/>
<polygon fill="midnightblue" stroke="midnightblue" points="149,-85.75 145.5,-75.75 142,-85.75 149,-85.75"/>
</g>
<!-- Node9 -->
<g id="node9" class="node">
<title>Node9</title>
<g id="a_node9"><a xlink:title=" ">
<polygon fill="white" stroke="#bfbfbf" points="190.5,-56.5 190.5,-75.5 246.5,-75.5 246.5,-56.5 190.5,-56.5"/>
<text text-anchor="middle" x="218.5" y="-63.5" font-family="Helvetica,sans-Serif" font-size="10.00">stddef.h</text>
</a>
</g>
</g>
<!-- Node7&#45;&gt;Node9 -->
<g id="edge8" class="edge">
<title>Node7&#45;&gt;Node9</title>
<path fill="none" stroke="midnightblue" d="M157.23,-112.32C168.34,-104.11 185.24,-91.6 198.48,-81.81"/>
<polygon fill="midnightblue" stroke="midnightblue" points="200.6,-84.59 206.56,-75.83 196.44,-78.97 200.6,-84.59"/>
</g>
<!-- Node10 -->
<g id="node10" class="node">
<title>Node10</title>
<g id="a_node10"><a xlink:title=" ">
<polygon fill="white" stroke="#bfbfbf" points="0,-56.5 0,-75.5 101,-75.5 101,-56.5 0,-56.5"/>
<text text-anchor="middle" x="50.5" y="-63.5" font-family="Helvetica,sans-Serif" font-size="10.00">CircularBuffer.tpp</text>
</a>
</g>
</g>
<!-- Node7&#45;&gt;Node10 -->
<g id="edge9" class="edge">
<title>Node7&#45;&gt;Node10</title>
<path fill="none" stroke="midnightblue" d="M130.24,-112.32C115.28,-103.82 92.25,-90.73 74.77,-80.8"/>
<polygon fill="midnightblue" stroke="midnightblue" points="76.15,-77.55 65.73,-75.65 72.69,-83.64 76.15,-77.55"/>
</g>
<!-- Node11&#45;&gt;Node5 -->
<g id="edge12" class="edge">
<title>Node11&#45;&gt;Node5</title>
<path fill="none" stroke="midnightblue" d="M680.66,-114.01C683.97,-113.29 687.3,-112.6 690.5,-112 748.05,-101.24 913.03,-120.14 951.5,-76 957.34,-69.3 957.24,-62.79 951.5,-56 922.1,-21.23 784.31,-13.32 719,-11.52"/>
<polygon fill="midnightblue" stroke="midnightblue" points="718.88,-8.02 708.8,-11.27 718.71,-15.02 718.88,-8.02"/>
</g>
<!-- Node12 -->
<g id="node12" class="node">
<title>Node12</title>
<g id="a_node12"><a xlink:title=" ">
<polygon fill="white" stroke="#bfbfbf" points="892.5,-56.5 892.5,-75.5 942.5,-75.5 942.5,-56.5 892.5,-56.5"/>
<text text-anchor="middle" x="917.5" y="-63.5" font-family="Helvetica,sans-Serif" font-size="10.00">cstdint</text>
</a>
</g>
</g>
<!-- Node11&#45;&gt;Node12 -->
<g id="edge11" class="edge">
<title>Node11&#45;&gt;Node12</title>
<path fill="none" stroke="midnightblue" d="M680.69,-114.16C683.99,-113.41 687.32,-112.67 690.5,-112 772.78,-94.59 796.67,-95.11 882.39,-76.11"/>
<polygon fill="midnightblue" stroke="midnightblue" points="883.31,-79.5 892.3,-73.89 881.78,-72.67 883.31,-79.5"/>
</g>
<!-- Node13 -->
<g id="node13" class="node">
<title>Node13</title>
<g id="a_node13"><a xlink:href="_accelerometer_config_8h.html" target="_top" xlink:title=" ">
<polygon fill="white" stroke="black" points="620.5,-56.5 620.5,-75.5 748.5,-75.5 748.5,-56.5 620.5,-56.5"/>
<text text-anchor="middle" x="684.5" y="-63.5" font-family="Helvetica,sans-Serif" font-size="10.00">AccelerometerConfig.h</text>
</a>
</g>
</g>
<!-- Node11&#45;&gt;Node13 -->
<g id="edge13" class="edge">
<title>Node11&#45;&gt;Node13</title>
<path fill="none" stroke="midnightblue" d="M657.78,-112.08C662.21,-104.61 668.66,-93.72 674.12,-84.52"/>
<polygon fill="midnightblue" stroke="midnightblue" points="677.23,-86.14 679.31,-75.75 671.21,-82.57 677.23,-86.14"/>
</g>
<!-- Node14 -->
<g id="node14" class="node">
<title>Node14</title>
<g id="a_node14"><a xlink:title=" ">
<polygon fill="white" stroke="#bfbfbf" points="766.5,-56.5 766.5,-75.5 874.5,-75.5 874.5,-56.5 766.5,-56.5"/>
<text text-anchor="middle" x="820.5" y="-63.5" font-family="Helvetica,sans-Serif" font-size="10.00">BarometerConfig.h</text>
</a>
</g>
</g>
<!-- Node11&#45;&gt;Node14 -->
<g id="edge15" class="edge">
<title>Node11&#45;&gt;Node14</title>
<path fill="none" stroke="midnightblue" d="M679.12,-112.44C707.51,-103.32 752.64,-88.81 784.25,-78.65"/>
<polygon fill="midnightblue" stroke="midnightblue" points="785.56,-81.91 794,-75.52 783.41,-75.24 785.56,-81.91"/>
</g>
<!-- Node13&#45;&gt;Node5 -->
<g id="edge14" class="edge">
<title>Node13&#45;&gt;Node5</title>
<path fill="none" stroke="midnightblue" d="M684.5,-56.08C684.5,-49.01 684.5,-38.86 684.5,-29.99"/>
<polygon fill="midnightblue" stroke="midnightblue" points="688,-29.75 684.5,-19.75 681,-29.75 688,-29.75"/>
</g>
<!-- Node15&#45;&gt;Node2 -->
<g id="edge18" class="edge">
<title>Node15&#45;&gt;Node2</title>
<path fill="none" stroke="midnightblue" d="M511.59,-112.32C495.86,-103.74 471.56,-90.49 453.29,-80.52"/>
<polygon fill="midnightblue" stroke="midnightblue" points="454.82,-77.37 444.37,-75.65 451.47,-83.52 454.82,-77.37"/>
</g>
<!-- Node16 -->
<g id="node16" class="node">
<title>Node16</title>
<g id="a_node16"><a xlink:title=" ">
<polygon fill="white" stroke="#bfbfbf" points="496,-56.5 496,-75.5 559,-75.5 559,-56.5 496,-56.5"/>
<text text-anchor="middle" x="527.5" y="-63.5" font-family="Helvetica,sans-Serif" font-size="10.00">Arduino.h</text>
</a>
</g>
</g>
<!-- Node15&#45;&gt;Node16 -->
<g id="edge17" class="edge">
<title>Node15&#45;&gt;Node16</title>
<path fill="none" stroke="midnightblue" d="M527.5,-112.08C527.5,-105.01 527.5,-94.86 527.5,-85.99"/>
<polygon fill="midnightblue" stroke="midnightblue" points="531,-85.75 527.5,-75.75 524,-85.75 531,-85.75"/>
</g>
<!-- Node22 -->
<g id="node22" class="node">
<title>Node22</title>
<g id="a_node22"><a xlink:title=" ">
<polygon fill="white" stroke="#bfbfbf" points="1029,-56.5 1029,-75.5 1082,-75.5 1082,-56.5 1029,-56.5"/>
<text text-anchor="middle" x="1055.5" y="-63.5" font-family="Helvetica,sans-Serif" font-size="10.00">Servo.h</text>
</a>
</g>
</g>
<!-- Node21&#45;&gt;Node22 -->
<g id="edge24" class="edge">
<title>Node21&#45;&gt;Node22</title>
<path fill="none" stroke="midnightblue" d="M1055.5,-112.08C1055.5,-105.01 1055.5,-94.86 1055.5,-85.99"/>
<polygon fill="midnightblue" stroke="midnightblue" points="1059,-85.75 1055.5,-75.75 1052,-85.75 1059,-85.75"/>
</g>
</g>
</svg>
