<?xml version="1.0" encoding="UTF-8" standalone="no"?>
<!DOCTYPE svg PUBLIC "-//W3C//DTD SVG 1.1//EN"
 "http://www.w3.org/Graphics/SVG/1.1/DTD/svg11.dtd">
<!-- Generated by graphviz version 2.43.0 (0)
 -->
<!-- Title: Main.cpp Pages: 1 -->
<svg width="1522pt" height="140pt"
 viewBox="0.00 0.00 1522.00 140.00" xmlns="http://www.w3.org/2000/svg" xmlns:xlink="http://www.w3.org/1999/xlink">
<g id="graph0" class="graph" transform="scale(1 1) rotate(0) translate(4 136)">
<title>Main.cpp</title>
<polygon fill="white" stroke="transparent" points="-4,4 -4,-136 1518,-136 1518,4 -4,4"/>
<!-- Node1 -->
<g id="node1" class="node">
<title>Node1</title>
<g id="a_node1"><a xlink:title=" ">
<polygon fill="#bfbfbf" stroke="black" points="622,-112.5 622,-131.5 683,-131.5 683,-112.5 622,-112.5"/>
<text text-anchor="middle" x="652.5" y="-119.5" font-family="Helvetica,sans-Serif" font-size="10.00">Main.cpp</text>
</a>
</g>
</g>
<!-- Node2 -->
<g id="node2" class="node">
<title>Node2</title>
<g id="a_node2"><a xlink:title=" ">
<polygon fill="white" stroke="#bfbfbf" points="0,-0.5 0,-19.5 39,-19.5 39,-0.5 0,-0.5"/>
<text text-anchor="middle" x="19.5" y="-7.5" font-family="Helvetica,sans-Serif" font-size="10.00">SD.h</text>
</a>
</g>
</g>
<!-- Node1&#45;&gt;Node2 -->
<g id="edge1" class="edge">
<title>Node1&#45;&gt;Node2</title>
<path fill="none" stroke="midnightblue" d="M621.8,-120.77C503.86,-119.61 84.17,-112.91 38.5,-76 24.95,-65.05 20.72,-44.99 19.56,-30.04"/>
<polygon fill="midnightblue" stroke="midnightblue" points="23.05,-29.7 19.17,-19.84 16.06,-29.97 23.05,-29.7"/>
</g>
<!-- Node3 -->
<g id="node3" class="node">
<title>Node3</title>
<g id="a_node3"><a xlink:href="_e_e_p_r_o_m_8h.html" target="_top" xlink:title=" ">
<polygon fill="white" stroke="black" points="147,-56.5 147,-75.5 214,-75.5 214,-56.5 147,-56.5"/>
<text text-anchor="middle" x="180.5" y="-63.5" font-family="Helvetica,sans-Serif" font-size="10.00">EEPROM.h</text>
</a>
</g>
</g>
<!-- Node1&#45;&gt;Node3 -->
<g id="edge2" class="edge">
<title>Node1&#45;&gt;Node3</title>
<path fill="none" stroke="midnightblue" d="M621.93,-118.87C552.93,-113.83 379.68,-99.89 224.44,-75.99"/>
<polygon fill="midnightblue" stroke="midnightblue" points="224.66,-72.48 214.24,-74.4 223.58,-79.4 224.66,-72.48"/>
</g>
<!-- Node5 -->
<g id="node5" class="node">
<title>Node5</title>
<g id="a_node5"><a xlink:title=" ">
<polygon fill="white" stroke="#bfbfbf" points="344.5,-56.5 344.5,-75.5 420.5,-75.5 420.5,-56.5 344.5,-56.5"/>
<text text-anchor="middle" x="382.5" y="-63.5" font-family="Helvetica,sans-Serif" font-size="10.00">pico/stdlib.h</text>
</a>
</g>
</g>
<!-- Node1&#45;&gt;Node5 -->
<g id="edge4" class="edge">
<title>Node1&#45;&gt;Node5</title>
<path fill="none" stroke="midnightblue" d="M621.79,-114.86C575.08,-105.52 485.77,-87.65 430.46,-76.59"/>
<polygon fill="midnightblue" stroke="midnightblue" points="431.03,-73.14 420.54,-74.61 429.66,-80 431.03,-73.14"/>
</g>
<!-- Node6 -->
<g id="node6" class="node">
<title>Node6</title>
<g id="a_node6"><a xlink:title=" ">
<polygon fill="white" stroke="#bfbfbf" points="264.5,-0.5 264.5,-19.5 312.5,-19.5 312.5,-0.5 264.5,-0.5"/>
<text text-anchor="middle" x="288.5" y="-7.5" font-family="Helvetica,sans-Serif" font-size="10.00">Wire.h</text>
</a>
</g>
</g>
<!-- Node1&#45;&gt;Node6 -->
<g id="edge5" class="edge">
<title>Node1&#45;&gt;Node6</title>
<path fill="none" stroke="midnightblue" d="M621.78,-119.67C551.89,-116.17 383.39,-104.9 335.5,-76 317.48,-65.13 304.36,-44.44 296.63,-29.31"/>
<polygon fill="midnightblue" stroke="midnightblue" points="299.61,-27.44 292.15,-19.92 293.29,-30.45 299.61,-27.44"/>
</g>
<!-- Node7 -->
<g id="node7" class="node">
<title>Node7</title>
<g id="a_node7"><a xlink:title=" ">
<polygon fill="white" stroke="#bfbfbf" points="439,-56.5 439,-75.5 480,-75.5 480,-56.5 439,-56.5"/>
<text text-anchor="middle" x="459.5" y="-63.5" font-family="Helvetica,sans-Serif" font-size="10.00">SPI.h</text>
</a>
</g>
</g>
<!-- Node1&#45;&gt;Node7 -->
<g id="edge6" class="edge">
<title>Node1&#45;&gt;Node7</title>
<path fill="none" stroke="midnightblue" d="M621.8,-112.74C590.91,-104.39 541.68,-90.94 489.84,-76.05"/>
<polygon fill="midnightblue" stroke="midnightblue" points="490.72,-72.66 480.14,-73.26 488.78,-79.39 490.72,-72.66"/>
</g>
<!-- Node8 -->
<g id="node8" class="node">
<title>Node8</title>
<g id="a_node8"><a xlink:href="_circular_buffer_8h.html" target="_top" xlink:title=" ">
<polygon fill="white" stroke="black" points="498.5,-56.5 498.5,-75.5 590.5,-75.5 590.5,-56.5 498.5,-56.5"/>
<text text-anchor="middle" x="544.5" y="-63.5" font-family="Helvetica,sans-Serif" font-size="10.00">CircularBuffer.h</text>
</a>
</g>
</g>
<!-- Node1&#45;&gt;Node8 -->
<g id="edge7" class="edge">
<title>Node1&#45;&gt;Node8</title>
<path fill="none" stroke="midnightblue" d="M635.15,-112.32C617.83,-103.66 590.98,-90.24 571,-80.25"/>
<polygon fill="midnightblue" stroke="midnightblue" points="572.32,-77 561.81,-75.65 569.19,-83.26 572.32,-77"/>
</g>
<!-- Node12 -->
<g id="node12" class="node">
<title>Node12</title>
<g id="a_node12"><a xlink:href="_config_8h.html" target="_top" xlink:title=" ">
<polygon fill="white" stroke="black" points="232.5,-56.5 232.5,-75.5 288.5,-75.5 288.5,-56.5 232.5,-56.5"/>
<text text-anchor="middle" x="260.5" y="-63.5" font-family="Helvetica,sans-Serif" font-size="10.00">Config.h</text>
</a>
</g>
</g>
<!-- Node1&#45;&gt;Node12 -->
<g id="edge11" class="edge">
<title>Node1&#45;&gt;Node12</title>
<path fill="none" stroke="midnightblue" d="M621.94,-117.94C560.97,-111.63 419.95,-96.1 302.5,-76 301.26,-75.79 300,-75.56 298.73,-75.33"/>
<polygon fill="midnightblue" stroke="midnightblue" points="299.39,-71.89 288.9,-73.42 298.05,-78.77 299.39,-71.89"/>
</g>
<!-- Node13 -->
<g id="node13" class="node">
<title>Node13</title>
<g id="a_node13"><a xlink:href="_data_logger_8h.html" target="_top" xlink:title=" ">
<polygon fill="white" stroke="black" points="48,-56.5 48,-75.5 129,-75.5 129,-56.5 48,-56.5"/>
<text text-anchor="middle" x="88.5" y="-63.5" font-family="Helvetica,sans-Serif" font-size="10.00">DataLogger.h</text>
</a>
</g>
</g>
<!-- Node1&#45;&gt;Node13 -->
<g id="edge14" class="edge">
<title>Node1&#45;&gt;Node13</title>
<path fill="none" stroke="midnightblue" d="M621.91,-119.34C543.41,-114.86 328.24,-101.23 139.22,-76.12"/>
<polygon fill="midnightblue" stroke="midnightblue" points="139.47,-72.62 129.09,-74.76 138.54,-79.56 139.47,-72.62"/>
</g>
<!-- Node15 -->
<g id="node15" class="node">
<title>Node15</title>
<g id="a_node15"><a xlink:href="_kalman_filter_8h.html" target="_top" xlink:title=" ">
<polygon fill="white" stroke="black" points="609,-56.5 609,-75.5 696,-75.5 696,-56.5 609,-56.5"/>
<text text-anchor="middle" x="652.5" y="-63.5" font-family="Helvetica,sans-Serif" font-size="10.00">KalmanFilter.h</text>
</a>
</g>
</g>
<!-- Node1&#45;&gt;Node15 -->
<g id="edge17" class="edge">
<title>Node1&#45;&gt;Node15</title>
<path fill="none" stroke="midnightblue" d="M652.5,-112.08C652.5,-105.01 652.5,-94.86 652.5,-85.99"/>
<polygon fill="midnightblue" stroke="midnightblue" points="656,-85.75 652.5,-75.75 649,-85.75 656,-85.75"/>
</g>
<!-- Node16 -->
<g id="node16" class="node">
<title>Node16</title>
<g id="a_node16"><a xlink:href="_l_e_ds_8h.html" target="_top" xlink:title=" ">
<polygon fill="white" stroke="black" points="714.5,-56.5 714.5,-75.5 764.5,-75.5 764.5,-56.5 714.5,-56.5"/>
<text text-anchor="middle" x="739.5" y="-63.5" font-family="Helvetica,sans-Serif" font-size="10.00">LEDs.h</text>
</a>
</g>
</g>
<!-- Node1&#45;&gt;Node16 -->
<g id="edge18" class="edge">
<title>Node1&#45;&gt;Node16</title>
<path fill="none" stroke="midnightblue" d="M666.48,-112.32C680.05,-103.9 700.88,-90.97 716.82,-81.07"/>
<polygon fill="midnightblue" stroke="midnightblue" points="718.91,-83.9 725.56,-75.65 715.21,-77.95 718.91,-83.9"/>
</g>
<!-- Node17 -->
<g id="node17" class="node">
<title>Node17</title>
<g id="a_node17"><a xlink:href="_battery_8h.html" target="_top" xlink:title=" ">
<polygon fill="white" stroke="black" points="782.5,-56.5 782.5,-75.5 842.5,-75.5 842.5,-56.5 782.5,-56.5"/>
<text text-anchor="middle" x="812.5" y="-63.5" font-family="Helvetica,sans-Serif" font-size="10.00">Battery.h</text>
</a>
</g>
</g>
<!-- Node1&#45;&gt;Node17 -->
<g id="edge19" class="edge">
<title>Node1&#45;&gt;Node17</title>
<path fill="none" stroke="midnightblue" d="M677.85,-112.44C704.77,-103.36 747.5,-88.94 777.59,-78.78"/>
<polygon fill="midnightblue" stroke="midnightblue" points="778.91,-82.03 787.27,-75.52 776.67,-75.4 778.91,-82.03"/>
</g>
<!-- Node18 -->
<g id="node18" class="node">
<title>Node18</title>
<g id="a_node18"><a xlink:href="_servo_motor_8h.html" target="_top" xlink:title=" ">
<polygon fill="white" stroke="black" points="861,-56.5 861,-75.5 942,-75.5 942,-56.5 861,-56.5"/>
<text text-anchor="middle" x="901.5" y="-63.5" font-family="Helvetica,sans-Serif" font-size="10.00">ServoMotor.h</text>
</a>
</g>
</g>
<!-- Node1&#45;&gt;Node18 -->
<g id="edge20" class="edge">
<title>Node1&#45;&gt;Node18</title>
<path fill="none" stroke="midnightblue" d="M683.03,-114.38C725.19,-105.24 801.72,-88.64 852.08,-77.72"/>
<polygon fill="midnightblue" stroke="midnightblue" points="853.07,-81.09 862.1,-75.55 851.58,-74.24 853.07,-81.09"/>
</g>
<!-- Node20 -->
<g id="node20" class="node">
<title>Node20</title>
<g id="a_node20"><a xlink:title=" ">
<polygon fill="white" stroke="#bfbfbf" points="960,-56.5 960,-75.5 1105,-75.5 1105,-56.5 960,-56.5"/>
<text text-anchor="middle" x="1032.5" y="-63.5" font-family="Helvetica,sans-Serif" font-size="10.00">WocketAccelerationData.h</text>
</a>
</g>
</g>
<!-- Node1&#45;&gt;Node20 -->
<g id="edge22" class="edge">
<title>Node1&#45;&gt;Node20</title>
<path fill="none" stroke="midnightblue" d="M683.28,-116.63C743.66,-108.05 879.02,-88.81 962.37,-76.97"/>
<polygon fill="midnightblue" stroke="midnightblue" points="963.11,-80.4 972.51,-75.52 962.12,-73.47 963.11,-80.4"/>
</g>
<!-- Node21 -->
<g id="node21" class="node">
<title>Node21</title>
<g id="a_node21"><a xlink:title=" ">
<polygon fill="white" stroke="#bfbfbf" points="1123.5,-56.5 1123.5,-75.5 1217.5,-75.5 1217.5,-56.5 1123.5,-56.5"/>
<text text-anchor="middle" x="1170.5" y="-63.5" font-family="Helvetica,sans-Serif" font-size="10.00">BeepAndBlink.h</text>
</a>
</g>
</g>
<!-- Node1&#45;&gt;Node21 -->
<g id="edge23" class="edge">
<title>Node1&#45;&gt;Node21</title>
<path fill="none" stroke="midnightblue" d="M683.12,-118.68C755.85,-113.03 944.87,-97.52 1113.43,-76.06"/>
<polygon fill="midnightblue" stroke="midnightblue" points="1114,-79.52 1123.48,-74.77 1113.11,-72.58 1114,-79.52"/>
</g>
<!-- Node22 -->
<g id="node22" class="node">
<title>Node22</title>
<g id="a_node22"><a xlink:href="_rotary_switch_8h.html" target="_top" xlink:title=" ">
<polygon fill="white" stroke="black" points="1235.5,-56.5 1235.5,-75.5 1325.5,-75.5 1325.5,-56.5 1235.5,-56.5"/>
<text text-anchor="middle" x="1280.5" y="-63.5" font-family="Helvetica,sans-Serif" font-size="10.00">RotarySwitch.h</text>
</a>
</g>
</g>
<!-- Node1&#45;&gt;Node22 -->
<g id="edge24" class="edge">
<title>Node1&#45;&gt;Node22</title>
<path fill="none" stroke="midnightblue" d="M683.08,-119.54C767.64,-115.31 1011.84,-101.73 1225.32,-76.04"/>
<polygon fill="midnightblue" stroke="midnightblue" points="1225.96,-79.49 1235.46,-74.81 1225.11,-72.54 1225.96,-79.49"/>
</g>
<!-- Node23 -->
<g id="node23" class="node">
<title>Node23</title>
<g id="a_node23"><a xlink:href="_state_8h.html" target="_top" xlink:title=" ">
<polygon fill="white" stroke="black" points="1344,-56.5 1344,-75.5 1395,-75.5 1395,-56.5 1344,-56.5"/>
<text text-anchor="middle" x="1369.5" y="-63.5" font-family="Helvetica,sans-Serif" font-size="10.00">State.h</text>
</a>
</g>
</g>
<!-- Node1&#45;&gt;Node23 -->
<g id="edge25" class="edge">
<title>Node1&#45;&gt;Node23</title>
<path fill="none" stroke="midnightblue" d="M683.32,-121C778.69,-120.56 1077.5,-115.99 1333.39,-75.85"/>
<polygon fill="midnightblue" stroke="midnightblue" points="1334.29,-79.25 1343.62,-74.23 1333.19,-72.34 1334.29,-79.25"/>
</g>
<!-- Node24 -->
<g id="node24" class="node">
<title>Node24</title>
<g id="a_node24"><a xlink:href="_launch_detector_8h.html" target="_top" xlink:title=" ">
<polygon fill="white" stroke="black" points="1413,-56.5 1413,-75.5 1514,-75.5 1514,-56.5 1413,-56.5"/>
<text text-anchor="middle" x="1463.5" y="-63.5" font-family="Helvetica,sans-Serif" font-size="10.00">LaunchDetector.h</text>
</a>
</g>
</g>
<!-- Node1&#45;&gt;Node24 -->
<g id="edge26" class="edge">
<title>Node1&#45;&gt;Node24</title>
<path fill="none" stroke="midnightblue" d="M683.03,-120.18C784.11,-117.24 1117.26,-105.87 1402.56,-76.12"/>
<polygon fill="midnightblue" stroke="midnightblue" points="1403.11,-79.58 1412.69,-75.05 1402.38,-72.62 1403.11,-79.58"/>
</g>
<!-- Node4 -->
<g id="node4" class="node">
<title>Node4</title>
<g id="a_node4"><a xlink:title=" ">
<polygon fill="white" stroke="#bfbfbf" points="161.5,-0.5 161.5,-19.5 211.5,-19.5 211.5,-0.5 161.5,-0.5"/>
<text text-anchor="middle" x="186.5" y="-7.5" font-family="Helvetica,sans-Serif" font-size="10.00">cstdint</text>
</a>
</g>
</g>
<!-- Node3&#45;&gt;Node4 -->
<g id="edge3" class="edge">
<title>Node3&#45;&gt;Node4</title>
<path fill="none" stroke="midnightblue" d="M181.49,-56.08C182.29,-48.93 183.43,-38.64 184.42,-29.69"/>
<polygon fill="midnightblue" stroke="midnightblue" points="187.9,-30.08 185.53,-19.75 180.94,-29.3 187.9,-30.08"/>
</g>
<!-- Node9 -->
<g id="node9" class="node">
<title>Node9</title>
<g id="a_node9"><a xlink:title=" ">
<polygon fill="white" stroke="#bfbfbf" points="445,-0.5 445,-19.5 498,-19.5 498,-0.5 445,-0.5"/>
<text text-anchor="middle" x="471.5" y="-7.5" font-family="Helvetica,sans-Serif" font-size="10.00">stdint.h</text>
</a>
</g>
</g>
<!-- Node8&#45;&gt;Node9 -->
<g id="edge8" class="edge">
<title>Node8&#45;&gt;Node9</title>
<path fill="none" stroke="midnightblue" d="M532.77,-56.32C521.66,-48.11 504.76,-35.6 491.52,-25.81"/>
<polygon fill="midnightblue" stroke="midnightblue" points="493.56,-22.97 483.44,-19.83 489.4,-28.59 493.56,-22.97"/>
</g>
<!-- Node10 -->
<g id="node10" class="node">
<title>Node10</title>
<g id="a_node10"><a xlink:title=" ">
<polygon fill="white" stroke="#bfbfbf" points="516.5,-0.5 516.5,-19.5 572.5,-19.5 572.5,-0.5 516.5,-0.5"/>
<text text-anchor="middle" x="544.5" y="-7.5" font-family="Helvetica,sans-Serif" font-size="10.00">stddef.h</text>
</a>
</g>
</g>
<!-- Node8&#45;&gt;Node10 -->
<g id="edge9" class="edge">
<title>Node8&#45;&gt;Node10</title>
<path fill="none" stroke="midnightblue" d="M544.5,-56.08C544.5,-49.01 544.5,-38.86 544.5,-29.99"/>
<polygon fill="midnightblue" stroke="midnightblue" points="548,-29.75 544.5,-19.75 541,-29.75 548,-29.75"/>
</g>
<!-- Node11 -->
<g id="node11" class="node">
<title>Node11</title>
<g id="a_node11"><a xlink:title=" ">
<polygon fill="white" stroke="#bfbfbf" points="591,-0.5 591,-19.5 692,-19.5 692,-0.5 591,-0.5"/>
<text text-anchor="middle" x="641.5" y="-7.5" font-family="Helvetica,sans-Serif" font-size="10.00">CircularBuffer.tpp</text>
</a>
</g>
</g>
<!-- Node8&#45;&gt;Node11 -->
<g id="edge10" class="edge">
<title>Node8&#45;&gt;Node11</title>
<path fill="none" stroke="midnightblue" d="M560.08,-56.32C575.5,-47.74 599.31,-34.49 617.21,-24.52"/>
<polygon fill="midnightblue" stroke="midnightblue" points="618.92,-27.58 625.95,-19.65 615.51,-21.46 618.92,-27.58"/>
</g>
<!-- Node12&#45;&gt;Node4 -->
<g id="edge12" class="edge">
<title>Node12&#45;&gt;Node4</title>
<path fill="none" stroke="midnightblue" d="M248.61,-56.32C237.35,-48.11 220.21,-35.6 206.79,-25.81"/>
<polygon fill="midnightblue" stroke="midnightblue" points="208.75,-22.9 198.61,-19.83 204.62,-28.56 208.75,-22.9"/>
</g>
<!-- Node12&#45;&gt;Node6 -->
<g id="edge13" class="edge">
<title>Node12&#45;&gt;Node6</title>
<path fill="none" stroke="midnightblue" d="M265.12,-56.08C268.96,-48.69 274.52,-37.95 279.26,-28.81"/>
<polygon fill="midnightblue" stroke="midnightblue" points="282.47,-30.24 283.96,-19.75 276.25,-27.02 282.47,-30.24"/>
</g>
<!-- Node13&#45;&gt;Node2 -->
<g id="edge16" class="edge">
<title>Node13&#45;&gt;Node2</title>
<path fill="none" stroke="midnightblue" d="M77.41,-56.32C67.01,-48.18 51.24,-35.84 38.78,-26.09"/>
<polygon fill="midnightblue" stroke="midnightblue" points="40.82,-23.24 30.79,-19.83 36.51,-28.75 40.82,-23.24"/>
</g>
<!-- Node14 -->
<g id="node14" class="node">
<title>Node14</title>
<g id="a_node14"><a xlink:title=" ">
<polygon fill="white" stroke="#bfbfbf" points="57,-0.5 57,-19.5 120,-19.5 120,-0.5 57,-0.5"/>
<text text-anchor="middle" x="88.5" y="-7.5" font-family="Helvetica,sans-Serif" font-size="10.00">Arduino.h</text>
</a>
</g>
</g>
<!-- Node13&#45;&gt;Node14 -->
<g id="edge15" class="edge">
<title>Node13&#45;&gt;Node14</title>
<path fill="none" stroke="midnightblue" d="M88.5,-56.08C88.5,-49.01 88.5,-38.86 88.5,-29.99"/>
<polygon fill="midnightblue" stroke="midnightblue" points="92,-29.75 88.5,-19.75 85,-29.75 92,-29.75"/>
</g>
<!-- Node19 -->
<g id="node19" class="node">
<title>Node19</title>
<g id="a_node19"><a xlink:title=" ">
<polygon fill="white" stroke="#bfbfbf" points="875,-0.5 875,-19.5 928,-19.5 928,-0.5 875,-0.5"/>
<text text-anchor="middle" x="901.5" y="-7.5" font-family="Helvetica,sans-Serif" font-size="10.00">Servo.h</text>
</a>
</g>
</g>
<!-- Node18&#45;&gt;Node19 -->
<g id="edge21" class="edge">
<title>Node18&#45;&gt;Node19</title>
<path fill="none" stroke="midnightblue" d="M901.5,-56.08C901.5,-49.01 901.5,-38.86 901.5,-29.99"/>
<polygon fill="midnightblue" stroke="midnightblue" points="905,-29.75 901.5,-19.75 898,-29.75 905,-29.75"/>
</g>
</g>
</svg>
