<?xml version="1.0" encoding="UTF-8" standalone="no"?>
<!DOCTYPE svg PUBLIC "-//W3C//DTD SVG 1.1//EN"
 "http://www.w3.org/Graphics/SVG/1.1/DTD/svg11.dtd">
<!-- Generated by graphviz version 2.43.0 (0)
 -->
<!-- Title: Pins.cpp Pages: 1 -->
<svg width="619pt" height="196pt"
 viewBox="0.00 0.00 618.50 196.00" xmlns="http://www.w3.org/2000/svg" xmlns:xlink="http://www.w3.org/1999/xlink">
<g id="graph0" class="graph" transform="scale(1 1) rotate(0) translate(4 192)">
<title>Pins.cpp</title>
<polygon fill="white" stroke="transparent" points="-4,4 -4,-192 614.5,-192 614.5,4 -4,4"/>
<!-- Node1 -->
<g id="node1" class="node">
<title>Node1</title>
<g id="a_node1"><a xlink:title=" ">
<polygon fill="#bfbfbf" stroke="black" points="122,-168.5 122,-187.5 179,-187.5 179,-168.5 122,-168.5"/>
<text text-anchor="middle" x="150.5" y="-175.5" font-family="Helvetica,sans-Serif" font-size="10.00">Pins.cpp</text>
</a>
</g>
</g>
<!-- Node2 -->
<g id="node2" class="node">
<title>Node2</title>
<g id="a_node2"><a xlink:title=" ">
<polygon fill="white" stroke="#bfbfbf" points="0,-112.5 0,-131.5 63,-131.5 63,-112.5 0,-112.5"/>
<text text-anchor="middle" x="31.5" y="-119.5" font-family="Helvetica,sans-Serif" font-size="10.00">Arduino.h</text>
</a>
</g>
</g>
<!-- Node1&#45;&gt;Node2 -->
<g id="edge1" class="edge">
<title>Node1&#45;&gt;Node2</title>
<path fill="none" stroke="midnightblue" d="M131.64,-168.44C112.23,-159.64 81.77,-145.81 59.54,-135.72"/>
<polygon fill="midnightblue" stroke="midnightblue" points="60.82,-132.46 50.27,-131.52 57.93,-138.84 60.82,-132.46"/>
</g>
<!-- Node3 -->
<g id="node3" class="node">
<title>Node3</title>
<g id="a_node3"><a xlink:title=" ">
<polygon fill="white" stroke="#bfbfbf" points="81,-112.5 81,-131.5 122,-131.5 122,-112.5 81,-112.5"/>
<text text-anchor="middle" x="101.5" y="-119.5" font-family="Helvetica,sans-Serif" font-size="10.00">SPI.h</text>
</a>
</g>
</g>
<!-- Node1&#45;&gt;Node3 -->
<g id="edge2" class="edge">
<title>Node1&#45;&gt;Node3</title>
<path fill="none" stroke="midnightblue" d="M142.41,-168.08C135.34,-160.3 124.91,-148.8 116.35,-139.37"/>
<polygon fill="midnightblue" stroke="midnightblue" points="118.75,-136.8 109.44,-131.75 113.57,-141.51 118.75,-136.8"/>
</g>
<!-- Node4 -->
<g id="node4" class="node">
<title>Node4</title>
<g id="a_node4"><a xlink:title=" ">
<polygon fill="white" stroke="#bfbfbf" points="236.5,-0.5 236.5,-19.5 284.5,-19.5 284.5,-0.5 236.5,-0.5"/>
<text text-anchor="middle" x="260.5" y="-7.5" font-family="Helvetica,sans-Serif" font-size="10.00">Wire.h</text>
</a>
</g>
</g>
<!-- Node1&#45;&gt;Node4 -->
<g id="edge3" class="edge">
<title>Node1&#45;&gt;Node4</title>
<path fill="none" stroke="midnightblue" d="M149.45,-168.38C147.33,-147.04 144.72,-90.96 170.5,-56 184.01,-37.68 207.08,-26.35 226.48,-19.65"/>
<polygon fill="midnightblue" stroke="midnightblue" points="227.75,-22.91 236.22,-16.55 225.63,-16.24 227.75,-22.91"/>
</g>
<!-- Node5 -->
<g id="node5" class="node">
<title>Node5</title>
<g id="a_node5"><a xlink:href="_servo_motor_8h.html" target="_top" xlink:title=" ">
<polygon fill="white" stroke="black" points="179,-112.5 179,-131.5 260,-131.5 260,-112.5 179,-112.5"/>
<text text-anchor="middle" x="219.5" y="-119.5" font-family="Helvetica,sans-Serif" font-size="10.00">ServoMotor.h</text>
</a>
</g>
</g>
<!-- Node1&#45;&gt;Node5 -->
<g id="edge4" class="edge">
<title>Node1&#45;&gt;Node5</title>
<path fill="none" stroke="midnightblue" d="M161.59,-168.32C171.99,-160.18 187.76,-147.84 200.22,-138.09"/>
<polygon fill="midnightblue" stroke="midnightblue" points="202.49,-140.75 208.21,-131.83 198.18,-135.24 202.49,-140.75"/>
</g>
<!-- Node7 -->
<g id="node7" class="node">
<title>Node7</title>
<g id="a_node7"><a xlink:href="_config_8h.html" target="_top" xlink:title=" ">
<polygon fill="white" stroke="black" points="285.5,-112.5 285.5,-131.5 341.5,-131.5 341.5,-112.5 285.5,-112.5"/>
<text text-anchor="middle" x="313.5" y="-119.5" font-family="Helvetica,sans-Serif" font-size="10.00">Config.h</text>
</a>
</g>
</g>
<!-- Node1&#45;&gt;Node7 -->
<g id="edge6" class="edge">
<title>Node1&#45;&gt;Node7</title>
<path fill="none" stroke="midnightblue" d="M176.33,-168.44C203.75,-159.36 247.28,-144.94 277.93,-134.78"/>
<polygon fill="midnightblue" stroke="midnightblue" points="279.4,-137.98 287.79,-131.52 277.2,-131.34 279.4,-137.98"/>
</g>
<!-- Node6 -->
<g id="node6" class="node">
<title>Node6</title>
<g id="a_node6"><a xlink:title=" ">
<polygon fill="white" stroke="#bfbfbf" points="179,-56.5 179,-75.5 232,-75.5 232,-56.5 179,-56.5"/>
<text text-anchor="middle" x="205.5" y="-63.5" font-family="Helvetica,sans-Serif" font-size="10.00">Servo.h</text>
</a>
</g>
</g>
<!-- Node5&#45;&gt;Node6 -->
<g id="edge5" class="edge">
<title>Node5&#45;&gt;Node6</title>
<path fill="none" stroke="midnightblue" d="M217.19,-112.08C215.33,-104.93 212.66,-94.64 210.35,-85.69"/>
<polygon fill="midnightblue" stroke="midnightblue" points="213.67,-84.55 207.77,-75.75 206.89,-86.31 213.67,-84.55"/>
</g>
<!-- Node7&#45;&gt;Node4 -->
<g id="edge8" class="edge">
<title>Node7&#45;&gt;Node4</title>
<path fill="none" stroke="midnightblue" d="M305.42,-112.34C297.77,-103.72 286.45,-89.82 279.5,-76 272.08,-61.23 267.07,-43.07 264.07,-29.71"/>
<polygon fill="midnightblue" stroke="midnightblue" points="267.48,-28.87 262.02,-19.79 260.62,-30.29 267.48,-28.87"/>
</g>
<!-- Node8 -->
<g id="node8" class="node">
<title>Node8</title>
<g id="a_node8"><a xlink:title=" ">
<polygon fill="white" stroke="#bfbfbf" points="288.5,-56.5 288.5,-75.5 338.5,-75.5 338.5,-56.5 288.5,-56.5"/>
<text text-anchor="middle" x="313.5" y="-63.5" font-family="Helvetica,sans-Serif" font-size="10.00">cstdint</text>
</a>
</g>
</g>
<!-- Node7&#45;&gt;Node8 -->
<g id="edge7" class="edge">
<title>Node7&#45;&gt;Node8</title>
<path fill="none" stroke="midnightblue" d="M313.5,-112.08C313.5,-105.01 313.5,-94.86 313.5,-85.99"/>
<polygon fill="midnightblue" stroke="midnightblue" points="317,-85.75 313.5,-75.75 310,-85.75 317,-85.75"/>
</g>
<!-- Node9 -->
<g id="node9" class="node">
<title>Node9</title>
<g id="a_node9"><a xlink:href="_accelerometer_config_8h.html" target="_top" xlink:title=" ">
<polygon fill="white" stroke="black" points="356.5,-56.5 356.5,-75.5 484.5,-75.5 484.5,-56.5 356.5,-56.5"/>
<text text-anchor="middle" x="420.5" y="-63.5" font-family="Helvetica,sans-Serif" font-size="10.00">AccelerometerConfig.h</text>
</a>
</g>
</g>
<!-- Node7&#45;&gt;Node9 -->
<g id="edge9" class="edge">
<title>Node7&#45;&gt;Node9</title>
<path fill="none" stroke="midnightblue" d="M330.69,-112.32C347.85,-103.66 374.45,-90.24 394.25,-80.25"/>
<polygon fill="midnightblue" stroke="midnightblue" points="396,-83.28 403.35,-75.65 392.85,-77.04 396,-83.28"/>
</g>
<!-- Node10 -->
<g id="node10" class="node">
<title>Node10</title>
<g id="a_node10"><a xlink:title=" ">
<polygon fill="white" stroke="#bfbfbf" points="502.5,-56.5 502.5,-75.5 610.5,-75.5 610.5,-56.5 502.5,-56.5"/>
<text text-anchor="middle" x="556.5" y="-63.5" font-family="Helvetica,sans-Serif" font-size="10.00">BarometerConfig.h</text>
</a>
</g>
</g>
<!-- Node7&#45;&gt;Node10 -->
<g id="edge11" class="edge">
<title>Node7&#45;&gt;Node10</title>
<path fill="none" stroke="midnightblue" d="M341.85,-114.7C382.61,-105.64 458.33,-88.82 508.06,-77.76"/>
<polygon fill="midnightblue" stroke="midnightblue" points="508.95,-81.15 517.95,-75.57 507.43,-74.32 508.95,-81.15"/>
</g>
<!-- Node9&#45;&gt;Node4 -->
<g id="edge10" class="edge">
<title>Node9&#45;&gt;Node4</title>
<path fill="none" stroke="midnightblue" d="M395.15,-56.44C367.91,-47.25 324.5,-32.6 294.36,-22.43"/>
<polygon fill="midnightblue" stroke="midnightblue" points="295.28,-19.04 284.69,-19.16 293.04,-25.68 295.28,-19.04"/>
</g>
</g>
</svg>
