<?xml version="1.0" encoding="UTF-8" standalone="no"?>
<!DOCTYPE svg PUBLIC "-//W3C//DTD SVG 1.1//EN"
 "http://www.w3.org/Graphics/SVG/1.1/DTD/svg11.dtd">
<!-- Generated by graphviz version 2.43.0 (0)
 -->
<!-- Title: PreLaunchStage.cpp Pages: 1 -->
<svg width="368pt" height="196pt"
 viewBox="0.00 0.00 368.00 196.00" xmlns="http://www.w3.org/2000/svg" xmlns:xlink="http://www.w3.org/1999/xlink">
<g id="graph0" class="graph" transform="scale(1 1) rotate(0) translate(4 192)">
<title>PreLaunchStage.cpp</title>
<polygon fill="white" stroke="transparent" points="-4,4 -4,-192 364,-192 364,4 -4,4"/>
<!-- Node1 -->
<g id="node1" class="node">
<title>Node1</title>
<g id="a_node1"><a xlink:title=" ">
<polygon fill="#bfbfbf" stroke="black" points="111.5,-168.5 111.5,-187.5 226.5,-187.5 226.5,-168.5 111.5,-168.5"/>
<text text-anchor="middle" x="169" y="-175.5" font-family="Helvetica,sans-Serif" font-size="10.00">PreLaunchStage.cpp</text>
</a>
</g>
</g>
<!-- Node2 -->
<g id="node2" class="node">
<title>Node2</title>
<g id="a_node2"><a xlink:href="_config_8h.html" target="_top" xlink:title=" ">
<polygon fill="white" stroke="black" points="96,-112.5 96,-131.5 152,-131.5 152,-112.5 96,-112.5"/>
<text text-anchor="middle" x="124" y="-119.5" font-family="Helvetica,sans-Serif" font-size="10.00">Config.h</text>
</a>
</g>
</g>
<!-- Node1&#45;&gt;Node2 -->
<g id="edge1" class="edge">
<title>Node1&#45;&gt;Node2</title>
<path fill="none" stroke="midnightblue" d="M161.57,-168.08C155.15,-160.38 145.69,-149.03 137.88,-139.65"/>
<polygon fill="midnightblue" stroke="midnightblue" points="140.38,-137.19 131.29,-131.75 135.01,-141.67 140.38,-137.19"/>
</g>
<!-- Node7 -->
<g id="node7" class="node">
<title>Node7</title>
<g id="a_node7"><a xlink:href="_kalman_filter_8h.html" target="_top" xlink:title=" ">
<polygon fill="white" stroke="black" points="170.5,-112.5 170.5,-131.5 257.5,-131.5 257.5,-112.5 170.5,-112.5"/>
<text text-anchor="middle" x="214" y="-119.5" font-family="Helvetica,sans-Serif" font-size="10.00">KalmanFilter.h</text>
</a>
</g>
</g>
<!-- Node1&#45;&gt;Node7 -->
<g id="edge7" class="edge">
<title>Node1&#45;&gt;Node7</title>
<path fill="none" stroke="midnightblue" d="M176.43,-168.08C182.85,-160.38 192.31,-149.03 200.12,-139.65"/>
<polygon fill="midnightblue" stroke="midnightblue" points="202.99,-141.67 206.71,-131.75 197.62,-137.19 202.99,-141.67"/>
</g>
<!-- Node3 -->
<g id="node3" class="node">
<title>Node3</title>
<g id="a_node3"><a xlink:title=" ">
<polygon fill="white" stroke="#bfbfbf" points="0,-56.5 0,-75.5 50,-75.5 50,-56.5 0,-56.5"/>
<text text-anchor="middle" x="25" y="-63.5" font-family="Helvetica,sans-Serif" font-size="10.00">cstdint</text>
</a>
</g>
</g>
<!-- Node2&#45;&gt;Node3 -->
<g id="edge2" class="edge">
<title>Node2&#45;&gt;Node3</title>
<path fill="none" stroke="midnightblue" d="M108.09,-112.32C92.36,-103.74 68.06,-90.49 49.79,-80.52"/>
<polygon fill="midnightblue" stroke="midnightblue" points="51.32,-77.37 40.87,-75.65 47.97,-83.52 51.32,-77.37"/>
</g>
<!-- Node4 -->
<g id="node4" class="node">
<title>Node4</title>
<g id="a_node4"><a xlink:title=" ">
<polygon fill="white" stroke="#bfbfbf" points="100,-0.5 100,-19.5 148,-19.5 148,-0.5 100,-0.5"/>
<text text-anchor="middle" x="124" y="-7.5" font-family="Helvetica,sans-Serif" font-size="10.00">Wire.h</text>
</a>
</g>
</g>
<!-- Node2&#45;&gt;Node4 -->
<g id="edge3" class="edge">
<title>Node2&#45;&gt;Node4</title>
<path fill="none" stroke="midnightblue" d="M116.39,-112.41C106.52,-100.2 91.19,-76.96 97,-56 99.79,-45.92 105.51,-35.83 110.97,-27.77"/>
<polygon fill="midnightblue" stroke="midnightblue" points="113.82,-29.79 116.85,-19.64 108.15,-25.69 113.82,-29.79"/>
</g>
<!-- Node5 -->
<g id="node5" class="node">
<title>Node5</title>
<g id="a_node5"><a xlink:href="_accelerometer_config_8h.html" target="_top" xlink:title=" ">
<polygon fill="white" stroke="black" points="106,-56.5 106,-75.5 234,-75.5 234,-56.5 106,-56.5"/>
<text text-anchor="middle" x="170" y="-63.5" font-family="Helvetica,sans-Serif" font-size="10.00">AccelerometerConfig.h</text>
</a>
</g>
</g>
<!-- Node2&#45;&gt;Node5 -->
<g id="edge4" class="edge">
<title>Node2&#45;&gt;Node5</title>
<path fill="none" stroke="midnightblue" d="M131.6,-112.08C138.23,-104.3 148.02,-92.8 156.06,-83.37"/>
<polygon fill="midnightblue" stroke="midnightblue" points="158.73,-85.63 162.55,-75.75 153.4,-81.09 158.73,-85.63"/>
</g>
<!-- Node6 -->
<g id="node6" class="node">
<title>Node6</title>
<g id="a_node6"><a xlink:title=" ">
<polygon fill="white" stroke="#bfbfbf" points="252,-56.5 252,-75.5 360,-75.5 360,-56.5 252,-56.5"/>
<text text-anchor="middle" x="306" y="-63.5" font-family="Helvetica,sans-Serif" font-size="10.00">BarometerConfig.h</text>
</a>
</g>
</g>
<!-- Node2&#45;&gt;Node6 -->
<g id="edge6" class="edge">
<title>Node2&#45;&gt;Node6</title>
<path fill="none" stroke="midnightblue" d="M152.04,-112.68C182.99,-103.5 232.99,-88.66 267.57,-78.4"/>
<polygon fill="midnightblue" stroke="midnightblue" points="268.74,-81.71 277.33,-75.51 266.75,-75 268.74,-81.71"/>
</g>
<!-- Node5&#45;&gt;Node4 -->
<g id="edge5" class="edge">
<title>Node5&#45;&gt;Node4</title>
<path fill="none" stroke="midnightblue" d="M162.4,-56.08C155.77,-48.3 145.98,-36.8 137.94,-27.37"/>
<polygon fill="midnightblue" stroke="midnightblue" points="140.6,-25.09 131.45,-19.75 135.27,-29.63 140.6,-25.09"/>
</g>
</g>
</svg>
