<?xml version="1.0" encoding="UTF-8" standalone="no"?>
<!DOCTYPE svg PUBLIC "-//W3C//DTD SVG 1.1//EN"
 "http://www.w3.org/Graphics/SVG/1.1/DTD/svg11.dtd">
<!-- Generated by graphviz version 2.43.0 (0)
 -->
<!-- Title: RecoveryStage.cpp Pages: 1 -->
<svg width="369pt" height="140pt"
 viewBox="0.00 0.00 368.50 140.00" xmlns="http://www.w3.org/2000/svg" xmlns:xlink="http://www.w3.org/1999/xlink">
<g id="graph0" class="graph" transform="scale(1 1) rotate(0) translate(4 136)">
<title>RecoveryStage.cpp</title>
<polygon fill="white" stroke="transparent" points="-4,4 -4,-136 364.5,-136 364.5,4 -4,4"/>
<!-- Node1 -->
<g id="node1" class="node">
<title>Node1</title>
<g id="a_node1"><a xlink:title=" ">
<polygon fill="#bfbfbf" stroke="black" points="131.5,-112.5 131.5,-131.5 241.5,-131.5 241.5,-112.5 131.5,-112.5"/>
<text text-anchor="middle" x="186.5" y="-119.5" font-family="Helvetica,sans-Serif" font-size="10.00">RecoveryStage.cpp</text>
</a>
</g>
</g>
<!-- Node2 -->
<g id="node2" class="node">
<title>Node2</title>
<g id="a_node2"><a xlink:href="_e_e_p_r_o_m_8h.html" target="_top" xlink:title=" ">
<polygon fill="white" stroke="black" points="0,-56.5 0,-75.5 67,-75.5 67,-56.5 0,-56.5"/>
<text text-anchor="middle" x="33.5" y="-63.5" font-family="Helvetica,sans-Serif" font-size="10.00">EEPROM.h</text>
</a>
</g>
</g>
<!-- Node1&#45;&gt;Node2 -->
<g id="edge1" class="edge">
<title>Node1&#45;&gt;Node2</title>
<path fill="none" stroke="midnightblue" d="M162.26,-112.44C136.63,-103.4 96.01,-89.06 67.26,-78.92"/>
<polygon fill="midnightblue" stroke="midnightblue" points="68.22,-75.54 57.63,-75.52 65.89,-82.15 68.22,-75.54"/>
</g>
<!-- Node4 -->
<g id="node4" class="node">
<title>Node4</title>
<g id="a_node4"><a xlink:href="_state_8h.html" target="_top" xlink:title=" ">
<polygon fill="white" stroke="black" points="85,-56.5 85,-75.5 136,-75.5 136,-56.5 85,-56.5"/>
<text text-anchor="middle" x="110.5" y="-63.5" font-family="Helvetica,sans-Serif" font-size="10.00">State.h</text>
</a>
</g>
</g>
<!-- Node1&#45;&gt;Node4 -->
<g id="edge3" class="edge">
<title>Node1&#45;&gt;Node4</title>
<path fill="none" stroke="midnightblue" d="M174.29,-112.32C162.72,-104.11 145.12,-91.6 131.34,-81.81"/>
<polygon fill="midnightblue" stroke="midnightblue" points="133.11,-78.77 122.93,-75.83 129.06,-84.48 133.11,-78.77"/>
</g>
<!-- Node5 -->
<g id="node5" class="node">
<title>Node5</title>
<g id="a_node5"><a xlink:title=" ">
<polygon fill="white" stroke="#bfbfbf" points="154,-56.5 154,-75.5 219,-75.5 219,-56.5 154,-56.5"/>
<text text-anchor="middle" x="186.5" y="-63.5" font-family="Helvetica,sans-Serif" font-size="10.00">../Config.h</text>
</a>
</g>
</g>
<!-- Node1&#45;&gt;Node5 -->
<g id="edge4" class="edge">
<title>Node1&#45;&gt;Node5</title>
<path fill="none" stroke="midnightblue" d="M186.5,-112.08C186.5,-105.01 186.5,-94.86 186.5,-85.99"/>
<polygon fill="midnightblue" stroke="midnightblue" points="190,-85.75 186.5,-75.75 183,-85.75 190,-85.75"/>
</g>
<!-- Node6 -->
<g id="node6" class="node">
<title>Node6</title>
<g id="a_node6"><a xlink:href="_servos_8h.html" target="_top" xlink:title=" ">
<polygon fill="white" stroke="black" points="237,-56.5 237,-75.5 296,-75.5 296,-56.5 237,-56.5"/>
<text text-anchor="middle" x="266.5" y="-63.5" font-family="Helvetica,sans-Serif" font-size="10.00">Servos.h</text>
</a>
</g>
</g>
<!-- Node1&#45;&gt;Node6 -->
<g id="edge5" class="edge">
<title>Node1&#45;&gt;Node6</title>
<path fill="none" stroke="midnightblue" d="M199.35,-112.32C211.72,-103.98 230.63,-91.21 245.24,-81.35"/>
<polygon fill="midnightblue" stroke="midnightblue" points="247.35,-84.15 253.68,-75.65 243.43,-78.35 247.35,-84.15"/>
</g>
<!-- Node8 -->
<g id="node8" class="node">
<title>Node8</title>
<g id="a_node8"><a xlink:href="_pins_8h.html" target="_top" xlink:title=" ">
<polygon fill="white" stroke="black" points="314.5,-56.5 314.5,-75.5 360.5,-75.5 360.5,-56.5 314.5,-56.5"/>
<text text-anchor="middle" x="337.5" y="-63.5" font-family="Helvetica,sans-Serif" font-size="10.00">Pins.h</text>
</a>
</g>
</g>
<!-- Node1&#45;&gt;Node8 -->
<g id="edge7" class="edge">
<title>Node1&#45;&gt;Node8</title>
<path fill="none" stroke="midnightblue" d="M210.43,-112.44C235.87,-103.35 276.27,-88.9 304.68,-78.74"/>
<polygon fill="midnightblue" stroke="midnightblue" points="305.94,-82 314.18,-75.34 303.59,-75.41 305.94,-82"/>
</g>
<!-- Node3 -->
<g id="node3" class="node">
<title>Node3</title>
<g id="a_node3"><a xlink:title=" ">
<polygon fill="white" stroke="#bfbfbf" points="8.5,-0.5 8.5,-19.5 58.5,-19.5 58.5,-0.5 8.5,-0.5"/>
<text text-anchor="middle" x="33.5" y="-7.5" font-family="Helvetica,sans-Serif" font-size="10.00">cstdint</text>
</a>
</g>
</g>
<!-- Node2&#45;&gt;Node3 -->
<g id="edge2" class="edge">
<title>Node2&#45;&gt;Node3</title>
<path fill="none" stroke="midnightblue" d="M33.5,-56.08C33.5,-49.01 33.5,-38.86 33.5,-29.99"/>
<polygon fill="midnightblue" stroke="midnightblue" points="37,-29.75 33.5,-19.75 30,-29.75 37,-29.75"/>
</g>
<!-- Node7 -->
<g id="node7" class="node">
<title>Node7</title>
<g id="a_node7"><a xlink:title=" ">
<polygon fill="white" stroke="#bfbfbf" points="240,-0.5 240,-19.5 293,-19.5 293,-0.5 240,-0.5"/>
<text text-anchor="middle" x="266.5" y="-7.5" font-family="Helvetica,sans-Serif" font-size="10.00">Servo.h</text>
</a>
</g>
</g>
<!-- Node6&#45;&gt;Node7 -->
<g id="edge6" class="edge">
<title>Node6&#45;&gt;Node7</title>
<path fill="none" stroke="midnightblue" d="M266.5,-56.08C266.5,-49.01 266.5,-38.86 266.5,-29.99"/>
<polygon fill="midnightblue" stroke="midnightblue" points="270,-29.75 266.5,-19.75 263,-29.75 270,-29.75"/>
</g>
</g>
</svg>
