<?xml version="1.0" encoding="UTF-8" standalone="no"?>
<!DOCTYPE svg PUBLIC "-//W3C//DTD SVG 1.1//EN"
 "http://www.w3.org/Graphics/SVG/1.1/DTD/svg11.dtd">
<!-- Generated by graphviz version 2.43.0 (0)
 -->
<!-- Title: RotarySwitch.cpp Pages: 1 -->
<svg width="980pt" height="196pt"
 viewBox="0.00 0.00 979.50 196.00" xmlns="http://www.w3.org/2000/svg" xmlns:xlink="http://www.w3.org/1999/xlink">
<g id="graph0" class="graph" transform="scale(1 1) rotate(0) translate(4 192)">
<title>RotarySwitch.cpp</title>
<polygon fill="white" stroke="transparent" points="-4,4 -4,-192 975.5,-192 975.5,4 -4,4"/>
<!-- Node1 -->
<g id="node1" class="node">
<title>Node1</title>
<g id="a_node1"><a xlink:title=" ">
<polygon fill="#bfbfbf" stroke="black" points="294,-168.5 294,-187.5 395,-187.5 395,-168.5 294,-168.5"/>
<text text-anchor="middle" x="344.5" y="-175.5" font-family="Helvetica,sans-Serif" font-size="10.00">RotarySwitch.cpp</text>
</a>
</g>
</g>
<!-- Node2 -->
<g id="node2" class="node">
<title>Node2</title>
<g id="a_node2"><a xlink:title=" ">
<polygon fill="white" stroke="#bfbfbf" points="0,-112.5 0,-131.5 63,-131.5 63,-112.5 0,-112.5"/>
<text text-anchor="middle" x="31.5" y="-119.5" font-family="Helvetica,sans-Serif" font-size="10.00">Arduino.h</text>
</a>
</g>
</g>
<!-- Node1&#45;&gt;Node2 -->
<g id="edge1" class="edge">
<title>Node1&#45;&gt;Node2</title>
<path fill="none" stroke="midnightblue" d="M293.78,-169.54C240.99,-161.57 155.7,-148.14 73.36,-132.28"/>
<polygon fill="midnightblue" stroke="midnightblue" points="73.83,-128.81 63.34,-130.34 72.49,-135.68 73.83,-128.81"/>
</g>
<!-- Node3 -->
<g id="node3" class="node">
<title>Node3</title>
<g id="a_node3"><a xlink:title=" ">
<polygon fill="white" stroke="#bfbfbf" points="81,-112.5 81,-131.5 148,-131.5 148,-112.5 81,-112.5"/>
<text text-anchor="middle" x="114.5" y="-119.5" font-family="Helvetica,sans-Serif" font-size="10.00">EEPROM.h</text>
</a>
</g>
</g>
<!-- Node1&#45;&gt;Node3 -->
<g id="edge2" class="edge">
<title>Node1&#45;&gt;Node3</title>
<path fill="none" stroke="midnightblue" d="M308.06,-168.44C267.36,-158.89 201.54,-143.43 158.14,-133.24"/>
<polygon fill="midnightblue" stroke="midnightblue" points="158.69,-129.78 148.15,-130.9 157.09,-136.59 158.69,-129.78"/>
</g>
<!-- Node4 -->
<g id="node4" class="node">
<title>Node4</title>
<g id="a_node4"><a xlink:title=" ">
<polygon fill="white" stroke="#bfbfbf" points="166.5,-112.5 166.5,-131.5 242.5,-131.5 242.5,-112.5 166.5,-112.5"/>
<text text-anchor="middle" x="204.5" y="-119.5" font-family="Helvetica,sans-Serif" font-size="10.00">pico/stdlib.h</text>
</a>
</g>
</g>
<!-- Node1&#45;&gt;Node4 -->
<g id="edge3" class="edge">
<title>Node1&#45;&gt;Node4</title>
<path fill="none" stroke="midnightblue" d="M322.32,-168.44C299.07,-159.48 262.35,-145.31 236.08,-135.18"/>
<polygon fill="midnightblue" stroke="midnightblue" points="237.17,-131.85 226.58,-131.52 234.65,-138.38 237.17,-131.85"/>
</g>
<!-- Node5 -->
<g id="node5" class="node">
<title>Node5</title>
<g id="a_node5"><a xlink:title=" ">
<polygon fill="white" stroke="#bfbfbf" points="261,-112.5 261,-131.5 334,-131.5 334,-112.5 261,-112.5"/>
<text text-anchor="middle" x="297.5" y="-119.5" font-family="Helvetica,sans-Serif" font-size="10.00">../../../Pins.h</text>
</a>
</g>
</g>
<!-- Node1&#45;&gt;Node5 -->
<g id="edge4" class="edge">
<title>Node1&#45;&gt;Node5</title>
<path fill="none" stroke="midnightblue" d="M336.74,-168.08C329.96,-160.3 319.96,-148.8 311.74,-139.37"/>
<polygon fill="midnightblue" stroke="midnightblue" points="314.32,-137 305.12,-131.75 309.04,-141.59 314.32,-137"/>
</g>
<!-- Node6 -->
<g id="node6" class="node">
<title>Node6</title>
<g id="a_node6"><a xlink:title=" ">
<polygon fill="white" stroke="#bfbfbf" points="352.5,-112.5 352.5,-131.5 430.5,-131.5 430.5,-112.5 352.5,-112.5"/>
<text text-anchor="middle" x="391.5" y="-119.5" font-family="Helvetica,sans-Serif" font-size="10.00">../../../State.h</text>
</a>
</g>
</g>
<!-- Node1&#45;&gt;Node6 -->
<g id="edge5" class="edge">
<title>Node1&#45;&gt;Node6</title>
<path fill="none" stroke="midnightblue" d="M352.26,-168.08C359.04,-160.3 369.04,-148.8 377.26,-139.37"/>
<polygon fill="midnightblue" stroke="midnightblue" points="379.96,-141.59 383.88,-131.75 374.68,-137 379.96,-141.59"/>
</g>
<!-- Node7 -->
<g id="node7" class="node">
<title>Node7</title>
<g id="a_node7"><a xlink:title=" ">
<polygon fill="white" stroke="#bfbfbf" points="449,-112.5 449,-131.5 526,-131.5 526,-112.5 449,-112.5"/>
<text text-anchor="middle" x="487.5" y="-119.5" font-family="Helvetica,sans-Serif" font-size="10.00">../../../LEDs.h</text>
</a>
</g>
</g>
<!-- Node1&#45;&gt;Node7 -->
<g id="edge6" class="edge">
<title>Node1&#45;&gt;Node7</title>
<path fill="none" stroke="midnightblue" d="M367.16,-168.44C390.9,-159.48 428.41,-145.31 455.24,-135.18"/>
<polygon fill="midnightblue" stroke="midnightblue" points="456.83,-138.32 464.95,-131.52 454.36,-131.77 456.83,-138.32"/>
</g>
<!-- Node8 -->
<g id="node8" class="node">
<title>Node8</title>
<g id="a_node8"><a xlink:href="_servo_motor_8h.html" target="_top" xlink:title=" ">
<polygon fill="white" stroke="black" points="544,-112.5 544,-131.5 625,-131.5 625,-112.5 544,-112.5"/>
<text text-anchor="middle" x="584.5" y="-119.5" font-family="Helvetica,sans-Serif" font-size="10.00">ServoMotor.h</text>
</a>
</g>
</g>
<!-- Node1&#45;&gt;Node8 -->
<g id="edge7" class="edge">
<title>Node1&#45;&gt;Node8</title>
<path fill="none" stroke="midnightblue" d="M382.53,-168.44C424.31,-159.04 491.48,-143.93 536.77,-133.74"/>
<polygon fill="midnightblue" stroke="midnightblue" points="537.66,-137.13 546.65,-131.52 536.12,-130.3 537.66,-137.13"/>
</g>
<!-- Node10 -->
<g id="node10" class="node">
<title>Node10</title>
<g id="a_node10"><a xlink:href="_config_8h.html" target="_top" xlink:title=" ">
<polygon fill="white" stroke="black" points="661.5,-112.5 661.5,-131.5 717.5,-131.5 717.5,-112.5 661.5,-112.5"/>
<text text-anchor="middle" x="689.5" y="-119.5" font-family="Helvetica,sans-Serif" font-size="10.00">Config.h</text>
</a>
</g>
</g>
<!-- Node1&#45;&gt;Node10 -->
<g id="edge9" class="edge">
<title>Node1&#45;&gt;Node10</title>
<path fill="none" stroke="midnightblue" d="M395.15,-169.19C452.86,-160.27 549.99,-145.21 633.5,-132 639.29,-131.08 645.43,-130.11 651.42,-129.15"/>
<polygon fill="midnightblue" stroke="midnightblue" points="651.98,-132.6 661.3,-127.56 650.87,-125.69 651.98,-132.6"/>
</g>
<!-- Node9 -->
<g id="node9" class="node">
<title>Node9</title>
<g id="a_node9"><a xlink:title=" ">
<polygon fill="white" stroke="#bfbfbf" points="540,-56.5 540,-75.5 593,-75.5 593,-56.5 540,-56.5"/>
<text text-anchor="middle" x="566.5" y="-63.5" font-family="Helvetica,sans-Serif" font-size="10.00">Servo.h</text>
</a>
</g>
</g>
<!-- Node8&#45;&gt;Node9 -->
<g id="edge8" class="edge">
<title>Node8&#45;&gt;Node9</title>
<path fill="none" stroke="midnightblue" d="M581.53,-112.08C579.12,-104.85 575.64,-94.41 572.63,-85.4"/>
<polygon fill="midnightblue" stroke="midnightblue" points="575.9,-84.13 569.42,-75.75 569.26,-86.34 575.9,-84.13"/>
</g>
<!-- Node11 -->
<g id="node11" class="node">
<title>Node11</title>
<g id="a_node11"><a xlink:title=" ">
<polygon fill="white" stroke="#bfbfbf" points="611.5,-56.5 611.5,-75.5 661.5,-75.5 661.5,-56.5 611.5,-56.5"/>
<text text-anchor="middle" x="636.5" y="-63.5" font-family="Helvetica,sans-Serif" font-size="10.00">cstdint</text>
</a>
</g>
</g>
<!-- Node10&#45;&gt;Node11 -->
<g id="edge10" class="edge">
<title>Node10&#45;&gt;Node11</title>
<path fill="none" stroke="midnightblue" d="M680.75,-112.08C673.03,-104.22 661.6,-92.57 652.28,-83.08"/>
<polygon fill="midnightblue" stroke="midnightblue" points="654.59,-80.44 645.09,-75.75 649.6,-85.34 654.59,-80.44"/>
</g>
<!-- Node12 -->
<g id="node12" class="node">
<title>Node12</title>
<g id="a_node12"><a xlink:title=" ">
<polygon fill="white" stroke="#bfbfbf" points="711.5,-0.5 711.5,-19.5 759.5,-19.5 759.5,-0.5 711.5,-0.5"/>
<text text-anchor="middle" x="735.5" y="-7.5" font-family="Helvetica,sans-Serif" font-size="10.00">Wire.h</text>
</a>
</g>
</g>
<!-- Node10&#45;&gt;Node12 -->
<g id="edge11" class="edge">
<title>Node10&#45;&gt;Node12</title>
<path fill="none" stroke="midnightblue" d="M691.29,-112.34C694.07,-99.65 700.02,-75.39 708.5,-56 712.7,-46.4 718.57,-36.35 723.77,-28.18"/>
<polygon fill="midnightblue" stroke="midnightblue" points="726.84,-29.88 729.42,-19.6 721,-26.03 726.84,-29.88"/>
</g>
<!-- Node13 -->
<g id="node13" class="node">
<title>Node13</title>
<g id="a_node13"><a xlink:href="_accelerometer_config_8h.html" target="_top" xlink:title=" ">
<polygon fill="white" stroke="black" points="717.5,-56.5 717.5,-75.5 845.5,-75.5 845.5,-56.5 717.5,-56.5"/>
<text text-anchor="middle" x="781.5" y="-63.5" font-family="Helvetica,sans-Serif" font-size="10.00">AccelerometerConfig.h</text>
</a>
</g>
</g>
<!-- Node10&#45;&gt;Node13 -->
<g id="edge12" class="edge">
<title>Node10&#45;&gt;Node13</title>
<path fill="none" stroke="midnightblue" d="M704.28,-112.32C718.77,-103.82 741.07,-90.73 757.99,-80.8"/>
<polygon fill="midnightblue" stroke="midnightblue" points="759.9,-83.74 766.76,-75.65 756.36,-77.7 759.9,-83.74"/>
</g>
<!-- Node14 -->
<g id="node14" class="node">
<title>Node14</title>
<g id="a_node14"><a xlink:title=" ">
<polygon fill="white" stroke="#bfbfbf" points="863.5,-56.5 863.5,-75.5 971.5,-75.5 971.5,-56.5 863.5,-56.5"/>
<text text-anchor="middle" x="917.5" y="-63.5" font-family="Helvetica,sans-Serif" font-size="10.00">BarometerConfig.h</text>
</a>
</g>
</g>
<!-- Node10&#45;&gt;Node14 -->
<g id="edge14" class="edge">
<title>Node10&#45;&gt;Node14</title>
<path fill="none" stroke="midnightblue" d="M717.92,-114.27C756.43,-105.15 825.64,-88.76 871.58,-77.88"/>
<polygon fill="midnightblue" stroke="midnightblue" points="872.66,-81.22 881.58,-75.51 871.04,-74.41 872.66,-81.22"/>
</g>
<!-- Node13&#45;&gt;Node12 -->
<g id="edge13" class="edge">
<title>Node13&#45;&gt;Node12</title>
<path fill="none" stroke="midnightblue" d="M773.9,-56.08C767.27,-48.3 757.48,-36.8 749.44,-27.37"/>
<polygon fill="midnightblue" stroke="midnightblue" points="752.1,-25.09 742.95,-19.75 746.77,-29.63 752.1,-25.09"/>
</g>
</g>
</svg>
