<?xml version="1.0" encoding="UTF-8" standalone="no"?>
<!DOCTYPE svg PUBLIC "-//W3C//DTD SVG 1.1//EN"
 "http://www.w3.org/Graphics/SVG/1.1/DTD/svg11.dtd">
<!-- Generated by graphviz version 2.43.0 (0)
 -->
<!-- Title: RotarySwitch.cpp Pages: 1 -->
<svg width="708pt" height="140pt"
 viewBox="0.00 0.00 708.00 140.00" xmlns="http://www.w3.org/2000/svg" xmlns:xlink="http://www.w3.org/1999/xlink">
<g id="graph0" class="graph" transform="scale(1 1) rotate(0) translate(4 136)">
<title>RotarySwitch.cpp</title>
<polygon fill="white" stroke="transparent" points="-4,4 -4,-136 704,-136 704,4 -4,4"/>
<!-- Node1 -->
<g id="node1" class="node">
<title>Node1</title>
<g id="a_node1"><a xlink:title=" ">
<polygon fill="#bfbfbf" stroke="black" points="294,-112.5 294,-131.5 395,-131.5 395,-112.5 294,-112.5"/>
<text text-anchor="middle" x="344.5" y="-119.5" font-family="Helvetica,sans-Serif" font-size="10.00">RotarySwitch.cpp</text>
</a>
</g>
</g>
<!-- Node2 -->
<g id="node2" class="node">
<title>Node2</title>
<g id="a_node2"><a xlink:title=" ">
<polygon fill="white" stroke="#bfbfbf" points="0,-56.5 0,-75.5 63,-75.5 63,-56.5 0,-56.5"/>
<text text-anchor="middle" x="31.5" y="-63.5" font-family="Helvetica,sans-Serif" font-size="10.00">Arduino.h</text>
</a>
</g>
</g>
<!-- Node1&#45;&gt;Node2 -->
<g id="edge1" class="edge">
<title>Node1&#45;&gt;Node2</title>
<path fill="none" stroke="midnightblue" d="M293.78,-113.54C240.99,-105.57 155.7,-92.14 73.36,-76.28"/>
<polygon fill="midnightblue" stroke="midnightblue" points="73.83,-72.81 63.34,-74.34 72.49,-79.68 73.83,-72.81"/>
</g>
<!-- Node3 -->
<g id="node3" class="node">
<title>Node3</title>
<g id="a_node3"><a xlink:href="_e_e_p_r_o_m_8h.html" target="_top" xlink:title=" ">
<polygon fill="white" stroke="black" points="81,-56.5 81,-75.5 148,-75.5 148,-56.5 81,-56.5"/>
<text text-anchor="middle" x="114.5" y="-63.5" font-family="Helvetica,sans-Serif" font-size="10.00">EEPROM.h</text>
</a>
</g>
</g>
<!-- Node1&#45;&gt;Node3 -->
<g id="edge2" class="edge">
<title>Node1&#45;&gt;Node3</title>
<path fill="none" stroke="midnightblue" d="M308.06,-112.44C267.36,-102.89 201.54,-87.43 158.14,-77.24"/>
<polygon fill="midnightblue" stroke="midnightblue" points="158.69,-73.78 148.15,-74.9 157.09,-80.59 158.69,-73.78"/>
</g>
<!-- Node5 -->
<g id="node5" class="node">
<title>Node5</title>
<g id="a_node5"><a xlink:title=" ">
<polygon fill="white" stroke="#bfbfbf" points="166.5,-56.5 166.5,-75.5 242.5,-75.5 242.5,-56.5 166.5,-56.5"/>
<text text-anchor="middle" x="204.5" y="-63.5" font-family="Helvetica,sans-Serif" font-size="10.00">pico/stdlib.h</text>
</a>
</g>
</g>
<!-- Node1&#45;&gt;Node5 -->
<g id="edge4" class="edge">
<title>Node1&#45;&gt;Node5</title>
<path fill="none" stroke="midnightblue" d="M322.32,-112.44C299.07,-103.48 262.35,-89.31 236.08,-79.18"/>
<polygon fill="midnightblue" stroke="midnightblue" points="237.17,-75.85 226.58,-75.52 234.65,-82.38 237.17,-75.85"/>
</g>
<!-- Node6 -->
<g id="node6" class="node">
<title>Node6</title>
<g id="a_node6"><a xlink:title=" ">
<polygon fill="white" stroke="#bfbfbf" points="261,-56.5 261,-75.5 334,-75.5 334,-56.5 261,-56.5"/>
<text text-anchor="middle" x="297.5" y="-63.5" font-family="Helvetica,sans-Serif" font-size="10.00">../../../Pins.h</text>
</a>
</g>
</g>
<!-- Node1&#45;&gt;Node6 -->
<g id="edge5" class="edge">
<title>Node1&#45;&gt;Node6</title>
<path fill="none" stroke="midnightblue" d="M336.74,-112.08C329.96,-104.3 319.96,-92.8 311.74,-83.37"/>
<polygon fill="midnightblue" stroke="midnightblue" points="314.32,-81 305.12,-75.75 309.04,-85.59 314.32,-81"/>
</g>
<!-- Node7 -->
<g id="node7" class="node">
<title>Node7</title>
<g id="a_node7"><a xlink:title=" ">
<polygon fill="white" stroke="#bfbfbf" points="352.5,-56.5 352.5,-75.5 430.5,-75.5 430.5,-56.5 352.5,-56.5"/>
<text text-anchor="middle" x="391.5" y="-63.5" font-family="Helvetica,sans-Serif" font-size="10.00">../../../State.h</text>
</a>
</g>
</g>
<!-- Node1&#45;&gt;Node7 -->
<g id="edge6" class="edge">
<title>Node1&#45;&gt;Node7</title>
<path fill="none" stroke="midnightblue" d="M352.26,-112.08C359.04,-104.3 369.04,-92.8 377.26,-83.37"/>
<polygon fill="midnightblue" stroke="midnightblue" points="379.96,-85.59 383.88,-75.75 374.68,-81 379.96,-85.59"/>
</g>
<!-- Node8 -->
<g id="node8" class="node">
<title>Node8</title>
<g id="a_node8"><a xlink:title=" ">
<polygon fill="white" stroke="#bfbfbf" points="449,-56.5 449,-75.5 526,-75.5 526,-56.5 449,-56.5"/>
<text text-anchor="middle" x="487.5" y="-63.5" font-family="Helvetica,sans-Serif" font-size="10.00">../../../LEDs.h</text>
</a>
</g>
</g>
<!-- Node1&#45;&gt;Node8 -->
<g id="edge7" class="edge">
<title>Node1&#45;&gt;Node8</title>
<path fill="none" stroke="midnightblue" d="M367.16,-112.44C390.9,-103.48 428.41,-89.31 455.24,-79.18"/>
<polygon fill="midnightblue" stroke="midnightblue" points="456.83,-82.32 464.95,-75.52 454.36,-75.77 456.83,-82.32"/>
</g>
<!-- Node9 -->
<g id="node9" class="node">
<title>Node9</title>
<g id="a_node9"><a xlink:href="_servo_motor_8h.html" target="_top" xlink:title=" ">
<polygon fill="white" stroke="black" points="619,-56.5 619,-75.5 700,-75.5 700,-56.5 619,-56.5"/>
<text text-anchor="middle" x="659.5" y="-63.5" font-family="Helvetica,sans-Serif" font-size="10.00">ServoMotor.h</text>
</a>
</g>
</g>
<!-- Node1&#45;&gt;Node9 -->
<g id="edge8" class="edge">
<title>Node1&#45;&gt;Node9</title>
<path fill="none" stroke="midnightblue" d="M395.33,-112.52C446.5,-103.95 528.01,-90.21 608.52,-76.16"/>
<polygon fill="midnightblue" stroke="midnightblue" points="609.6,-79.52 618.85,-74.35 608.39,-72.63 609.6,-79.52"/>
</g>
<!-- Node11 -->
<g id="node11" class="node">
<title>Node11</title>
<g id="a_node11"><a xlink:href="_config_8h.html" target="_top" xlink:title=" ">
<polygon fill="white" stroke="black" points="544.5,-56.5 544.5,-75.5 600.5,-75.5 600.5,-56.5 544.5,-56.5"/>
<text text-anchor="middle" x="572.5" y="-63.5" font-family="Helvetica,sans-Serif" font-size="10.00">Config.h</text>
</a>
</g>
</g>
<!-- Node1&#45;&gt;Node11 -->
<g id="edge10" class="edge">
<title>Node1&#45;&gt;Node11</title>
<path fill="none" stroke="midnightblue" d="M380.63,-112.44C422.71,-102.48 491.91,-86.09 534.69,-75.95"/>
<polygon fill="midnightblue" stroke="midnightblue" points="535.52,-79.35 544.45,-73.64 533.91,-72.54 535.52,-79.35"/>
</g>
<!-- Node4 -->
<g id="node4" class="node">
<title>Node4</title>
<g id="a_node4"><a xlink:title=" ">
<polygon fill="white" stroke="#bfbfbf" points="285.5,-0.5 285.5,-19.5 335.5,-19.5 335.5,-0.5 285.5,-0.5"/>
<text text-anchor="middle" x="310.5" y="-7.5" font-family="Helvetica,sans-Serif" font-size="10.00">cstdint</text>
</a>
</g>
</g>
<!-- Node3&#45;&gt;Node4 -->
<g id="edge3" class="edge">
<title>Node3&#45;&gt;Node4</title>
<path fill="none" stroke="midnightblue" d="M145.56,-56.44C180.98,-46.68 238.75,-30.77 275.67,-20.6"/>
<polygon fill="midnightblue" stroke="midnightblue" points="276.79,-23.92 285.5,-17.89 274.93,-17.17 276.79,-23.92"/>
</g>
<!-- Node10 -->
<g id="node10" class="node">
<title>Node10</title>
<g id="a_node10"><a xlink:title=" ">
<polygon fill="white" stroke="#bfbfbf" points="633,-0.5 633,-19.5 686,-19.5 686,-0.5 633,-0.5"/>
<text text-anchor="middle" x="659.5" y="-7.5" font-family="Helvetica,sans-Serif" font-size="10.00">Servo.h</text>
</a>
</g>
</g>
<!-- Node9&#45;&gt;Node10 -->
<g id="edge9" class="edge">
<title>Node9&#45;&gt;Node10</title>
<path fill="none" stroke="midnightblue" d="M659.5,-56.08C659.5,-49.01 659.5,-38.86 659.5,-29.99"/>
<polygon fill="midnightblue" stroke="midnightblue" points="663,-29.75 659.5,-19.75 656,-29.75 663,-29.75"/>
</g>
<!-- Node11&#45;&gt;Node4 -->
<g id="edge11" class="edge">
<title>Node11&#45;&gt;Node4</title>
<path fill="none" stroke="midnightblue" d="M544.3,-58.21C541,-57.45 537.68,-56.7 534.5,-56 467.96,-41.44 389.89,-26.16 345.7,-17.68"/>
<polygon fill="midnightblue" stroke="midnightblue" points="346.23,-14.22 335.75,-15.78 344.92,-21.1 346.23,-14.22"/>
</g>
<!-- Node12 -->
<g id="node12" class="node">
<title>Node12</title>
<g id="a_node12"><a xlink:title=" ">
<polygon fill="white" stroke="#bfbfbf" points="548.5,-0.5 548.5,-19.5 596.5,-19.5 596.5,-0.5 548.5,-0.5"/>
<text text-anchor="middle" x="572.5" y="-7.5" font-family="Helvetica,sans-Serif" font-size="10.00">Wire.h</text>
</a>
</g>
</g>
<!-- Node11&#45;&gt;Node12 -->
<g id="edge12" class="edge">
<title>Node11&#45;&gt;Node12</title>
<path fill="none" stroke="midnightblue" d="M572.5,-56.08C572.5,-49.01 572.5,-38.86 572.5,-29.99"/>
<polygon fill="midnightblue" stroke="midnightblue" points="576,-29.75 572.5,-19.75 569,-29.75 576,-29.75"/>
</g>
</g>
</svg>
