<?xml version="1.0" encoding="UTF-8" standalone="no"?>
<!DOCTYPE svg PUBLIC "-//W3C//DTD SVG 1.1//EN"
 "http://www.w3.org/Graphics/SVG/1.1/DTD/svg11.dtd">
<!-- Generated by graphviz version 2.43.0 (0)
 -->
<!-- Title: SensorData.h Pages: 1 -->
<svg width="844pt" height="252pt"
 viewBox="0.00 0.00 844.00 252.00" xmlns="http://www.w3.org/2000/svg" xmlns:xlink="http://www.w3.org/1999/xlink">
<g id="graph0" class="graph" transform="scale(1 1) rotate(0) translate(4 248)">
<title>SensorData.h</title>
<polygon fill="white" stroke="transparent" points="-4,4 -4,-248 840,-248 840,4 -4,4"/>
<!-- Node1 -->
<g id="node1" class="node">
<title>Node1</title>
<g id="a_node1"><a xlink:title=" ">
<polygon fill="#bfbfbf" stroke="black" points="609,-224.5 609,-243.5 691,-243.5 691,-224.5 609,-224.5"/>
<text text-anchor="middle" x="650" y="-231.5" font-family="Helvetica,sans-Serif" font-size="10.00">SensorData.h</text>
</a>
</g>
</g>
<!-- Node2 -->
<g id="node2" class="node">
<title>Node2</title>
<g id="a_node2"><a xlink:href="_sensor_base_8h.html" target="_top" xlink:title=" ">
<polygon fill="white" stroke="black" points="551.5,-168.5 551.5,-187.5 634.5,-187.5 634.5,-168.5 551.5,-168.5"/>
<text text-anchor="middle" x="593" y="-175.5" font-family="Helvetica,sans-Serif" font-size="10.00">SensorBase.h</text>
</a>
</g>
</g>
<!-- Node1&#45;&gt;Node2 -->
<g id="edge1" class="edge">
<title>Node1&#45;&gt;Node2</title>
<path fill="none" stroke="midnightblue" d="M633.38,-217.25C623.27,-207.67 610.72,-195.79 602.32,-187.83"/>
<polygon fill="midnightblue" stroke="midnightblue" points="631.18,-219.99 640.84,-224.32 635.99,-214.91 631.18,-219.99"/>
</g>
<!-- Node14 -->
<g id="node14" class="node">
<title>Node14</title>
<g id="a_node14"><a xlink:href="_sensor_package_8cpp.html" target="_top" xlink:title=" ">
<polygon fill="white" stroke="black" points="726,-56.5 726,-75.5 836,-75.5 836,-56.5 726,-56.5"/>
<text text-anchor="middle" x="781" y="-63.5" font-family="Helvetica,sans-Serif" font-size="10.00">SensorPackage.cpp</text>
</a>
</g>
</g>
<!-- Node1&#45;&gt;Node14 -->
<g id="edge16" class="edge">
<title>Node1&#45;&gt;Node14</title>
<path fill="none" stroke="midnightblue" d="M666.15,-216.96C685.14,-197.67 717.12,-163.91 741,-132 755.29,-112.91 769.26,-88.53 776.3,-75.74"/>
<polygon fill="midnightblue" stroke="midnightblue" points="663.43,-214.73 658.86,-224.29 668.39,-219.66 663.43,-214.73"/>
</g>
<!-- Node3 -->
<g id="node3" class="node">
<title>Node3</title>
<g id="a_node3"><a xlink:href="_hardware_package_8h.html" target="_top" xlink:title=" ">
<polygon fill="white" stroke="black" points="106.5,-112.5 106.5,-131.5 219.5,-131.5 219.5,-112.5 106.5,-112.5"/>
<text text-anchor="middle" x="163" y="-119.5" font-family="Helvetica,sans-Serif" font-size="10.00">HardwarePackage.h</text>
</a>
</g>
</g>
<!-- Node2&#45;&gt;Node3 -->
<g id="edge2" class="edge">
<title>Node2&#45;&gt;Node3</title>
<path fill="none" stroke="midnightblue" d="M541.41,-170.52C460.41,-160.35 303.97,-140.7 219.84,-130.14"/>
<polygon fill="midnightblue" stroke="midnightblue" points="541.02,-174 551.38,-171.77 541.89,-167.05 541.02,-174"/>
</g>
<!-- Node5 -->
<g id="node5" class="node">
<title>Node5</title>
<g id="a_node5"><a xlink:href="_barometer_base_8h.html" target="_top" xlink:title=" ">
<polygon fill="white" stroke="black" points="299.5,-112.5 299.5,-131.5 400.5,-131.5 400.5,-112.5 299.5,-112.5"/>
<text text-anchor="middle" x="350" y="-119.5" font-family="Helvetica,sans-Serif" font-size="10.00">BarometerBase.h</text>
</a>
</g>
</g>
<!-- Node2&#45;&gt;Node5 -->
<g id="edge4" class="edge">
<title>Node2&#45;&gt;Node5</title>
<path fill="none" stroke="midnightblue" d="M544.48,-166.22C498.56,-156.01 430.55,-140.9 388.32,-131.52"/>
<polygon fill="midnightblue" stroke="midnightblue" points="543.97,-169.69 554.5,-168.44 545.49,-162.86 543.97,-169.69"/>
</g>
<!-- Node9 -->
<g id="node9" class="node">
<title>Node9</title>
<g id="a_node9"><a xlink:href="_accelerometer_base_8h.html" target="_top" xlink:title=" ">
<polygon fill="white" stroke="black" points="458.5,-112.5 458.5,-131.5 579.5,-131.5 579.5,-112.5 458.5,-112.5"/>
<text text-anchor="middle" x="519" y="-119.5" font-family="Helvetica,sans-Serif" font-size="10.00">AccelerometerBase.h</text>
</a>
</g>
</g>
<!-- Node2&#45;&gt;Node9 -->
<g id="edge8" class="edge">
<title>Node2&#45;&gt;Node9</title>
<path fill="none" stroke="midnightblue" d="M572.97,-162.38C559.59,-152.62 542.44,-140.11 531.11,-131.83"/>
<polygon fill="midnightblue" stroke="midnightblue" points="570.97,-165.26 581.11,-168.32 575.1,-159.6 570.97,-165.26"/>
</g>
<!-- Node11 -->
<g id="node11" class="node">
<title>Node11</title>
<g id="a_node11"><a xlink:href="_sensor_package_8h.html" target="_top" xlink:title=" ">
<polygon fill="white" stroke="black" points="608,-112.5 608,-131.5 706,-131.5 706,-112.5 608,-112.5"/>
<text text-anchor="middle" x="657" y="-119.5" font-family="Helvetica,sans-Serif" font-size="10.00">SensorPackage.h</text>
</a>
</g>
</g>
<!-- Node2&#45;&gt;Node11 -->
<g id="edge10" class="edge">
<title>Node2&#45;&gt;Node11</title>
<path fill="none" stroke="midnightblue" d="M610.99,-161.82C622.46,-152.15 636.91,-139.95 646.53,-131.83"/>
<polygon fill="midnightblue" stroke="midnightblue" points="608.67,-159.2 603.28,-168.32 613.18,-164.55 608.67,-159.2"/>
</g>
<!-- Node2&#45;&gt;Node14 -->
<g id="edge15" class="edge">
<title>Node2&#45;&gt;Node14</title>
<path fill="none" stroke="midnightblue" d="M637.29,-165.63C661.41,-158.25 691.13,-147.15 715,-132 739.98,-116.14 763.15,-89.5 774.2,-75.77"/>
<polygon fill="midnightblue" stroke="midnightblue" points="636.26,-162.29 627.66,-168.47 638.24,-169 636.26,-162.29"/>
</g>
<!-- Node4 -->
<g id="node4" class="node">
<title>Node4</title>
<g id="a_node4"><a xlink:href="_hardware_package_8cpp.html" target="_top" xlink:title=" ">
<polygon fill="white" stroke="black" points="0,-56.5 0,-75.5 124,-75.5 124,-56.5 0,-56.5"/>
<text text-anchor="middle" x="62" y="-63.5" font-family="Helvetica,sans-Serif" font-size="10.00">HardwarePackage.cpp</text>
</a>
</g>
</g>
<!-- Node3&#45;&gt;Node4 -->
<g id="edge3" class="edge">
<title>Node3&#45;&gt;Node4</title>
<path fill="none" stroke="midnightblue" d="M137.92,-107.59C119.24,-97.61 94.3,-84.27 78.19,-75.65"/>
<polygon fill="midnightblue" stroke="midnightblue" points="136.3,-110.7 146.77,-112.32 139.6,-104.52 136.3,-110.7"/>
</g>
<!-- Node6 -->
<g id="node6" class="node">
<title>Node6</title>
<g id="a_node6"><a xlink:href="_barometer_base_8cpp.html" target="_top" xlink:title=" ">
<polygon fill="white" stroke="black" points="142.5,-56.5 142.5,-75.5 255.5,-75.5 255.5,-56.5 142.5,-56.5"/>
<text text-anchor="middle" x="199" y="-63.5" font-family="Helvetica,sans-Serif" font-size="10.00">BarometerBase.cpp</text>
</a>
</g>
</g>
<!-- Node5&#45;&gt;Node6 -->
<g id="edge5" class="edge">
<title>Node5&#45;&gt;Node6</title>
<path fill="none" stroke="midnightblue" d="M316.55,-109.04C288.14,-98.88 248.06,-84.55 222.81,-75.52"/>
<polygon fill="midnightblue" stroke="midnightblue" points="315.48,-112.37 326.07,-112.44 317.84,-105.78 315.48,-112.37"/>
</g>
<!-- Node7 -->
<g id="node7" class="node">
<title>Node7</title>
<g id="a_node7"><a xlink:href="_m_s5637_8cpp.html" target="_top" xlink:title=" ">
<polygon fill="white" stroke="black" points="274,-56.5 274,-75.5 350,-75.5 350,-56.5 274,-56.5"/>
<text text-anchor="middle" x="312" y="-63.5" font-family="Helvetica,sans-Serif" font-size="10.00">MS5637.cpp</text>
</a>
</g>
</g>
<!-- Node5&#45;&gt;Node7 -->
<g id="edge6" class="edge">
<title>Node5&#45;&gt;Node7</title>
<path fill="none" stroke="midnightblue" d="M337.94,-103.86C331.36,-94.5 323.49,-83.33 318.16,-75.75"/>
<polygon fill="midnightblue" stroke="midnightblue" points="335.11,-105.92 343.73,-112.08 340.83,-101.89 335.11,-105.92"/>
</g>
<!-- Node8 -->
<g id="node8" class="node">
<title>Node8</title>
<g id="a_node8"><a xlink:href="_m_s5637_8h.html" target="_top" xlink:title=" ">
<polygon fill="white" stroke="black" points="368.5,-56.5 368.5,-75.5 433.5,-75.5 433.5,-56.5 368.5,-56.5"/>
<text text-anchor="middle" x="401" y="-63.5" font-family="Helvetica,sans-Serif" font-size="10.00">MS5637.h</text>
</a>
</g>
</g>
<!-- Node5&#45;&gt;Node8 -->
<g id="edge7" class="edge">
<title>Node5&#45;&gt;Node8</title>
<path fill="none" stroke="midnightblue" d="M365.38,-104.72C374.37,-95.2 385.36,-83.56 392.74,-75.75"/>
<polygon fill="midnightblue" stroke="midnightblue" points="362.74,-102.41 358.42,-112.08 367.83,-107.22 362.74,-102.41"/>
</g>
<!-- Node10 -->
<g id="node10" class="node">
<title>Node10</title>
<g id="a_node10"><a xlink:href="_accelerometer_base_8cpp.html" target="_top" xlink:title=" ">
<polygon fill="white" stroke="black" points="452,-56.5 452,-75.5 584,-75.5 584,-56.5 452,-56.5"/>
<text text-anchor="middle" x="518" y="-63.5" font-family="Helvetica,sans-Serif" font-size="10.00">AccelerometerBase.cpp</text>
</a>
</g>
</g>
<!-- Node9&#45;&gt;Node10 -->
<g id="edge9" class="edge">
<title>Node9&#45;&gt;Node10</title>
<path fill="none" stroke="midnightblue" d="M518.64,-101.8C518.48,-92.91 518.29,-82.78 518.16,-75.75"/>
<polygon fill="midnightblue" stroke="midnightblue" points="515.15,-102.15 518.83,-112.08 522.15,-102.02 515.15,-102.15"/>
</g>
<!-- Node12 -->
<g id="node12" class="node">
<title>Node12</title>
<g id="a_node12"><a xlink:href="_platform_8h.html" target="_top" xlink:title=" ">
<polygon fill="white" stroke="black" points="602,-56.5 602,-75.5 670,-75.5 670,-56.5 602,-56.5"/>
<text text-anchor="middle" x="636" y="-63.5" font-family="Helvetica,sans-Serif" font-size="10.00">Platform.h</text>
</a>
</g>
</g>
<!-- Node11&#45;&gt;Node12 -->
<g id="edge11" class="edge">
<title>Node11&#45;&gt;Node12</title>
<path fill="none" stroke="midnightblue" d="M649.88,-102.69C646.34,-93.59 642.23,-83.01 639.4,-75.75"/>
<polygon fill="midnightblue" stroke="midnightblue" points="646.65,-104.03 653.53,-112.08 653.17,-101.49 646.65,-104.03"/>
</g>
<!-- Node13 -->
<g id="node13" class="node">
<title>Node13</title>
<g id="a_node13"><a xlink:href="_rockit_8h.html" target="_top" xlink:title=" ">
<polygon fill="white" stroke="black" points="639,-0.5 639,-19.5 695,-19.5 695,-0.5 639,-0.5"/>
<text text-anchor="middle" x="667" y="-7.5" font-family="Helvetica,sans-Serif" font-size="10.00">Rockit.h</text>
</a>
</g>
</g>
<!-- Node11&#45;&gt;Node13 -->
<g id="edge13" class="edge">
<title>Node11&#45;&gt;Node13</title>
<path fill="none" stroke="midnightblue" d="M667.76,-103.69C672.18,-95.59 676.77,-85.64 679,-76 683.6,-56.1 676,-32.45 670.95,-19.88"/>
<polygon fill="midnightblue" stroke="midnightblue" points="664.65,-102.08 662.64,-112.48 670.7,-105.6 664.65,-102.08"/>
</g>
<!-- Node11&#45;&gt;Node14 -->
<g id="edge14" class="edge">
<title>Node11&#45;&gt;Node14</title>
<path fill="none" stroke="midnightblue" d="M686.01,-108.37C709.23,-98.26 741.16,-84.35 761.44,-75.52"/>
<polygon fill="midnightblue" stroke="midnightblue" points="684.42,-105.24 676.65,-112.44 687.21,-111.66 684.42,-105.24"/>
</g>
<!-- Node12&#45;&gt;Node13 -->
<g id="edge12" class="edge">
<title>Node12&#45;&gt;Node13</title>
<path fill="none" stroke="midnightblue" d="M646.18,-47.27C651.47,-38.05 657.72,-27.17 661.98,-19.75"/>
<polygon fill="midnightblue" stroke="midnightblue" points="643.06,-45.67 641.12,-56.08 649.13,-49.15 643.06,-45.67"/>
</g>
</g>
</svg>
