<?xml version="1.0" encoding="UTF-8" standalone="no"?>
<!DOCTYPE svg PUBLIC "-//W3C//DTD SVG 1.1//EN"
 "http://www.w3.org/Graphics/SVG/1.1/DTD/svg11.dtd">
<!-- Generated by graphviz version 2.43.0 (0)
 -->
<!-- Title: SensorData.h Pages: 1 -->
<svg width="843pt" height="252pt"
 viewBox="0.00 0.00 843.00 252.00" xmlns="http://www.w3.org/2000/svg" xmlns:xlink="http://www.w3.org/1999/xlink">
<g id="graph0" class="graph" transform="scale(1 1) rotate(0) translate(4 248)">
<title>SensorData.h</title>
<polygon fill="white" stroke="transparent" points="-4,4 -4,-248 839,-248 839,4 -4,4"/>
<!-- Node1 -->
<g id="node1" class="node">
<title>Node1</title>
<g id="a_node1"><a xlink:title=" ">
<polygon fill="#bfbfbf" stroke="black" points="608,-224.5 608,-243.5 690,-243.5 690,-224.5 608,-224.5"/>
<text text-anchor="middle" x="649" y="-231.5" font-family="Helvetica,sans-Serif" font-size="10.00">SensorData.h</text>
</a>
</g>
</g>
<!-- Node2 -->
<g id="node2" class="node">
<title>Node2</title>
<g id="a_node2"><a xlink:href="_sensor_base_8h.html" target="_top" xlink:title=" ">
<polygon fill="white" stroke="black" points="550.5,-168.5 550.5,-187.5 633.5,-187.5 633.5,-168.5 550.5,-168.5"/>
<text text-anchor="middle" x="592" y="-175.5" font-family="Helvetica,sans-Serif" font-size="10.00">SensorBase.h</text>
</a>
</g>
</g>
<!-- Node1&#45;&gt;Node2 -->
<g id="edge1" class="edge">
<title>Node1&#45;&gt;Node2</title>
<path fill="none" stroke="midnightblue" d="M632.38,-217.25C622.27,-207.67 609.72,-195.79 601.32,-187.83"/>
<polygon fill="midnightblue" stroke="midnightblue" points="630.18,-219.99 639.84,-224.32 634.99,-214.91 630.18,-219.99"/>
</g>
<!-- Node14 -->
<g id="node14" class="node">
<title>Node14</title>
<g id="a_node14"><a xlink:href="_sensor_package_8cpp.html" target="_top" xlink:title=" ">
<polygon fill="white" stroke="black" points="725,-56.5 725,-75.5 835,-75.5 835,-56.5 725,-56.5"/>
<text text-anchor="middle" x="780" y="-63.5" font-family="Helvetica,sans-Serif" font-size="10.00">SensorPackage.cpp</text>
</a>
</g>
</g>
<!-- Node1&#45;&gt;Node14 -->
<g id="edge16" class="edge">
<title>Node1&#45;&gt;Node14</title>
<path fill="none" stroke="midnightblue" d="M665.15,-216.96C684.14,-197.67 716.12,-163.91 740,-132 754.29,-112.91 768.26,-88.53 775.3,-75.74"/>
<polygon fill="midnightblue" stroke="midnightblue" points="662.43,-214.73 657.86,-224.29 667.39,-219.66 662.43,-214.73"/>
</g>
<!-- Node3 -->
<g id="node3" class="node">
<title>Node3</title>
<g id="a_node3"><a xlink:href="_hardware_package_8h.html" target="_top" xlink:title=" ">
<polygon fill="white" stroke="black" points="99.5,-112.5 99.5,-131.5 212.5,-131.5 212.5,-112.5 99.5,-112.5"/>
<text text-anchor="middle" x="156" y="-119.5" font-family="Helvetica,sans-Serif" font-size="10.00">HardwarePackage.h</text>
</a>
</g>
</g>
<!-- Node2&#45;&gt;Node3 -->
<g id="edge2" class="edge">
<title>Node2&#45;&gt;Node3</title>
<path fill="none" stroke="midnightblue" d="M540.07,-170.57C457.73,-160.37 297.87,-140.57 212.67,-130.02"/>
<polygon fill="midnightblue" stroke="midnightblue" points="539.84,-174.07 550.19,-171.82 540.7,-167.12 539.84,-174.07"/>
</g>
<!-- Node5 -->
<g id="node5" class="node">
<title>Node5</title>
<g id="a_node5"><a xlink:href="_barometer_base_8h.html" target="_top" xlink:title=" ">
<polygon fill="white" stroke="black" points="271.5,-112.5 271.5,-131.5 372.5,-131.5 372.5,-112.5 271.5,-112.5"/>
<text text-anchor="middle" x="322" y="-119.5" font-family="Helvetica,sans-Serif" font-size="10.00">BarometerBase.h</text>
</a>
</g>
</g>
<!-- Node2&#45;&gt;Node5 -->
<g id="edge4" class="edge">
<title>Node2&#45;&gt;Node5</title>
<path fill="none" stroke="midnightblue" d="M540.56,-166.71C489.52,-156.5 412.22,-141.04 364.53,-131.51"/>
<polygon fill="midnightblue" stroke="midnightblue" points="539.91,-170.15 550.4,-168.68 541.28,-163.29 539.91,-170.15"/>
</g>
<!-- Node9 -->
<g id="node9" class="node">
<title>Node9</title>
<g id="a_node9"><a xlink:href="_accelerometer_base_8h.html" target="_top" xlink:title=" ">
<polygon fill="white" stroke="black" points="457.5,-112.5 457.5,-131.5 578.5,-131.5 578.5,-112.5 457.5,-112.5"/>
<text text-anchor="middle" x="518" y="-119.5" font-family="Helvetica,sans-Serif" font-size="10.00">AccelerometerBase.h</text>
</a>
</g>
</g>
<!-- Node2&#45;&gt;Node9 -->
<g id="edge8" class="edge">
<title>Node2&#45;&gt;Node9</title>
<path fill="none" stroke="midnightblue" d="M571.97,-162.38C558.59,-152.62 541.44,-140.11 530.11,-131.83"/>
<polygon fill="midnightblue" stroke="midnightblue" points="569.97,-165.26 580.11,-168.32 574.1,-159.6 569.97,-165.26"/>
</g>
<!-- Node11 -->
<g id="node11" class="node">
<title>Node11</title>
<g id="a_node11"><a xlink:href="_sensor_package_8h.html" target="_top" xlink:title=" ">
<polygon fill="white" stroke="black" points="607,-112.5 607,-131.5 705,-131.5 705,-112.5 607,-112.5"/>
<text text-anchor="middle" x="656" y="-119.5" font-family="Helvetica,sans-Serif" font-size="10.00">SensorPackage.h</text>
</a>
</g>
</g>
<!-- Node2&#45;&gt;Node11 -->
<g id="edge10" class="edge">
<title>Node2&#45;&gt;Node11</title>
<path fill="none" stroke="midnightblue" d="M609.99,-161.82C621.46,-152.15 635.91,-139.95 645.53,-131.83"/>
<polygon fill="midnightblue" stroke="midnightblue" points="607.67,-159.2 602.28,-168.32 612.18,-164.55 607.67,-159.2"/>
</g>
<!-- Node2&#45;&gt;Node14 -->
<g id="edge15" class="edge">
<title>Node2&#45;&gt;Node14</title>
<path fill="none" stroke="midnightblue" d="M636.29,-165.63C660.41,-158.25 690.13,-147.15 714,-132 738.98,-116.14 762.15,-89.5 773.2,-75.77"/>
<polygon fill="midnightblue" stroke="midnightblue" points="635.26,-162.29 626.66,-168.47 637.24,-169 635.26,-162.29"/>
</g>
<!-- Node4 -->
<g id="node4" class="node">
<title>Node4</title>
<g id="a_node4"><a xlink:href="_hardware_package_8cpp.html" target="_top" xlink:title=" ">
<polygon fill="white" stroke="black" points="0,-56.5 0,-75.5 124,-75.5 124,-56.5 0,-56.5"/>
<text text-anchor="middle" x="62" y="-63.5" font-family="Helvetica,sans-Serif" font-size="10.00">HardwarePackage.cpp</text>
</a>
</g>
</g>
<!-- Node3&#45;&gt;Node4 -->
<g id="edge3" class="edge">
<title>Node3&#45;&gt;Node4</title>
<path fill="none" stroke="midnightblue" d="M131.94,-107.18C114.64,-97.24 91.85,-84.15 77.07,-75.65"/>
<polygon fill="midnightblue" stroke="midnightblue" points="130.48,-110.38 140.9,-112.32 133.97,-104.31 130.48,-110.38"/>
</g>
<!-- Node6 -->
<g id="node6" class="node">
<title>Node6</title>
<g id="a_node6"><a xlink:href="_m_s5637_8cpp.html" target="_top" xlink:title=" ">
<polygon fill="white" stroke="black" points="142,-56.5 142,-75.5 218,-75.5 218,-56.5 142,-56.5"/>
<text text-anchor="middle" x="180" y="-63.5" font-family="Helvetica,sans-Serif" font-size="10.00">MS5637.cpp</text>
</a>
</g>
</g>
<!-- Node5&#45;&gt;Node6 -->
<g id="edge5" class="edge">
<title>Node5&#45;&gt;Node6</title>
<path fill="none" stroke="midnightblue" d="M289.84,-108.77C263.17,-98.63 225.93,-84.47 202.4,-75.52"/>
<polygon fill="midnightblue" stroke="midnightblue" points="288.91,-112.16 299.5,-112.44 291.4,-105.62 288.91,-112.16"/>
</g>
<!-- Node7 -->
<g id="node7" class="node">
<title>Node7</title>
<g id="a_node7"><a xlink:href="_m_s5637_8h.html" target="_top" xlink:title=" ">
<polygon fill="white" stroke="black" points="236.5,-56.5 236.5,-75.5 301.5,-75.5 301.5,-56.5 236.5,-56.5"/>
<text text-anchor="middle" x="269" y="-63.5" font-family="Helvetica,sans-Serif" font-size="10.00">MS5637.h</text>
</a>
</g>
</g>
<!-- Node5&#45;&gt;Node7 -->
<g id="edge6" class="edge">
<title>Node5&#45;&gt;Node7</title>
<path fill="none" stroke="midnightblue" d="M306.02,-104.72C296.68,-95.2 285.25,-83.56 277.59,-75.75"/>
<polygon fill="midnightblue" stroke="midnightblue" points="303.75,-107.4 313.25,-112.08 308.74,-102.49 303.75,-107.4"/>
</g>
<!-- Node8 -->
<g id="node8" class="node">
<title>Node8</title>
<g id="a_node8"><a xlink:href="_barometer_base_8cpp.html" target="_top" xlink:title=" ">
<polygon fill="white" stroke="black" points="319.5,-56.5 319.5,-75.5 432.5,-75.5 432.5,-56.5 319.5,-56.5"/>
<text text-anchor="middle" x="376" y="-63.5" font-family="Helvetica,sans-Serif" font-size="10.00">BarometerBase.cpp</text>
</a>
</g>
</g>
<!-- Node5&#45;&gt;Node8 -->
<g id="edge7" class="edge">
<title>Node5&#45;&gt;Node8</title>
<path fill="none" stroke="midnightblue" d="M338,-105C347.57,-95.43 359.36,-83.64 367.25,-75.75"/>
<polygon fill="midnightblue" stroke="midnightblue" points="335.51,-102.54 330.92,-112.08 340.46,-107.49 335.51,-102.54"/>
</g>
<!-- Node10 -->
<g id="node10" class="node">
<title>Node10</title>
<g id="a_node10"><a xlink:href="_accelerometer_base_8cpp.html" target="_top" xlink:title=" ">
<polygon fill="white" stroke="black" points="451,-56.5 451,-75.5 583,-75.5 583,-56.5 451,-56.5"/>
<text text-anchor="middle" x="517" y="-63.5" font-family="Helvetica,sans-Serif" font-size="10.00">AccelerometerBase.cpp</text>
</a>
</g>
</g>
<!-- Node9&#45;&gt;Node10 -->
<g id="edge9" class="edge">
<title>Node9&#45;&gt;Node10</title>
<path fill="none" stroke="midnightblue" d="M517.64,-101.8C517.48,-92.91 517.29,-82.78 517.16,-75.75"/>
<polygon fill="midnightblue" stroke="midnightblue" points="514.15,-102.15 517.83,-112.08 521.15,-102.02 514.15,-102.15"/>
</g>
<!-- Node12 -->
<g id="node12" class="node">
<title>Node12</title>
<g id="a_node12"><a xlink:href="_platform_8h.html" target="_top" xlink:title=" ">
<polygon fill="white" stroke="black" points="601,-56.5 601,-75.5 669,-75.5 669,-56.5 601,-56.5"/>
<text text-anchor="middle" x="635" y="-63.5" font-family="Helvetica,sans-Serif" font-size="10.00">Platform.h</text>
</a>
</g>
</g>
<!-- Node11&#45;&gt;Node12 -->
<g id="edge11" class="edge">
<title>Node11&#45;&gt;Node12</title>
<path fill="none" stroke="midnightblue" d="M648.88,-102.69C645.34,-93.59 641.23,-83.01 638.4,-75.75"/>
<polygon fill="midnightblue" stroke="midnightblue" points="645.65,-104.03 652.53,-112.08 652.17,-101.49 645.65,-104.03"/>
</g>
<!-- Node13 -->
<g id="node13" class="node">
<title>Node13</title>
<g id="a_node13"><a xlink:href="_rockit_8h.html" target="_top" xlink:title=" ">
<polygon fill="white" stroke="black" points="638,-0.5 638,-19.5 694,-19.5 694,-0.5 638,-0.5"/>
<text text-anchor="middle" x="666" y="-7.5" font-family="Helvetica,sans-Serif" font-size="10.00">Rockit.h</text>
</a>
</g>
</g>
<!-- Node11&#45;&gt;Node13 -->
<g id="edge13" class="edge">
<title>Node11&#45;&gt;Node13</title>
<path fill="none" stroke="midnightblue" d="M666.76,-103.69C671.18,-95.59 675.77,-85.64 678,-76 682.6,-56.1 675,-32.45 669.95,-19.88"/>
<polygon fill="midnightblue" stroke="midnightblue" points="663.65,-102.08 661.64,-112.48 669.7,-105.6 663.65,-102.08"/>
</g>
<!-- Node11&#45;&gt;Node14 -->
<g id="edge14" class="edge">
<title>Node11&#45;&gt;Node14</title>
<path fill="none" stroke="midnightblue" d="M685.01,-108.37C708.23,-98.26 740.16,-84.35 760.44,-75.52"/>
<polygon fill="midnightblue" stroke="midnightblue" points="683.42,-105.24 675.65,-112.44 686.21,-111.66 683.42,-105.24"/>
</g>
<!-- Node12&#45;&gt;Node13 -->
<g id="edge12" class="edge">
<title>Node12&#45;&gt;Node13</title>
<path fill="none" stroke="midnightblue" d="M645.18,-47.27C650.47,-38.05 656.72,-27.17 660.98,-19.75"/>
<polygon fill="midnightblue" stroke="midnightblue" points="642.06,-45.67 640.12,-56.08 648.13,-49.15 642.06,-45.67"/>
</g>
</g>
</svg>
