<?xml version="1.0" encoding="UTF-8" standalone="no"?>
<!DOCTYPE svg PUBLIC "-//W3C//DTD SVG 1.1//EN"
 "http://www.w3.org/Graphics/SVG/1.1/DTD/svg11.dtd">
<!-- Generated by graphviz version 2.43.0 (0)
 -->
<!-- Title: SensorBase.h Pages: 1 -->
<svg width="844pt" height="196pt"
 viewBox="0.00 0.00 844.00 196.00" xmlns="http://www.w3.org/2000/svg" xmlns:xlink="http://www.w3.org/1999/xlink">
<g id="graph0" class="graph" transform="scale(1 1) rotate(0) translate(4 192)">
<title>SensorBase.h</title>
<polygon fill="white" stroke="transparent" points="-4,4 -4,-192 840,-192 840,4 -4,4"/>
<!-- Node1 -->
<g id="node1" class="node">
<title>Node1</title>
<g id="a_node1"><a xlink:title=" ">
<polygon fill="#bfbfbf" stroke="black" points="476.5,-168.5 476.5,-187.5 559.5,-187.5 559.5,-168.5 476.5,-168.5"/>
<text text-anchor="middle" x="518" y="-175.5" font-family="Helvetica,sans-Serif" font-size="10.00">SensorBase.h</text>
</a>
</g>
</g>
<!-- Node2 -->
<g id="node2" class="node">
<title>Node2</title>
<g id="a_node2"><a xlink:href="_hardware_package_8h.html" target="_top" xlink:title=" ">
<polygon fill="white" stroke="black" points="68.5,-112.5 68.5,-131.5 181.5,-131.5 181.5,-112.5 68.5,-112.5"/>
<text text-anchor="middle" x="125" y="-119.5" font-family="Helvetica,sans-Serif" font-size="10.00">HardwarePackage.h</text>
</a>
</g>
</g>
<!-- Node1&#45;&gt;Node2 -->
<g id="edge1" class="edge">
<title>Node1&#45;&gt;Node2</title>
<path fill="none" stroke="midnightblue" d="M466.34,-169.9C392.7,-159.78 258.02,-141.28 181.7,-130.79"/>
<polygon fill="midnightblue" stroke="midnightblue" points="465.93,-173.38 476.31,-171.27 466.88,-166.44 465.93,-173.38"/>
</g>
<!-- Node4 -->
<g id="node4" class="node">
<title>Node4</title>
<g id="a_node4"><a xlink:href="_barometer_base_8h.html" target="_top" xlink:title=" ">
<polygon fill="white" stroke="black" points="300.5,-112.5 300.5,-131.5 401.5,-131.5 401.5,-112.5 300.5,-112.5"/>
<text text-anchor="middle" x="351" y="-119.5" font-family="Helvetica,sans-Serif" font-size="10.00">BarometerBase.h</text>
</a>
</g>
</g>
<!-- Node1&#45;&gt;Node4 -->
<g id="edge3" class="edge">
<title>Node1&#45;&gt;Node4</title>
<path fill="none" stroke="midnightblue" d="M481.83,-165.3C450.36,-155.13 405.51,-140.62 377.34,-131.52"/>
<polygon fill="midnightblue" stroke="midnightblue" points="480.95,-168.7 491.54,-168.44 483.1,-162.04 480.95,-168.7"/>
</g>
<!-- Node8 -->
<g id="node8" class="node">
<title>Node8</title>
<g id="a_node8"><a xlink:href="_accelerometer_base_8h.html" target="_top" xlink:title=" ">
<polygon fill="white" stroke="black" points="457.5,-112.5 457.5,-131.5 578.5,-131.5 578.5,-112.5 457.5,-112.5"/>
<text text-anchor="middle" x="518" y="-119.5" font-family="Helvetica,sans-Serif" font-size="10.00">AccelerometerBase.h</text>
</a>
</g>
</g>
<!-- Node1&#45;&gt;Node8 -->
<g id="edge7" class="edge">
<title>Node1&#45;&gt;Node8</title>
<path fill="none" stroke="midnightblue" d="M518,-157.8C518,-148.91 518,-138.78 518,-131.75"/>
<polygon fill="midnightblue" stroke="midnightblue" points="514.5,-158.08 518,-168.08 521.5,-158.08 514.5,-158.08"/>
</g>
<!-- Node10 -->
<g id="node10" class="node">
<title>Node10</title>
<g id="a_node10"><a xlink:href="_sensor_package_8h.html" target="_top" xlink:title=" ">
<polygon fill="white" stroke="black" points="623,-112.5 623,-131.5 721,-131.5 721,-112.5 623,-112.5"/>
<text text-anchor="middle" x="672" y="-119.5" font-family="Helvetica,sans-Serif" font-size="10.00">SensorPackage.h</text>
</a>
</g>
</g>
<!-- Node1&#45;&gt;Node10 -->
<g id="edge9" class="edge">
<title>Node1&#45;&gt;Node10</title>
<path fill="none" stroke="midnightblue" d="M552.11,-165.04C581.09,-154.88 621.96,-140.55 647.71,-131.52"/>
<polygon fill="midnightblue" stroke="midnightblue" points="550.68,-161.83 542.4,-168.44 553,-168.44 550.68,-161.83"/>
</g>
<!-- Node13 -->
<g id="node13" class="node">
<title>Node13</title>
<g id="a_node13"><a xlink:href="_sensor_package_8cpp.html" target="_top" xlink:title=" ">
<polygon fill="white" stroke="black" points="726,-56.5 726,-75.5 836,-75.5 836,-56.5 726,-56.5"/>
<text text-anchor="middle" x="781" y="-63.5" font-family="Helvetica,sans-Serif" font-size="10.00">SensorPackage.cpp</text>
</a>
</g>
</g>
<!-- Node1&#45;&gt;Node13 -->
<g id="edge14" class="edge">
<title>Node1&#45;&gt;Node13</title>
<path fill="none" stroke="midnightblue" d="M569.96,-175.77C615.3,-172.52 681.27,-162.37 730,-132 752.64,-117.89 769.3,-89.97 776.72,-75.76"/>
<polygon fill="midnightblue" stroke="midnightblue" points="569.52,-172.29 559.76,-176.41 569.96,-179.28 569.52,-172.29"/>
</g>
<!-- Node3 -->
<g id="node3" class="node">
<title>Node3</title>
<g id="a_node3"><a xlink:href="_hardware_package_8cpp.html" target="_top" xlink:title=" ">
<polygon fill="white" stroke="black" points="0,-56.5 0,-75.5 124,-75.5 124,-56.5 0,-56.5"/>
<text text-anchor="middle" x="62" y="-63.5" font-family="Helvetica,sans-Serif" font-size="10.00">HardwarePackage.cpp</text>
</a>
</g>
</g>
<!-- Node2&#45;&gt;Node3 -->
<g id="edge2" class="edge">
<title>Node2&#45;&gt;Node3</title>
<path fill="none" stroke="midnightblue" d="M106.96,-105.54C95.73,-95.91 81.68,-83.87 72.31,-75.83"/>
<polygon fill="midnightblue" stroke="midnightblue" points="105.01,-108.47 114.88,-112.32 109.56,-103.16 105.01,-108.47"/>
</g>
<!-- Node5 -->
<g id="node5" class="node">
<title>Node5</title>
<g id="a_node5"><a xlink:href="_barometer_base_8cpp.html" target="_top" xlink:title=" ">
<polygon fill="white" stroke="black" points="142.5,-56.5 142.5,-75.5 255.5,-75.5 255.5,-56.5 142.5,-56.5"/>
<text text-anchor="middle" x="199" y="-63.5" font-family="Helvetica,sans-Serif" font-size="10.00">BarometerBase.cpp</text>
</a>
</g>
</g>
<!-- Node4&#45;&gt;Node5 -->
<g id="edge4" class="edge">
<title>Node4&#45;&gt;Node5</title>
<path fill="none" stroke="midnightblue" d="M317.33,-109.04C288.73,-98.88 248.39,-84.55 222.97,-75.52"/>
<polygon fill="midnightblue" stroke="midnightblue" points="316.32,-112.39 326.92,-112.44 318.66,-105.8 316.32,-112.39"/>
</g>
<!-- Node6 -->
<g id="node6" class="node">
<title>Node6</title>
<g id="a_node6"><a xlink:href="_m_s5637_8cpp.html" target="_top" xlink:title=" ">
<polygon fill="white" stroke="black" points="274,-56.5 274,-75.5 350,-75.5 350,-56.5 274,-56.5"/>
<text text-anchor="middle" x="312" y="-63.5" font-family="Helvetica,sans-Serif" font-size="10.00">MS5637.cpp</text>
</a>
</g>
</g>
<!-- Node4&#45;&gt;Node6 -->
<g id="edge5" class="edge">
<title>Node4&#45;&gt;Node6</title>
<path fill="none" stroke="midnightblue" d="M338.62,-103.86C331.86,-94.5 323.79,-83.33 318.32,-75.75"/>
<polygon fill="midnightblue" stroke="midnightblue" points="335.87,-106.03 344.56,-112.08 341.54,-101.93 335.87,-106.03"/>
</g>
<!-- Node7 -->
<g id="node7" class="node">
<title>Node7</title>
<g id="a_node7"><a xlink:href="_m_s5637_8h.html" target="_top" xlink:title=" ">
<polygon fill="white" stroke="black" points="368.5,-56.5 368.5,-75.5 433.5,-75.5 433.5,-56.5 368.5,-56.5"/>
<text text-anchor="middle" x="401" y="-63.5" font-family="Helvetica,sans-Serif" font-size="10.00">MS5637.h</text>
</a>
</g>
</g>
<!-- Node4&#45;&gt;Node7 -->
<g id="edge6" class="edge">
<title>Node4&#45;&gt;Node7</title>
<path fill="none" stroke="midnightblue" d="M366.08,-104.72C374.89,-95.2 385.67,-83.56 392.9,-75.75"/>
<polygon fill="midnightblue" stroke="midnightblue" points="363.48,-102.37 359.26,-112.08 368.62,-107.12 363.48,-102.37"/>
</g>
<!-- Node9 -->
<g id="node9" class="node">
<title>Node9</title>
<g id="a_node9"><a xlink:href="_accelerometer_base_8cpp.html" target="_top" xlink:title=" ">
<polygon fill="white" stroke="black" points="452,-56.5 452,-75.5 584,-75.5 584,-56.5 452,-56.5"/>
<text text-anchor="middle" x="518" y="-63.5" font-family="Helvetica,sans-Serif" font-size="10.00">AccelerometerBase.cpp</text>
</a>
</g>
</g>
<!-- Node8&#45;&gt;Node9 -->
<g id="edge8" class="edge">
<title>Node8&#45;&gt;Node9</title>
<path fill="none" stroke="midnightblue" d="M518,-101.8C518,-92.91 518,-82.78 518,-75.75"/>
<polygon fill="midnightblue" stroke="midnightblue" points="514.5,-102.08 518,-112.08 521.5,-102.08 514.5,-102.08"/>
</g>
<!-- Node11 -->
<g id="node11" class="node">
<title>Node11</title>
<g id="a_node11"><a xlink:href="_platform_8h.html" target="_top" xlink:title=" ">
<polygon fill="white" stroke="black" points="602,-56.5 602,-75.5 670,-75.5 670,-56.5 602,-56.5"/>
<text text-anchor="middle" x="636" y="-63.5" font-family="Helvetica,sans-Serif" font-size="10.00">Platform.h</text>
</a>
</g>
</g>
<!-- Node10&#45;&gt;Node11 -->
<g id="edge10" class="edge">
<title>Node10&#45;&gt;Node11</title>
<path fill="none" stroke="midnightblue" d="M660.38,-103.57C654.18,-94.27 646.83,-83.25 641.83,-75.75"/>
<polygon fill="midnightblue" stroke="midnightblue" points="657.6,-105.7 666.06,-112.08 663.42,-101.82 657.6,-105.7"/>
</g>
<!-- Node12 -->
<g id="node12" class="node">
<title>Node12</title>
<g id="a_node12"><a xlink:href="_rockit_8h.html" target="_top" xlink:title=" ">
<polygon fill="white" stroke="black" points="639,-0.5 639,-19.5 695,-19.5 695,-0.5 639,-0.5"/>
<text text-anchor="middle" x="667" y="-7.5" font-family="Helvetica,sans-Serif" font-size="10.00">Rockit.h</text>
</a>
</g>
</g>
<!-- Node10&#45;&gt;Node12 -->
<g id="edge12" class="edge">
<title>Node10&#45;&gt;Node12</title>
<path fill="none" stroke="midnightblue" d="M676.41,-102.11C678.85,-89.12 681.03,-71.49 679,-56 677.32,-43.17 673.05,-28.8 670.09,-19.83"/>
<polygon fill="midnightblue" stroke="midnightblue" points="672.93,-101.65 674.28,-112.15 679.77,-103.09 672.93,-101.65"/>
</g>
<!-- Node10&#45;&gt;Node13 -->
<g id="edge13" class="edge">
<title>Node10&#45;&gt;Node13</title>
<path fill="none" stroke="midnightblue" d="M698.52,-107.86C718.73,-97.85 745.99,-84.35 763.53,-75.65"/>
<polygon fill="midnightblue" stroke="midnightblue" points="696.92,-104.75 689.51,-112.32 700.03,-111.02 696.92,-104.75"/>
</g>
<!-- Node11&#45;&gt;Node12 -->
<g id="edge11" class="edge">
<title>Node11&#45;&gt;Node12</title>
<path fill="none" stroke="midnightblue" d="M646.18,-47.27C651.47,-38.05 657.72,-27.17 661.98,-19.75"/>
<polygon fill="midnightblue" stroke="midnightblue" points="643.06,-45.67 641.12,-56.08 649.13,-49.15 643.06,-45.67"/>
</g>
</g>
</svg>
