<?xml version="1.0" encoding="UTF-8" standalone="no"?>
<!DOCTYPE svg PUBLIC "-//W3C//DTD SVG 1.1//EN"
 "http://www.w3.org/Graphics/SVG/1.1/DTD/svg11.dtd">
<!-- Generated by graphviz version 2.43.0 (0)
 -->
<!-- Title: SensorBase.h Pages: 1 -->
<svg width="843pt" height="196pt"
 viewBox="0.00 0.00 843.00 196.00" xmlns="http://www.w3.org/2000/svg" xmlns:xlink="http://www.w3.org/1999/xlink">
<g id="graph0" class="graph" transform="scale(1 1) rotate(0) translate(4 192)">
<title>SensorBase.h</title>
<polygon fill="white" stroke="transparent" points="-4,4 -4,-192 839,-192 839,4 -4,4"/>
<!-- Node1 -->
<g id="node1" class="node">
<title>Node1</title>
<g id="a_node1"><a xlink:title=" ">
<polygon fill="#bfbfbf" stroke="black" points="475.5,-168.5 475.5,-187.5 558.5,-187.5 558.5,-168.5 475.5,-168.5"/>
<text text-anchor="middle" x="517" y="-175.5" font-family="Helvetica,sans-Serif" font-size="10.00">SensorBase.h</text>
</a>
</g>
</g>
<!-- Node2 -->
<g id="node2" class="node">
<title>Node2</title>
<g id="a_node2"><a xlink:href="_hardware_package_8h.html" target="_top" xlink:title=" ">
<polygon fill="white" stroke="black" points="53.5,-112.5 53.5,-131.5 166.5,-131.5 166.5,-112.5 53.5,-112.5"/>
<text text-anchor="middle" x="110" y="-119.5" font-family="Helvetica,sans-Serif" font-size="10.00">HardwarePackage.h</text>
</a>
</g>
</g>
<!-- Node1&#45;&gt;Node2 -->
<g id="edge1" class="edge">
<title>Node1&#45;&gt;Node2</title>
<path fill="none" stroke="midnightblue" d="M465.01,-170.1C388.48,-159.95 246.02,-141.05 166.82,-130.54"/>
<polygon fill="midnightblue" stroke="midnightblue" points="464.98,-173.63 475.36,-171.47 465.9,-166.69 464.98,-173.63"/>
</g>
<!-- Node4 -->
<g id="node4" class="node">
<title>Node4</title>
<g id="a_node4"><a xlink:href="_barometer_base_8h.html" target="_top" xlink:title=" ">
<polygon fill="white" stroke="black" points="278.5,-112.5 278.5,-131.5 379.5,-131.5 379.5,-112.5 278.5,-112.5"/>
<text text-anchor="middle" x="329" y="-119.5" font-family="Helvetica,sans-Serif" font-size="10.00">BarometerBase.h</text>
</a>
</g>
</g>
<!-- Node1&#45;&gt;Node4 -->
<g id="edge3" class="edge">
<title>Node1&#45;&gt;Node4</title>
<path fill="none" stroke="midnightblue" d="M477.2,-165.57C441.73,-155.38 390.63,-140.7 358.65,-131.52"/>
<polygon fill="midnightblue" stroke="midnightblue" points="476.63,-169.05 487.21,-168.44 478.57,-162.32 476.63,-169.05"/>
</g>
<!-- Node8 -->
<g id="node8" class="node">
<title>Node8</title>
<g id="a_node8"><a xlink:href="_accelerometer_base_8h.html" target="_top" xlink:title=" ">
<polygon fill="white" stroke="black" points="456.5,-112.5 456.5,-131.5 577.5,-131.5 577.5,-112.5 456.5,-112.5"/>
<text text-anchor="middle" x="517" y="-119.5" font-family="Helvetica,sans-Serif" font-size="10.00">AccelerometerBase.h</text>
</a>
</g>
</g>
<!-- Node1&#45;&gt;Node8 -->
<g id="edge7" class="edge">
<title>Node1&#45;&gt;Node8</title>
<path fill="none" stroke="midnightblue" d="M517,-157.8C517,-148.91 517,-138.78 517,-131.75"/>
<polygon fill="midnightblue" stroke="midnightblue" points="513.5,-158.08 517,-168.08 520.5,-158.08 513.5,-158.08"/>
</g>
<!-- Node10 -->
<g id="node10" class="node">
<title>Node10</title>
<g id="a_node10"><a xlink:href="_sensor_package_8h.html" target="_top" xlink:title=" ">
<polygon fill="white" stroke="black" points="622,-112.5 622,-131.5 720,-131.5 720,-112.5 622,-112.5"/>
<text text-anchor="middle" x="671" y="-119.5" font-family="Helvetica,sans-Serif" font-size="10.00">SensorPackage.h</text>
</a>
</g>
</g>
<!-- Node1&#45;&gt;Node10 -->
<g id="edge9" class="edge">
<title>Node1&#45;&gt;Node10</title>
<path fill="none" stroke="midnightblue" d="M551.11,-165.04C580.09,-154.88 620.96,-140.55 646.71,-131.52"/>
<polygon fill="midnightblue" stroke="midnightblue" points="549.68,-161.83 541.4,-168.44 552,-168.44 549.68,-161.83"/>
</g>
<!-- Node13 -->
<g id="node13" class="node">
<title>Node13</title>
<g id="a_node13"><a xlink:href="_sensor_package_8cpp.html" target="_top" xlink:title=" ">
<polygon fill="white" stroke="black" points="725,-56.5 725,-75.5 835,-75.5 835,-56.5 725,-56.5"/>
<text text-anchor="middle" x="780" y="-63.5" font-family="Helvetica,sans-Serif" font-size="10.00">SensorPackage.cpp</text>
</a>
</g>
</g>
<!-- Node1&#45;&gt;Node13 -->
<g id="edge14" class="edge">
<title>Node1&#45;&gt;Node13</title>
<path fill="none" stroke="midnightblue" d="M568.96,-175.77C614.3,-172.52 680.27,-162.37 729,-132 751.64,-117.89 768.3,-89.97 775.72,-75.76"/>
<polygon fill="midnightblue" stroke="midnightblue" points="568.52,-172.29 558.76,-176.41 568.96,-179.28 568.52,-172.29"/>
</g>
<!-- Node3 -->
<g id="node3" class="node">
<title>Node3</title>
<g id="a_node3"><a xlink:href="_hardware_package_8cpp.html" target="_top" xlink:title=" ">
<polygon fill="white" stroke="black" points="0,-56.5 0,-75.5 124,-75.5 124,-56.5 0,-56.5"/>
<text text-anchor="middle" x="62" y="-63.5" font-family="Helvetica,sans-Serif" font-size="10.00">HardwarePackage.cpp</text>
</a>
</g>
</g>
<!-- Node2&#45;&gt;Node3 -->
<g id="edge2" class="edge">
<title>Node2&#45;&gt;Node3</title>
<path fill="none" stroke="midnightblue" d="M95.27,-104.43C86.86,-94.97 76.65,-83.48 69.78,-75.75"/>
<polygon fill="midnightblue" stroke="midnightblue" points="92.81,-106.93 102.07,-112.08 98.05,-102.28 92.81,-106.93"/>
</g>
<!-- Node5 -->
<g id="node5" class="node">
<title>Node5</title>
<g id="a_node5"><a xlink:href="_m_s5637_8cpp.html" target="_top" xlink:title=" ">
<polygon fill="white" stroke="black" points="142,-56.5 142,-75.5 218,-75.5 218,-56.5 142,-56.5"/>
<text text-anchor="middle" x="180" y="-63.5" font-family="Helvetica,sans-Serif" font-size="10.00">MS5637.cpp</text>
</a>
</g>
</g>
<!-- Node4&#45;&gt;Node5 -->
<g id="edge4" class="edge">
<title>Node4&#45;&gt;Node5</title>
<path fill="none" stroke="midnightblue" d="M295.63,-108.91C267.62,-98.75 228.3,-84.51 203.5,-75.52"/>
<polygon fill="midnightblue" stroke="midnightblue" points="294.8,-112.33 305.39,-112.44 297.18,-105.75 294.8,-112.33"/>
</g>
<!-- Node6 -->
<g id="node6" class="node">
<title>Node6</title>
<g id="a_node6"><a xlink:href="_m_s5637_8h.html" target="_top" xlink:title=" ">
<polygon fill="white" stroke="black" points="236.5,-56.5 236.5,-75.5 301.5,-75.5 301.5,-56.5 236.5,-56.5"/>
<text text-anchor="middle" x="269" y="-63.5" font-family="Helvetica,sans-Serif" font-size="10.00">MS5637.h</text>
</a>
</g>
</g>
<!-- Node4&#45;&gt;Node6 -->
<g id="edge5" class="edge">
<title>Node4&#45;&gt;Node6</title>
<path fill="none" stroke="midnightblue" d="M311.82,-105.54C301.12,-95.91 287.74,-83.87 278.82,-75.83"/>
<polygon fill="midnightblue" stroke="midnightblue" points="309.59,-108.24 319.36,-112.32 314.27,-103.03 309.59,-108.24"/>
</g>
<!-- Node7 -->
<g id="node7" class="node">
<title>Node7</title>
<g id="a_node7"><a xlink:href="_barometer_base_8cpp.html" target="_top" xlink:title=" ">
<polygon fill="white" stroke="black" points="319.5,-56.5 319.5,-75.5 432.5,-75.5 432.5,-56.5 319.5,-56.5"/>
<text text-anchor="middle" x="376" y="-63.5" font-family="Helvetica,sans-Serif" font-size="10.00">BarometerBase.cpp</text>
</a>
</g>
</g>
<!-- Node4&#45;&gt;Node7 -->
<g id="edge6" class="edge">
<title>Node4&#45;&gt;Node7</title>
<path fill="none" stroke="midnightblue" d="M343.42,-104.43C351.66,-94.97 361.65,-83.48 368.38,-75.75"/>
<polygon fill="midnightblue" stroke="midnightblue" points="340.69,-102.24 336.76,-112.08 345.97,-106.84 340.69,-102.24"/>
</g>
<!-- Node9 -->
<g id="node9" class="node">
<title>Node9</title>
<g id="a_node9"><a xlink:href="_accelerometer_base_8cpp.html" target="_top" xlink:title=" ">
<polygon fill="white" stroke="black" points="451,-56.5 451,-75.5 583,-75.5 583,-56.5 451,-56.5"/>
<text text-anchor="middle" x="517" y="-63.5" font-family="Helvetica,sans-Serif" font-size="10.00">AccelerometerBase.cpp</text>
</a>
</g>
</g>
<!-- Node8&#45;&gt;Node9 -->
<g id="edge8" class="edge">
<title>Node8&#45;&gt;Node9</title>
<path fill="none" stroke="midnightblue" d="M517,-101.8C517,-92.91 517,-82.78 517,-75.75"/>
<polygon fill="midnightblue" stroke="midnightblue" points="513.5,-102.08 517,-112.08 520.5,-102.08 513.5,-102.08"/>
</g>
<!-- Node11 -->
<g id="node11" class="node">
<title>Node11</title>
<g id="a_node11"><a xlink:href="_platform_8h.html" target="_top" xlink:title=" ">
<polygon fill="white" stroke="black" points="601,-56.5 601,-75.5 669,-75.5 669,-56.5 601,-56.5"/>
<text text-anchor="middle" x="635" y="-63.5" font-family="Helvetica,sans-Serif" font-size="10.00">Platform.h</text>
</a>
</g>
</g>
<!-- Node10&#45;&gt;Node11 -->
<g id="edge10" class="edge">
<title>Node10&#45;&gt;Node11</title>
<path fill="none" stroke="midnightblue" d="M659.38,-103.57C653.18,-94.27 645.83,-83.25 640.83,-75.75"/>
<polygon fill="midnightblue" stroke="midnightblue" points="656.6,-105.7 665.06,-112.08 662.42,-101.82 656.6,-105.7"/>
</g>
<!-- Node12 -->
<g id="node12" class="node">
<title>Node12</title>
<g id="a_node12"><a xlink:href="_rockit_8h.html" target="_top" xlink:title=" ">
<polygon fill="white" stroke="black" points="638,-0.5 638,-19.5 694,-19.5 694,-0.5 638,-0.5"/>
<text text-anchor="middle" x="666" y="-7.5" font-family="Helvetica,sans-Serif" font-size="10.00">Rockit.h</text>
</a>
</g>
</g>
<!-- Node10&#45;&gt;Node12 -->
<g id="edge12" class="edge">
<title>Node10&#45;&gt;Node12</title>
<path fill="none" stroke="midnightblue" d="M675.41,-102.11C677.85,-89.12 680.03,-71.49 678,-56 676.32,-43.17 672.05,-28.8 669.09,-19.83"/>
<polygon fill="midnightblue" stroke="midnightblue" points="671.93,-101.65 673.28,-112.15 678.77,-103.09 671.93,-101.65"/>
</g>
<!-- Node10&#45;&gt;Node13 -->
<g id="edge13" class="edge">
<title>Node10&#45;&gt;Node13</title>
<path fill="none" stroke="midnightblue" d="M697.52,-107.86C717.73,-97.85 744.99,-84.35 762.53,-75.65"/>
<polygon fill="midnightblue" stroke="midnightblue" points="695.92,-104.75 688.51,-112.32 699.03,-111.02 695.92,-104.75"/>
</g>
<!-- Node11&#45;&gt;Node12 -->
<g id="edge11" class="edge">
<title>Node11&#45;&gt;Node12</title>
<path fill="none" stroke="midnightblue" d="M645.18,-47.27C650.47,-38.05 656.72,-27.17 660.98,-19.75"/>
<polygon fill="midnightblue" stroke="midnightblue" points="642.06,-45.67 640.12,-56.08 648.13,-49.15 642.06,-45.67"/>
</g>
</g>
</svg>
