<?xml version="1.0" encoding="UTF-8" standalone="no"?>
<!DOCTYPE svg PUBLIC "-//W3C//DTD SVG 1.1//EN"
 "http://www.w3.org/Graphics/SVG/1.1/DTD/svg11.dtd">
<!-- Generated by graphviz version 2.43.0 (0)
 -->
<!-- Title: State.h Pages: 1 -->
<svg width="321pt" height="84pt"
 viewBox="0.00 0.00 320.50 84.00" xmlns="http://www.w3.org/2000/svg" xmlns:xlink="http://www.w3.org/1999/xlink">
<g id="graph0" class="graph" transform="scale(1 1) rotate(0) translate(4 80)">
<title>State.h</title>
<polygon fill="white" stroke="transparent" points="-4,4 -4,-80 316.5,-80 316.5,4 -4,4"/>
<!-- Node1 -->
<g id="node1" class="node">
<title>Node1</title>
<g id="a_node1"><a xlink:title=" ">
<polygon fill="#bfbfbf" stroke="black" points="128,-56.5 128,-75.5 179,-75.5 179,-56.5 128,-56.5"/>
<text text-anchor="middle" x="153.5" y="-63.5" font-family="Helvetica,sans-Serif" font-size="10.00">State.h</text>
</a>
</g>
</g>
<!-- Node2 -->
<g id="node2" class="node">
<title>Node2</title>
<g id="a_node2"><a xlink:href="_beep_and_blink_8cpp.html" target="_top" xlink:title=" ">
<polygon fill="white" stroke="black" points="0,-0.5 0,-19.5 105,-19.5 105,-0.5 0,-0.5"/>
<text text-anchor="middle" x="52.5" y="-7.5" font-family="Helvetica,sans-Serif" font-size="10.00">BeepAndBlink.cpp</text>
</a>
</g>
</g>
<!-- Node1&#45;&gt;Node2 -->
<g id="edge1" class="edge">
<title>Node1&#45;&gt;Node2</title>
<path fill="none" stroke="midnightblue" d="M128.42,-51.59C109.74,-41.61 84.8,-28.27 68.69,-19.65"/>
<polygon fill="midnightblue" stroke="midnightblue" points="126.8,-54.7 137.27,-56.32 130.1,-48.52 126.8,-54.7"/>
</g>
<!-- Node3 -->
<g id="node3" class="node">
<title>Node3</title>
<g id="a_node3"><a xlink:href="_main_8cpp.html" target="_top" xlink:title=" ">
<polygon fill="white" stroke="black" points="123,-0.5 123,-19.5 184,-19.5 184,-0.5 123,-0.5"/>
<text text-anchor="middle" x="153.5" y="-7.5" font-family="Helvetica,sans-Serif" font-size="10.00">Main.cpp</text>
</a>
</g>
</g>
<!-- Node1&#45;&gt;Node3 -->
<g id="edge2" class="edge">
<title>Node1&#45;&gt;Node3</title>
<path fill="none" stroke="midnightblue" d="M153.5,-45.8C153.5,-36.91 153.5,-26.78 153.5,-19.75"/>
<polygon fill="midnightblue" stroke="midnightblue" points="150,-46.08 153.5,-56.08 157,-46.08 150,-46.08"/>
</g>
<!-- Node4 -->
<g id="node4" class="node">
<title>Node4</title>
<g id="a_node4"><a xlink:href="_recovery_stage_8cpp.html" target="_top" xlink:title=" ">
<polygon fill="white" stroke="black" points="202.5,-0.5 202.5,-19.5 312.5,-19.5 312.5,-0.5 202.5,-0.5"/>
<text text-anchor="middle" x="257.5" y="-7.5" font-family="Helvetica,sans-Serif" font-size="10.00">RecoveryStage.cpp</text>
</a>
</g>
</g>
<!-- Node1&#45;&gt;Node4 -->
<g id="edge3" class="edge">
<title>Node1&#45;&gt;Node4</title>
<path fill="none" stroke="midnightblue" d="M179.33,-51.59C198.56,-41.61 224.24,-28.27 240.83,-19.65"/>
<polygon fill="midnightblue" stroke="midnightblue" points="177.47,-48.61 170.21,-56.32 180.7,-54.82 177.47,-48.61"/>
</g>
</g>
</svg>
