<?xml version="1.0" encoding="UTF-8" standalone="no"?>
<!DOCTYPE svg PUBLIC "-//W3C//DTD SVG 1.1//EN"
 "http://www.w3.org/Graphics/SVG/1.1/DTD/svg11.dtd">
<!-- Generated by graphviz version 2.43.0 (0)
 -->
<!-- Title: WocketAccelerometer.h Pages: 1 -->
<svg width="1181pt" height="140pt"
 viewBox="0.00 0.00 1180.50 140.00" xmlns="http://www.w3.org/2000/svg" xmlns:xlink="http://www.w3.org/1999/xlink">
<g id="graph0" class="graph" transform="scale(1 1) rotate(0) translate(4 136)">
<title>WocketAccelerometer.h</title>
<polygon fill="white" stroke="transparent" points="-4,4 -4,-136 1176.5,-136 1176.5,4 -4,4"/>
<!-- Node1 -->
<g id="node1" class="node">
<title>Node1</title>
<g id="a_node1"><a xlink:title=" ">
<polygon fill="#bfbfbf" stroke="black" points="752,-112.5 752,-131.5 883,-131.5 883,-112.5 752,-112.5"/>
<text text-anchor="middle" x="817.5" y="-119.5" font-family="Helvetica,sans-Serif" font-size="10.00">WocketAccelerometer.h</text>
</a>
</g>
</g>
<!-- Node2 -->
<g id="node2" class="node">
<title>Node2</title>
<g id="a_node2"><a xlink:href="_config_8h.html" target="_top" xlink:title=" ">
<polygon fill="white" stroke="black" points="434.5,-56.5 434.5,-75.5 490.5,-75.5 490.5,-56.5 434.5,-56.5"/>
<text text-anchor="middle" x="462.5" y="-63.5" font-family="Helvetica,sans-Serif" font-size="10.00">Config.h</text>
</a>
</g>
</g>
<!-- Node1&#45;&gt;Node2 -->
<g id="edge1" class="edge">
<title>Node1&#45;&gt;Node2</title>
<path fill="none" stroke="midnightblue" d="M751.01,-110.89C672.73,-98.98 546.32,-79.75 490.52,-71.26"/>
<polygon fill="midnightblue" stroke="midnightblue" points="750.84,-114.4 761.25,-112.44 751.89,-107.48 750.84,-114.4"/>
</g>
<!-- Node9 -->
<g id="node9" class="node">
<title>Node9</title>
<g id="a_node9"><a xlink:href="_wocket_accelerometer_8cpp.html" target="_top" xlink:title=" ">
<polygon fill="white" stroke="black" points="658,-0.5 658,-19.5 801,-19.5 801,-0.5 658,-0.5"/>
<text text-anchor="middle" x="729.5" y="-7.5" font-family="Helvetica,sans-Serif" font-size="10.00">WocketAccelerometer.cpp</text>
</a>
</g>
</g>
<!-- Node1&#45;&gt;Node9 -->
<g id="edge13" class="edge">
<title>Node1&#45;&gt;Node9</title>
<path fill="none" stroke="midnightblue" d="M804.12,-104.27C785.1,-80.49 750.93,-37.79 736.37,-19.59"/>
<polygon fill="midnightblue" stroke="midnightblue" points="801.61,-106.75 810.59,-112.37 807.08,-102.37 801.61,-106.75"/>
</g>
<!-- Node10 -->
<g id="node10" class="node">
<title>Node10</title>
<g id="a_node10"><a xlink:href="_wocket_sensor_package_8h.html" target="_top" xlink:title=" ">
<polygon fill="white" stroke="black" points="845.5,-56.5 845.5,-75.5 979.5,-75.5 979.5,-56.5 845.5,-56.5"/>
<text text-anchor="middle" x="912.5" y="-63.5" font-family="Helvetica,sans-Serif" font-size="10.00">WocketSensorPackage.h</text>
</a>
</g>
</g>
<!-- Node1&#45;&gt;Node10 -->
<g id="edge9" class="edge">
<title>Node1&#45;&gt;Node10</title>
<path fill="none" stroke="midnightblue" d="M841.82,-107.18C859.3,-97.24 882.33,-84.15 897.27,-75.65"/>
<polygon fill="midnightblue" stroke="midnightblue" points="839.73,-104.34 832.76,-112.32 843.19,-110.43 839.73,-104.34"/>
</g>
<!-- Node11 -->
<g id="node11" class="node">
<title>Node11</title>
<g id="a_node11"><a xlink:href="_wocket_sensor_package_8cpp.html" target="_top" xlink:title=" ">
<polygon fill="white" stroke="black" points="819,-0.5 819,-19.5 964,-19.5 964,-0.5 819,-0.5"/>
<text text-anchor="middle" x="891.5" y="-7.5" font-family="Helvetica,sans-Serif" font-size="10.00">WocketSensorPackage.cpp</text>
</a>
</g>
</g>
<!-- Node1&#45;&gt;Node11 -->
<g id="edge12" class="edge">
<title>Node1&#45;&gt;Node11</title>
<path fill="none" stroke="midnightblue" d="M819.96,-102.15C822.43,-88.45 827.27,-69.94 836.5,-56 846.85,-40.36 864.3,-27.43 876.77,-19.5"/>
<polygon fill="midnightblue" stroke="midnightblue" points="816.45,-101.9 818.38,-112.32 823.37,-102.97 816.45,-101.9"/>
</g>
<!-- Node13 -->
<g id="node13" class="node">
<title>Node13</title>
<g id="a_node13"><a xlink:href="_wocket_a_d_x_l343_8h.html" target="_top" xlink:title=" ">
<polygon fill="white" stroke="black" points="1040,-56.5 1040,-75.5 1145,-75.5 1145,-56.5 1040,-56.5"/>
<text text-anchor="middle" x="1092.5" y="-63.5" font-family="Helvetica,sans-Serif" font-size="10.00">WocketADXL343.h</text>
</a>
</g>
</g>
<!-- Node1&#45;&gt;Node13 -->
<g id="edge14" class="edge">
<title>Node1&#45;&gt;Node13</title>
<path fill="none" stroke="midnightblue" d="M871.11,-110.47C923.08,-100.27 1000.94,-84.98 1049.13,-75.52"/>
<polygon fill="midnightblue" stroke="midnightblue" points="870.21,-107.08 861.07,-112.44 871.56,-113.95 870.21,-107.08"/>
</g>
<!-- Node3 -->
<g id="node3" class="node">
<title>Node3</title>
<g id="a_node3"><a xlink:href="_pre_launch_stage_8cpp.html" target="_top" xlink:title=" ">
<polygon fill="white" stroke="black" points="0,-0.5 0,-19.5 115,-19.5 115,-0.5 0,-0.5"/>
<text text-anchor="middle" x="57.5" y="-7.5" font-family="Helvetica,sans-Serif" font-size="10.00">PreLaunchStage.cpp</text>
</a>
</g>
</g>
<!-- Node2&#45;&gt;Node3 -->
<g id="edge2" class="edge">
<title>Node2&#45;&gt;Node3</title>
<path fill="none" stroke="midnightblue" d="M424.26,-59.92C361.62,-51.6 233.22,-34.54 124.5,-20 121.48,-19.6 118.37,-19.18 115.24,-18.76"/>
<polygon fill="midnightblue" stroke="midnightblue" points="424.08,-63.43 434.45,-61.28 425,-56.49 424.08,-63.43"/>
</g>
<!-- Node4 -->
<g id="node4" class="node">
<title>Node4</title>
<g id="a_node4"><a xlink:href="_recovery_stage_8cpp.html" target="_top" xlink:title=" ">
<polygon fill="white" stroke="black" points="133.5,-0.5 133.5,-19.5 243.5,-19.5 243.5,-0.5 133.5,-0.5"/>
<text text-anchor="middle" x="188.5" y="-7.5" font-family="Helvetica,sans-Serif" font-size="10.00">RecoveryStage.cpp</text>
</a>
</g>
</g>
<!-- Node2&#45;&gt;Node4 -->
<g id="edge3" class="edge">
<title>Node2&#45;&gt;Node4</title>
<path fill="none" stroke="midnightblue" d="M424.61,-57.53C374.15,-47.59 285.1,-30.04 231.97,-19.57"/>
<polygon fill="midnightblue" stroke="midnightblue" points="423.98,-60.98 434.46,-59.47 425.33,-54.11 423.98,-60.98"/>
</g>
<!-- Node5 -->
<g id="node5" class="node">
<title>Node5</title>
<g id="a_node5"><a xlink:href="_beep_and_blink_8cpp.html" target="_top" xlink:title=" ">
<polygon fill="white" stroke="black" points="262,-0.5 262,-19.5 367,-19.5 367,-0.5 262,-0.5"/>
<text text-anchor="middle" x="314.5" y="-7.5" font-family="Helvetica,sans-Serif" font-size="10.00">BeepAndBlink.cpp</text>
</a>
</g>
</g>
<!-- Node2&#45;&gt;Node5 -->
<g id="edge4" class="edge">
<title>Node2&#45;&gt;Node5</title>
<path fill="none" stroke="midnightblue" d="M429.35,-52.91C401.53,-42.75 362.48,-28.51 337.84,-19.52"/>
<polygon fill="midnightblue" stroke="midnightblue" points="428.46,-56.3 439.05,-56.44 430.85,-49.73 428.46,-56.3"/>
</g>
<!-- Node6 -->
<g id="node6" class="node">
<title>Node6</title>
<g id="a_node6"><a xlink:href="_pins_8cpp.html" target="_top" xlink:title=" ">
<polygon fill="white" stroke="black" points="385,-0.5 385,-19.5 442,-19.5 442,-0.5 385,-0.5"/>
<text text-anchor="middle" x="413.5" y="-7.5" font-family="Helvetica,sans-Serif" font-size="10.00">Pins.cpp</text>
</a>
</g>
</g>
<!-- Node2&#45;&gt;Node6 -->
<g id="edge5" class="edge">
<title>Node2&#45;&gt;Node6</title>
<path fill="none" stroke="midnightblue" d="M447.47,-48.43C438.88,-38.97 428.46,-27.48 421.44,-19.75"/>
<polygon fill="midnightblue" stroke="midnightblue" points="445.1,-51.03 454.41,-56.08 450.28,-46.33 445.1,-51.03"/>
</g>
<!-- Node7 -->
<g id="node7" class="node">
<title>Node7</title>
<g id="a_node7"><a xlink:href="_rotary_switch_8cpp.html" target="_top" xlink:title=" ">
<polygon fill="white" stroke="black" points="460,-0.5 460,-19.5 561,-19.5 561,-0.5 460,-0.5"/>
<text text-anchor="middle" x="510.5" y="-7.5" font-family="Helvetica,sans-Serif" font-size="10.00">RotarySwitch.cpp</text>
</a>
</g>
</g>
<!-- Node2&#45;&gt;Node7 -->
<g id="edge6" class="edge">
<title>Node2&#45;&gt;Node7</title>
<path fill="none" stroke="midnightblue" d="M477.23,-48.43C485.64,-38.97 495.85,-27.48 502.72,-19.75"/>
<polygon fill="midnightblue" stroke="midnightblue" points="474.45,-46.28 470.43,-56.08 479.69,-50.93 474.45,-46.28"/>
</g>
<!-- Node8 -->
<g id="node8" class="node">
<title>Node8</title>
<g id="a_node8"><a xlink:href="_main_8cpp.html" target="_top" xlink:title=" ">
<polygon fill="white" stroke="black" points="579,-0.5 579,-19.5 640,-19.5 640,-0.5 579,-0.5"/>
<text text-anchor="middle" x="609.5" y="-7.5" font-family="Helvetica,sans-Serif" font-size="10.00">Main.cpp</text>
</a>
</g>
</g>
<!-- Node2&#45;&gt;Node8 -->
<g id="edge7" class="edge">
<title>Node2&#45;&gt;Node8</title>
<path fill="none" stroke="midnightblue" d="M495.42,-52.91C523.06,-42.75 561.84,-28.51 586.32,-19.52"/>
<polygon fill="midnightblue" stroke="midnightblue" points="493.97,-49.71 485.79,-56.44 496.39,-56.28 493.97,-49.71"/>
</g>
<!-- Node2&#45;&gt;Node9 -->
<g id="edge8" class="edge">
<title>Node2&#45;&gt;Node9</title>
<path fill="none" stroke="midnightblue" d="M500.54,-57.31C549.99,-47.31 636.07,-29.9 687.42,-19.51"/>
<polygon fill="midnightblue" stroke="midnightblue" points="499.68,-53.91 490.57,-59.32 501.06,-60.77 499.68,-53.91"/>
</g>
<!-- Node10&#45;&gt;Node11 -->
<g id="edge10" class="edge">
<title>Node10&#45;&gt;Node11</title>
<path fill="none" stroke="midnightblue" d="M905.38,-46.69C901.84,-37.59 897.73,-27.01 894.9,-19.75"/>
<polygon fill="midnightblue" stroke="midnightblue" points="902.15,-48.03 909.03,-56.08 908.67,-45.49 902.15,-48.03"/>
</g>
<!-- Node12 -->
<g id="node12" class="node">
<title>Node12</title>
<g id="a_node12"><a xlink:href="_rockit_8h.html" target="_top" xlink:title=" ">
<polygon fill="white" stroke="black" points="982.5,-0.5 982.5,-19.5 1038.5,-19.5 1038.5,-0.5 982.5,-0.5"/>
<text text-anchor="middle" x="1010.5" y="-7.5" font-family="Helvetica,sans-Serif" font-size="10.00">Rockit.h</text>
</a>
</g>
</g>
<!-- Node10&#45;&gt;Node12 -->
<g id="edge11" class="edge">
<title>Node10&#45;&gt;Node12</title>
<path fill="none" stroke="midnightblue" d="M937.09,-51.45C955.18,-41.48 979.23,-28.23 994.79,-19.65"/>
<polygon fill="midnightblue" stroke="midnightblue" points="935.31,-48.43 928.25,-56.32 938.69,-54.56 935.31,-48.43"/>
</g>
<!-- Node14 -->
<g id="node14" class="node">
<title>Node14</title>
<g id="a_node14"><a xlink:href="_wocket_a_d_x_l343_8cpp.html" target="_top" xlink:title=" ">
<polygon fill="white" stroke="black" points="1056.5,-0.5 1056.5,-19.5 1172.5,-19.5 1172.5,-0.5 1056.5,-0.5"/>
<text text-anchor="middle" x="1114.5" y="-7.5" font-family="Helvetica,sans-Serif" font-size="10.00">WocketADXL343.cpp</text>
</a>
</g>
</g>
<!-- Node13&#45;&gt;Node14 -->
<g id="edge15" class="edge">
<title>Node13&#45;&gt;Node14</title>
<path fill="none" stroke="midnightblue" d="M1099.96,-46.69C1103.67,-37.59 1107.98,-27.01 1110.93,-19.75"/>
<polygon fill="midnightblue" stroke="midnightblue" points="1096.66,-45.5 1096.13,-56.08 1103.15,-48.14 1096.66,-45.5"/>
</g>
</g>
</svg>
