<?xml version="1.0" encoding="UTF-8" standalone="no"?>
<!DOCTYPE svg PUBLIC "-//W3C//DTD SVG 1.1//EN"
 "http://www.w3.org/Graphics/SVG/1.1/DTD/svg11.dtd">
<!-- Generated by graphviz version 2.43.0 (0)
 -->
<!-- Title: WocketBarometer.h Pages: 1 -->
<svg width="799pt" height="140pt"
 viewBox="0.00 0.00 798.50 140.00" xmlns="http://www.w3.org/2000/svg" xmlns:xlink="http://www.w3.org/1999/xlink">
<g id="graph0" class="graph" transform="scale(1 1) rotate(0) translate(4 136)">
<title>WocketBarometer.h</title>
<polygon fill="white" stroke="transparent" points="-4,4 -4,-136 794.5,-136 794.5,4 -4,4"/>
<!-- Node1 -->
<g id="node1" class="node">
<title>Node1</title>
<g id="a_node1"><a xlink:title=" ">
<polygon fill="#bfbfbf" stroke="black" points="427.5,-112.5 427.5,-131.5 539.5,-131.5 539.5,-112.5 427.5,-112.5"/>
<text text-anchor="middle" x="483.5" y="-119.5" font-family="Helvetica,sans-Serif" font-size="10.00">WocketBarometer.h</text>
</a>
</g>
</g>
<!-- Node2 -->
<g id="node2" class="node">
<title>Node2</title>
<g id="a_node2"><a xlink:href="_config_8h.html" target="_top" xlink:title=" ">
<polygon fill="white" stroke="black" points="407.5,-56.5 407.5,-75.5 463.5,-75.5 463.5,-56.5 407.5,-56.5"/>
<text text-anchor="middle" x="435.5" y="-63.5" font-family="Helvetica,sans-Serif" font-size="10.00">Config.h</text>
</a>
</g>
</g>
<!-- Node1&#45;&gt;Node2 -->
<g id="edge1" class="edge">
<title>Node1&#45;&gt;Node2</title>
<path fill="none" stroke="midnightblue" d="M468.77,-104.43C460.36,-94.97 450.15,-83.48 443.28,-75.75"/>
<polygon fill="midnightblue" stroke="midnightblue" points="466.31,-106.93 475.57,-112.08 471.55,-102.28 466.31,-106.93"/>
</g>
<!-- Node10 -->
<g id="node10" class="node">
<title>Node10</title>
<g id="a_node10"><a xlink:href="_wocket_m_s5637_8h.html" target="_top" xlink:title=" ">
<polygon fill="white" stroke="black" points="481.5,-56.5 481.5,-75.5 581.5,-75.5 581.5,-56.5 481.5,-56.5"/>
<text text-anchor="middle" x="531.5" y="-63.5" font-family="Helvetica,sans-Serif" font-size="10.00">WocketMS5637.h</text>
</a>
</g>
</g>
<!-- Node1&#45;&gt;Node10 -->
<g id="edge9" class="edge">
<title>Node1&#45;&gt;Node10</title>
<path fill="none" stroke="midnightblue" d="M498.23,-104.43C506.64,-94.97 516.85,-83.48 523.72,-75.75"/>
<polygon fill="midnightblue" stroke="midnightblue" points="495.45,-102.28 491.43,-112.08 500.69,-106.93 495.45,-102.28"/>
</g>
<!-- Node3 -->
<g id="node3" class="node">
<title>Node3</title>
<g id="a_node3"><a xlink:href="_pre_launch_stage_8cpp.html" target="_top" xlink:title=" ">
<polygon fill="white" stroke="black" points="0,-0.5 0,-19.5 115,-19.5 115,-0.5 0,-0.5"/>
<text text-anchor="middle" x="57.5" y="-7.5" font-family="Helvetica,sans-Serif" font-size="10.00">PreLaunchStage.cpp</text>
</a>
</g>
</g>
<!-- Node2&#45;&gt;Node3 -->
<g id="edge2" class="edge">
<title>Node2&#45;&gt;Node3</title>
<path fill="none" stroke="midnightblue" d="M397.35,-59.55C330.83,-50.05 193.25,-30.39 115.08,-19.23"/>
<polygon fill="midnightblue" stroke="midnightblue" points="397,-63.04 407.4,-60.99 397.99,-56.11 397,-63.04"/>
</g>
<!-- Node4 -->
<g id="node4" class="node">
<title>Node4</title>
<g id="a_node4"><a xlink:href="_beep_and_blink_8cpp.html" target="_top" xlink:title=" ">
<polygon fill="white" stroke="black" points="133,-0.5 133,-19.5 238,-19.5 238,-0.5 133,-0.5"/>
<text text-anchor="middle" x="185.5" y="-7.5" font-family="Helvetica,sans-Serif" font-size="10.00">BeepAndBlink.cpp</text>
</a>
</g>
</g>
<!-- Node2&#45;&gt;Node4 -->
<g id="edge3" class="edge">
<title>Node2&#45;&gt;Node4</title>
<path fill="none" stroke="midnightblue" d="M397.31,-56.75C350.7,-46.68 272.3,-29.75 225.08,-19.55"/>
<polygon fill="midnightblue" stroke="midnightblue" points="396.79,-60.22 407.31,-58.91 398.27,-53.38 396.79,-60.22"/>
</g>
<!-- Node5 -->
<g id="node5" class="node">
<title>Node5</title>
<g id="a_node5"><a xlink:href="_recovery_stage_8cpp.html" target="_top" xlink:title=" ">
<polygon fill="white" stroke="black" points="256.5,-0.5 256.5,-19.5 366.5,-19.5 366.5,-0.5 256.5,-0.5"/>
<text text-anchor="middle" x="311.5" y="-7.5" font-family="Helvetica,sans-Serif" font-size="10.00">RecoveryStage.cpp</text>
</a>
</g>
</g>
<!-- Node2&#45;&gt;Node5 -->
<g id="edge4" class="edge">
<title>Node2&#45;&gt;Node5</title>
<path fill="none" stroke="midnightblue" d="M406.49,-52.37C383.27,-42.26 351.34,-28.35 331.06,-19.52"/>
<polygon fill="midnightblue" stroke="midnightblue" points="405.29,-55.66 415.85,-56.44 408.08,-49.24 405.29,-55.66"/>
</g>
<!-- Node6 -->
<g id="node6" class="node">
<title>Node6</title>
<g id="a_node6"><a xlink:href="_rotary_switch_8cpp.html" target="_top" xlink:title=" ">
<polygon fill="white" stroke="black" points="385,-0.5 385,-19.5 486,-19.5 486,-0.5 385,-0.5"/>
<text text-anchor="middle" x="435.5" y="-7.5" font-family="Helvetica,sans-Serif" font-size="10.00">RotarySwitch.cpp</text>
</a>
</g>
</g>
<!-- Node2&#45;&gt;Node6 -->
<g id="edge5" class="edge">
<title>Node2&#45;&gt;Node6</title>
<path fill="none" stroke="midnightblue" d="M435.5,-45.8C435.5,-36.91 435.5,-26.78 435.5,-19.75"/>
<polygon fill="midnightblue" stroke="midnightblue" points="432,-46.08 435.5,-56.08 439,-46.08 432,-46.08"/>
</g>
<!-- Node7 -->
<g id="node7" class="node">
<title>Node7</title>
<g id="a_node7"><a xlink:href="_pins_8cpp.html" target="_top" xlink:title=" ">
<polygon fill="white" stroke="black" points="504,-0.5 504,-19.5 561,-19.5 561,-0.5 504,-0.5"/>
<text text-anchor="middle" x="532.5" y="-7.5" font-family="Helvetica,sans-Serif" font-size="10.00">Pins.cpp</text>
</a>
</g>
</g>
<!-- Node2&#45;&gt;Node7 -->
<g id="edge6" class="edge">
<title>Node2&#45;&gt;Node7</title>
<path fill="none" stroke="midnightblue" d="M459.84,-51.45C477.74,-41.48 501.55,-28.23 516.95,-19.65"/>
<polygon fill="midnightblue" stroke="midnightblue" points="458.12,-48.4 451.08,-56.32 461.52,-54.52 458.12,-48.4"/>
</g>
<!-- Node8 -->
<g id="node8" class="node">
<title>Node8</title>
<g id="a_node8"><a xlink:href="_main_8cpp.html" target="_top" xlink:title=" ">
<polygon fill="white" stroke="black" points="579,-0.5 579,-19.5 640,-19.5 640,-0.5 579,-0.5"/>
<text text-anchor="middle" x="609.5" y="-7.5" font-family="Helvetica,sans-Serif" font-size="10.00">Main.cpp</text>
</a>
</g>
</g>
<!-- Node2&#45;&gt;Node8 -->
<g id="edge7" class="edge">
<title>Node2&#45;&gt;Node8</title>
<path fill="none" stroke="midnightblue" d="M472.76,-53.44C505.57,-43.26 552.58,-28.66 582.06,-19.52"/>
<polygon fill="midnightblue" stroke="midnightblue" points="471.58,-50.14 463.07,-56.44 473.66,-56.82 471.58,-50.14"/>
</g>
<!-- Node9 -->
<g id="node9" class="node">
<title>Node9</title>
<g id="a_node9"><a xlink:href="_accelerometer_base_8cpp.html" target="_top" xlink:title=" ">
<polygon fill="white" stroke="black" points="658.5,-0.5 658.5,-19.5 790.5,-19.5 790.5,-0.5 658.5,-0.5"/>
<text text-anchor="middle" x="724.5" y="-7.5" font-family="Helvetica,sans-Serif" font-size="10.00">AccelerometerBase.cpp</text>
</a>
</g>
</g>
<!-- Node2&#45;&gt;Node9 -->
<g id="edge8" class="edge">
<title>Node2&#45;&gt;Node9</title>
<path fill="none" stroke="midnightblue" d="M473.68,-55.85C547.54,-40.45 622.28,-27.59 671.22,-19.53"/>
<polygon fill="midnightblue" stroke="midnightblue" points="472.81,-52.46 463.74,-57.94 474.25,-59.31 472.81,-52.46"/>
</g>
</g>
</svg>
