<?xml version="1.0" encoding="UTF-8" standalone="no"?>
<!DOCTYPE svg PUBLIC "-//W3C//DTD SVG 1.1//EN"
 "http://www.w3.org/Graphics/SVG/1.1/DTD/svg11.dtd">
<!-- Generated by graphviz version 2.43.0 (0)
 -->
<!-- Title: WocketMS5637.cpp Pages: 1 -->
<svg width="401pt" height="95pt"
 viewBox="0.00 0.00 401.00 95.00" xmlns="http://www.w3.org/2000/svg" xmlns:xlink="http://www.w3.org/1999/xlink">
<g id="graph0" class="graph" transform="scale(1 1) rotate(0) translate(4 91)">
<title>WocketMS5637.cpp</title>
<polygon fill="white" stroke="transparent" points="-4,4 -4,-91 397,-91 397,4 -4,4"/>
<!-- Node1 -->
<g id="node1" class="node">
<title>Node1</title>
<g id="a_node1"><a xlink:title=" ">
<polygon fill="#bfbfbf" stroke="black" points="172,-67.5 172,-86.5 283,-86.5 283,-67.5 172,-67.5"/>
<text text-anchor="middle" x="227.5" y="-74.5" font-family="Helvetica,sans-Serif" font-size="10.00">WocketMS5637.cpp</text>
</a>
</g>
</g>
<!-- Node2 -->
<g id="node2" class="node">
<title>Node2</title>
<g id="a_node2"><a xlink:title=" ">
<polygon fill="white" stroke="#bfbfbf" points="0,-0.5 0,-30.5 149,-30.5 149,-0.5 0,-0.5"/>
<text text-anchor="start" x="8" y="-18.5" font-family="Helvetica,sans-Serif" font-size="10.00">SparkFun_MS5637_Arduino</text>
<text text-anchor="middle" x="74.5" y="-7.5" font-family="Helvetica,sans-Serif" font-size="10.00">_Library.h</text>
</a>
</g>
</g>
<!-- Node1&#45;&gt;Node2 -->
<g id="edge1" class="edge">
<title>Node1&#45;&gt;Node2</title>
<path fill="none" stroke="midnightblue" d="M205.58,-67.48C183.4,-58.85 148.46,-45.26 120.23,-34.29"/>
<polygon fill="midnightblue" stroke="midnightblue" points="121.15,-30.89 110.56,-30.52 118.61,-37.41 121.15,-30.89"/>
</g>
<!-- Node3 -->
<g id="node3" class="node">
<title>Node3</title>
<g id="a_node3"><a xlink:title=" ">
<polygon fill="white" stroke="#bfbfbf" points="167,-6 167,-25 288,-25 288,-6 167,-6"/>
<text text-anchor="middle" x="227.5" y="-13" font-family="Helvetica,sans-Serif" font-size="10.00">MS5637_Barometer.h</text>
</a>
</g>
</g>
<!-- Node1&#45;&gt;Node3 -->
<g id="edge2" class="edge">
<title>Node1&#45;&gt;Node3</title>
<path fill="none" stroke="midnightblue" d="M227.5,-67.48C227.5,-59.08 227.5,-45.98 227.5,-35.16"/>
<polygon fill="midnightblue" stroke="midnightblue" points="231,-35.01 227.5,-25.01 224,-35.01 231,-35.01"/>
</g>
<!-- Node4 -->
<g id="node4" class="node">
<title>Node4</title>
<g id="a_node4"><a xlink:href="_kalman_filter_8h.html" target="_top" xlink:title=" ">
<polygon fill="white" stroke="black" points="306,-6 306,-25 393,-25 393,-6 306,-6"/>
<text text-anchor="middle" x="349.5" y="-13" font-family="Helvetica,sans-Serif" font-size="10.00">KalmanFilter.h</text>
</a>
</g>
</g>
<!-- Node1&#45;&gt;Node4 -->
<g id="edge3" class="edge">
<title>Node1&#45;&gt;Node4</title>
<path fill="none" stroke="midnightblue" d="M244.98,-67.48C265.36,-57.53 299.28,-40.99 322.92,-29.46"/>
<polygon fill="midnightblue" stroke="midnightblue" points="324.6,-32.54 332.05,-25.01 321.53,-26.25 324.6,-32.54"/>
</g>
</g>
</svg>
