<?xml version="1.0" encoding="UTF-8" standalone="no"?>
<!DOCTYPE svg PUBLIC "-//W3C//DTD SVG 1.1//EN"
 "http://www.w3.org/Graphics/SVG/1.1/DTD/svg11.dtd">
<!-- Generated by graphviz version 2.43.0 (0)
 -->
<!-- Title: WocketAccelerationData.h Pages: 1 -->
<svg width="1181pt" height="196pt"
 viewBox="0.00 0.00 1180.50 196.00" xmlns="http://www.w3.org/2000/svg" xmlns:xlink="http://www.w3.org/1999/xlink">
<g id="graph0" class="graph" transform="scale(1 1) rotate(0) translate(4 192)">
<title>WocketAccelerationData.h</title>
<polygon fill="white" stroke="transparent" points="-4,4 -4,-192 1176.5,-192 1176.5,4 -4,4"/>
<!-- Node1 -->
<g id="node1" class="node">
<title>Node1</title>
<g id="a_node1"><a xlink:title=" ">
<polygon fill="#bfbfbf" stroke="black" points="724,-168.5 724,-187.5 869,-187.5 869,-168.5 724,-168.5"/>
<text text-anchor="middle" x="796.5" y="-175.5" font-family="Helvetica,sans-Serif" font-size="10.00">WocketAccelerationData.h</text>
</a>
</g>
</g>
<!-- Node2 -->
<g id="node2" class="node">
<title>Node2</title>
<g id="a_node2"><a xlink:href="_main_8cpp.html" target="_top" xlink:title=" ">
<polygon fill="white" stroke="black" points="0,-0.5 0,-19.5 61,-19.5 61,-0.5 0,-0.5"/>
<text text-anchor="middle" x="30.5" y="-7.5" font-family="Helvetica,sans-Serif" font-size="10.00">Main.cpp</text>
</a>
</g>
</g>
<!-- Node1&#45;&gt;Node2 -->
<g id="edge1" class="edge">
<title>Node1&#45;&gt;Node2</title>
<path fill="none" stroke="midnightblue" d="M746,-166.35C627.66,-141.34 323.28,-76.68 69.5,-20 66.79,-19.39 63.97,-18.76 61.15,-18.12"/>
<polygon fill="midnightblue" stroke="midnightblue" points="745.36,-169.79 755.86,-168.43 746.8,-162.94 745.36,-169.79"/>
</g>
<!-- Node3 -->
<g id="node3" class="node">
<title>Node3</title>
<g id="a_node3"><a xlink:href="_wocket_accelerometer_8h.html" target="_top" xlink:title=" ">
<polygon fill="white" stroke="black" points="731,-112.5 731,-131.5 862,-131.5 862,-112.5 731,-112.5"/>
<text text-anchor="middle" x="796.5" y="-119.5" font-family="Helvetica,sans-Serif" font-size="10.00">WocketAccelerometer.h</text>
</a>
</g>
</g>
<!-- Node1&#45;&gt;Node3 -->
<g id="edge2" class="edge">
<title>Node1&#45;&gt;Node3</title>
<path fill="none" stroke="midnightblue" d="M796.5,-157.8C796.5,-148.91 796.5,-138.78 796.5,-131.75"/>
<polygon fill="midnightblue" stroke="midnightblue" points="793,-158.08 796.5,-168.08 800,-158.08 793,-158.08"/>
</g>
<!-- Node15 -->
<g id="node15" class="node">
<title>Node15</title>
<g id="a_node15"><a xlink:href="_wocket_a_d_x_l343_8cpp.html" target="_top" xlink:title=" ">
<polygon fill="white" stroke="black" points="1056.5,-0.5 1056.5,-19.5 1172.5,-19.5 1172.5,-0.5 1056.5,-0.5"/>
<text text-anchor="middle" x="1114.5" y="-7.5" font-family="Helvetica,sans-Serif" font-size="10.00">WocketADXL343.cpp</text>
</a>
</g>
</g>
<!-- Node1&#45;&gt;Node15 -->
<g id="edge18" class="edge">
<title>Node1&#45;&gt;Node15</title>
<path fill="none" stroke="midnightblue" d="M878.96,-168.75C944.93,-157.97 1035.51,-133.13 1092.5,-76 1107.98,-60.48 1112.57,-33.69 1113.93,-19.85"/>
<polygon fill="midnightblue" stroke="midnightblue" points="878.35,-165.31 869.01,-170.31 879.43,-172.22 878.35,-165.31"/>
</g>
<!-- Node4 -->
<g id="node4" class="node">
<title>Node4</title>
<g id="a_node4"><a xlink:href="_config_8h.html" target="_top" xlink:title=" ">
<polygon fill="white" stroke="black" points="415.5,-56.5 415.5,-75.5 471.5,-75.5 471.5,-56.5 415.5,-56.5"/>
<text text-anchor="middle" x="443.5" y="-63.5" font-family="Helvetica,sans-Serif" font-size="10.00">Config.h</text>
</a>
</g>
</g>
<!-- Node3&#45;&gt;Node4 -->
<g id="edge3" class="edge">
<title>Node3&#45;&gt;Node4</title>
<path fill="none" stroke="midnightblue" d="M730.41,-110.89C652.78,-99.01 527.52,-79.85 471.8,-71.33"/>
<polygon fill="midnightblue" stroke="midnightblue" points="730.15,-114.39 740.57,-112.44 731.21,-107.47 730.15,-114.39"/>
</g>
<!-- Node10 -->
<g id="node10" class="node">
<title>Node10</title>
<g id="a_node10"><a xlink:href="_wocket_accelerometer_8cpp.html" target="_top" xlink:title=" ">
<polygon fill="white" stroke="black" points="658,-0.5 658,-19.5 801,-19.5 801,-0.5 658,-0.5"/>
<text text-anchor="middle" x="729.5" y="-7.5" font-family="Helvetica,sans-Serif" font-size="10.00">WocketAccelerometer.cpp</text>
</a>
</g>
</g>
<!-- Node3&#45;&gt;Node10 -->
<g id="edge15" class="edge">
<title>Node3&#45;&gt;Node10</title>
<path fill="none" stroke="midnightblue" d="M785.93,-103.64C771.37,-79.74 745.72,-37.63 734.73,-19.59"/>
<polygon fill="midnightblue" stroke="midnightblue" points="783.05,-105.65 791.24,-112.37 789.03,-102.01 783.05,-105.65"/>
</g>
<!-- Node11 -->
<g id="node11" class="node">
<title>Node11</title>
<g id="a_node11"><a xlink:href="_wocket_sensor_package_8h.html" target="_top" xlink:title=" ">
<polygon fill="white" stroke="black" points="824.5,-56.5 824.5,-75.5 958.5,-75.5 958.5,-56.5 824.5,-56.5"/>
<text text-anchor="middle" x="891.5" y="-63.5" font-family="Helvetica,sans-Serif" font-size="10.00">WocketSensorPackage.h</text>
</a>
</g>
</g>
<!-- Node3&#45;&gt;Node11 -->
<g id="edge11" class="edge">
<title>Node3&#45;&gt;Node11</title>
<path fill="none" stroke="midnightblue" d="M820.82,-107.18C838.3,-97.24 861.33,-84.15 876.27,-75.65"/>
<polygon fill="midnightblue" stroke="midnightblue" points="818.73,-104.34 811.76,-112.32 822.19,-110.43 818.73,-104.34"/>
</g>
<!-- Node12 -->
<g id="node12" class="node">
<title>Node12</title>
<g id="a_node12"><a xlink:href="_wocket_sensor_package_8cpp.html" target="_top" xlink:title=" ">
<polygon fill="white" stroke="black" points="819,-0.5 819,-19.5 964,-19.5 964,-0.5 819,-0.5"/>
<text text-anchor="middle" x="891.5" y="-7.5" font-family="Helvetica,sans-Serif" font-size="10.00">WocketSensorPackage.cpp</text>
</a>
</g>
</g>
<!-- Node3&#45;&gt;Node12 -->
<g id="edge14" class="edge">
<title>Node3&#45;&gt;Node12</title>
<path fill="none" stroke="midnightblue" d="M798.28,-102.13C800.43,-88.16 805.14,-69.34 815.5,-56 828.86,-38.8 850.78,-26.84 867.65,-19.59"/>
<polygon fill="midnightblue" stroke="midnightblue" points="794.81,-101.73 797.06,-112.08 801.75,-102.59 794.81,-101.73"/>
</g>
<!-- Node14 -->
<g id="node14" class="node">
<title>Node14</title>
<g id="a_node14"><a xlink:href="_wocket_a_d_x_l343_8h.html" target="_top" xlink:title=" ">
<polygon fill="white" stroke="black" points="979,-56.5 979,-75.5 1084,-75.5 1084,-56.5 979,-56.5"/>
<text text-anchor="middle" x="1031.5" y="-63.5" font-family="Helvetica,sans-Serif" font-size="10.00">WocketADXL343.h</text>
</a>
</g>
</g>
<!-- Node3&#45;&gt;Node14 -->
<g id="edge16" class="edge">
<title>Node3&#45;&gt;Node14</title>
<path fill="none" stroke="midnightblue" d="M843.71,-110.15C888.11,-99.95 953.69,-84.88 994.44,-75.52"/>
<polygon fill="midnightblue" stroke="midnightblue" points="842.7,-106.79 833.74,-112.44 844.27,-113.62 842.7,-106.79"/>
</g>
<!-- Node4&#45;&gt;Node2 -->
<g id="edge9" class="edge">
<title>Node4&#45;&gt;Node2</title>
<path fill="none" stroke="midnightblue" d="M404.96,-61.74C336.92,-55.67 191.19,-41.3 69.5,-20 66.76,-19.52 63.93,-18.97 61.09,-18.39"/>
<polygon fill="midnightblue" stroke="midnightblue" points="404.93,-65.25 415.2,-62.64 405.54,-58.27 404.93,-65.25"/>
</g>
<!-- Node5 -->
<g id="node5" class="node">
<title>Node5</title>
<g id="a_node5"><a xlink:href="_pre_launch_stage_8cpp.html" target="_top" xlink:title=" ">
<polygon fill="white" stroke="black" points="79,-0.5 79,-19.5 194,-19.5 194,-0.5 79,-0.5"/>
<text text-anchor="middle" x="136.5" y="-7.5" font-family="Helvetica,sans-Serif" font-size="10.00">PreLaunchStage.cpp</text>
</a>
</g>
</g>
<!-- Node4&#45;&gt;Node5 -->
<g id="edge4" class="edge">
<title>Node4&#45;&gt;Node5</title>
<path fill="none" stroke="midnightblue" d="M405.28,-58.28C349.5,-48.47 245.82,-30.23 184.83,-19.5"/>
<polygon fill="midnightblue" stroke="midnightblue" points="404.99,-61.78 415.44,-60.06 406.2,-54.89 404.99,-61.78"/>
</g>
<!-- Node6 -->
<g id="node6" class="node">
<title>Node6</title>
<g id="a_node6"><a xlink:href="_recovery_stage_8cpp.html" target="_top" xlink:title=" ">
<polygon fill="white" stroke="black" points="212.5,-0.5 212.5,-19.5 322.5,-19.5 322.5,-0.5 212.5,-0.5"/>
<text text-anchor="middle" x="267.5" y="-7.5" font-family="Helvetica,sans-Serif" font-size="10.00">RecoveryStage.cpp</text>
</a>
</g>
</g>
<!-- Node4&#45;&gt;Node6 -->
<g id="edge5" class="edge">
<title>Node4&#45;&gt;Node6</title>
<path fill="none" stroke="midnightblue" d="M405.81,-53.44C372.63,-43.26 325.07,-28.66 295.26,-19.52"/>
<polygon fill="midnightblue" stroke="midnightblue" points="405.03,-56.86 415.61,-56.44 407.08,-50.16 405.03,-56.86"/>
</g>
<!-- Node7 -->
<g id="node7" class="node">
<title>Node7</title>
<g id="a_node7"><a xlink:href="_beep_and_blink_8cpp.html" target="_top" xlink:title=" ">
<polygon fill="white" stroke="black" points="341,-0.5 341,-19.5 446,-19.5 446,-0.5 341,-0.5"/>
<text text-anchor="middle" x="393.5" y="-7.5" font-family="Helvetica,sans-Serif" font-size="10.00">BeepAndBlink.cpp</text>
</a>
</g>
</g>
<!-- Node4&#45;&gt;Node7 -->
<g id="edge6" class="edge">
<title>Node4&#45;&gt;Node7</title>
<path fill="none" stroke="midnightblue" d="M428.42,-48.72C419.61,-39.2 408.83,-27.56 401.6,-19.75"/>
<polygon fill="midnightblue" stroke="midnightblue" points="425.88,-51.12 435.24,-56.08 431.02,-46.37 425.88,-51.12"/>
</g>
<!-- Node8 -->
<g id="node8" class="node">
<title>Node8</title>
<g id="a_node8"><a xlink:href="_pins_8cpp.html" target="_top" xlink:title=" ">
<polygon fill="white" stroke="black" points="464,-0.5 464,-19.5 521,-19.5 521,-0.5 464,-0.5"/>
<text text-anchor="middle" x="492.5" y="-7.5" font-family="Helvetica,sans-Serif" font-size="10.00">Pins.cpp</text>
</a>
</g>
</g>
<!-- Node4&#45;&gt;Node8 -->
<g id="edge7" class="edge">
<title>Node4&#45;&gt;Node8</title>
<path fill="none" stroke="midnightblue" d="M458.53,-48.43C467.12,-38.97 477.54,-27.48 484.56,-19.75"/>
<polygon fill="midnightblue" stroke="midnightblue" points="455.72,-46.33 451.59,-56.08 460.9,-51.03 455.72,-46.33"/>
</g>
<!-- Node9 -->
<g id="node9" class="node">
<title>Node9</title>
<g id="a_node9"><a xlink:href="_rotary_switch_8cpp.html" target="_top" xlink:title=" ">
<polygon fill="white" stroke="black" points="539,-0.5 539,-19.5 640,-19.5 640,-0.5 539,-0.5"/>
<text text-anchor="middle" x="589.5" y="-7.5" font-family="Helvetica,sans-Serif" font-size="10.00">RotarySwitch.cpp</text>
</a>
</g>
</g>
<!-- Node4&#45;&gt;Node9 -->
<g id="edge8" class="edge">
<title>Node4&#45;&gt;Node9</title>
<path fill="none" stroke="midnightblue" d="M476.2,-52.91C503.65,-42.75 542.17,-28.51 566.47,-19.52"/>
<polygon fill="midnightblue" stroke="midnightblue" points="474.8,-49.69 466.63,-56.44 477.23,-56.26 474.8,-49.69"/>
</g>
<!-- Node4&#45;&gt;Node10 -->
<g id="edge10" class="edge">
<title>Node4&#45;&gt;Node10</title>
<path fill="none" stroke="midnightblue" d="M481.61,-57.8C534.05,-47.9 628.29,-30.11 684.24,-19.55"/>
<polygon fill="midnightblue" stroke="midnightblue" points="480.88,-54.38 471.71,-59.67 482.18,-61.26 480.88,-54.38"/>
</g>
<!-- Node11&#45;&gt;Node12 -->
<g id="edge12" class="edge">
<title>Node11&#45;&gt;Node12</title>
<path fill="none" stroke="midnightblue" d="M891.5,-45.8C891.5,-36.91 891.5,-26.78 891.5,-19.75"/>
<polygon fill="midnightblue" stroke="midnightblue" points="888,-46.08 891.5,-56.08 895,-46.08 888,-46.08"/>
</g>
<!-- Node13 -->
<g id="node13" class="node">
<title>Node13</title>
<g id="a_node13"><a xlink:href="_rockit_8h.html" target="_top" xlink:title=" ">
<polygon fill="white" stroke="black" points="982.5,-0.5 982.5,-19.5 1038.5,-19.5 1038.5,-0.5 982.5,-0.5"/>
<text text-anchor="middle" x="1010.5" y="-7.5" font-family="Helvetica,sans-Serif" font-size="10.00">Rockit.h</text>
</a>
</g>
</g>
<!-- Node11&#45;&gt;Node13 -->
<g id="edge13" class="edge">
<title>Node11&#45;&gt;Node13</title>
<path fill="none" stroke="midnightblue" d="M919.64,-52.23C941.9,-42.13 972.36,-28.31 991.73,-19.52"/>
<polygon fill="midnightblue" stroke="midnightblue" points="918.02,-49.12 910.36,-56.44 920.91,-55.5 918.02,-49.12"/>
</g>
<!-- Node14&#45;&gt;Node15 -->
<g id="edge17" class="edge">
<title>Node14&#45;&gt;Node15</title>
<path fill="none" stroke="midnightblue" d="M1053.6,-50.62C1068.76,-40.76 1088.38,-27.99 1101.2,-19.65"/>
<polygon fill="midnightblue" stroke="midnightblue" points="1051.31,-47.94 1044.84,-56.32 1055.13,-53.8 1051.31,-47.94"/>
</g>
</g>
</svg>
