<?xml version="1.0" encoding="UTF-8" standalone="no"?>
<!DOCTYPE svg PUBLIC "-//W3C//DTD SVG 1.1//EN"
 "http://www.w3.org/Graphics/SVG/1.1/DTD/svg11.dtd">
<!-- Generated by graphviz version 2.43.0 (0)
 -->
<!-- Title: WocketSensor.h Pages: 1 -->
<svg width="1181pt" height="196pt"
 viewBox="0.00 0.00 1180.50 196.00" xmlns="http://www.w3.org/2000/svg" xmlns:xlink="http://www.w3.org/1999/xlink">
<g id="graph0" class="graph" transform="scale(1 1) rotate(0) translate(4 192)">
<title>WocketSensor.h</title>
<polygon fill="white" stroke="transparent" points="-4,4 -4,-192 1176.5,-192 1176.5,4 -4,4"/>
<!-- Node1 -->
<g id="node1" class="node">
<title>Node1</title>
<g id="a_node1"><a xlink:title=" ">
<polygon fill="#bfbfbf" stroke="black" points="564,-168.5 564,-187.5 657,-187.5 657,-168.5 564,-168.5"/>
<text text-anchor="middle" x="610.5" y="-175.5" font-family="Helvetica,sans-Serif" font-size="10.00">WocketSensor.h</text>
</a>
</g>
</g>
<!-- Node2 -->
<g id="node2" class="node">
<title>Node2</title>
<g id="a_node2"><a xlink:href="_wocket_barometer_8h.html" target="_top" xlink:title=" ">
<polygon fill="white" stroke="black" points="402.5,-112.5 402.5,-131.5 514.5,-131.5 514.5,-112.5 402.5,-112.5"/>
<text text-anchor="middle" x="458.5" y="-119.5" font-family="Helvetica,sans-Serif" font-size="10.00">WocketBarometer.h</text>
</a>
</g>
</g>
<!-- Node1&#45;&gt;Node2 -->
<g id="edge1" class="edge">
<title>Node1&#45;&gt;Node2</title>
<path fill="none" stroke="midnightblue" d="M576.83,-165.04C548.23,-154.88 507.89,-140.55 482.47,-131.52"/>
<polygon fill="midnightblue" stroke="midnightblue" points="575.82,-168.39 586.42,-168.44 578.16,-161.8 575.82,-168.39"/>
</g>
<!-- Node13 -->
<g id="node13" class="node">
<title>Node13</title>
<g id="a_node13"><a xlink:href="_wocket_sensor_8cpp.html" target="_top" xlink:title=" ">
<polygon fill="white" stroke="black" points="558.5,-112.5 558.5,-131.5 662.5,-131.5 662.5,-112.5 558.5,-112.5"/>
<text text-anchor="middle" x="610.5" y="-119.5" font-family="Helvetica,sans-Serif" font-size="10.00">WocketSensor.cpp</text>
</a>
</g>
</g>
<!-- Node1&#45;&gt;Node13 -->
<g id="edge12" class="edge">
<title>Node1&#45;&gt;Node13</title>
<path fill="none" stroke="midnightblue" d="M610.5,-157.8C610.5,-148.91 610.5,-138.78 610.5,-131.75"/>
<polygon fill="midnightblue" stroke="midnightblue" points="607,-158.08 610.5,-168.08 614,-158.08 607,-158.08"/>
</g>
<!-- Node14 -->
<g id="node14" class="node">
<title>Node14</title>
<g id="a_node14"><a xlink:href="_wocket_accelerometer_8h.html" target="_top" xlink:title=" ">
<polygon fill="white" stroke="black" points="694,-112.5 694,-131.5 825,-131.5 825,-112.5 694,-112.5"/>
<text text-anchor="middle" x="759.5" y="-119.5" font-family="Helvetica,sans-Serif" font-size="10.00">WocketAccelerometer.h</text>
</a>
</g>
</g>
<!-- Node1&#45;&gt;Node14 -->
<g id="edge13" class="edge">
<title>Node1&#45;&gt;Node14</title>
<path fill="none" stroke="midnightblue" d="M643.87,-164.91C671.88,-154.75 711.2,-140.51 736,-131.52"/>
<polygon fill="midnightblue" stroke="midnightblue" points="642.32,-161.75 634.11,-168.44 644.7,-168.33 642.32,-161.75"/>
</g>
<!-- Node3 -->
<g id="node3" class="node">
<title>Node3</title>
<g id="a_node3"><a xlink:href="_config_8h.html" target="_top" xlink:title=" ">
<polygon fill="white" stroke="black" points="482.5,-56.5 482.5,-75.5 538.5,-75.5 538.5,-56.5 482.5,-56.5"/>
<text text-anchor="middle" x="510.5" y="-63.5" font-family="Helvetica,sans-Serif" font-size="10.00">Config.h</text>
</a>
</g>
</g>
<!-- Node2&#45;&gt;Node3 -->
<g id="edge2" class="edge">
<title>Node2&#45;&gt;Node3</title>
<path fill="none" stroke="midnightblue" d="M474.18,-104.72C483.34,-95.2 494.55,-83.56 502.07,-75.75"/>
<polygon fill="midnightblue" stroke="midnightblue" points="471.5,-102.45 467.09,-112.08 476.54,-107.31 471.5,-102.45"/>
</g>
<!-- Node11 -->
<g id="node11" class="node">
<title>Node11</title>
<g id="a_node11"><a xlink:href="_wocket_barometer_8cpp.html" target="_top" xlink:title=" ">
<polygon fill="white" stroke="black" points="223,-56.5 223,-75.5 346,-75.5 346,-56.5 223,-56.5"/>
<text text-anchor="middle" x="284.5" y="-63.5" font-family="Helvetica,sans-Serif" font-size="10.00">WocketBarometer.cpp</text>
</a>
</g>
</g>
<!-- Node2&#45;&gt;Node11 -->
<g id="edge10" class="edge">
<title>Node2&#45;&gt;Node11</title>
<path fill="none" stroke="midnightblue" d="M421.24,-109.44C388.43,-99.26 341.42,-84.66 311.94,-75.52"/>
<polygon fill="midnightblue" stroke="midnightblue" points="420.34,-112.82 430.93,-112.44 422.42,-106.14 420.34,-112.82"/>
</g>
<!-- Node12 -->
<g id="node12" class="node">
<title>Node12</title>
<g id="a_node12"><a xlink:href="_wocket_m_s5637_8h.html" target="_top" xlink:title=" ">
<polygon fill="white" stroke="black" points="364.5,-56.5 364.5,-75.5 464.5,-75.5 464.5,-56.5 364.5,-56.5"/>
<text text-anchor="middle" x="414.5" y="-63.5" font-family="Helvetica,sans-Serif" font-size="10.00">WocketMS5637.h</text>
</a>
</g>
</g>
<!-- Node2&#45;&gt;Node12 -->
<g id="edge11" class="edge">
<title>Node2&#45;&gt;Node12</title>
<path fill="none" stroke="midnightblue" d="M444.77,-104.14C437.1,-94.74 427.87,-83.4 421.63,-75.75"/>
<polygon fill="midnightblue" stroke="midnightblue" points="442.2,-106.54 451.23,-112.08 447.63,-102.12 442.2,-106.54"/>
</g>
<!-- Node4 -->
<g id="node4" class="node">
<title>Node4</title>
<g id="a_node4"><a xlink:href="_pre_launch_stage_8cpp.html" target="_top" xlink:title=" ">
<polygon fill="white" stroke="black" points="0,-0.5 0,-19.5 115,-19.5 115,-0.5 0,-0.5"/>
<text text-anchor="middle" x="57.5" y="-7.5" font-family="Helvetica,sans-Serif" font-size="10.00">PreLaunchStage.cpp</text>
</a>
</g>
</g>
<!-- Node3&#45;&gt;Node4 -->
<g id="edge3" class="edge">
<title>Node3&#45;&gt;Node4</title>
<path fill="none" stroke="midnightblue" d="M472,-55.96C318.04,-29.88 276.02,-37.99 124.5,-20 121.47,-19.64 118.36,-19.26 115.23,-18.87"/>
<polygon fill="midnightblue" stroke="midnightblue" points="471.85,-59.48 482.3,-57.72 473.04,-52.58 471.85,-59.48"/>
</g>
<!-- Node5 -->
<g id="node5" class="node">
<title>Node5</title>
<g id="a_node5"><a xlink:href="_recovery_stage_8cpp.html" target="_top" xlink:title=" ">
<polygon fill="white" stroke="black" points="133.5,-0.5 133.5,-19.5 243.5,-19.5 243.5,-0.5 133.5,-0.5"/>
<text text-anchor="middle" x="188.5" y="-7.5" font-family="Helvetica,sans-Serif" font-size="10.00">RecoveryStage.cpp</text>
</a>
</g>
</g>
<!-- Node3&#45;&gt;Node5 -->
<g id="edge4" class="edge">
<title>Node3&#45;&gt;Node5</title>
<path fill="none" stroke="midnightblue" d="M472.2,-55.9C416.67,-45.29 309.55,-28.99 243.73,-19.17"/>
<polygon fill="midnightblue" stroke="midnightblue" points="471.78,-59.39 482.27,-57.88 473.13,-52.52 471.78,-59.39"/>
</g>
<!-- Node6 -->
<g id="node6" class="node">
<title>Node6</title>
<g id="a_node6"><a xlink:href="_beep_and_blink_8cpp.html" target="_top" xlink:title=" ">
<polygon fill="white" stroke="black" points="262,-0.5 262,-19.5 367,-19.5 367,-0.5 262,-0.5"/>
<text text-anchor="middle" x="314.5" y="-7.5" font-family="Helvetica,sans-Serif" font-size="10.00">BeepAndBlink.cpp</text>
</a>
</g>
</g>
<!-- Node3&#45;&gt;Node6 -->
<g id="edge5" class="edge">
<title>Node3&#45;&gt;Node6</title>
<path fill="none" stroke="midnightblue" d="M472.5,-54.53C435.47,-44.33 379.85,-29.01 345.44,-19.52"/>
<polygon fill="midnightblue" stroke="midnightblue" points="471.85,-57.98 482.42,-57.26 473.71,-51.23 471.85,-57.98"/>
</g>
<!-- Node7 -->
<g id="node7" class="node">
<title>Node7</title>
<g id="a_node7"><a xlink:href="_pins_8cpp.html" target="_top" xlink:title=" ">
<polygon fill="white" stroke="black" points="385,-0.5 385,-19.5 442,-19.5 442,-0.5 385,-0.5"/>
<text text-anchor="middle" x="413.5" y="-7.5" font-family="Helvetica,sans-Serif" font-size="10.00">Pins.cpp</text>
</a>
</g>
</g>
<!-- Node3&#45;&gt;Node7 -->
<g id="edge6" class="edge">
<title>Node3&#45;&gt;Node7</title>
<path fill="none" stroke="midnightblue" d="M486.16,-51.45C468.26,-41.48 444.45,-28.23 429.05,-19.65"/>
<polygon fill="midnightblue" stroke="midnightblue" points="484.48,-54.52 494.92,-56.32 487.88,-48.4 484.48,-54.52"/>
</g>
<!-- Node8 -->
<g id="node8" class="node">
<title>Node8</title>
<g id="a_node8"><a xlink:href="_rotary_switch_8cpp.html" target="_top" xlink:title=" ">
<polygon fill="white" stroke="black" points="460,-0.5 460,-19.5 561,-19.5 561,-0.5 460,-0.5"/>
<text text-anchor="middle" x="510.5" y="-7.5" font-family="Helvetica,sans-Serif" font-size="10.00">RotarySwitch.cpp</text>
</a>
</g>
</g>
<!-- Node3&#45;&gt;Node8 -->
<g id="edge7" class="edge">
<title>Node3&#45;&gt;Node8</title>
<path fill="none" stroke="midnightblue" d="M510.5,-45.8C510.5,-36.91 510.5,-26.78 510.5,-19.75"/>
<polygon fill="midnightblue" stroke="midnightblue" points="507,-46.08 510.5,-56.08 514,-46.08 507,-46.08"/>
</g>
<!-- Node9 -->
<g id="node9" class="node">
<title>Node9</title>
<g id="a_node9"><a xlink:href="_main_8cpp.html" target="_top" xlink:title=" ">
<polygon fill="white" stroke="black" points="579,-0.5 579,-19.5 640,-19.5 640,-0.5 579,-0.5"/>
<text text-anchor="middle" x="609.5" y="-7.5" font-family="Helvetica,sans-Serif" font-size="10.00">Main.cpp</text>
</a>
</g>
</g>
<!-- Node3&#45;&gt;Node9 -->
<g id="edge8" class="edge">
<title>Node3&#45;&gt;Node9</title>
<path fill="none" stroke="midnightblue" d="M535.34,-51.45C553.61,-41.48 577.92,-28.23 593.63,-19.65"/>
<polygon fill="midnightblue" stroke="midnightblue" points="533.51,-48.46 526.41,-56.32 536.86,-54.61 533.51,-48.46"/>
</g>
<!-- Node10 -->
<g id="node10" class="node">
<title>Node10</title>
<g id="a_node10"><a xlink:href="_wocket_accelerometer_8cpp.html" target="_top" xlink:title=" ">
<polygon fill="white" stroke="black" points="658,-0.5 658,-19.5 801,-19.5 801,-0.5 658,-0.5"/>
<text text-anchor="middle" x="729.5" y="-7.5" font-family="Helvetica,sans-Serif" font-size="10.00">WocketAccelerometer.cpp</text>
</a>
</g>
</g>
<!-- Node3&#45;&gt;Node10 -->
<g id="edge9" class="edge">
<title>Node3&#45;&gt;Node10</title>
<path fill="none" stroke="midnightblue" d="M548.63,-55.6C589.89,-45.42 655.12,-29.34 694.94,-19.52"/>
<polygon fill="midnightblue" stroke="midnightblue" points="547.55,-52.26 538.68,-58.05 549.23,-59.06 547.55,-52.26"/>
</g>
<!-- Node14&#45;&gt;Node3 -->
<g id="edge14" class="edge">
<title>Node14&#45;&gt;Node3</title>
<path fill="none" stroke="midnightblue" d="M710.16,-110.3C658.8,-99.16 580.17,-82.11 538.57,-73.09"/>
<polygon fill="midnightblue" stroke="midnightblue" points="709.53,-113.74 720.05,-112.44 711.01,-106.9 709.53,-113.74"/>
</g>
<!-- Node14&#45;&gt;Node10 -->
<g id="edge19" class="edge">
<title>Node14&#45;&gt;Node10</title>
<path fill="none" stroke="midnightblue" d="M754.5,-102.67C747.94,-78.62 736.7,-37.39 731.84,-19.59"/>
<polygon fill="midnightblue" stroke="midnightblue" points="751.14,-103.64 757.15,-112.37 757.89,-101.8 751.14,-103.64"/>
</g>
<!-- Node15 -->
<g id="node15" class="node">
<title>Node15</title>
<g id="a_node15"><a xlink:href="_wocket_sensor_package_8h.html" target="_top" xlink:title=" ">
<polygon fill="white" stroke="black" points="824.5,-56.5 824.5,-75.5 958.5,-75.5 958.5,-56.5 824.5,-56.5"/>
<text text-anchor="middle" x="891.5" y="-63.5" font-family="Helvetica,sans-Serif" font-size="10.00">WocketSensorPackage.h</text>
</a>
</g>
</g>
<!-- Node14&#45;&gt;Node15 -->
<g id="edge15" class="edge">
<title>Node14&#45;&gt;Node15</title>
<path fill="none" stroke="midnightblue" d="M789.72,-108.64C814.49,-98.5 848.9,-84.43 870.68,-75.52"/>
<polygon fill="midnightblue" stroke="midnightblue" points="788.35,-105.42 780.42,-112.44 791,-111.9 788.35,-105.42"/>
</g>
<!-- Node16 -->
<g id="node16" class="node">
<title>Node16</title>
<g id="a_node16"><a xlink:href="_wocket_sensor_package_8cpp.html" target="_top" xlink:title=" ">
<polygon fill="white" stroke="black" points="819,-0.5 819,-19.5 964,-19.5 964,-0.5 819,-0.5"/>
<text text-anchor="middle" x="891.5" y="-7.5" font-family="Helvetica,sans-Serif" font-size="10.00">WocketSensorPackage.cpp</text>
</a>
</g>
</g>
<!-- Node14&#45;&gt;Node16 -->
<g id="edge18" class="edge">
<title>Node14&#45;&gt;Node16</title>
<path fill="none" stroke="midnightblue" d="M771.69,-103.98C782.24,-90.01 798.45,-70.28 815.5,-56 833.6,-40.84 857.43,-27.63 873.54,-19.52"/>
<polygon fill="midnightblue" stroke="midnightblue" points="768.74,-102.08 765.62,-112.21 774.37,-106.24 768.74,-102.08"/>
</g>
<!-- Node18 -->
<g id="node18" class="node">
<title>Node18</title>
<g id="a_node18"><a xlink:href="_wocket_a_d_x_l343_8h.html" target="_top" xlink:title=" ">
<polygon fill="white" stroke="black" points="1019,-56.5 1019,-75.5 1124,-75.5 1124,-56.5 1019,-56.5"/>
<text text-anchor="middle" x="1071.5" y="-63.5" font-family="Helvetica,sans-Serif" font-size="10.00">WocketADXL343.h</text>
</a>
</g>
</g>
<!-- Node14&#45;&gt;Node18 -->
<g id="edge20" class="edge">
<title>Node14&#45;&gt;Node18</title>
<path fill="none" stroke="midnightblue" d="M818.85,-110.73C877.81,-100.52 967.16,-85.06 1022.29,-75.52"/>
<polygon fill="midnightblue" stroke="midnightblue" points="818.19,-107.29 808.94,-112.44 819.39,-114.19 818.19,-107.29"/>
</g>
<!-- Node15&#45;&gt;Node16 -->
<g id="edge16" class="edge">
<title>Node15&#45;&gt;Node16</title>
<path fill="none" stroke="midnightblue" d="M891.5,-45.8C891.5,-36.91 891.5,-26.78 891.5,-19.75"/>
<polygon fill="midnightblue" stroke="midnightblue" points="888,-46.08 891.5,-56.08 895,-46.08 888,-46.08"/>
</g>
<!-- Node17 -->
<g id="node17" class="node">
<title>Node17</title>
<g id="a_node17"><a xlink:href="_rockit_8h.html" target="_top" xlink:title=" ">
<polygon fill="white" stroke="black" points="982.5,-0.5 982.5,-19.5 1038.5,-19.5 1038.5,-0.5 982.5,-0.5"/>
<text text-anchor="middle" x="1010.5" y="-7.5" font-family="Helvetica,sans-Serif" font-size="10.00">Rockit.h</text>
</a>
</g>
</g>
<!-- Node15&#45;&gt;Node17 -->
<g id="edge17" class="edge">
<title>Node15&#45;&gt;Node17</title>
<path fill="none" stroke="midnightblue" d="M919.64,-52.23C941.9,-42.13 972.36,-28.31 991.73,-19.52"/>
<polygon fill="midnightblue" stroke="midnightblue" points="918.02,-49.12 910.36,-56.44 920.91,-55.5 918.02,-49.12"/>
</g>
<!-- Node19 -->
<g id="node19" class="node">
<title>Node19</title>
<g id="a_node19"><a xlink:href="_wocket_a_d_x_l343_8cpp.html" target="_top" xlink:title=" ">
<polygon fill="white" stroke="black" points="1056.5,-0.5 1056.5,-19.5 1172.5,-19.5 1172.5,-0.5 1056.5,-0.5"/>
<text text-anchor="middle" x="1114.5" y="-7.5" font-family="Helvetica,sans-Serif" font-size="10.00">WocketADXL343.cpp</text>
</a>
</g>
</g>
<!-- Node18&#45;&gt;Node19 -->
<g id="edge21" class="edge">
<title>Node18&#45;&gt;Node19</title>
<path fill="none" stroke="midnightblue" d="M1084.92,-48.14C1092.41,-38.74 1101.44,-27.4 1107.53,-19.75"/>
<polygon fill="midnightblue" stroke="midnightblue" points="1082.09,-46.08 1078.6,-56.08 1087.57,-50.44 1082.09,-46.08"/>
</g>
</g>
</svg>
