<?xml version="1.0" encoding="UTF-8" standalone="no"?>
<!DOCTYPE svg PUBLIC "-//W3C//DTD SVG 1.1//EN"
 "http://www.w3.org/Graphics/SVG/1.1/DTD/svg11.dtd">
<!-- Generated by graphviz version 2.43.0 (0)
 -->
<!-- Title: WocketAccelerometerConfig.h Pages: 1 -->
<svg width="1181pt" height="196pt"
 viewBox="0.00 0.00 1180.50 196.00" xmlns="http://www.w3.org/2000/svg" xmlns:xlink="http://www.w3.org/1999/xlink">
<g id="graph0" class="graph" transform="scale(1 1) rotate(0) translate(4 192)">
<title>WocketAccelerometerConfig.h</title>
<polygon fill="white" stroke="transparent" points="-4,4 -4,-192 1176.5,-192 1176.5,4 -4,4"/>
<!-- Node1 -->
<g id="node1" class="node">
<title>Node1</title>
<g id="a_node1"><a xlink:title=" ">
<polygon fill="#bfbfbf" stroke="black" points="715,-168.5 715,-187.5 878,-187.5 878,-168.5 715,-168.5"/>
<text text-anchor="middle" x="796.5" y="-175.5" font-family="Helvetica,sans-Serif" font-size="10.00">WocketAccelerometerConfig.h</text>
</a>
</g>
</g>
<!-- Node2 -->
<g id="node2" class="node">
<title>Node2</title>
<g id="a_node2"><a xlink:href="_config_8h.html" target="_top" xlink:title=" ">
<polygon fill="white" stroke="black" points="482.5,-56.5 482.5,-75.5 538.5,-75.5 538.5,-56.5 482.5,-56.5"/>
<text text-anchor="middle" x="510.5" y="-63.5" font-family="Helvetica,sans-Serif" font-size="10.00">Config.h</text>
</a>
</g>
</g>
<!-- Node1&#45;&gt;Node2 -->
<g id="edge1" class="edge">
<title>Node1&#45;&gt;Node2</title>
<path fill="none" stroke="midnightblue" d="M764.59,-164.73C706.14,-142.25 583.28,-94.99 532.84,-75.59"/>
<polygon fill="midnightblue" stroke="midnightblue" points="763.47,-168.05 774.06,-168.37 765.98,-161.51 763.47,-168.05"/>
</g>
<!-- Node10 -->
<g id="node10" class="node">
<title>Node10</title>
<g id="a_node10"><a xlink:href="_wocket_accelerometer_8h.html" target="_top" xlink:title=" ">
<polygon fill="white" stroke="black" points="731,-112.5 731,-131.5 862,-131.5 862,-112.5 731,-112.5"/>
<text text-anchor="middle" x="796.5" y="-119.5" font-family="Helvetica,sans-Serif" font-size="10.00">WocketAccelerometer.h</text>
</a>
</g>
</g>
<!-- Node1&#45;&gt;Node10 -->
<g id="edge9" class="edge">
<title>Node1&#45;&gt;Node10</title>
<path fill="none" stroke="midnightblue" d="M796.5,-157.8C796.5,-148.91 796.5,-138.78 796.5,-131.75"/>
<polygon fill="midnightblue" stroke="midnightblue" points="793,-158.08 796.5,-168.08 800,-158.08 793,-158.08"/>
</g>
<!-- Node14 -->
<g id="node14" class="node">
<title>Node14</title>
<g id="a_node14"><a xlink:href="_wocket_a_d_x_l343_8h.html" target="_top" xlink:title=" ">
<polygon fill="white" stroke="black" points="977,-56.5 977,-75.5 1082,-75.5 1082,-56.5 977,-56.5"/>
<text text-anchor="middle" x="1029.5" y="-63.5" font-family="Helvetica,sans-Serif" font-size="10.00">WocketADXL343.h</text>
</a>
</g>
</g>
<!-- Node1&#45;&gt;Node14 -->
<g id="edge18" class="edge">
<title>Node1&#45;&gt;Node14</title>
<path fill="none" stroke="midnightblue" d="M823.99,-164.02C872.18,-141.27 970.63,-94.79 1011.3,-75.59"/>
<polygon fill="midnightblue" stroke="midnightblue" points="822.33,-160.93 814.78,-168.37 825.32,-167.26 822.33,-160.93"/>
</g>
<!-- Node3 -->
<g id="node3" class="node">
<title>Node3</title>
<g id="a_node3"><a xlink:href="_pre_launch_stage_8cpp.html" target="_top" xlink:title=" ">
<polygon fill="white" stroke="black" points="0,-0.5 0,-19.5 115,-19.5 115,-0.5 0,-0.5"/>
<text text-anchor="middle" x="57.5" y="-7.5" font-family="Helvetica,sans-Serif" font-size="10.00">PreLaunchStage.cpp</text>
</a>
</g>
</g>
<!-- Node2&#45;&gt;Node3 -->
<g id="edge2" class="edge">
<title>Node2&#45;&gt;Node3</title>
<path fill="none" stroke="midnightblue" d="M472.38,-60.78C403.08,-53.06 251.85,-35.98 124.5,-20 121.47,-19.62 118.37,-19.22 115.24,-18.82"/>
<polygon fill="midnightblue" stroke="midnightblue" points="472.06,-64.27 482.39,-61.89 472.84,-57.31 472.06,-64.27"/>
</g>
<!-- Node4 -->
<g id="node4" class="node">
<title>Node4</title>
<g id="a_node4"><a xlink:href="_recovery_stage_8cpp.html" target="_top" xlink:title=" ">
<polygon fill="white" stroke="black" points="133.5,-0.5 133.5,-19.5 243.5,-19.5 243.5,-0.5 133.5,-0.5"/>
<text text-anchor="middle" x="188.5" y="-7.5" font-family="Helvetica,sans-Serif" font-size="10.00">RecoveryStage.cpp</text>
</a>
</g>
</g>
<!-- Node2&#45;&gt;Node4 -->
<g id="edge3" class="edge">
<title>Node2&#45;&gt;Node4</title>
<path fill="none" stroke="midnightblue" d="M472.3,-58.59C414.35,-48.88 304.15,-30.4 239.44,-19.54"/>
<polygon fill="midnightblue" stroke="midnightblue" points="472.05,-62.1 482.49,-60.3 473.2,-55.2 472.05,-62.1"/>
</g>
<!-- Node5 -->
<g id="node5" class="node">
<title>Node5</title>
<g id="a_node5"><a xlink:href="_beep_and_blink_8cpp.html" target="_top" xlink:title=" ">
<polygon fill="white" stroke="black" points="262,-0.5 262,-19.5 367,-19.5 367,-0.5 262,-0.5"/>
<text text-anchor="middle" x="314.5" y="-7.5" font-family="Helvetica,sans-Serif" font-size="10.00">BeepAndBlink.cpp</text>
</a>
</g>
</g>
<!-- Node2&#45;&gt;Node5 -->
<g id="edge4" class="edge">
<title>Node2&#45;&gt;Node5</title>
<path fill="none" stroke="midnightblue" d="M472.5,-54.53C435.47,-44.33 379.85,-29.01 345.44,-19.52"/>
<polygon fill="midnightblue" stroke="midnightblue" points="471.85,-57.98 482.42,-57.26 473.71,-51.23 471.85,-57.98"/>
</g>
<!-- Node6 -->
<g id="node6" class="node">
<title>Node6</title>
<g id="a_node6"><a xlink:href="_pins_8cpp.html" target="_top" xlink:title=" ">
<polygon fill="white" stroke="black" points="385,-0.5 385,-19.5 442,-19.5 442,-0.5 385,-0.5"/>
<text text-anchor="middle" x="413.5" y="-7.5" font-family="Helvetica,sans-Serif" font-size="10.00">Pins.cpp</text>
</a>
</g>
</g>
<!-- Node2&#45;&gt;Node6 -->
<g id="edge5" class="edge">
<title>Node2&#45;&gt;Node6</title>
<path fill="none" stroke="midnightblue" d="M486.16,-51.45C468.26,-41.48 444.45,-28.23 429.05,-19.65"/>
<polygon fill="midnightblue" stroke="midnightblue" points="484.48,-54.52 494.92,-56.32 487.88,-48.4 484.48,-54.52"/>
</g>
<!-- Node7 -->
<g id="node7" class="node">
<title>Node7</title>
<g id="a_node7"><a xlink:href="_rotary_switch_8cpp.html" target="_top" xlink:title=" ">
<polygon fill="white" stroke="black" points="460,-0.5 460,-19.5 561,-19.5 561,-0.5 460,-0.5"/>
<text text-anchor="middle" x="510.5" y="-7.5" font-family="Helvetica,sans-Serif" font-size="10.00">RotarySwitch.cpp</text>
</a>
</g>
</g>
<!-- Node2&#45;&gt;Node7 -->
<g id="edge6" class="edge">
<title>Node2&#45;&gt;Node7</title>
<path fill="none" stroke="midnightblue" d="M510.5,-45.8C510.5,-36.91 510.5,-26.78 510.5,-19.75"/>
<polygon fill="midnightblue" stroke="midnightblue" points="507,-46.08 510.5,-56.08 514,-46.08 507,-46.08"/>
</g>
<!-- Node8 -->
<g id="node8" class="node">
<title>Node8</title>
<g id="a_node8"><a xlink:href="_main_8cpp.html" target="_top" xlink:title=" ">
<polygon fill="white" stroke="black" points="579,-0.5 579,-19.5 640,-19.5 640,-0.5 579,-0.5"/>
<text text-anchor="middle" x="609.5" y="-7.5" font-family="Helvetica,sans-Serif" font-size="10.00">Main.cpp</text>
</a>
</g>
</g>
<!-- Node2&#45;&gt;Node8 -->
<g id="edge7" class="edge">
<title>Node2&#45;&gt;Node8</title>
<path fill="none" stroke="midnightblue" d="M535.34,-51.45C553.61,-41.48 577.92,-28.23 593.63,-19.65"/>
<polygon fill="midnightblue" stroke="midnightblue" points="533.51,-48.46 526.41,-56.32 536.86,-54.61 533.51,-48.46"/>
</g>
<!-- Node9 -->
<g id="node9" class="node">
<title>Node9</title>
<g id="a_node9"><a xlink:href="_wocket_accelerometer_8cpp.html" target="_top" xlink:title=" ">
<polygon fill="white" stroke="black" points="658,-0.5 658,-19.5 801,-19.5 801,-0.5 658,-0.5"/>
<text text-anchor="middle" x="729.5" y="-7.5" font-family="Helvetica,sans-Serif" font-size="10.00">WocketAccelerometer.cpp</text>
</a>
</g>
</g>
<!-- Node2&#45;&gt;Node9 -->
<g id="edge8" class="edge">
<title>Node2&#45;&gt;Node9</title>
<path fill="none" stroke="midnightblue" d="M548.63,-55.6C589.89,-45.42 655.12,-29.34 694.94,-19.52"/>
<polygon fill="midnightblue" stroke="midnightblue" points="547.55,-52.26 538.68,-58.05 549.23,-59.06 547.55,-52.26"/>
</g>
<!-- Node10&#45;&gt;Node2 -->
<g id="edge10" class="edge">
<title>Node10&#45;&gt;Node2</title>
<path fill="none" stroke="midnightblue" d="M741.01,-110.52C680.36,-99.07 585.58,-81.18 538.7,-72.32"/>
<polygon fill="midnightblue" stroke="midnightblue" points="740.71,-114.03 751.18,-112.44 742.01,-107.15 740.71,-114.03"/>
</g>
<!-- Node10&#45;&gt;Node9 -->
<g id="edge15" class="edge">
<title>Node10&#45;&gt;Node9</title>
<path fill="none" stroke="midnightblue" d="M785.93,-103.64C771.37,-79.74 745.72,-37.63 734.73,-19.59"/>
<polygon fill="midnightblue" stroke="midnightblue" points="783.05,-105.65 791.24,-112.37 789.03,-102.01 783.05,-105.65"/>
</g>
<!-- Node11 -->
<g id="node11" class="node">
<title>Node11</title>
<g id="a_node11"><a xlink:href="_wocket_sensor_package_8h.html" target="_top" xlink:title=" ">
<polygon fill="white" stroke="black" points="824.5,-56.5 824.5,-75.5 958.5,-75.5 958.5,-56.5 824.5,-56.5"/>
<text text-anchor="middle" x="891.5" y="-63.5" font-family="Helvetica,sans-Serif" font-size="10.00">WocketSensorPackage.h</text>
</a>
</g>
</g>
<!-- Node10&#45;&gt;Node11 -->
<g id="edge11" class="edge">
<title>Node10&#45;&gt;Node11</title>
<path fill="none" stroke="midnightblue" d="M820.82,-107.18C838.3,-97.24 861.33,-84.15 876.27,-75.65"/>
<polygon fill="midnightblue" stroke="midnightblue" points="818.73,-104.34 811.76,-112.32 822.19,-110.43 818.73,-104.34"/>
</g>
<!-- Node12 -->
<g id="node12" class="node">
<title>Node12</title>
<g id="a_node12"><a xlink:href="_wocket_sensor_package_8cpp.html" target="_top" xlink:title=" ">
<polygon fill="white" stroke="black" points="819,-0.5 819,-19.5 964,-19.5 964,-0.5 819,-0.5"/>
<text text-anchor="middle" x="891.5" y="-7.5" font-family="Helvetica,sans-Serif" font-size="10.00">WocketSensorPackage.cpp</text>
</a>
</g>
</g>
<!-- Node10&#45;&gt;Node12 -->
<g id="edge14" class="edge">
<title>Node10&#45;&gt;Node12</title>
<path fill="none" stroke="midnightblue" d="M798.28,-102.13C800.43,-88.16 805.14,-69.34 815.5,-56 828.86,-38.8 850.78,-26.84 867.65,-19.59"/>
<polygon fill="midnightblue" stroke="midnightblue" points="794.81,-101.73 797.06,-112.08 801.75,-102.59 794.81,-101.73"/>
</g>
<!-- Node10&#45;&gt;Node14 -->
<g id="edge16" class="edge">
<title>Node10&#45;&gt;Node14</title>
<path fill="none" stroke="midnightblue" d="M843.3,-110.15C887.33,-99.95 952.35,-84.88 992.75,-75.52"/>
<polygon fill="midnightblue" stroke="midnightblue" points="842.37,-106.78 833.42,-112.44 843.95,-113.6 842.37,-106.78"/>
</g>
<!-- Node11&#45;&gt;Node12 -->
<g id="edge12" class="edge">
<title>Node11&#45;&gt;Node12</title>
<path fill="none" stroke="midnightblue" d="M891.5,-45.8C891.5,-36.91 891.5,-26.78 891.5,-19.75"/>
<polygon fill="midnightblue" stroke="midnightblue" points="888,-46.08 891.5,-56.08 895,-46.08 888,-46.08"/>
</g>
<!-- Node13 -->
<g id="node13" class="node">
<title>Node13</title>
<g id="a_node13"><a xlink:href="_rockit_8h.html" target="_top" xlink:title=" ">
<polygon fill="white" stroke="black" points="982.5,-0.5 982.5,-19.5 1038.5,-19.5 1038.5,-0.5 982.5,-0.5"/>
<text text-anchor="middle" x="1010.5" y="-7.5" font-family="Helvetica,sans-Serif" font-size="10.00">Rockit.h</text>
</a>
</g>
</g>
<!-- Node11&#45;&gt;Node13 -->
<g id="edge13" class="edge">
<title>Node11&#45;&gt;Node13</title>
<path fill="none" stroke="midnightblue" d="M919.64,-52.23C941.9,-42.13 972.36,-28.31 991.73,-19.52"/>
<polygon fill="midnightblue" stroke="midnightblue" points="918.02,-49.12 910.36,-56.44 920.91,-55.5 918.02,-49.12"/>
</g>
<!-- Node15 -->
<g id="node15" class="node">
<title>Node15</title>
<g id="a_node15"><a xlink:href="_wocket_a_d_x_l343_8cpp.html" target="_top" xlink:title=" ">
<polygon fill="white" stroke="black" points="1056.5,-0.5 1056.5,-19.5 1172.5,-19.5 1172.5,-0.5 1056.5,-0.5"/>
<text text-anchor="middle" x="1114.5" y="-7.5" font-family="Helvetica,sans-Serif" font-size="10.00">WocketADXL343.cpp</text>
</a>
</g>
</g>
<!-- Node14&#45;&gt;Node15 -->
<g id="edge17" class="edge">
<title>Node14&#45;&gt;Node15</title>
<path fill="none" stroke="midnightblue" d="M1051.69,-50.9C1067.28,-41 1087.63,-28.07 1100.88,-19.65"/>
<polygon fill="midnightblue" stroke="midnightblue" points="1049.72,-48.01 1043.16,-56.32 1053.47,-53.92 1049.72,-48.01"/>
</g>
</g>
</svg>
