<?xml version="1.0" encoding="UTF-8" standalone="no"?>
<!DOCTYPE svg PUBLIC "-//W3C//DTD SVG 1.1//EN"
 "http://www.w3.org/Graphics/SVG/1.1/DTD/svg11.dtd">
<!-- Generated by graphviz version 2.43.0 (0)
 -->
<!-- Title: WocketADXL343.cpp Pages: 1 -->
<svg width="556pt" height="252pt"
 viewBox="0.00 0.00 555.81 252.00" xmlns="http://www.w3.org/2000/svg" xmlns:xlink="http://www.w3.org/1999/xlink">
<g id="graph0" class="graph" transform="scale(1 1) rotate(0) translate(4 248)">
<title>WocketADXL343.cpp</title>
<polygon fill="white" stroke="transparent" points="-4,4 -4,-248 551.81,-248 551.81,4 -4,4"/>
<!-- Node1 -->
<g id="node1" class="node">
<title>Node1</title>
<g id="a_node1"><a xlink:title=" ">
<polygon fill="#bfbfbf" stroke="black" points="287.31,-224.5 287.31,-243.5 403.31,-243.5 403.31,-224.5 287.31,-224.5"/>
<text text-anchor="middle" x="345.31" y="-231.5" font-family="Helvetica,sans-Serif" font-size="10.00">WocketADXL343.cpp</text>
</a>
</g>
</g>
<!-- Node2 -->
<g id="node2" class="node">
<title>Node2</title>
<g id="a_node2"><a xlink:title=" ">
<polygon fill="white" stroke="#bfbfbf" points="15.31,-0.5 15.31,-19.5 63.31,-19.5 63.31,-0.5 15.31,-0.5"/>
<text text-anchor="middle" x="39.31" y="-7.5" font-family="Helvetica,sans-Serif" font-size="10.00">Wire.h</text>
</a>
</g>
</g>
<!-- Node1&#45;&gt;Node2 -->
<g id="edge1" class="edge">
<title>Node1&#45;&gt;Node2</title>
<path fill="none" stroke="midnightblue" d="M287.19,-226.55C205.82,-213.94 61.4,-177.68 3.31,-76 -6.21,-59.33 7.5,-40.08 20.65,-26.88"/>
<polygon fill="midnightblue" stroke="midnightblue" points="23.23,-29.26 28.15,-19.87 18.45,-24.14 23.23,-29.26"/>
</g>
<!-- Node3 -->
<g id="node3" class="node">
<title>Node3</title>
<g id="a_node3"><a xlink:title=" ">
<polygon fill="white" stroke="#bfbfbf" points="272.31,-112.5 272.31,-131.5 374.31,-131.5 374.31,-112.5 272.31,-112.5"/>
<text text-anchor="middle" x="323.31" y="-119.5" font-family="Helvetica,sans-Serif" font-size="10.00">Adafruit_Sensor.h</text>
</a>
</g>
</g>
<!-- Node1&#45;&gt;Node3 -->
<g id="edge2" class="edge">
<title>Node1&#45;&gt;Node3</title>
<path fill="none" stroke="midnightblue" d="M343.58,-224.37C340.03,-206.62 331.84,-165.67 327.03,-141.6"/>
<polygon fill="midnightblue" stroke="midnightblue" points="330.42,-140.71 325.03,-131.59 323.56,-142.08 330.42,-140.71"/>
</g>
<!-- Node4 -->
<g id="node4" class="node">
<title>Node4</title>
<g id="a_node4"><a xlink:title=" ">
<polygon fill="white" stroke="#bfbfbf" points="392.31,-112.5 392.31,-131.5 506.31,-131.5 506.31,-112.5 392.31,-112.5"/>
<text text-anchor="middle" x="449.31" y="-119.5" font-family="Helvetica,sans-Serif" font-size="10.00">Adafruit_ADXL343.h</text>
</a>
</g>
</g>
<!-- Node1&#45;&gt;Node4 -->
<g id="edge3" class="edge">
<title>Node1&#45;&gt;Node4</title>
<path fill="none" stroke="midnightblue" d="M353.47,-224.37C370.86,-205.97 411.8,-162.67 434.13,-139.05"/>
<polygon fill="midnightblue" stroke="midnightblue" points="436.86,-141.26 441.19,-131.59 431.77,-136.45 436.86,-141.26"/>
</g>
<!-- Node5 -->
<g id="node5" class="node">
<title>Node5</title>
<g id="a_node5"><a xlink:href="_wocket_a_d_x_l343_8h.html" target="_top" xlink:title=" ">
<polygon fill="white" stroke="black" points="211.81,-168.5 211.81,-187.5 316.81,-187.5 316.81,-168.5 211.81,-168.5"/>
<text text-anchor="middle" x="264.31" y="-175.5" font-family="Helvetica,sans-Serif" font-size="10.00">WocketADXL343.h</text>
</a>
</g>
</g>
<!-- Node1&#45;&gt;Node5 -->
<g id="edge4" class="edge">
<title>Node1&#45;&gt;Node5</title>
<path fill="none" stroke="midnightblue" d="M332.3,-224.32C319.78,-215.98 300.63,-203.21 285.84,-193.35"/>
<polygon fill="midnightblue" stroke="midnightblue" points="287.55,-190.29 277.29,-187.65 283.67,-196.11 287.55,-190.29"/>
</g>
<!-- Node11 -->
<g id="node11" class="node">
<title>Node11</title>
<g id="a_node11"><a xlink:href="_wocket_acceleration_data_8h.html" target="_top" xlink:title=" ">
<polygon fill="white" stroke="black" points="402.81,-56.5 402.81,-75.5 547.81,-75.5 547.81,-56.5 402.81,-56.5"/>
<text text-anchor="middle" x="475.31" y="-63.5" font-family="Helvetica,sans-Serif" font-size="10.00">WocketAccelerationData.h</text>
</a>
</g>
</g>
<!-- Node1&#45;&gt;Node11 -->
<g id="edge16" class="edge">
<title>Node1&#45;&gt;Node11</title>
<path fill="none" stroke="midnightblue" d="M377.72,-224.42C418.24,-211.76 485.85,-183.77 515.31,-132 525.21,-114.61 509.5,-95.11 494.96,-82.05"/>
<polygon fill="midnightblue" stroke="midnightblue" points="497.08,-79.26 487.17,-75.51 492.58,-84.62 497.08,-79.26"/>
</g>
<!-- Node5&#45;&gt;Node3 -->
<g id="edge5" class="edge">
<title>Node5&#45;&gt;Node3</title>
<path fill="none" stroke="midnightblue" d="M273.79,-168.32C282.51,-160.34 295.65,-148.31 306.21,-138.65"/>
<polygon fill="midnightblue" stroke="midnightblue" points="308.64,-141.17 313.66,-131.83 303.92,-136 308.64,-141.17"/>
</g>
<!-- Node5&#45;&gt;Node4 -->
<g id="edge6" class="edge">
<title>Node5&#45;&gt;Node4</title>
<path fill="none" stroke="midnightblue" d="M293.62,-168.44C325.15,-159.24 375.44,-144.56 410.29,-134.39"/>
<polygon fill="midnightblue" stroke="midnightblue" points="411.51,-137.68 420.13,-131.52 409.55,-130.96 411.51,-137.68"/>
</g>
<!-- Node6 -->
<g id="node6" class="node">
<title>Node6</title>
<g id="a_node6"><a xlink:href="_wocket_accelerometer_8h.html" target="_top" xlink:title=" ">
<polygon fill="white" stroke="black" points="122.81,-112.5 122.81,-131.5 253.81,-131.5 253.81,-112.5 122.81,-112.5"/>
<text text-anchor="middle" x="188.31" y="-119.5" font-family="Helvetica,sans-Serif" font-size="10.00">WocketAccelerometer.h</text>
</a>
</g>
</g>
<!-- Node5&#45;&gt;Node6 -->
<g id="edge7" class="edge">
<title>Node5&#45;&gt;Node6</title>
<path fill="none" stroke="midnightblue" d="M252.1,-168.32C240.53,-160.11 222.93,-147.6 209.15,-137.81"/>
<polygon fill="midnightblue" stroke="midnightblue" points="210.92,-134.77 200.74,-131.83 206.87,-140.48 210.92,-134.77"/>
</g>
<!-- Node10 -->
<g id="node10" class="node">
<title>Node10</title>
<g id="a_node10"><a xlink:href="_wocket_accelerometer_config_8h.html" target="_top" xlink:title=" ">
<polygon fill="white" stroke="black" points="12.81,-56.5 12.81,-75.5 175.81,-75.5 175.81,-56.5 12.81,-56.5"/>
<text text-anchor="middle" x="94.31" y="-63.5" font-family="Helvetica,sans-Serif" font-size="10.00">WocketAccelerometerConfig.h</text>
</a>
</g>
</g>
<!-- Node5&#45;&gt;Node10 -->
<g id="edge15" class="edge">
<title>Node5&#45;&gt;Node10</title>
<path fill="none" stroke="midnightblue" d="M211.73,-173.79C179.32,-169.1 139.16,-157.99 113.31,-132 101.27,-119.9 96.78,-100.62 95.14,-86.19"/>
<polygon fill="midnightblue" stroke="midnightblue" points="98.61,-85.6 94.35,-75.89 91.63,-86.13 98.61,-85.6"/>
</g>
<!-- Node7 -->
<g id="node7" class="node">
<title>Node7</title>
<g id="a_node7"><a xlink:title=" ">
<polygon fill="white" stroke="#bfbfbf" points="283.31,-0.5 283.31,-19.5 339.31,-19.5 339.31,-0.5 283.31,-0.5"/>
<text text-anchor="middle" x="311.31" y="-7.5" font-family="Helvetica,sans-Serif" font-size="10.00">optional</text>
</a>
</g>
</g>
<!-- Node6&#45;&gt;Node7 -->
<g id="edge8" class="edge">
<title>Node6&#45;&gt;Node7</title>
<path fill="none" stroke="midnightblue" d="M231.9,-112.44C253.88,-105.97 279.21,-94.85 295.31,-76 306.27,-63.17 309.94,-43.99 311.07,-29.78"/>
<polygon fill="midnightblue" stroke="midnightblue" points="314.57,-29.82 311.52,-19.67 307.58,-29.51 314.57,-29.82"/>
</g>
<!-- Node8 -->
<g id="node8" class="node">
<title>Node8</title>
<g id="a_node8"><a xlink:href="_wocket_sensor_8h.html" target="_top" xlink:title=" ">
<polygon fill="white" stroke="black" points="193.81,-56.5 193.81,-75.5 286.81,-75.5 286.81,-56.5 193.81,-56.5"/>
<text text-anchor="middle" x="240.31" y="-63.5" font-family="Helvetica,sans-Serif" font-size="10.00">WocketSensor.h</text>
</a>
</g>
</g>
<!-- Node6&#45;&gt;Node8 -->
<g id="edge9" class="edge">
<title>Node6&#45;&gt;Node8</title>
<path fill="none" stroke="midnightblue" d="M196.9,-112.08C204.47,-104.22 215.69,-92.57 224.82,-83.08"/>
<polygon fill="midnightblue" stroke="midnightblue" points="227.47,-85.38 231.88,-75.75 222.42,-80.53 227.47,-85.38"/>
</g>
<!-- Node6&#45;&gt;Node10 -->
<g id="edge12" class="edge">
<title>Node6&#45;&gt;Node10</title>
<path fill="none" stroke="midnightblue" d="M173.21,-112.32C158.41,-103.82 135.61,-90.73 118.33,-80.8"/>
<polygon fill="midnightblue" stroke="midnightblue" points="119.79,-77.6 109.37,-75.65 116.3,-83.67 119.79,-77.6"/>
</g>
<!-- Node6&#45;&gt;Node11 -->
<g id="edge14" class="edge">
<title>Node6&#45;&gt;Node11</title>
<path fill="none" stroke="midnightblue" d="M233.79,-112.44C284.27,-102.94 365.77,-87.61 419.93,-77.42"/>
<polygon fill="midnightblue" stroke="midnightblue" points="420.87,-80.81 430.05,-75.52 419.57,-73.93 420.87,-80.81"/>
</g>
<!-- Node8&#45;&gt;Node7 -->
<g id="edge10" class="edge">
<title>Node8&#45;&gt;Node7</title>
<path fill="none" stroke="midnightblue" d="M251.72,-56.32C262.42,-48.18 278.65,-35.84 291.47,-26.09"/>
<polygon fill="midnightblue" stroke="midnightblue" points="293.85,-28.67 299.69,-19.83 289.62,-23.1 293.85,-28.67"/>
</g>
<!-- Node9 -->
<g id="node9" class="node">
<title>Node9</title>
<g id="a_node9"><a xlink:title=" ">
<polygon fill="white" stroke="#bfbfbf" points="218.31,-0.5 218.31,-19.5 262.31,-19.5 262.31,-0.5 218.31,-0.5"/>
<text text-anchor="middle" x="240.31" y="-7.5" font-family="Helvetica,sans-Serif" font-size="10.00">bitset</text>
</a>
</g>
</g>
<!-- Node8&#45;&gt;Node9 -->
<g id="edge11" class="edge">
<title>Node8&#45;&gt;Node9</title>
<path fill="none" stroke="midnightblue" d="M240.31,-56.08C240.31,-49.01 240.31,-38.86 240.31,-29.99"/>
<polygon fill="midnightblue" stroke="midnightblue" points="243.81,-29.75 240.31,-19.75 236.81,-29.75 243.81,-29.75"/>
</g>
<!-- Node10&#45;&gt;Node2 -->
<g id="edge13" class="edge">
<title>Node10&#45;&gt;Node2</title>
<path fill="none" stroke="midnightblue" d="M85.23,-56.08C77.14,-48.14 65.11,-36.34 55.4,-26.8"/>
<polygon fill="midnightblue" stroke="midnightblue" points="57.81,-24.26 48.22,-19.75 52.91,-29.25 57.81,-24.26"/>
</g>
</g>
</svg>
