<?xml version="1.0" encoding="UTF-8" standalone="no"?>
<!DOCTYPE svg PUBLIC "-//W3C//DTD SVG 1.1//EN"
 "http://www.w3.org/Graphics/SVG/1.1/DTD/svg11.dtd">
<!-- Generated by graphviz version 2.43.0 (0)
 -->
<!-- Title: WocketAccelerometer.cpp Pages: 1 -->
<svg width="657pt" height="252pt"
 viewBox="0.00 0.00 656.74 252.00" xmlns="http://www.w3.org/2000/svg" xmlns:xlink="http://www.w3.org/1999/xlink">
<g id="graph0" class="graph" transform="scale(1 1) rotate(0) translate(4 248)">
<title>WocketAccelerometer.cpp</title>
<polygon fill="white" stroke="transparent" points="-4,4 -4,-248 652.74,-248 652.74,4 -4,4"/>
<!-- Node1 -->
<g id="node1" class="node">
<title>Node1</title>
<g id="a_node1"><a xlink:title=" ">
<polygon fill="#bfbfbf" stroke="black" points="169.74,-224.5 169.74,-243.5 312.74,-243.5 312.74,-224.5 169.74,-224.5"/>
<text text-anchor="middle" x="241.24" y="-231.5" font-family="Helvetica,sans-Serif" font-size="10.00">WocketAccelerometer.cpp</text>
</a>
</g>
</g>
<!-- Node2 -->
<g id="node2" class="node">
<title>Node2</title>
<g id="a_node2"><a xlink:href="_config_8h.html" target="_top" xlink:title=" ">
<polygon fill="white" stroke="black" points="185.24,-168.5 185.24,-187.5 241.24,-187.5 241.24,-168.5 185.24,-168.5"/>
<text text-anchor="middle" x="213.24" y="-175.5" font-family="Helvetica,sans-Serif" font-size="10.00">Config.h</text>
</a>
</g>
</g>
<!-- Node1&#45;&gt;Node2 -->
<g id="edge1" class="edge">
<title>Node1&#45;&gt;Node2</title>
<path fill="none" stroke="midnightblue" d="M236.61,-224.08C232.78,-216.69 227.21,-205.95 222.47,-196.81"/>
<polygon fill="midnightblue" stroke="midnightblue" points="225.48,-195.02 217.77,-187.75 219.27,-198.24 225.48,-195.02"/>
</g>
<!-- Node5 -->
<g id="node5" class="node">
<title>Node5</title>
<g id="a_node5"><a xlink:href="_wocket_accelerometer_8h.html" target="_top" xlink:title=" ">
<polygon fill="white" stroke="black" points="371.74,-112.5 371.74,-131.5 502.74,-131.5 502.74,-112.5 371.74,-112.5"/>
<text text-anchor="middle" x="437.24" y="-119.5" font-family="Helvetica,sans-Serif" font-size="10.00">WocketAccelerometer.h</text>
</a>
</g>
</g>
<!-- Node1&#45;&gt;Node5 -->
<g id="edge17" class="edge">
<title>Node1&#45;&gt;Node5</title>
<path fill="none" stroke="midnightblue" d="M256.62,-224.37C290.61,-205.29 372.34,-159.42 413.17,-136.51"/>
<polygon fill="midnightblue" stroke="midnightblue" points="414.92,-139.54 421.93,-131.59 411.49,-133.43 414.92,-139.54"/>
</g>
<!-- Node3 -->
<g id="node3" class="node">
<title>Node3</title>
<g id="a_node3"><a xlink:title=" ">
<polygon fill="white" stroke="#bfbfbf" points="97.24,-112.5 97.24,-131.5 147.24,-131.5 147.24,-112.5 97.24,-112.5"/>
<text text-anchor="middle" x="122.24" y="-119.5" font-family="Helvetica,sans-Serif" font-size="10.00">cstdint</text>
</a>
</g>
</g>
<!-- Node2&#45;&gt;Node3 -->
<g id="edge2" class="edge">
<title>Node2&#45;&gt;Node3</title>
<path fill="none" stroke="midnightblue" d="M198.62,-168.32C184.29,-159.82 162.22,-146.73 145.49,-136.8"/>
<polygon fill="midnightblue" stroke="midnightblue" points="147.21,-133.75 136.82,-131.65 143.63,-139.77 147.21,-133.75"/>
</g>
<!-- Node4 -->
<g id="node4" class="node">
<title>Node4</title>
<g id="a_node4"><a xlink:title=" ">
<polygon fill="white" stroke="#bfbfbf" points="59.24,-0.5 59.24,-19.5 107.24,-19.5 107.24,-0.5 59.24,-0.5"/>
<text text-anchor="middle" x="83.24" y="-7.5" font-family="Helvetica,sans-Serif" font-size="10.00">Wire.h</text>
</a>
</g>
</g>
<!-- Node2&#45;&gt;Node4 -->
<g id="edge3" class="edge">
<title>Node2&#45;&gt;Node4</title>
<path fill="none" stroke="midnightblue" d="M185.06,-173.7C136.68,-166.29 39.5,-143.32 3.24,-76 -9.9,-51.62 22.08,-32.96 49.43,-22.02"/>
<polygon fill="midnightblue" stroke="midnightblue" points="50.71,-25.28 58.83,-18.47 48.24,-18.73 50.71,-25.28"/>
</g>
<!-- Node2&#45;&gt;Node5 -->
<g id="edge4" class="edge">
<title>Node2&#45;&gt;Node5</title>
<path fill="none" stroke="midnightblue" d="M241.61,-170.16C279.48,-161.03 346.98,-144.76 391.93,-133.92"/>
<polygon fill="midnightblue" stroke="midnightblue" points="392.82,-137.31 401.72,-131.56 391.18,-130.5 392.82,-137.31"/>
</g>
<!-- Node9 -->
<g id="node9" class="node">
<title>Node9</title>
<g id="a_node9"><a xlink:href="_wocket_accelerometer_config_8h.html" target="_top" xlink:title=" ">
<polygon fill="white" stroke="black" points="172.74,-56.5 172.74,-75.5 335.74,-75.5 335.74,-56.5 172.74,-56.5"/>
<text text-anchor="middle" x="254.24" y="-63.5" font-family="Helvetica,sans-Serif" font-size="10.00">WocketAccelerometerConfig.h</text>
</a>
</g>
</g>
<!-- Node2&#45;&gt;Node9 -->
<g id="edge12" class="edge">
<title>Node2&#45;&gt;Node9</title>
<path fill="none" stroke="midnightblue" d="M215.25,-168.43C218.3,-155.85 224.59,-131.73 232.24,-112 235.81,-102.78 240.55,-92.86 244.72,-84.7"/>
<polygon fill="midnightblue" stroke="midnightblue" points="247.86,-86.25 249.4,-75.76 241.66,-83 247.86,-86.25"/>
</g>
<!-- Node11 -->
<g id="node11" class="node">
<title>Node11</title>
<g id="a_node11"><a xlink:href="_wocket_barometer_8h.html" target="_top" xlink:title=" ">
<polygon fill="white" stroke="black" points="241.24,-112.5 241.24,-131.5 353.24,-131.5 353.24,-112.5 241.24,-112.5"/>
<text text-anchor="middle" x="297.24" y="-119.5" font-family="Helvetica,sans-Serif" font-size="10.00">WocketBarometer.h</text>
</a>
</g>
</g>
<!-- Node2&#45;&gt;Node11 -->
<g id="edge13" class="edge">
<title>Node2&#45;&gt;Node11</title>
<path fill="none" stroke="midnightblue" d="M226.73,-168.32C239.84,-159.9 259.95,-146.97 275.34,-137.07"/>
<polygon fill="midnightblue" stroke="midnightblue" points="277.26,-140.01 283.77,-131.65 273.47,-134.12 277.26,-140.01"/>
</g>
<!-- Node12 -->
<g id="node12" class="node">
<title>Node12</title>
<g id="a_node12"><a xlink:href="_wocket_barometer_config_8h.html" target="_top" xlink:title=" ">
<polygon fill="white" stroke="black" points="11.74,-56.5 11.74,-75.5 154.74,-75.5 154.74,-56.5 11.74,-56.5"/>
<text text-anchor="middle" x="83.24" y="-63.5" font-family="Helvetica,sans-Serif" font-size="10.00">WocketBarometerConfig.h</text>
</a>
</g>
</g>
<!-- Node2&#45;&gt;Node12 -->
<g id="edge15" class="edge">
<title>Node2&#45;&gt;Node12</title>
<path fill="none" stroke="midnightblue" d="M206.93,-168.27C197.11,-155.05 177.1,-129.63 156.24,-112 141.78,-99.78 123.67,-88.6 109.11,-80.44"/>
<polygon fill="midnightblue" stroke="midnightblue" points="110.58,-77.25 100.13,-75.53 107.23,-83.4 110.58,-77.25"/>
</g>
<!-- Node6 -->
<g id="node6" class="node">
<title>Node6</title>
<g id="a_node6"><a xlink:title=" ">
<polygon fill="white" stroke="#bfbfbf" points="443.24,-0.5 443.24,-19.5 499.24,-19.5 499.24,-0.5 443.24,-0.5"/>
<text text-anchor="middle" x="471.24" y="-7.5" font-family="Helvetica,sans-Serif" font-size="10.00">optional</text>
</a>
</g>
</g>
<!-- Node5&#45;&gt;Node6 -->
<g id="edge5" class="edge">
<title>Node5&#45;&gt;Node6</title>
<path fill="none" stroke="midnightblue" d="M441.49,-112.21C445.68,-103.26 452.06,-88.91 456.24,-76 461.2,-60.66 465.2,-42.78 467.82,-29.66"/>
<polygon fill="midnightblue" stroke="midnightblue" points="471.32,-30.02 469.75,-19.54 464.44,-28.71 471.32,-30.02"/>
</g>
<!-- Node7 -->
<g id="node7" class="node">
<title>Node7</title>
<g id="a_node7"><a xlink:href="_wocket_sensor_8h.html" target="_top" xlink:title=" ">
<polygon fill="white" stroke="black" points="353.74,-56.5 353.74,-75.5 446.74,-75.5 446.74,-56.5 353.74,-56.5"/>
<text text-anchor="middle" x="400.24" y="-63.5" font-family="Helvetica,sans-Serif" font-size="10.00">WocketSensor.h</text>
</a>
</g>
</g>
<!-- Node5&#45;&gt;Node7 -->
<g id="edge6" class="edge">
<title>Node5&#45;&gt;Node7</title>
<path fill="none" stroke="midnightblue" d="M431.13,-112.08C425.95,-104.53 418.39,-93.49 412.04,-84.23"/>
<polygon fill="midnightblue" stroke="midnightblue" points="414.77,-82.02 406.23,-75.75 409,-85.98 414.77,-82.02"/>
</g>
<!-- Node5&#45;&gt;Node9 -->
<g id="edge9" class="edge">
<title>Node5&#45;&gt;Node9</title>
<path fill="none" stroke="midnightblue" d="M408.24,-112.44C377.05,-103.24 327.31,-88.56 292.83,-78.39"/>
<polygon fill="midnightblue" stroke="midnightblue" points="293.68,-74.99 283.1,-75.52 291.7,-81.7 293.68,-74.99"/>
</g>
<!-- Node10 -->
<g id="node10" class="node">
<title>Node10</title>
<g id="a_node10"><a xlink:href="_wocket_acceleration_data_8h.html" target="_top" xlink:title=" ">
<polygon fill="white" stroke="black" points="503.74,-56.5 503.74,-75.5 648.74,-75.5 648.74,-56.5 503.74,-56.5"/>
<text text-anchor="middle" x="576.24" y="-63.5" font-family="Helvetica,sans-Serif" font-size="10.00">WocketAccelerationData.h</text>
</a>
</g>
</g>
<!-- Node5&#45;&gt;Node10 -->
<g id="edge11" class="edge">
<title>Node5&#45;&gt;Node10</title>
<path fill="none" stroke="midnightblue" d="M459.26,-112.44C482.34,-103.48 518.8,-89.31 544.88,-79.18"/>
<polygon fill="midnightblue" stroke="midnightblue" points="546.26,-82.4 554.31,-75.52 543.73,-75.88 546.26,-82.4"/>
</g>
<!-- Node7&#45;&gt;Node6 -->
<g id="edge7" class="edge">
<title>Node7&#45;&gt;Node6</title>
<path fill="none" stroke="midnightblue" d="M411.64,-56.32C422.35,-48.18 438.58,-35.84 451.4,-26.09"/>
<polygon fill="midnightblue" stroke="midnightblue" points="453.78,-28.67 459.62,-19.83 449.54,-23.1 453.78,-28.67"/>
</g>
<!-- Node8 -->
<g id="node8" class="node">
<title>Node8</title>
<g id="a_node8"><a xlink:title=" ">
<polygon fill="white" stroke="#bfbfbf" points="378.24,-0.5 378.24,-19.5 422.24,-19.5 422.24,-0.5 378.24,-0.5"/>
<text text-anchor="middle" x="400.24" y="-7.5" font-family="Helvetica,sans-Serif" font-size="10.00">bitset</text>
</a>
</g>
</g>
<!-- Node7&#45;&gt;Node8 -->
<g id="edge8" class="edge">
<title>Node7&#45;&gt;Node8</title>
<path fill="none" stroke="midnightblue" d="M400.24,-56.08C400.24,-49.01 400.24,-38.86 400.24,-29.99"/>
<polygon fill="midnightblue" stroke="midnightblue" points="403.74,-29.75 400.24,-19.75 396.74,-29.75 403.74,-29.75"/>
</g>
<!-- Node9&#45;&gt;Node4 -->
<g id="edge10" class="edge">
<title>Node9&#45;&gt;Node4</title>
<path fill="none" stroke="midnightblue" d="M227.14,-56.44C197.4,-47.05 149.6,-31.96 117.33,-21.77"/>
<polygon fill="midnightblue" stroke="midnightblue" points="118.03,-18.32 107.44,-18.64 115.92,-24.99 118.03,-18.32"/>
</g>
<!-- Node11&#45;&gt;Node7 -->
<g id="edge14" class="edge">
<title>Node11&#45;&gt;Node7</title>
<path fill="none" stroke="midnightblue" d="M313.79,-112.32C330.23,-103.7 355.67,-90.36 374.71,-80.39"/>
<polygon fill="midnightblue" stroke="midnightblue" points="376.5,-83.4 383.73,-75.65 373.25,-77.2 376.5,-83.4"/>
</g>
<!-- Node12&#45;&gt;Node4 -->
<g id="edge16" class="edge">
<title>Node12&#45;&gt;Node4</title>
<path fill="none" stroke="midnightblue" d="M83.24,-56.08C83.24,-49.01 83.24,-38.86 83.24,-29.99"/>
<polygon fill="midnightblue" stroke="midnightblue" points="86.74,-29.75 83.24,-19.75 79.74,-29.75 86.74,-29.75"/>
</g>
</g>
</svg>
