<?xml version="1.0" encoding="UTF-8" standalone="no"?>
<!DOCTYPE svg PUBLIC "-//W3C//DTD SVG 1.1//EN"
 "http://www.w3.org/Graphics/SVG/1.1/DTD/svg11.dtd">
<!-- Generated by graphviz version 2.43.0 (0)
 -->
<!-- Title: WocketMS5637.h Pages: 1 -->
<svg width="352pt" height="95pt"
 viewBox="0.00 0.00 352.00 95.00" xmlns="http://www.w3.org/2000/svg" xmlns:xlink="http://www.w3.org/1999/xlink">
<g id="graph0" class="graph" transform="scale(1 1) rotate(0) translate(4 91)">
<title>WocketMS5637.h</title>
<polygon fill="white" stroke="transparent" points="-4,4 -4,-91 348,-91 348,4 -4,4"/>
<!-- Node1 -->
<g id="node1" class="node">
<title>Node1</title>
<g id="a_node1"><a xlink:title=" ">
<polygon fill="#bfbfbf" stroke="black" points="90,-67.5 90,-86.5 190,-86.5 190,-67.5 90,-67.5"/>
<text text-anchor="middle" x="140" y="-74.5" font-family="Helvetica,sans-Serif" font-size="10.00">WocketMS5637.h</text>
</a>
</g>
</g>
<!-- Node2 -->
<g id="node2" class="node">
<title>Node2</title>
<g id="a_node2"><a xlink:title=" ">
<polygon fill="white" stroke="#bfbfbf" points="0,-6 0,-25 48,-25 48,-6 0,-6"/>
<text text-anchor="middle" x="24" y="-13" font-family="Helvetica,sans-Serif" font-size="10.00">Wire.h</text>
</a>
</g>
</g>
<!-- Node1&#45;&gt;Node2 -->
<g id="edge1" class="edge">
<title>Node1&#45;&gt;Node2</title>
<path fill="none" stroke="midnightblue" d="M123.38,-67.48C104.08,-57.58 72.04,-41.14 49.57,-29.62"/>
<polygon fill="midnightblue" stroke="midnightblue" points="51.08,-26.46 40.59,-25.01 47.89,-32.69 51.08,-26.46"/>
</g>
<!-- Node3 -->
<g id="node3" class="node">
<title>Node3</title>
<g id="a_node3"><a xlink:title=" ">
<polygon fill="white" stroke="#bfbfbf" points="65.5,-0.5 65.5,-30.5 214.5,-30.5 214.5,-0.5 65.5,-0.5"/>
<text text-anchor="start" x="73.5" y="-18.5" font-family="Helvetica,sans-Serif" font-size="10.00">SparkFun_MS5637_Arduino</text>
<text text-anchor="middle" x="140" y="-7.5" font-family="Helvetica,sans-Serif" font-size="10.00">_Library.h</text>
</a>
</g>
</g>
<!-- Node1&#45;&gt;Node3 -->
<g id="edge2" class="edge">
<title>Node1&#45;&gt;Node3</title>
<path fill="none" stroke="midnightblue" d="M140,-67.48C140,-60.47 140,-50.19 140,-40.7"/>
<polygon fill="midnightblue" stroke="midnightblue" points="143.5,-40.52 140,-30.52 136.5,-40.52 143.5,-40.52"/>
</g>
<!-- Node4 -->
<g id="node4" class="node">
<title>Node4</title>
<g id="a_node4"><a xlink:title=" ">
<polygon fill="white" stroke="#bfbfbf" points="232,-6 232,-25 344,-25 344,-6 232,-6"/>
<text text-anchor="middle" x="288" y="-13" font-family="Helvetica,sans-Serif" font-size="10.00">WocketBarometer.h</text>
</a>
</g>
</g>
<!-- Node1&#45;&gt;Node4 -->
<g id="edge3" class="edge">
<title>Node1&#45;&gt;Node4</title>
<path fill="none" stroke="midnightblue" d="M161.2,-67.48C186.37,-57.36 228.54,-40.4 257.28,-28.85"/>
<polygon fill="midnightblue" stroke="midnightblue" points="258.86,-31.99 266.83,-25.01 256.25,-25.49 258.86,-31.99"/>
</g>
</g>
</svg>
