<?xml version="1.0" encoding="UTF-8" standalone="no"?>
<!DOCTYPE svg PUBLIC "-//W3C//DTD SVG 1.1//EN"
 "http://www.w3.org/Graphics/SVG/1.1/DTD/svg11.dtd">
<!-- Generated by graphviz version 2.43.0 (0)
 -->
<!-- Title: WocketSensorPackage.cpp Pages: 1 -->
<svg width="195pt" height="140pt"
 viewBox="0.00 0.00 194.50 140.00" xmlns="http://www.w3.org/2000/svg" xmlns:xlink="http://www.w3.org/1999/xlink">
<g id="graph0" class="graph" transform="scale(1 1) rotate(0) translate(4 136)">
<title>WocketSensorPackage.cpp</title>
<polygon fill="white" stroke="transparent" points="-4,4 -4,-136 190.5,-136 190.5,4 -4,4"/>
<!-- Node1 -->
<g id="node1" class="node">
<title>Node1</title>
<g id="a_node1"><a xlink:title=" ">
<polygon fill="#bfbfbf" stroke="black" points="41.5,-112.5 41.5,-131.5 186.5,-131.5 186.5,-112.5 41.5,-112.5"/>
<text text-anchor="middle" x="114" y="-119.5" font-family="Helvetica,sans-Serif" font-size="10.00">WocketSensorPackage.cpp</text>
</a>
</g>
</g>
<!-- Node2 -->
<g id="node2" class="node">
<title>Node2</title>
<g id="a_node2"><a xlink:href="_wocket_sensor_package_8h.html" target="_top" xlink:title=" ">
<polygon fill="white" stroke="black" points="0,-56.5 0,-75.5 134,-75.5 134,-56.5 0,-56.5"/>
<text text-anchor="middle" x="67" y="-63.5" font-family="Helvetica,sans-Serif" font-size="10.00">WocketSensorPackage.h</text>
</a>
</g>
</g>
<!-- Node1&#45;&gt;Node2 -->
<g id="edge1" class="edge">
<title>Node1&#45;&gt;Node2</title>
<path fill="none" stroke="midnightblue" d="M106.24,-112.08C99.46,-104.3 89.46,-92.8 81.24,-83.37"/>
<polygon fill="midnightblue" stroke="midnightblue" points="83.82,-81 74.62,-75.75 78.54,-85.59 83.82,-81"/>
</g>
<!-- Node3 -->
<g id="node3" class="node">
<title>Node3</title>
<g id="a_node3"><a xlink:title=" ">
<polygon fill="white" stroke="#bfbfbf" points="48.5,-0.5 48.5,-19.5 179.5,-19.5 179.5,-0.5 48.5,-0.5"/>
<text text-anchor="middle" x="114" y="-7.5" font-family="Helvetica,sans-Serif" font-size="10.00">WocketAccelerometer.h</text>
</a>
</g>
</g>
<!-- Node1&#45;&gt;Node3 -->
<g id="edge3" class="edge">
<title>Node1&#45;&gt;Node3</title>
<path fill="none" stroke="midnightblue" d="M122.17,-112.45C132.76,-100.28 149.21,-77.1 143,-56 139.99,-45.76 133.85,-35.66 127.99,-27.63"/>
<polygon fill="midnightblue" stroke="midnightblue" points="130.59,-25.27 121.67,-19.54 125.07,-29.58 130.59,-25.27"/>
</g>
<!-- Node2&#45;&gt;Node3 -->
<g id="edge2" class="edge">
<title>Node2&#45;&gt;Node3</title>
<path fill="none" stroke="midnightblue" d="M74.76,-56.08C81.54,-48.3 91.54,-36.8 99.76,-27.37"/>
<polygon fill="midnightblue" stroke="midnightblue" points="102.46,-29.59 106.38,-19.75 97.18,-25 102.46,-29.59"/>
</g>
</g>
</svg>
