<?xml version="1.0" encoding="UTF-8" standalone="no"?>
<!DOCTYPE svg PUBLIC "-//W3C//DTD SVG 1.1//EN"
 "http://www.w3.org/Graphics/SVG/1.1/DTD/svg11.dtd">
<!-- Generated by graphviz version 2.43.0 (0)
 -->
<!-- Title: WocketADXL343.h Pages: 1 -->
<svg width="580pt" height="196pt"
 viewBox="0.00 0.00 579.50 196.00" xmlns="http://www.w3.org/2000/svg" xmlns:xlink="http://www.w3.org/1999/xlink">
<g id="graph0" class="graph" transform="scale(1 1) rotate(0) translate(4 192)">
<title>WocketADXL343.h</title>
<polygon fill="white" stroke="transparent" points="-4,4 -4,-192 575.5,-192 575.5,4 -4,4"/>
<!-- Node1 -->
<g id="node1" class="node">
<title>Node1</title>
<g id="a_node1"><a xlink:title=" ">
<polygon fill="#bfbfbf" stroke="black" points="194.5,-168.5 194.5,-187.5 299.5,-187.5 299.5,-168.5 194.5,-168.5"/>
<text text-anchor="middle" x="247" y="-175.5" font-family="Helvetica,sans-Serif" font-size="10.00">WocketADXL343.h</text>
</a>
</g>
</g>
<!-- Node2 -->
<g id="node2" class="node">
<title>Node2</title>
<g id="a_node2"><a xlink:title=" ">
<polygon fill="white" stroke="#bfbfbf" points="0,-112.5 0,-131.5 102,-131.5 102,-112.5 0,-112.5"/>
<text text-anchor="middle" x="51" y="-119.5" font-family="Helvetica,sans-Serif" font-size="10.00">Adafruit_Sensor.h</text>
</a>
</g>
</g>
<!-- Node1&#45;&gt;Node2 -->
<g id="edge1" class="edge">
<title>Node1&#45;&gt;Node2</title>
<path fill="none" stroke="midnightblue" d="M215.94,-168.44C182.4,-159.2 128.8,-144.44 91.86,-134.26"/>
<polygon fill="midnightblue" stroke="midnightblue" points="92.48,-130.8 81.91,-131.52 90.62,-137.55 92.48,-130.8"/>
</g>
<!-- Node3 -->
<g id="node3" class="node">
<title>Node3</title>
<g id="a_node3"><a xlink:title=" ">
<polygon fill="white" stroke="#bfbfbf" points="120,-112.5 120,-131.5 234,-131.5 234,-112.5 120,-112.5"/>
<text text-anchor="middle" x="177" y="-119.5" font-family="Helvetica,sans-Serif" font-size="10.00">Adafruit_ADXL343.h</text>
</a>
</g>
</g>
<!-- Node1&#45;&gt;Node3 -->
<g id="edge2" class="edge">
<title>Node1&#45;&gt;Node3</title>
<path fill="none" stroke="midnightblue" d="M235.75,-168.32C225.2,-160.18 209.2,-147.84 196.56,-138.09"/>
<polygon fill="midnightblue" stroke="midnightblue" points="198.51,-135.17 188.45,-131.83 194.23,-140.71 198.51,-135.17"/>
</g>
<!-- Node4 -->
<g id="node4" class="node">
<title>Node4</title>
<g id="a_node4"><a xlink:href="_wocket_accelerometer_8h.html" target="_top" xlink:title=" ">
<polygon fill="white" stroke="black" points="252.5,-112.5 252.5,-131.5 383.5,-131.5 383.5,-112.5 252.5,-112.5"/>
<text text-anchor="middle" x="318" y="-119.5" font-family="Helvetica,sans-Serif" font-size="10.00">WocketAccelerometer.h</text>
</a>
</g>
</g>
<!-- Node1&#45;&gt;Node4 -->
<g id="edge3" class="edge">
<title>Node1&#45;&gt;Node4</title>
<path fill="none" stroke="midnightblue" d="M258.41,-168.32C269.11,-160.18 285.34,-147.84 298.16,-138.09"/>
<polygon fill="midnightblue" stroke="midnightblue" points="300.54,-140.67 306.39,-131.83 296.31,-135.1 300.54,-140.67"/>
</g>
<!-- Node8 -->
<g id="node8" class="node">
<title>Node8</title>
<g id="a_node8"><a xlink:href="_wocket_accelerometer_config_8h.html" target="_top" xlink:title=" ">
<polygon fill="white" stroke="black" points="408.5,-56.5 408.5,-75.5 571.5,-75.5 571.5,-56.5 408.5,-56.5"/>
<text text-anchor="middle" x="490" y="-63.5" font-family="Helvetica,sans-Serif" font-size="10.00">WocketAccelerometerConfig.h</text>
</a>
</g>
</g>
<!-- Node1&#45;&gt;Node8 -->
<g id="edge11" class="edge">
<title>Node1&#45;&gt;Node8</title>
<path fill="none" stroke="midnightblue" d="M285.34,-168.44C315.47,-160.95 358.04,-148.66 393,-132 422.23,-118.07 452.74,-96.23 471.56,-81.76"/>
<polygon fill="midnightblue" stroke="midnightblue" points="473.84,-84.42 479.57,-75.5 469.53,-78.9 473.84,-84.42"/>
</g>
<!-- Node5 -->
<g id="node5" class="node">
<title>Node5</title>
<g id="a_node5"><a xlink:title=" ">
<polygon fill="white" stroke="#bfbfbf" points="82,-0.5 82,-19.5 138,-19.5 138,-0.5 82,-0.5"/>
<text text-anchor="middle" x="110" y="-7.5" font-family="Helvetica,sans-Serif" font-size="10.00">optional</text>
</a>
</g>
</g>
<!-- Node4&#45;&gt;Node5 -->
<g id="edge4" class="edge">
<title>Node4&#45;&gt;Node5</title>
<path fill="none" stroke="midnightblue" d="M252.05,-113.14C203.43,-106 142.8,-93.84 125,-76 112.99,-63.97 109.82,-44.37 109.31,-29.83"/>
<polygon fill="midnightblue" stroke="midnightblue" points="112.81,-29.51 109.34,-19.5 105.81,-29.49 112.81,-29.51"/>
</g>
<!-- Node6 -->
<g id="node6" class="node">
<title>Node6</title>
<g id="a_node6"><a xlink:href="_wocket_sensor_8h.html" target="_top" xlink:title=" ">
<polygon fill="white" stroke="black" points="134.5,-56.5 134.5,-75.5 227.5,-75.5 227.5,-56.5 134.5,-56.5"/>
<text text-anchor="middle" x="181" y="-63.5" font-family="Helvetica,sans-Serif" font-size="10.00">WocketSensor.h</text>
</a>
</g>
</g>
<!-- Node4&#45;&gt;Node6 -->
<g id="edge5" class="edge">
<title>Node4&#45;&gt;Node6</title>
<path fill="none" stroke="midnightblue" d="M296.29,-112.44C273.65,-103.52 237.93,-89.44 212.25,-79.32"/>
<polygon fill="midnightblue" stroke="midnightblue" points="213.19,-75.93 202.61,-75.52 210.63,-82.44 213.19,-75.93"/>
</g>
<!-- Node4&#45;&gt;Node8 -->
<g id="edge8" class="edge">
<title>Node4&#45;&gt;Node8</title>
<path fill="none" stroke="midnightblue" d="M345.25,-112.44C374.44,-103.28 420.92,-88.69 453.31,-78.52"/>
<polygon fill="midnightblue" stroke="midnightblue" points="454.38,-81.85 462.87,-75.52 452.28,-75.17 454.38,-81.85"/>
</g>
<!-- Node10 -->
<g id="node10" class="node">
<title>Node10</title>
<g id="a_node10"><a xlink:href="_wocket_acceleration_data_8h.html" target="_top" xlink:title=" ">
<polygon fill="white" stroke="black" points="245.5,-56.5 245.5,-75.5 390.5,-75.5 390.5,-56.5 245.5,-56.5"/>
<text text-anchor="middle" x="318" y="-63.5" font-family="Helvetica,sans-Serif" font-size="10.00">WocketAccelerationData.h</text>
</a>
</g>
</g>
<!-- Node4&#45;&gt;Node10 -->
<g id="edge10" class="edge">
<title>Node4&#45;&gt;Node10</title>
<path fill="none" stroke="midnightblue" d="M318,-112.08C318,-105.01 318,-94.86 318,-85.99"/>
<polygon fill="midnightblue" stroke="midnightblue" points="321.5,-85.75 318,-75.75 314.5,-85.75 321.5,-85.75"/>
</g>
<!-- Node6&#45;&gt;Node5 -->
<g id="edge6" class="edge">
<title>Node6&#45;&gt;Node5</title>
<path fill="none" stroke="midnightblue" d="M169.59,-56.32C158.89,-48.18 142.66,-35.84 129.84,-26.09"/>
<polygon fill="midnightblue" stroke="midnightblue" points="131.69,-23.1 121.61,-19.83 127.46,-28.67 131.69,-23.1"/>
</g>
<!-- Node7 -->
<g id="node7" class="node">
<title>Node7</title>
<g id="a_node7"><a xlink:title=" ">
<polygon fill="white" stroke="#bfbfbf" points="159,-0.5 159,-19.5 203,-19.5 203,-0.5 159,-0.5"/>
<text text-anchor="middle" x="181" y="-7.5" font-family="Helvetica,sans-Serif" font-size="10.00">bitset</text>
</a>
</g>
</g>
<!-- Node6&#45;&gt;Node7 -->
<g id="edge7" class="edge">
<title>Node6&#45;&gt;Node7</title>
<path fill="none" stroke="midnightblue" d="M181,-56.08C181,-49.01 181,-38.86 181,-29.99"/>
<polygon fill="midnightblue" stroke="midnightblue" points="184.5,-29.75 181,-19.75 177.5,-29.75 184.5,-29.75"/>
</g>
<!-- Node9 -->
<g id="node9" class="node">
<title>Node9</title>
<g id="a_node9"><a xlink:title=" ">
<polygon fill="white" stroke="#bfbfbf" points="466,-0.5 466,-19.5 514,-19.5 514,-0.5 466,-0.5"/>
<text text-anchor="middle" x="490" y="-7.5" font-family="Helvetica,sans-Serif" font-size="10.00">Wire.h</text>
</a>
</g>
</g>
<!-- Node8&#45;&gt;Node9 -->
<g id="edge9" class="edge">
<title>Node8&#45;&gt;Node9</title>
<path fill="none" stroke="midnightblue" d="M490,-56.08C490,-49.01 490,-38.86 490,-29.99"/>
<polygon fill="midnightblue" stroke="midnightblue" points="493.5,-29.75 490,-19.75 486.5,-29.75 493.5,-29.75"/>
</g>
</g>
</svg>
