<?xml version="1.0" encoding="UTF-8" standalone="no"?>
<!DOCTYPE svg PUBLIC "-//W3C//DTD SVG 1.1//EN"
 "http://www.w3.org/Graphics/SVG/1.1/DTD/svg11.dtd">
<!-- Generated by graphviz version 2.43.0 (0)
 -->
<!-- Title: Wocket::Sensor::SensorBase Pages: 1 -->
<svg width="392pt" height="140pt"
 viewBox="0.00 0.00 391.50 140.00" xmlns="http://www.w3.org/2000/svg" xmlns:xlink="http://www.w3.org/1999/xlink">
<g id="graph0" class="graph" transform="scale(1 1) rotate(0) translate(4 136)">
<title>Wocket::Sensor::SensorBase</title>
<polygon fill="white" stroke="transparent" points="-4,4 -4,-136 387.5,-136 387.5,4 -4,4"/>
<!-- Node1 -->
<g id="node1" class="node">
<title>Node1</title>
<g id="a_node1"><a xlink:title=" ">
<polygon fill="#bfbfbf" stroke="black" points="119,-112.5 119,-131.5 273,-131.5 273,-112.5 119,-112.5"/>
<text text-anchor="middle" x="196" y="-119.5" font-family="Helvetica,sans-Serif" font-size="10.00">Wocket::Sensor::SensorBase</text>
</a>
</g>
</g>
<!-- Node2 -->
<g id="node2" class="node">
<title>Node2</title>
<g id="a_node2"><a xlink:href="class_wocket_1_1_sensor_1_1_accelerometer_base.html" target="_top" xlink:title=" ">
<polygon fill="white" stroke="black" points="0,-56.5 0,-75.5 192,-75.5 192,-56.5 0,-56.5"/>
<text text-anchor="middle" x="96" y="-63.5" font-family="Helvetica,sans-Serif" font-size="10.00">Wocket::Sensor::AccelerometerBase</text>
</a>
</g>
</g>
<!-- Node1&#45;&gt;Node2 -->
<g id="edge1" class="edge">
<title>Node1&#45;&gt;Node2</title>
<path fill="none" stroke="midnightblue" d="M170.91,-107.45C152.45,-97.48 127.9,-84.23 112.03,-75.65"/>
<polygon fill="midnightblue" stroke="midnightblue" points="169.47,-110.65 179.93,-112.32 172.8,-104.49 169.47,-110.65"/>
</g>
<!-- Node4 -->
<g id="node4" class="node">
<title>Node4</title>
<g id="a_node4"><a xlink:href="class_wocket_1_1_sensor_1_1_barometer_base.html" target="_top" xlink:title=" ">
<polygon fill="white" stroke="black" points="210.5,-56.5 210.5,-75.5 383.5,-75.5 383.5,-56.5 210.5,-56.5"/>
<text text-anchor="middle" x="297" y="-63.5" font-family="Helvetica,sans-Serif" font-size="10.00">Wocket::Sensor::BarometerBase</text>
</a>
</g>
</g>
<!-- Node1&#45;&gt;Node4 -->
<g id="edge3" class="edge">
<title>Node1&#45;&gt;Node4</title>
<path fill="none" stroke="midnightblue" d="M221.08,-107.59C239.76,-97.61 264.7,-84.27 280.81,-75.65"/>
<polygon fill="midnightblue" stroke="midnightblue" points="219.4,-104.52 212.23,-112.32 222.7,-110.7 219.4,-104.52"/>
</g>
<!-- Node3 -->
<g id="node3" class="node">
<title>Node3</title>
<g id="a_node3"><a xlink:href="class_wocket_1_1_sensor_1_1_a_d_x_l343.html" target="_top" xlink:title=" ">
<polygon fill="white" stroke="black" points="25.5,-0.5 25.5,-19.5 166.5,-19.5 166.5,-0.5 25.5,-0.5"/>
<text text-anchor="middle" x="96" y="-7.5" font-family="Helvetica,sans-Serif" font-size="10.00">Wocket::Sensor::ADXL343</text>
</a>
</g>
</g>
<!-- Node2&#45;&gt;Node3 -->
<g id="edge2" class="edge">
<title>Node2&#45;&gt;Node3</title>
<path fill="none" stroke="midnightblue" d="M96,-45.8C96,-36.91 96,-26.78 96,-19.75"/>
<polygon fill="midnightblue" stroke="midnightblue" points="92.5,-46.08 96,-56.08 99.5,-46.08 92.5,-46.08"/>
</g>
</g>
</svg>
