<?xml version="1.0" encoding="UTF-8" standalone="no"?>
<!DOCTYPE svg PUBLIC "-//W3C//DTD SVG 1.1//EN"
 "http://www.w3.org/Graphics/SVG/1.1/DTD/svg11.dtd">
<!-- Generated by graphviz version 2.43.0 (0)
 -->
<!-- Title: Platform Pages: 1 -->
<svg width="188pt" height="247pt"
 viewBox="0.00 0.00 188.00 247.00" xmlns="http://www.w3.org/2000/svg" xmlns:xlink="http://www.w3.org/1999/xlink">
<g id="graph0" class="graph" transform="scale(1 1) rotate(0) translate(4 243)">
<title>Platform</title>
<polygon fill="white" stroke="transparent" points="-4,4 -4,-243 184,-243 184,4 -4,4"/>
<g id="clust1" class="cluster">
<title>clusterdir_660fa42b9e3230345806bc0b6602f61f</title>
<g id="a_clust1"><a xlink:href="dir_660fa42b9e3230345806bc0b6602f61f.html" target="_top" xlink:title="Wocket">
<polygon fill="#ddddee" stroke="black" points="8,-8 8,-231 172,-231 172,-8 8,-8"/>
<text text-anchor="middle" x="90" y="-219" font-family="Helvetica,sans-Serif" font-size="10.00">Wocket</text>
</a>
</g>
</g>
<g id="clust2" class="cluster">
<title>clusterdir_adfc8f0c7b158e7578b58661775dac5f</title>
<g id="a_clust2"><a xlink:href="dir_adfc8f0c7b158e7578b58661775dac5f.html" target="_top">
<polygon fill="#eeeeff" stroke="black" points="16,-152 16,-204 164,-204 164,-152 16,-152"/>
</a>
</g>
</g>
<!-- dir_21461704387a3e1b07b2b703bb5fc08b -->
<g id="node1" class="node">
<title>dir_21461704387a3e1b07b2b703bb5fc08b</title>
<g id="a_node1"><a xlink:href="dir_21461704387a3e1b07b2b703bb5fc08b.html" target="_top" xlink:title="Sensor">
<polygon fill="white" stroke="red" points="112,-52 58,-52 58,-16 112,-16 112,-52"/>
<text text-anchor="middle" x="85" y="-31.5" font-family="Helvetica,sans-Serif" font-size="10.00">Sensor</text>
</a>
</g>
</g>
<!-- dir_ca18b5d26a08dd1547acb9ac772ee217 -->
<g id="node2" class="node">
<title>dir_ca18b5d26a08dd1547acb9ac772ee217</title>
<g id="a_node2"><a xlink:href="dir_ca18b5d26a08dd1547acb9ac772ee217.html" target="_top" xlink:title="Hardware">
<polygon fill="white" stroke="red" points="155,-124 91,-124 91,-88 155,-88 155,-124"/>
<text text-anchor="middle" x="123" y="-103.5" font-family="Helvetica,sans-Serif" font-size="10.00">Hardware</text>
</a>
</g>
</g>
<!-- dir_ca18b5d26a08dd1547acb9ac772ee217&#45;&gt;dir_21461704387a3e1b07b2b703bb5fc08b -->
<g id="edge1" class="edge">
<title>dir_ca18b5d26a08dd1547acb9ac772ee217&#45;&gt;dir_21461704387a3e1b07b2b703bb5fc08b</title>
<path fill="none" stroke="black" d="M113.61,-87.7C109.24,-79.64 103.94,-69.89 99.1,-60.98"/>
<polygon fill="black" stroke="black" points="102.13,-59.22 94.29,-52.1 95.98,-62.56 102.13,-59.22"/>
<g id="a_edge1&#45;headlabel"><a xlink:href="dir_000009_000002.html" target="_top" xlink:title="1">
<text text-anchor="middle" x="106.34" y="-58.53" font-family="Helvetica,sans-Serif" font-size="10.00">1</text>
</a>
</g>
</g>
<!-- dir_adfc8f0c7b158e7578b58661775dac5f -->
<g id="node3" class="node">
<title>dir_adfc8f0c7b158e7578b58661775dac5f</title>
<text text-anchor="middle" x="54" y="-175.5" font-family="Helvetica,sans-Serif" font-size="10.00">Platform</text>
</g>
<!-- dir_adfc8f0c7b158e7578b58661775dac5f&#45;&gt;dir_21461704387a3e1b07b2b703bb5fc08b -->
<g id="edge2" class="edge">
<title>dir_adfc8f0c7b158e7578b58661775dac5f&#45;&gt;dir_21461704387a3e1b07b2b703bb5fc08b</title>
<path fill="none" stroke="black" d="M57.74,-159.87C63.05,-135.56 72.81,-90.82 79.1,-62.01"/>
<polygon fill="black" stroke="black" points="82.53,-62.71 81.25,-52.19 75.7,-61.21 82.53,-62.71"/>
<g id="a_edge2&#45;headlabel"><a xlink:href="dir_000005_000002.html" target="_top" xlink:title="2">
<text text-anchor="middle" x="84.54" y="-64.32" font-family="Helvetica,sans-Serif" font-size="10.00">2</text>
</a>
</g>
</g>
<!-- dir_7ddf9baf0e6ccd9037e42fe67735ab17 -->
<g id="node4" class="node">
<title>dir_7ddf9baf0e6ccd9037e42fe67735ab17</title>
<g id="a_node4"><a xlink:href="dir_7ddf9baf0e6ccd9037e42fe67735ab17.html" target="_top" xlink:title="Arduino">
<polygon fill="white" stroke="red" points="156,-196 102,-196 102,-160 156,-160 156,-196"/>
<text text-anchor="middle" x="129" y="-175.5" font-family="Helvetica,sans-Serif" font-size="10.00">Arduino</text>
</a>
</g>
</g>
<!-- dir_7ddf9baf0e6ccd9037e42fe67735ab17&#45;&gt;dir_ca18b5d26a08dd1547acb9ac772ee217 -->
<g id="edge3" class="edge">
<title>dir_7ddf9baf0e6ccd9037e42fe67735ab17&#45;&gt;dir_ca18b5d26a08dd1547acb9ac772ee217</title>
<path fill="none" stroke="black" d="M127.52,-159.7C126.86,-151.98 126.06,-142.71 125.32,-134.11"/>
<polygon fill="black" stroke="black" points="128.81,-133.77 124.47,-124.1 121.83,-134.37 128.81,-133.77"/>
<g id="a_edge3&#45;headlabel"><a xlink:href="dir_000006_000009.html" target="_top" xlink:title="1">
<text text-anchor="middle" x="131.94" y="-134.61" font-family="Helvetica,sans-Serif" font-size="10.00">1</text>
</a>
</g>
</g>
</g>
</svg>
