<?xml version="1.0" encoding="UTF-8" standalone="no"?>
<!DOCTYPE svg PUBLIC "-//W3C//DTD SVG 1.1//EN"
 "http://www.w3.org/Graphics/SVG/1.1/DTD/svg11.dtd">
<!-- Generated by graphviz version 2.43.0 (0)
 -->
<!-- Title: Computer Pages: 1 -->
<svg width="260pt" height="180pt"
 viewBox="0.00 0.00 259.50 179.96" xmlns="http://www.w3.org/2000/svg" xmlns:xlink="http://www.w3.org/1999/xlink">
<g id="graph0" class="graph" transform="scale(1 1) rotate(0) translate(4 175.96)">
<title>Computer</title>
<polygon fill="white" stroke="transparent" points="-4,4 -4,-175.96 255.5,-175.96 255.5,4 -4,4"/>
<g id="clust1" class="cluster">
<title>clusterdir_660fa42b9e3230345806bc0b6602f61f</title>
<g id="a_clust1"><a xlink:href="dir_660fa42b9e3230345806bc0b6602f61f.html" target="_top" xlink:title="Wocket">
<polygon fill="#ddddee" stroke="black" points="8,-56 8,-143 178,-143 178,-56 8,-56"/>
<text text-anchor="middle" x="93" y="-131" font-family="Helvetica,sans-Serif" font-size="10.00">Wocket</text>
</a>
</g>
</g>
<g id="clust2" class="cluster">
<title>clusterdir_889460a6948c19d4ce0b79c39cdefdc7</title>
<g id="a_clust2"><a xlink:href="dir_889460a6948c19d4ce0b79c39cdefdc7.html" target="_top">
<polygon fill="#eeeeff" stroke="black" points="16,-64 16,-116 170,-116 170,-64 16,-64"/>
</a>
</g>
</g>
<!-- dir_889460a6948c19d4ce0b79c39cdefdc7 -->
<g id="node1" class="node">
<title>dir_889460a6948c19d4ce0b79c39cdefdc7</title>
<text text-anchor="middle" x="129" y="-87.5" font-family="Helvetica,sans-Serif" font-size="10.00">Computer</text>
</g>
<!-- dir_a68b93b6967a6d429edb1b6c5de49b74 -->
<g id="node2" class="node">
<title>dir_a68b93b6967a6d429edb1b6c5de49b74</title>
<g id="a_node2"><a xlink:href="dir_a68b93b6967a6d429edb1b6c5de49b74.html" target="_top" xlink:title="stages">
<polygon fill="white" stroke="black" points="78,-108 24,-108 24,-72 78,-72 78,-108"/>
<text text-anchor="middle" x="51" y="-87.5" font-family="Helvetica,sans-Serif" font-size="10.00">stages</text>
</a>
</g>
</g>
<!-- dir_68267d1309a1af8e8297ef4c3efbcdba -->
<g id="node3" class="node">
<title>dir_68267d1309a1af8e8297ef4c3efbcdba</title>
<g id="a_node3"><a xlink:href="dir_68267d1309a1af8e8297ef4c3efbcdba.html" target="_top" xlink:title="src">
<polygon fill="none" stroke="black" points="240,-108 186,-108 186,-72 240,-72 240,-108"/>
<text text-anchor="middle" x="213" y="-87.5" font-family="Helvetica,sans-Serif" font-size="10.00">src</text>
</a>
</g>
</g>
<!-- dir_a68b93b6967a6d429edb1b6c5de49b74&#45;&gt;dir_68267d1309a1af8e8297ef4c3efbcdba -->
<g id="edge5" class="edge">
<title>dir_a68b93b6967a6d429edb1b6c5de49b74&#45;&gt;dir_68267d1309a1af8e8297ef4c3efbcdba</title>
<path fill="none" stroke="black" d="M56.73,-108.04C63.23,-125.14 75.67,-149.82 96,-161 122.87,-175.78 137.92,-175.38 165,-161 182.3,-151.81 194.51,-133.29 202.28,-117.47"/>
<polygon fill="black" stroke="black" points="205.59,-118.63 206.55,-108.08 199.22,-115.73 205.59,-118.63"/>
<g id="a_edge5&#45;headlabel"><a xlink:href="dir_000017_000007.html" target="_top" xlink:title="1">
<text text-anchor="middle" x="206.69" y="-120.58" font-family="Helvetica,sans-Serif" font-size="10.00">1</text>
</a>
</g>
</g>
<!-- dir_e31664174edb9b3ff23db8a31f057636 -->
<g id="node4" class="node">
<title>dir_e31664174edb9b3ff23db8a31f057636</title>
<g id="a_node4"><a xlink:href="dir_e31664174edb9b3ff23db8a31f057636.html" target="_top" xlink:title="kalman">
<polygon fill="none" stroke="black" points="117,-36 63,-36 63,0 117,0 117,-36"/>
<text text-anchor="middle" x="90" y="-15.5" font-family="Helvetica,sans-Serif" font-size="10.00">kalman</text>
</a>
</g>
</g>
<!-- dir_a68b93b6967a6d429edb1b6c5de49b74&#45;&gt;dir_e31664174edb9b3ff23db8a31f057636 -->
<g id="edge6" class="edge">
<title>dir_a68b93b6967a6d429edb1b6c5de49b74&#45;&gt;dir_e31664174edb9b3ff23db8a31f057636</title>
<path fill="none" stroke="black" d="M60.64,-71.7C65.13,-63.64 70.56,-53.89 75.52,-44.98"/>
<polygon fill="black" stroke="black" points="78.66,-46.54 80.47,-36.1 72.55,-43.14 78.66,-46.54"/>
<g id="a_edge6&#45;headlabel"><a xlink:href="dir_000017_000014.html" target="_top" xlink:title="1">
<text text-anchor="middle" x="79.39" y="-48.57" font-family="Helvetica,sans-Serif" font-size="10.00">1</text>
</a>
</g>
</g>
<!-- dir_493ca209223fc47b4c316544d4be99c8 -->
<g id="node5" class="node">
<title>dir_493ca209223fc47b4c316544d4be99c8</title>
<g id="a_node5"><a xlink:href="dir_493ca209223fc47b4c316544d4be99c8.html" target="_top" xlink:title="components">
<polygon fill="white" stroke="red" points="251.5,-36 174.5,-36 174.5,0 251.5,0 251.5,-36"/>
<text text-anchor="middle" x="213" y="-15.5" font-family="Helvetica,sans-Serif" font-size="10.00">components</text>
</a>
</g>
</g>
<!-- dir_a68b93b6967a6d429edb1b6c5de49b74&#45;&gt;dir_493ca209223fc47b4c316544d4be99c8 -->
<g id="edge4" class="edge">
<title>dir_a68b93b6967a6d429edb1b6c5de49b74&#45;&gt;dir_493ca209223fc47b4c316544d4be99c8</title>
<path fill="none" stroke="black" d="M66.59,-71.81C72.51,-66.11 79.62,-60.17 87,-56 110.8,-42.57 139.94,-33.6 164.2,-27.87"/>
<polygon fill="black" stroke="black" points="165.28,-31.21 174.27,-25.6 163.74,-24.38 165.28,-31.21"/>
<g id="a_edge4&#45;headlabel"><a xlink:href="dir_000017_000015.html" target="_top" xlink:title="2">
<text text-anchor="middle" x="162.39" y="-32.27" font-family="Helvetica,sans-Serif" font-size="10.00">2</text>
</a>
</g>
</g>
<!-- dir_68267d1309a1af8e8297ef4c3efbcdba&#45;&gt;dir_889460a6948c19d4ce0b79c39cdefdc7 -->
<g id="edge2" class="edge">
<title>dir_68267d1309a1af8e8297ef4c3efbcdba&#45;&gt;dir_889460a6948c19d4ce0b79c39cdefdc7</title>
<path fill="none" stroke="black" d="M185.81,-90C181.18,-90 176.56,-90 171.94,-90"/>
<polygon fill="black" stroke="black" points="171.81,-86.5 161.81,-90 171.81,-93.5 171.81,-86.5"/>
<g id="a_edge2&#45;headlabel"><a xlink:href="dir_000007_000011.html" target="_top" xlink:title="3">
<text text-anchor="middle" x="175.41" y="-81.16" font-family="Helvetica,sans-Serif" font-size="10.00">3</text>
</a>
</g>
</g>
<!-- dir_68267d1309a1af8e8297ef4c3efbcdba&#45;&gt;dir_e31664174edb9b3ff23db8a31f057636 -->
<g id="edge3" class="edge">
<title>dir_68267d1309a1af8e8297ef4c3efbcdba&#45;&gt;dir_e31664174edb9b3ff23db8a31f057636</title>
<path fill="none" stroke="black" d="M194.8,-71.73C188.51,-66.28 181.22,-60.51 174,-56 159.26,-46.79 141.82,-38.71 126.67,-32.47"/>
<polygon fill="black" stroke="black" points="127.68,-29.1 117.09,-28.64 125.08,-35.6 127.68,-29.1"/>
<g id="a_edge3&#45;headlabel"><a xlink:href="dir_000007_000014.html" target="_top" xlink:title="1">
<text text-anchor="middle" x="132.07" y="-25.3" font-family="Helvetica,sans-Serif" font-size="10.00">1</text>
</a>
</g>
</g>
<!-- dir_68267d1309a1af8e8297ef4c3efbcdba&#45;&gt;dir_493ca209223fc47b4c316544d4be99c8 -->
<g id="edge1" class="edge">
<title>dir_68267d1309a1af8e8297ef4c3efbcdba&#45;&gt;dir_493ca209223fc47b4c316544d4be99c8</title>
<path fill="none" stroke="black" d="M207.08,-71.7C206.29,-63.98 206.06,-54.71 206.4,-46.11"/>
<polygon fill="black" stroke="black" points="209.9,-46.32 207.1,-36.1 202.92,-45.84 209.9,-46.32"/>
<g id="a_edge1&#45;headlabel"><a xlink:href="dir_000007_000015.html" target="_top" xlink:title="4">
<text text-anchor="middle" x="212.48" y="-47.61" font-family="Helvetica,sans-Serif" font-size="10.00">4</text>
</a>
</g>
</g>
<!-- dir_493ca209223fc47b4c316544d4be99c8&#45;&gt;dir_68267d1309a1af8e8297ef4c3efbcdba -->
<g id="edge7" class="edge">
<title>dir_493ca209223fc47b4c316544d4be99c8&#45;&gt;dir_68267d1309a1af8e8297ef4c3efbcdba</title>
<path fill="none" stroke="black" d="M218.9,-36.1C219.7,-43.79 219.94,-53.05 219.6,-61.67"/>
<polygon fill="black" stroke="black" points="216.11,-61.48 218.92,-71.7 223.09,-61.96 216.11,-61.48"/>
<g id="a_edge7&#45;headlabel"><a xlink:href="dir_000015_000007.html" target="_top" xlink:title="2">
<text text-anchor="middle" x="213.52" y="-55.2" font-family="Helvetica,sans-Serif" font-size="10.00">2</text>
</a>
</g>
</g>
</g>
</svg>
