<?xml version="1.0" encoding="UTF-8" standalone="no"?>
<!DOCTYPE svg PUBLIC "-//W3C//DTD SVG 1.1//EN"
 "http://www.w3.org/Graphics/SVG/1.1/DTD/svg11.dtd">
<!-- Generated by graphviz version 2.43.0 (0)
 -->
<!-- Title: Wocket Pages: 1 -->
<svg width="378pt" height="211pt"
 viewBox="0.00 0.00 377.54 211.00" xmlns="http://www.w3.org/2000/svg" xmlns:xlink="http://www.w3.org/1999/xlink">
<g id="graph0" class="graph" transform="scale(1 1) rotate(0) translate(4 207)">
<title>Wocket</title>
<polygon fill="white" stroke="transparent" points="-4,4 -4,-207 373.54,-207 373.54,4 -4,4"/>
<g id="clust1" class="cluster">
<title>clusterdir_97aefd0d527b934f1d99a682da8fe6a9</title>
<g id="a_clust1"><a xlink:href="dir_97aefd0d527b934f1d99a682da8fe6a9.html" target="_top" xlink:title="lib">
<polygon fill="#ddddee" stroke="black" points="12.74,-8 12.74,-159 336.74,-159 336.74,-8 12.74,-8"/>
<text text-anchor="middle" x="174.74" y="-147" font-family="Helvetica,sans-Serif" font-size="10.00">lib</text>
</a>
</g>
</g>
<g id="clust2" class="cluster">
<title>clusterdir_660fa42b9e3230345806bc0b6602f61f</title>
<g id="a_clust2"><a xlink:href="dir_660fa42b9e3230345806bc0b6602f61f.html" target="_top">
<polygon fill="#eeeeff" stroke="black" points="20.74,-80 20.74,-132 328.74,-132 328.74,-80 20.74,-80"/>
</a>
</g>
</g>
<!-- dir_493ca209223fc47b4c316544d4be99c8 -->
<g id="node1" class="node">
<title>dir_493ca209223fc47b4c316544d4be99c8</title>
<g id="a_node1"><a xlink:href="dir_493ca209223fc47b4c316544d4be99c8.html" target="_top" xlink:title="components">
<polygon fill="white" stroke="red" points="209.24,-52 132.24,-52 132.24,-16 209.24,-16 209.24,-52"/>
<text text-anchor="middle" x="170.74" y="-31.5" font-family="Helvetica,sans-Serif" font-size="10.00">components</text>
</a>
</g>
</g>
<!-- dir_68267d1309a1af8e8297ef4c3efbcdba -->
<g id="node7" class="node">
<title>dir_68267d1309a1af8e8297ef4c3efbcdba</title>
<g id="a_node7"><a xlink:href="dir_68267d1309a1af8e8297ef4c3efbcdba.html" target="_top" xlink:title="src">
<polygon fill="none" stroke="black" points="242.74,-203 188.74,-203 188.74,-167 242.74,-167 242.74,-203"/>
<text text-anchor="middle" x="215.74" y="-182.5" font-family="Helvetica,sans-Serif" font-size="10.00">src</text>
</a>
</g>
</g>
<!-- dir_493ca209223fc47b4c316544d4be99c8&#45;&gt;dir_68267d1309a1af8e8297ef4c3efbcdba -->
<g id="edge13" class="edge">
<title>dir_493ca209223fc47b4c316544d4be99c8&#45;&gt;dir_68267d1309a1af8e8297ef4c3efbcdba</title>
<path fill="none" stroke="black" d="M132.17,-40.92C91.25,-48.07 30.61,-61.5 16.74,-80 -4.32,-108.09 -6.48,-132.67 16.74,-159 37.38,-182.39 126.6,-185.29 178.3,-184.92"/>
<polygon fill="black" stroke="black" points="178.45,-188.42 188.41,-184.8 178.37,-181.42 178.45,-188.42"/>
<g id="a_edge13&#45;headlabel"><a xlink:href="dir_000015_000007.html" target="_top" xlink:title="2">
<text text-anchor="middle" x="174.89" y="-188.8" font-family="Helvetica,sans-Serif" font-size="10.00">2</text>
</a>
</g>
</g>
<!-- dir_e31664174edb9b3ff23db8a31f057636 -->
<g id="node2" class="node">
<title>dir_e31664174edb9b3ff23db8a31f057636</title>
<g id="a_node2"><a xlink:href="dir_e31664174edb9b3ff23db8a31f057636.html" target="_top" xlink:title="kalman">
<polygon fill="none" stroke="black" points="320.74,-52 266.74,-52 266.74,-16 320.74,-16 320.74,-52"/>
<text text-anchor="middle" x="293.74" y="-31.5" font-family="Helvetica,sans-Serif" font-size="10.00">kalman</text>
</a>
</g>
</g>
<!-- dir_660fa42b9e3230345806bc0b6602f61f -->
<g id="node3" class="node">
<title>dir_660fa42b9e3230345806bc0b6602f61f</title>
<text text-anchor="middle" x="55.74" y="-103.5" font-family="Helvetica,sans-Serif" font-size="10.00">Wocket</text>
</g>
<!-- dir_889460a6948c19d4ce0b79c39cdefdc7 -->
<g id="node4" class="node">
<title>dir_889460a6948c19d4ce0b79c39cdefdc7</title>
<g id="a_node4"><a xlink:href="dir_889460a6948c19d4ce0b79c39cdefdc7.html" target="_top" xlink:title="Computer">
<polygon fill="white" stroke="red" points="248.24,-124 183.24,-124 183.24,-88 248.24,-88 248.24,-124"/>
<text text-anchor="middle" x="215.74" y="-103.5" font-family="Helvetica,sans-Serif" font-size="10.00">Computer</text>
</a>
</g>
</g>
<!-- dir_889460a6948c19d4ce0b79c39cdefdc7&#45;&gt;dir_493ca209223fc47b4c316544d4be99c8 -->
<g id="edge10" class="edge">
<title>dir_889460a6948c19d4ce0b79c39cdefdc7&#45;&gt;dir_493ca209223fc47b4c316544d4be99c8</title>
<path fill="none" stroke="black" d="M204.62,-87.7C199.39,-79.56 193.04,-69.69 187.27,-60.7"/>
<polygon fill="black" stroke="black" points="190.09,-58.62 181.74,-52.1 184.2,-62.41 190.09,-58.62"/>
<g id="a_edge10&#45;headlabel"><a xlink:href="dir_000011_000015.html" target="_top" xlink:title="2">
<text text-anchor="middle" x="194.42" y="-57.61" font-family="Helvetica,sans-Serif" font-size="10.00">2</text>
</a>
</g>
</g>
<!-- dir_889460a6948c19d4ce0b79c39cdefdc7&#45;&gt;dir_e31664174edb9b3ff23db8a31f057636 -->
<g id="edge9" class="edge">
<title>dir_889460a6948c19d4ce0b79c39cdefdc7&#45;&gt;dir_e31664174edb9b3ff23db8a31f057636</title>
<path fill="none" stroke="black" d="M235.02,-87.7C244.66,-79.05 256.47,-68.45 266.97,-59.03"/>
<polygon fill="black" stroke="black" points="269.58,-61.39 274.68,-52.1 264.9,-56.18 269.58,-61.39"/>
<g id="a_edge9&#45;headlabel"><a xlink:href="dir_000011_000014.html" target="_top" xlink:title="1">
<text text-anchor="middle" x="268.8" y="-63.4" font-family="Helvetica,sans-Serif" font-size="10.00">1</text>
</a>
</g>
</g>
<!-- dir_889460a6948c19d4ce0b79c39cdefdc7&#45;&gt;dir_68267d1309a1af8e8297ef4c3efbcdba -->
<g id="edge8" class="edge">
<title>dir_889460a6948c19d4ce0b79c39cdefdc7&#45;&gt;dir_68267d1309a1af8e8297ef4c3efbcdba</title>
<path fill="none" stroke="black" d="M210.03,-124.04C208.99,-133.6 208.74,-145.76 209.25,-156.62"/>
<polygon fill="black" stroke="black" points="205.78,-157.2 210.02,-166.91 212.76,-156.68 205.78,-157.2"/>
<g id="a_edge8&#45;headlabel"><a xlink:href="dir_000011_000007.html" target="_top" xlink:title="1">
<text text-anchor="middle" x="202.68" y="-151.33" font-family="Helvetica,sans-Serif" font-size="10.00">1</text>
</a>
</g>
</g>
<!-- dir_ca18b5d26a08dd1547acb9ac772ee217 -->
<g id="node5" class="node">
<title>dir_ca18b5d26a08dd1547acb9ac772ee217</title>
<g id="a_node5"><a xlink:href="dir_ca18b5d26a08dd1547acb9ac772ee217.html" target="_top" xlink:title="Hardware">
<polygon fill="white" stroke="black" points="164.74,-124 100.74,-124 100.74,-88 164.74,-88 164.74,-124"/>
<text text-anchor="middle" x="132.74" y="-103.5" font-family="Helvetica,sans-Serif" font-size="10.00">Hardware</text>
</a>
</g>
</g>
<!-- dir_ca18b5d26a08dd1547acb9ac772ee217&#45;&gt;dir_493ca209223fc47b4c316544d4be99c8 -->
<g id="edge1" class="edge">
<title>dir_ca18b5d26a08dd1547acb9ac772ee217&#45;&gt;dir_493ca209223fc47b4c316544d4be99c8</title>
<path fill="none" stroke="black" d="M142.14,-87.7C146.51,-79.64 151.8,-69.89 156.64,-60.98"/>
<polygon fill="black" stroke="black" points="159.76,-62.56 161.46,-52.1 153.61,-59.22 159.76,-62.56"/>
<g id="a_edge1&#45;headlabel"><a xlink:href="dir_000006_000015.html" target="_top" xlink:title="1">
<text text-anchor="middle" x="160.54" y="-64.58" font-family="Helvetica,sans-Serif" font-size="10.00">1</text>
</a>
</g>
</g>
<!-- dir_21461704387a3e1b07b2b703bb5fc08b -->
<g id="node6" class="node">
<title>dir_21461704387a3e1b07b2b703bb5fc08b</title>
<g id="a_node6"><a xlink:href="dir_21461704387a3e1b07b2b703bb5fc08b.html" target="_top" xlink:title="Sensor">
<polygon fill="white" stroke="red" points="320.74,-124 266.74,-124 266.74,-88 320.74,-88 320.74,-124"/>
<text text-anchor="middle" x="293.74" y="-103.5" font-family="Helvetica,sans-Serif" font-size="10.00">Sensor</text>
</a>
</g>
</g>
<!-- dir_21461704387a3e1b07b2b703bb5fc08b&#45;&gt;dir_e31664174edb9b3ff23db8a31f057636 -->
<g id="edge12" class="edge">
<title>dir_21461704387a3e1b07b2b703bb5fc08b&#45;&gt;dir_e31664174edb9b3ff23db8a31f057636</title>
<path fill="none" stroke="black" d="M293.74,-87.7C293.74,-79.98 293.74,-70.71 293.74,-62.11"/>
<polygon fill="black" stroke="black" points="297.24,-62.1 293.74,-52.1 290.24,-62.1 297.24,-62.1"/>
<g id="a_edge12&#45;headlabel"><a xlink:href="dir_000002_000014.html" target="_top" xlink:title="1">
<text text-anchor="middle" x="300.08" y="-63.2" font-family="Helvetica,sans-Serif" font-size="10.00">1</text>
</a>
</g>
</g>
<!-- dir_21461704387a3e1b07b2b703bb5fc08b&#45;&gt;dir_68267d1309a1af8e8297ef4c3efbcdba -->
<g id="edge11" class="edge">
<title>dir_21461704387a3e1b07b2b703bb5fc08b&#45;&gt;dir_68267d1309a1af8e8297ef4c3efbcdba</title>
<path fill="none" stroke="black" d="M276.63,-124.33C268.86,-135.18 259.5,-148.96 248.74,-159 248.19,-159.52 247.61,-160.04 247.03,-160.55"/>
<polygon fill="black" stroke="black" points="244.75,-157.89 239.03,-166.81 249.06,-163.4 244.75,-157.89"/>
<g id="a_edge11&#45;headlabel"><a xlink:href="dir_000002_000007.html" target="_top" xlink:title="1">
<text text-anchor="middle" x="245.83" y="-150.94" font-family="Helvetica,sans-Serif" font-size="10.00">1</text>
</a>
</g>
</g>
<!-- dir_68267d1309a1af8e8297ef4c3efbcdba&#45;&gt;dir_493ca209223fc47b4c316544d4be99c8 -->
<g id="edge3" class="edge">
<title>dir_68267d1309a1af8e8297ef4c3efbcdba&#45;&gt;dir_493ca209223fc47b4c316544d4be99c8</title>
<path fill="none" stroke="black" d="M243,-182.05C273.97,-179.21 321.67,-172.69 332.74,-159 354.83,-131.7 353.99,-107.95 332.74,-80 325.7,-70.74 264.59,-55.56 219.49,-45.42"/>
<polygon fill="black" stroke="black" points="220.09,-41.97 209.57,-43.22 218.57,-48.8 220.09,-41.97"/>
<g id="a_edge3&#45;headlabel"><a xlink:href="dir_000007_000015.html" target="_top" xlink:title="4">
<text text-anchor="middle" x="224.21" y="-37.48" font-family="Helvetica,sans-Serif" font-size="10.00">4</text>
</a>
</g>
</g>
<!-- dir_68267d1309a1af8e8297ef4c3efbcdba&#45;&gt;dir_e31664174edb9b3ff23db8a31f057636 -->
<g id="edge7" class="edge">
<title>dir_68267d1309a1af8e8297ef4c3efbcdba&#45;&gt;dir_e31664174edb9b3ff23db8a31f057636</title>
<path fill="none" stroke="black" d="M243,-183.1C279.36,-181.26 340.78,-175.69 354.74,-159 377.27,-132.06 370.57,-111.34 354.74,-80 349.14,-68.9 339.35,-59.86 329.24,-52.87"/>
<polygon fill="black" stroke="black" points="331.07,-49.89 320.75,-47.49 327.32,-55.8 331.07,-49.89"/>
<g id="a_edge7&#45;headlabel"><a xlink:href="dir_000007_000014.html" target="_top" xlink:title="1">
<text text-anchor="middle" x="335.63" y="-46.92" font-family="Helvetica,sans-Serif" font-size="10.00">1</text>
</a>
</g>
</g>
<!-- dir_68267d1309a1af8e8297ef4c3efbcdba&#45;&gt;dir_660fa42b9e3230345806bc0b6602f61f -->
<g id="edge4" class="edge">
<title>dir_68267d1309a1af8e8297ef4c3efbcdba&#45;&gt;dir_660fa42b9e3230345806bc0b6602f61f</title>
<path fill="none" stroke="black" d="M188.64,-184.23C161.94,-183.22 121,-178.26 91.74,-159 82.01,-152.6 74.16,-142.57 68.31,-133.02"/>
<polygon fill="black" stroke="black" points="71.27,-131.14 63.31,-124.15 65.17,-134.58 71.27,-131.14"/>
<g id="a_edge4&#45;headlabel"><a xlink:href="dir_000007_000001.html" target="_top" xlink:title="5">
<text text-anchor="middle" x="75.51" y="-130.38" font-family="Helvetica,sans-Serif" font-size="10.00">5</text>
</a>
</g>
</g>
<!-- dir_68267d1309a1af8e8297ef4c3efbcdba&#45;&gt;dir_889460a6948c19d4ce0b79c39cdefdc7 -->
<g id="edge5" class="edge">
<title>dir_68267d1309a1af8e8297ef4c3efbcdba&#45;&gt;dir_889460a6948c19d4ce0b79c39cdefdc7</title>
<path fill="none" stroke="black" d="M221.46,-166.91C222.49,-157.34 222.75,-145.18 222.23,-134.32"/>
<polygon fill="black" stroke="black" points="225.7,-133.75 221.46,-124.04 218.72,-134.28 225.7,-133.75"/>
<g id="a_edge5&#45;headlabel"><a xlink:href="dir_000007_000011.html" target="_top" xlink:title="3">
<text text-anchor="middle" x="228.8" y="-134.62" font-family="Helvetica,sans-Serif" font-size="10.00">3</text>
</a>
</g>
</g>
<!-- dir_68267d1309a1af8e8297ef4c3efbcdba&#45;&gt;dir_ca18b5d26a08dd1547acb9ac772ee217 -->
<g id="edge6" class="edge">
<title>dir_68267d1309a1af8e8297ef4c3efbcdba&#45;&gt;dir_ca18b5d26a08dd1547acb9ac772ee217</title>
<path fill="none" stroke="black" d="M188.35,-169.12C183.61,-166.04 178.88,-162.63 174.74,-159 165.88,-151.23 157.44,-141.45 150.48,-132.46"/>
<polygon fill="black" stroke="black" points="153.09,-130.11 144.3,-124.19 147.48,-134.3 153.09,-130.11"/>
<g id="a_edge6&#45;headlabel"><a xlink:href="dir_000007_000006.html" target="_top" xlink:title="1">
<text text-anchor="middle" x="157.51" y="-128.79" font-family="Helvetica,sans-Serif" font-size="10.00">1</text>
</a>
</g>
</g>
<!-- dir_68267d1309a1af8e8297ef4c3efbcdba&#45;&gt;dir_21461704387a3e1b07b2b703bb5fc08b -->
<g id="edge2" class="edge">
<title>dir_68267d1309a1af8e8297ef4c3efbcdba&#45;&gt;dir_21461704387a3e1b07b2b703bb5fc08b</title>
<path fill="none" stroke="black" d="M242.77,-175.1C251.21,-170.88 259.92,-165.37 266.74,-159 274.73,-151.55 281.94,-142.04 287.25,-133.19"/>
<polygon fill="black" stroke="black" points="290.36,-134.79 292.05,-124.33 284.21,-131.46 290.36,-134.79"/>
<g id="a_edge2&#45;headlabel"><a xlink:href="dir_000007_000002.html" target="_top" xlink:title="1">
<text text-anchor="middle" x="291.15" y="-136.81" font-family="Helvetica,sans-Serif" font-size="10.00">1</text>
</a>
</g>
</g>
</g>
</svg>
