<?xml version="1.0" encoding="UTF-8" standalone="no"?>
<!DOCTYPE svg PUBLIC "-//W3C//DTD SVG 1.1//EN"
 "http://www.w3.org/Graphics/SVG/1.1/DTD/svg11.dtd">
<!-- Generated by graphviz version 2.43.0 (0)
 -->
<!-- Title: Sensor Pages: 1 -->
<svg width="356pt" height="175pt"
 viewBox="0.00 0.00 356.00 175.00" xmlns="http://www.w3.org/2000/svg" xmlns:xlink="http://www.w3.org/1999/xlink">
<g id="graph0" class="graph" transform="scale(1 1) rotate(0) translate(4 171)">
<title>Sensor</title>
<polygon fill="white" stroke="transparent" points="-4,4 -4,-171 352,-171 352,4 -4,4"/>
<g id="clust1" class="cluster">
<title>clusterdir_660fa42b9e3230345806bc0b6602f61f</title>
<g id="a_clust1"><a xlink:href="dir_660fa42b9e3230345806bc0b6602f61f.html" target="_top" xlink:title="Wocket">
<polygon fill="#ddddee" stroke="black" points="8,-8 8,-159 286,-159 286,-8 8,-8"/>
<text text-anchor="middle" x="147" y="-147" font-family="Helvetica,sans-Serif" font-size="10.00">Wocket</text>
</a>
</g>
</g>
<g id="clust2" class="cluster">
<title>clusterdir_21461704387a3e1b07b2b703bb5fc08b</title>
<g id="a_clust2"><a xlink:href="dir_21461704387a3e1b07b2b703bb5fc08b.html" target="_top">
<polygon fill="#eeeeff" stroke="black" points="16,-80 16,-132 278,-132 278,-80 16,-80"/>
</a>
</g>
</g>
<!-- dir_0ef0e180e5ad722e331acc662d4db775 -->
<g id="node1" class="node">
<title>dir_0ef0e180e5ad722e331acc662d4db775</title>
<g id="a_node1"><a xlink:href="dir_0ef0e180e5ad722e331acc662d4db775.html" target="_top" xlink:title="Kernel">
<polygon fill="white" stroke="red" points="180,-52 126,-52 126,-16 180,-16 180,-52"/>
<text text-anchor="middle" x="153" y="-31.5" font-family="Helvetica,sans-Serif" font-size="10.00">Kernel</text>
</a>
</g>
</g>
<!-- dir_21461704387a3e1b07b2b703bb5fc08b -->
<g id="node2" class="node">
<title>dir_21461704387a3e1b07b2b703bb5fc08b</title>
<text text-anchor="middle" x="243" y="-103.5" font-family="Helvetica,sans-Serif" font-size="10.00">Sensor</text>
</g>
<!-- dir_3c9caf8b91afc606295fedaa2bdfb269 -->
<g id="node3" class="node">
<title>dir_3c9caf8b91afc606295fedaa2bdfb269</title>
<g id="a_node3"><a xlink:href="dir_3c9caf8b91afc606295fedaa2bdfb269.html" target="_top" xlink:title="Accelerometer">
<polygon fill="white" stroke="red" points="198,-124 110,-124 110,-88 198,-88 198,-124"/>
<text text-anchor="middle" x="154" y="-103.5" font-family="Helvetica,sans-Serif" font-size="10.00">Accelerometer</text>
</a>
</g>
</g>
<!-- dir_68267d1309a1af8e8297ef4c3efbcdba -->
<g id="node5" class="node">
<title>dir_68267d1309a1af8e8297ef4c3efbcdba</title>
<g id="a_node5"><a xlink:href="dir_68267d1309a1af8e8297ef4c3efbcdba.html" target="_top" xlink:title="src">
<polygon fill="none" stroke="black" points="348,-52 294,-52 294,-16 348,-16 348,-52"/>
<text text-anchor="middle" x="321" y="-31.5" font-family="Helvetica,sans-Serif" font-size="10.00">src</text>
</a>
</g>
</g>
<!-- dir_3c9caf8b91afc606295fedaa2bdfb269&#45;&gt;dir_68267d1309a1af8e8297ef4c3efbcdba -->
<g id="edge2" class="edge">
<title>dir_3c9caf8b91afc606295fedaa2bdfb269&#45;&gt;dir_68267d1309a1af8e8297ef4c3efbcdba</title>
<path fill="none" stroke="black" d="M188.81,-87.88C194.83,-85.13 201.06,-82.4 207,-80 240.01,-66.7 252.23,-67.39 284.18,-54.35"/>
<polygon fill="black" stroke="black" points="285.91,-57.42 293.75,-50.28 283.17,-50.97 285.91,-57.42"/>
<g id="a_edge2&#45;headlabel"><a xlink:href="dir_000003_000013.html" target="_top" xlink:title="1">
<text text-anchor="middle" x="283.71" y="-58.94" font-family="Helvetica,sans-Serif" font-size="10.00">1</text>
</a>
</g>
</g>
<!-- dir_ec5f3ddd5ff97f67ccd56a055db374ab -->
<g id="node4" class="node">
<title>dir_ec5f3ddd5ff97f67ccd56a055db374ab</title>
<g id="a_node4"><a xlink:href="dir_ec5f3ddd5ff97f67ccd56a055db374ab.html" target="_top" xlink:title="Barometer">
<polygon fill="white" stroke="black" points="92,-124 24,-124 24,-88 92,-88 92,-124"/>
<text text-anchor="middle" x="58" y="-103.5" font-family="Helvetica,sans-Serif" font-size="10.00">Barometer</text>
</a>
</g>
</g>
<!-- dir_ec5f3ddd5ff97f67ccd56a055db374ab&#45;&gt;dir_0ef0e180e5ad722e331acc662d4db775 -->
<g id="edge3" class="edge">
<title>dir_ec5f3ddd5ff97f67ccd56a055db374ab&#45;&gt;dir_0ef0e180e5ad722e331acc662d4db775</title>
<path fill="none" stroke="black" d="M81.48,-87.7C93.56,-78.8 108.45,-67.82 121.52,-58.2"/>
<polygon fill="black" stroke="black" points="123.81,-60.85 129.79,-52.1 119.66,-55.22 123.81,-60.85"/>
<g id="a_edge3&#45;headlabel"><a xlink:href="dir_000008_000011.html" target="_top" xlink:title="1">
<text text-anchor="middle" x="122.6" y="-62.77" font-family="Helvetica,sans-Serif" font-size="10.00">1</text>
</a>
</g>
</g>
<!-- dir_68267d1309a1af8e8297ef4c3efbcdba&#45;&gt;dir_0ef0e180e5ad722e331acc662d4db775 -->
<g id="edge1" class="edge">
<title>dir_68267d1309a1af8e8297ef4c3efbcdba&#45;&gt;dir_0ef0e180e5ad722e331acc662d4db775</title>
<path fill="none" stroke="black" d="M293.78,-34C259.33,-34 224.88,-34 190.44,-34"/>
<polygon fill="black" stroke="black" points="190.23,-30.5 180.23,-34 190.23,-37.5 190.23,-30.5"/>
<g id="a_edge1&#45;headlabel"><a xlink:href="dir_000013_000011.html" target="_top" xlink:title="5">
<text text-anchor="middle" x="193.83" y="-25.16" font-family="Helvetica,sans-Serif" font-size="10.00">5</text>
</a>
</g>
</g>
</g>
</svg>
