<?xml version="1.0" encoding="UTF-8" standalone="no"?>
<!DOCTYPE svg PUBLIC "-//W3C//DTD SVG 1.1//EN"
 "http://www.w3.org/Graphics/SVG/1.1/DTD/svg11.dtd">
<!-- Generated by graphviz version 2.43.0 (0)
 -->
<!-- Title: datalogger Pages: 1 -->
<svg width="110pt" height="167pt"
 viewBox="0.00 0.00 110.00 167.00" xmlns="http://www.w3.org/2000/svg" xmlns:xlink="http://www.w3.org/1999/xlink">
<g id="graph0" class="graph" transform="scale(1 1) rotate(0) translate(4 163)">
<title>datalogger</title>
<polygon fill="white" stroke="transparent" points="-4,4 -4,-163 106,-163 106,4 -4,4"/>
<g id="clust1" class="cluster">
<title>clusterdir_97aefd0d527b934f1d99a682da8fe6a9</title>
<g id="a_clust1"><a xlink:href="dir_97aefd0d527b934f1d99a682da8fe6a9.html" target="_top" xlink:title="lib">
<polygon fill="#ddddee" stroke="black" points="8,-8 8,-151 94,-151 94,-8 8,-8"/>
<text text-anchor="middle" x="51" y="-139" font-family="Helvetica,sans-Serif" font-size="10.00">lib</text>
</a>
</g>
</g>
<!-- dir_660fa42b9e3230345806bc0b6602f61f -->
<g id="node1" class="node">
<title>dir_660fa42b9e3230345806bc0b6602f61f</title>
<g id="a_node1"><a xlink:href="dir_660fa42b9e3230345806bc0b6602f61f.html" target="_top" xlink:title="Wocket">
<polygon fill="white" stroke="red" points="78,-52 24,-52 24,-16 78,-16 78,-52"/>
<text text-anchor="middle" x="51" y="-31.5" font-family="Helvetica,sans-Serif" font-size="10.00">Wocket</text>
</a>
</g>
</g>
<!-- dir_dc6f1320b3047e255d656d6e0e55f6d5 -->
<g id="node2" class="node">
<title>dir_dc6f1320b3047e255d656d6e0e55f6d5</title>
<g id="a_node2"><a xlink:href="dir_dc6f1320b3047e255d656d6e0e55f6d5.html" target="_top" xlink:title="datalogger">
<polygon fill="#eeeeff" stroke="black" points="85.5,-124 16.5,-124 16.5,-88 85.5,-88 85.5,-124"/>
<text text-anchor="middle" x="51" y="-103.5" font-family="Helvetica,sans-Serif" font-size="10.00">datalogger</text>
</a>
</g>
</g>
<!-- dir_dc6f1320b3047e255d656d6e0e55f6d5&#45;&gt;dir_660fa42b9e3230345806bc0b6602f61f -->
<g id="edge1" class="edge">
<title>dir_dc6f1320b3047e255d656d6e0e55f6d5&#45;&gt;dir_660fa42b9e3230345806bc0b6602f61f</title>
<path fill="none" stroke="black" d="M51,-87.7C51,-79.98 51,-70.71 51,-62.11"/>
<polygon fill="black" stroke="black" points="54.5,-62.1 51,-52.1 47.5,-62.1 54.5,-62.1"/>
<g id="a_edge1&#45;headlabel"><a xlink:href="dir_000013_000001.html" target="_top" xlink:title="1">
<text text-anchor="middle" x="57.34" y="-63.2" font-family="Helvetica,sans-Serif" font-size="10.00">1</text>
</a>
</g>
</g>
</g>
</svg>
