<?xml version="1.0" encoding="UTF-8" standalone="no"?>
<!DOCTYPE svg PUBLIC "-//W3C//DTD SVG 1.1//EN"
 "http://www.w3.org/Graphics/SVG/1.1/DTD/svg11.dtd">
<!-- Generated by graphviz version 2.43.0 (0)
 -->
<!-- Title: Sensor Pages: 1 -->
<svg width="305pt" height="195pt"
 viewBox="0.00 0.00 305.49 195.00" xmlns="http://www.w3.org/2000/svg" xmlns:xlink="http://www.w3.org/1999/xlink">
<g id="graph0" class="graph" transform="scale(1 1) rotate(0) translate(4 191)">
<title>Sensor</title>
<polygon fill="white" stroke="transparent" points="-4,4 -4,-191 301.49,-191 301.49,4 -4,4"/>
<g id="clust1" class="cluster">
<title>clusterdir_660fa42b9e3230345806bc0b6602f61f</title>
<g id="a_clust1"><a xlink:href="dir_660fa42b9e3230345806bc0b6602f61f.html" target="_top" xlink:title="Wocket">
<polygon fill="#ddddee" stroke="black" points="8,-56 8,-143 286,-143 286,-56 8,-56"/>
<text text-anchor="middle" x="147" y="-131" font-family="Helvetica,sans-Serif" font-size="10.00">Wocket</text>
</a>
</g>
</g>
<g id="clust2" class="cluster">
<title>clusterdir_21461704387a3e1b07b2b703bb5fc08b</title>
<g id="a_clust2"><a xlink:href="dir_21461704387a3e1b07b2b703bb5fc08b.html" target="_top">
<polygon fill="#eeeeff" stroke="black" points="16,-64 16,-116 278,-116 278,-64 16,-64"/>
</a>
</g>
</g>
<!-- dir_21461704387a3e1b07b2b703bb5fc08b -->
<g id="node1" class="node">
<title>dir_21461704387a3e1b07b2b703bb5fc08b</title>
<text text-anchor="middle" x="243" y="-87.5" font-family="Helvetica,sans-Serif" font-size="10.00">Sensor</text>
</g>
<!-- dir_3c9caf8b91afc606295fedaa2bdfb269 -->
<g id="node2" class="node">
<title>dir_3c9caf8b91afc606295fedaa2bdfb269</title>
<g id="a_node2"><a xlink:href="dir_3c9caf8b91afc606295fedaa2bdfb269.html" target="_top" xlink:title="Accelerometer">
<polygon fill="white" stroke="red" points="198,-108 110,-108 110,-72 198,-72 198,-108"/>
<text text-anchor="middle" x="154" y="-87.5" font-family="Helvetica,sans-Serif" font-size="10.00">Accelerometer</text>
</a>
</g>
</g>
<!-- dir_68267d1309a1af8e8297ef4c3efbcdba -->
<g id="node4" class="node">
<title>dir_68267d1309a1af8e8297ef4c3efbcdba</title>
<g id="a_node4"><a xlink:href="dir_68267d1309a1af8e8297ef4c3efbcdba.html" target="_top" xlink:title="src">
<polygon fill="none" stroke="black" points="270,-187 216,-187 216,-151 270,-151 270,-187"/>
<text text-anchor="middle" x="243" y="-166.5" font-family="Helvetica,sans-Serif" font-size="10.00">src</text>
</a>
</g>
</g>
<!-- dir_3c9caf8b91afc606295fedaa2bdfb269&#45;&gt;dir_68267d1309a1af8e8297ef4c3efbcdba -->
<g id="edge4" class="edge">
<title>dir_3c9caf8b91afc606295fedaa2bdfb269&#45;&gt;dir_68267d1309a1af8e8297ef4c3efbcdba</title>
<path fill="none" stroke="black" d="M162.27,-108.14C171.21,-118.66 184.89,-132.15 198,-143 200.86,-145.37 203.95,-147.75 207.12,-150.04"/>
<polygon fill="black" stroke="black" points="205.43,-153.12 215.66,-155.86 209.37,-147.34 205.43,-153.12"/>
<g id="a_edge4&#45;headlabel"><a xlink:href="dir_000003_000007.html" target="_top" xlink:title="1">
<text text-anchor="middle" x="200.86" y="-150.95" font-family="Helvetica,sans-Serif" font-size="10.00">1</text>
</a>
</g>
</g>
<!-- dir_ec5f3ddd5ff97f67ccd56a055db374ab -->
<g id="node3" class="node">
<title>dir_ec5f3ddd5ff97f67ccd56a055db374ab</title>
<g id="a_node3"><a xlink:href="dir_ec5f3ddd5ff97f67ccd56a055db374ab.html" target="_top" xlink:title="Barometer">
<polygon fill="white" stroke="black" points="92,-108 24,-108 24,-72 92,-72 92,-108"/>
<text text-anchor="middle" x="58" y="-87.5" font-family="Helvetica,sans-Serif" font-size="10.00">Barometer</text>
</a>
</g>
</g>
<!-- dir_e31664174edb9b3ff23db8a31f057636 -->
<g id="node5" class="node">
<title>dir_e31664174edb9b3ff23db8a31f057636</title>
<g id="a_node5"><a xlink:href="dir_e31664174edb9b3ff23db8a31f057636.html" target="_top" xlink:title="kalman">
<polygon fill="none" stroke="black" points="208,-36 154,-36 154,0 208,0 208,-36"/>
<text text-anchor="middle" x="181" y="-15.5" font-family="Helvetica,sans-Serif" font-size="10.00">kalman</text>
</a>
</g>
</g>
<!-- dir_ec5f3ddd5ff97f67ccd56a055db374ab&#45;&gt;dir_e31664174edb9b3ff23db8a31f057636 -->
<g id="edge5" class="edge">
<title>dir_ec5f3ddd5ff97f67ccd56a055db374ab&#45;&gt;dir_e31664174edb9b3ff23db8a31f057636</title>
<path fill="none" stroke="black" d="M78.34,-71.92C85.29,-66.48 93.27,-60.67 101,-56 114.72,-47.7 130.62,-39.99 144.61,-33.79"/>
<polygon fill="black" stroke="black" points="146.16,-36.93 153.94,-29.74 143.37,-30.51 146.16,-36.93"/>
<g id="a_edge5&#45;headlabel"><a xlink:href="dir_000005_000014.html" target="_top" xlink:title="1">
<text text-anchor="middle" x="143.99" y="-38.47" font-family="Helvetica,sans-Serif" font-size="10.00">1</text>
</a>
</g>
</g>
<!-- dir_68267d1309a1af8e8297ef4c3efbcdba&#45;&gt;dir_21461704387a3e1b07b2b703bb5fc08b -->
<g id="edge1" class="edge">
<title>dir_68267d1309a1af8e8297ef4c3efbcdba&#45;&gt;dir_21461704387a3e1b07b2b703bb5fc08b</title>
<path fill="none" stroke="black" d="M243,-150.91C243,-141.34 243,-129.18 243,-118.32"/>
<polygon fill="black" stroke="black" points="246.5,-118.04 243,-108.04 239.5,-118.04 246.5,-118.04"/>
<g id="a_edge1&#45;headlabel"><a xlink:href="dir_000007_000002.html" target="_top" xlink:title="1">
<text text-anchor="middle" x="249.34" y="-119.14" font-family="Helvetica,sans-Serif" font-size="10.00">1</text>
</a>
</g>
</g>
<!-- dir_68267d1309a1af8e8297ef4c3efbcdba&#45;&gt;dir_3c9caf8b91afc606295fedaa2bdfb269 -->
<g id="edge2" class="edge">
<title>dir_68267d1309a1af8e8297ef4c3efbcdba&#45;&gt;dir_3c9caf8b91afc606295fedaa2bdfb269</title>
<path fill="none" stroke="black" d="M225.96,-150.76C222.6,-148.25 219.17,-145.62 216,-143 205.66,-134.44 194.96,-124.24 185.3,-115.15"/>
<polygon fill="black" stroke="black" points="187.5,-112.41 177.8,-108.14 182.72,-117.53 187.5,-112.41"/>
<g id="a_edge2&#45;headlabel"><a xlink:href="dir_000007_000003.html" target="_top" xlink:title="1">
<text text-anchor="middle" x="192.06" y="-110.29" font-family="Helvetica,sans-Serif" font-size="10.00">1</text>
</a>
</g>
</g>
<!-- dir_68267d1309a1af8e8297ef4c3efbcdba&#45;&gt;dir_e31664174edb9b3ff23db8a31f057636 -->
<g id="edge3" class="edge">
<title>dir_68267d1309a1af8e8297ef4c3efbcdba&#45;&gt;dir_e31664174edb9b3ff23db8a31f057636</title>
<path fill="none" stroke="black" d="M270.17,-155.69C274.92,-152.28 279.22,-148.08 282,-143 300.55,-109.07 304.15,-87.7 282,-56 267.62,-35.42 240.5,-26.25 217.98,-22.19"/>
<polygon fill="black" stroke="black" points="218.43,-18.71 208.02,-20.65 217.37,-25.63 218.43,-18.71"/>
<g id="a_edge3&#45;headlabel"><a xlink:href="dir_000007_000014.html" target="_top" xlink:title="1">
<text text-anchor="middle" x="222.42" y="-13.96" font-family="Helvetica,sans-Serif" font-size="10.00">1</text>
</a>
</g>
</g>
</g>
</svg>
