<?xml version="1.0" encoding="UTF-8" standalone="no"?>
<!DOCTYPE svg PUBLIC "-//W3C//DTD SVG 1.1//EN"
 "http://www.w3.org/Graphics/SVG/1.1/DTD/svg11.dtd">
<!-- Generated by graphviz version 2.43.0 (0)
 -->
<!-- Title: components Pages: 1 -->
<svg width="206pt" height="147pt"
 viewBox="0.00 0.00 206.00 147.00" xmlns="http://www.w3.org/2000/svg" xmlns:xlink="http://www.w3.org/1999/xlink">
<g id="graph0" class="graph" transform="scale(1 1) rotate(0) translate(4 143)">
<title>components</title>
<polygon fill="white" stroke="transparent" points="-4,4 -4,-143 202,-143 202,4 -4,4"/>
<g id="clust1" class="cluster">
<title>clusterdir_97aefd0d527b934f1d99a682da8fe6a9</title>
<g id="a_clust1"><a xlink:href="dir_97aefd0d527b934f1d99a682da8fe6a9.html" target="_top" xlink:title="lib">
<polygon fill="#ddddee" stroke="black" points="8,-8 8,-95 190,-95 190,-8 8,-8"/>
<text text-anchor="middle" x="99" y="-83" font-family="Helvetica,sans-Serif" font-size="10.00">lib</text>
</a>
</g>
</g>
<g id="clust2" class="cluster">
<title>clusterdir_493ca209223fc47b4c316544d4be99c8</title>
<g id="a_clust2"><a xlink:href="dir_493ca209223fc47b4c316544d4be99c8.html" target="_top">
<polygon fill="#eeeeff" stroke="black" points="16,-16 16,-68 182,-68 182,-16 16,-16"/>
</a>
</g>
</g>
<!-- dir_493ca209223fc47b4c316544d4be99c8 -->
<g id="node1" class="node">
<title>dir_493ca209223fc47b4c316544d4be99c8</title>
<text text-anchor="middle" x="135" y="-39.5" font-family="Helvetica,sans-Serif" font-size="10.00">components</text>
</g>
<!-- dir_bb79ec3c53d60b6a910de1d46953a02e -->
<g id="node2" class="node">
<title>dir_bb79ec3c53d60b6a910de1d46953a02e</title>
<g id="a_node2"><a xlink:href="dir_bb79ec3c53d60b6a910de1d46953a02e.html" target="_top" xlink:title="src">
<polygon fill="white" stroke="black" points="78,-60 24,-60 24,-24 78,-24 78,-60"/>
<text text-anchor="middle" x="51" y="-39.5" font-family="Helvetica,sans-Serif" font-size="10.00">src</text>
</a>
</g>
</g>
<!-- dir_68267d1309a1af8e8297ef4c3efbcdba -->
<g id="node3" class="node">
<title>dir_68267d1309a1af8e8297ef4c3efbcdba</title>
<g id="a_node3"><a xlink:href="dir_68267d1309a1af8e8297ef4c3efbcdba.html" target="_top" xlink:title="src">
<polygon fill="none" stroke="black" points="120,-139 66,-139 66,-103 120,-103 120,-139"/>
<text text-anchor="middle" x="93" y="-118.5" font-family="Helvetica,sans-Serif" font-size="10.00">src</text>
</a>
</g>
</g>
<!-- dir_bb79ec3c53d60b6a910de1d46953a02e&#45;&gt;dir_68267d1309a1af8e8297ef4c3efbcdba -->
<g id="edge3" class="edge">
<title>dir_bb79ec3c53d60b6a910de1d46953a02e&#45;&gt;dir_68267d1309a1af8e8297ef4c3efbcdba</title>
<path fill="none" stroke="black" d="M54.58,-60.04C58.98,-70.1 65.8,-83.03 72.58,-94.31"/>
<polygon fill="black" stroke="black" points="69.69,-96.29 77.96,-102.91 75.62,-92.58 69.69,-96.29"/>
<g id="a_edge3&#45;headlabel"><a xlink:href="dir_000016_000007.html" target="_top" xlink:title="2">
<text text-anchor="middle" x="65.38" y="-92.24" font-family="Helvetica,sans-Serif" font-size="10.00">2</text>
</a>
</g>
</g>
<!-- dir_68267d1309a1af8e8297ef4c3efbcdba&#45;&gt;dir_493ca209223fc47b4c316544d4be99c8 -->
<g id="edge1" class="edge">
<title>dir_68267d1309a1af8e8297ef4c3efbcdba&#45;&gt;dir_493ca209223fc47b4c316544d4be99c8</title>
<path fill="none" stroke="black" d="M102.32,-102.91C107.76,-92.94 114.73,-80.17 120.83,-68.97"/>
<polygon fill="black" stroke="black" points="123.99,-70.5 125.7,-60.04 117.84,-67.14 123.99,-70.5"/>
<g id="a_edge1&#45;headlabel"><a xlink:href="dir_000007_000015.html" target="_top" xlink:title="4">
<text text-anchor="middle" x="124.76" y="-72.51" font-family="Helvetica,sans-Serif" font-size="10.00">4</text>
</a>
</g>
</g>
<!-- dir_68267d1309a1af8e8297ef4c3efbcdba&#45;&gt;dir_bb79ec3c53d60b6a910de1d46953a02e -->
<g id="edge2" class="edge">
<title>dir_68267d1309a1af8e8297ef4c3efbcdba&#45;&gt;dir_bb79ec3c53d60b6a910de1d46953a02e</title>
<path fill="none" stroke="black" d="M89.4,-102.91C84.99,-92.84 78.17,-79.91 71.39,-68.64"/>
<polygon fill="black" stroke="black" points="74.28,-66.66 66.01,-60.04 68.35,-70.38 74.28,-66.66"/>
<g id="a_edge2&#45;headlabel"><a xlink:href="dir_000007_000016.html" target="_top" xlink:title="4">
<text text-anchor="middle" x="78.59" y="-65.7" font-family="Helvetica,sans-Serif" font-size="10.00">4</text>
</a>
</g>
</g>
</g>
</svg>
