<?xml version="1.0" encoding="UTF-8" standalone="no"?>
<!DOCTYPE svg PUBLIC "-//W3C//DTD SVG 1.1//EN"
 "http://www.w3.org/Graphics/SVG/1.1/DTD/svg11.dtd">
<!-- Generated by graphviz version 2.43.0 (0)
 -->
<!-- Title: lib Pages: 1 -->
<svg width="525pt" height="204pt"
 viewBox="0.00 0.00 525.10 204.00" xmlns="http://www.w3.org/2000/svg" xmlns:xlink="http://www.w3.org/1999/xlink">
<g id="graph0" class="graph" transform="scale(1 1) rotate(0) translate(4 200)">
<title>lib</title>
<polygon fill="white" stroke="transparent" points="-4,4 -4,-200 521.1,-200 521.1,4 -4,4"/>
<g id="clust1" class="cluster">
<title>clusterdir_97aefd0d527b934f1d99a682da8fe6a9</title>
<g id="a_clust1"><a xlink:href="dir_97aefd0d527b934f1d99a682da8fe6a9.html" target="_top">
<polygon fill="#eeeeff" stroke="black" points="9.74,-8 9.74,-132 490.74,-132 490.74,-8 9.74,-8"/>
</a>
</g>
</g>
<!-- dir_97aefd0d527b934f1d99a682da8fe6a9 -->
<g id="node1" class="node">
<title>dir_97aefd0d527b934f1d99a682da8fe6a9</title>
<text text-anchor="middle" x="295.74" y="-103.5" font-family="Helvetica,sans-Serif" font-size="10.00">lib</text>
</g>
<!-- dir_897ab7de725cc6ace30e1fb715ec8b67 -->
<g id="node2" class="node">
<title>dir_897ab7de725cc6ace30e1fb715ec8b67</title>
<g id="a_node2"><a xlink:href="dir_897ab7de725cc6ace30e1fb715ec8b67.html" target="_top" xlink:title="CircularBuffer">
<polygon fill="white" stroke="black" points="101.24,-124 18.24,-124 18.24,-88 101.24,-88 101.24,-124"/>
<text text-anchor="middle" x="59.74" y="-103.5" font-family="Helvetica,sans-Serif" font-size="10.00">CircularBuffer</text>
</a>
</g>
</g>
<!-- dir_493ca209223fc47b4c316544d4be99c8 -->
<g id="node3" class="node">
<title>dir_493ca209223fc47b4c316544d4be99c8</title>
<g id="a_node3"><a xlink:href="dir_493ca209223fc47b4c316544d4be99c8.html" target="_top" xlink:title="components">
<polygon fill="white" stroke="red" points="410.24,-52 333.24,-52 333.24,-16 410.24,-16 410.24,-52"/>
<text text-anchor="middle" x="371.74" y="-31.5" font-family="Helvetica,sans-Serif" font-size="10.00">components</text>
</a>
</g>
</g>
<!-- dir_68267d1309a1af8e8297ef4c3efbcdba -->
<g id="node10" class="node">
<title>dir_68267d1309a1af8e8297ef4c3efbcdba</title>
<g id="a_node10"><a xlink:href="dir_68267d1309a1af8e8297ef4c3efbcdba.html" target="_top" xlink:title="src">
<polygon fill="none" stroke="black" points="402.74,-196 348.74,-196 348.74,-160 402.74,-160 402.74,-196"/>
<text text-anchor="middle" x="375.74" y="-175.5" font-family="Helvetica,sans-Serif" font-size="10.00">src</text>
</a>
</g>
</g>
<!-- dir_493ca209223fc47b4c316544d4be99c8&#45;&gt;dir_68267d1309a1af8e8297ef4c3efbcdba -->
<g id="edge7" class="edge">
<title>dir_493ca209223fc47b4c316544d4be99c8&#45;&gt;dir_68267d1309a1af8e8297ef4c3efbcdba</title>
<path fill="none" stroke="black" d="M333.19,-49.5C330.02,-50.43 326.84,-51.28 323.74,-52 255.31,-67.82 56.49,-35.58 9.74,-88 -3.27,-102.59 -3.21,-117.35 9.74,-132 31.32,-156.39 249.82,-170.44 338.57,-175.18"/>
<polygon fill="black" stroke="black" points="338.56,-178.68 348.73,-175.71 338.93,-171.69 338.56,-178.68"/>
<g id="a_edge7&#45;headlabel"><a xlink:href="dir_000015_000007.html" target="_top" xlink:title="2">
<text text-anchor="middle" x="334.82" y="-178.83" font-family="Helvetica,sans-Serif" font-size="10.00">2</text>
</a>
</g>
</g>
<!-- dir_dc6f1320b3047e255d656d6e0e55f6d5 -->
<g id="node4" class="node">
<title>dir_dc6f1320b3047e255d656d6e0e55f6d5</title>
<g id="a_node4"><a xlink:href="dir_dc6f1320b3047e255d656d6e0e55f6d5.html" target="_top" xlink:title="datalogger">
<polygon fill="white" stroke="black" points="410.24,-124 341.24,-124 341.24,-88 410.24,-88 410.24,-124"/>
<text text-anchor="middle" x="375.74" y="-103.5" font-family="Helvetica,sans-Serif" font-size="10.00">datalogger</text>
</a>
</g>
</g>
<!-- dir_158140ff656f78de6c470107cebb8f00 -->
<g id="node8" class="node">
<title>dir_158140ff656f78de6c470107cebb8f00</title>
<g id="a_node8"><a xlink:href="dir_158140ff656f78de6c470107cebb8f00.html" target="_top" xlink:title="util">
<polygon fill="white" stroke="black" points="314.74,-52 260.74,-52 260.74,-16 314.74,-16 314.74,-52"/>
<text text-anchor="middle" x="287.74" y="-31.5" font-family="Helvetica,sans-Serif" font-size="10.00">util</text>
</a>
</g>
</g>
<!-- dir_dc6f1320b3047e255d656d6e0e55f6d5&#45;&gt;dir_158140ff656f78de6c470107cebb8f00 -->
<g id="edge8" class="edge">
<title>dir_dc6f1320b3047e255d656d6e0e55f6d5&#45;&gt;dir_158140ff656f78de6c470107cebb8f00</title>
<path fill="none" stroke="black" d="M353.99,-87.7C342.91,-78.88 329.27,-68.03 317.25,-58.47"/>
<polygon fill="black" stroke="black" points="319.25,-55.59 309.25,-52.1 314.89,-61.07 319.25,-55.59"/>
<g id="a_edge8&#45;headlabel"><a xlink:href="dir_000009_000010.html" target="_top" xlink:title="1">
<text text-anchor="middle" x="323.83" y="-53.11" font-family="Helvetica,sans-Serif" font-size="10.00">1</text>
</a>
</g>
</g>
<!-- dir_e870e4dac26de7990352b1cb7547818f -->
<g id="node5" class="node">
<title>dir_e870e4dac26de7990352b1cb7547818f</title>
<g id="a_node5"><a xlink:href="dir_e870e4dac26de7990352b1cb7547818f.html" target="_top" xlink:title="hal">
<polygon fill="white" stroke="red" points="250.74,-124 196.74,-124 196.74,-88 250.74,-88 250.74,-124"/>
<text text-anchor="middle" x="223.74" y="-103.5" font-family="Helvetica,sans-Serif" font-size="10.00">hal</text>
</a>
</g>
</g>
<!-- dir_e31664174edb9b3ff23db8a31f057636 -->
<g id="node6" class="node">
<title>dir_e31664174edb9b3ff23db8a31f057636</title>
<g id="a_node6"><a xlink:href="dir_e31664174edb9b3ff23db8a31f057636.html" target="_top" xlink:title="kalman">
<polygon fill="white" stroke="black" points="482.74,-52 428.74,-52 428.74,-16 482.74,-16 482.74,-52"/>
<text text-anchor="middle" x="455.74" y="-31.5" font-family="Helvetica,sans-Serif" font-size="10.00">kalman</text>
</a>
</g>
</g>
<!-- dir_2c3e26c67e8926144e9dab970917e9f6 -->
<g id="node7" class="node">
<title>dir_2c3e26c67e8926144e9dab970917e9f6</title>
<g id="a_node7"><a xlink:href="dir_2c3e26c67e8926144e9dab970917e9f6.html" target="_top" xlink:title="platform">
<polygon fill="white" stroke="red" points="178.24,-124 119.24,-124 119.24,-88 178.24,-88 178.24,-124"/>
<text text-anchor="middle" x="148.74" y="-103.5" font-family="Helvetica,sans-Serif" font-size="10.00">platform</text>
</a>
</g>
</g>
<!-- dir_660fa42b9e3230345806bc0b6602f61f -->
<g id="node9" class="node">
<title>dir_660fa42b9e3230345806bc0b6602f61f</title>
<g id="a_node9"><a xlink:href="dir_660fa42b9e3230345806bc0b6602f61f.html" target="_top" xlink:title="Wocket">
<polygon fill="white" stroke="red" points="482.74,-124 428.74,-124 428.74,-88 482.74,-88 482.74,-124"/>
<text text-anchor="middle" x="455.74" y="-103.5" font-family="Helvetica,sans-Serif" font-size="10.00">Wocket</text>
</a>
</g>
</g>
<!-- dir_660fa42b9e3230345806bc0b6602f61f&#45;&gt;dir_493ca209223fc47b4c316544d4be99c8 -->
<g id="edge9" class="edge">
<title>dir_660fa42b9e3230345806bc0b6602f61f&#45;&gt;dir_493ca209223fc47b4c316544d4be99c8</title>
<path fill="none" stroke="black" d="M434.98,-87.7C424.5,-78.97 411.63,-68.24 400.24,-58.75"/>
<polygon fill="black" stroke="black" points="402.19,-55.82 392.27,-52.1 397.71,-61.19 402.19,-55.82"/>
<g id="a_edge9&#45;headlabel"><a xlink:href="dir_000001_000015.html" target="_top" xlink:title="3">
<text text-anchor="middle" x="406.77" y="-53.44" font-family="Helvetica,sans-Serif" font-size="10.00">3</text>
</a>
</g>
</g>
<!-- dir_660fa42b9e3230345806bc0b6602f61f&#45;&gt;dir_e31664174edb9b3ff23db8a31f057636 -->
<g id="edge11" class="edge">
<title>dir_660fa42b9e3230345806bc0b6602f61f&#45;&gt;dir_e31664174edb9b3ff23db8a31f057636</title>
<path fill="none" stroke="black" d="M455.74,-87.7C455.74,-79.98 455.74,-70.71 455.74,-62.11"/>
<polygon fill="black" stroke="black" points="459.24,-62.1 455.74,-52.1 452.24,-62.1 459.24,-62.1"/>
<g id="a_edge11&#45;headlabel"><a xlink:href="dir_000001_000014.html" target="_top" xlink:title="2">
<text text-anchor="middle" x="462.08" y="-63.2" font-family="Helvetica,sans-Serif" font-size="10.00">2</text>
</a>
</g>
</g>
<!-- dir_660fa42b9e3230345806bc0b6602f61f&#45;&gt;dir_68267d1309a1af8e8297ef4c3efbcdba -->
<g id="edge10" class="edge">
<title>dir_660fa42b9e3230345806bc0b6602f61f&#45;&gt;dir_68267d1309a1af8e8297ef4c3efbcdba</title>
<path fill="none" stroke="black" d="M430.3,-124.1C419.55,-132.72 407.25,-143.32 396.99,-152.76"/>
<polygon fill="black" stroke="black" points="394.5,-150.3 389.6,-159.7 399.29,-155.4 394.5,-150.3"/>
<g id="a_edge10&#45;headlabel"><a xlink:href="dir_000001_000007.html" target="_top" xlink:title="2">
<text text-anchor="middle" x="395.17" y="-143.27" font-family="Helvetica,sans-Serif" font-size="10.00">2</text>
</a>
</g>
</g>
<!-- dir_68267d1309a1af8e8297ef4c3efbcdba&#45;&gt;dir_97aefd0d527b934f1d99a682da8fe6a9 -->
<g id="edge4" class="edge">
<title>dir_68267d1309a1af8e8297ef4c3efbcdba&#45;&gt;dir_97aefd0d527b934f1d99a682da8fe6a9</title>
<path fill="none" stroke="black" d="M355.97,-159.7C345.99,-150.97 333.73,-140.24 322.89,-130.75"/>
<polygon fill="black" stroke="black" points="325.12,-128.06 315.29,-124.1 320.51,-133.32 325.12,-128.06"/>
<g id="a_edge4&#45;headlabel"><a xlink:href="dir_000007_000000.html" target="_top" xlink:title="12">
<text text-anchor="middle" x="329.7" y="-125.79" font-family="Helvetica,sans-Serif" font-size="10.00">12</text>
</a>
</g>
</g>
<!-- dir_68267d1309a1af8e8297ef4c3efbcdba&#45;&gt;dir_897ab7de725cc6ace30e1fb715ec8b67 -->
<g id="edge3" class="edge">
<title>dir_68267d1309a1af8e8297ef4c3efbcdba&#45;&gt;dir_897ab7de725cc6ace30e1fb715ec8b67</title>
<path fill="none" stroke="black" d="M348.43,-174.96C299.67,-170.76 194.91,-159.14 110.74,-132 107.25,-130.87 103.7,-129.55 100.18,-128.1"/>
<polygon fill="black" stroke="black" points="101.55,-124.88 90.99,-124.06 98.73,-131.29 101.55,-124.88"/>
<g id="a_edge3&#45;headlabel"><a xlink:href="dir_000007_000008.html" target="_top" xlink:title="1">
<text text-anchor="middle" x="105.98" y="-121.23" font-family="Helvetica,sans-Serif" font-size="10.00">1</text>
</a>
</g>
</g>
<!-- dir_68267d1309a1af8e8297ef4c3efbcdba&#45;&gt;dir_493ca209223fc47b4c316544d4be99c8 -->
<g id="edge1" class="edge">
<title>dir_68267d1309a1af8e8297ef4c3efbcdba&#45;&gt;dir_493ca209223fc47b4c316544d4be99c8</title>
<path fill="none" stroke="black" d="M402.93,-174.97C430.52,-171.29 471.91,-160.96 491.74,-132 502.79,-115.86 502.42,-104.38 491.74,-88 487.36,-81.28 451.44,-65.9 420.03,-53.43"/>
<polygon fill="black" stroke="black" points="421.06,-50.07 410.47,-49.66 418.49,-56.58 421.06,-50.07"/>
<g id="a_edge1&#45;headlabel"><a xlink:href="dir_000007_000015.html" target="_top" xlink:title="4">
<text text-anchor="middle" x="425.44" y="-46.24" font-family="Helvetica,sans-Serif" font-size="10.00">4</text>
</a>
</g>
</g>
<!-- dir_68267d1309a1af8e8297ef4c3efbcdba&#45;&gt;dir_dc6f1320b3047e255d656d6e0e55f6d5 -->
<g id="edge5" class="edge">
<title>dir_68267d1309a1af8e8297ef4c3efbcdba&#45;&gt;dir_dc6f1320b3047e255d656d6e0e55f6d5</title>
<path fill="none" stroke="black" d="M375.74,-159.7C375.74,-151.98 375.74,-142.71 375.74,-134.11"/>
<polygon fill="black" stroke="black" points="379.24,-134.1 375.74,-124.1 372.24,-134.1 379.24,-134.1"/>
<g id="a_edge5&#45;headlabel"><a xlink:href="dir_000007_000009.html" target="_top" xlink:title="1">
<text text-anchor="middle" x="382.08" y="-135.2" font-family="Helvetica,sans-Serif" font-size="10.00">1</text>
</a>
</g>
</g>
<!-- dir_68267d1309a1af8e8297ef4c3efbcdba&#45;&gt;dir_e31664174edb9b3ff23db8a31f057636 -->
<g id="edge6" class="edge">
<title>dir_68267d1309a1af8e8297ef4c3efbcdba&#45;&gt;dir_e31664174edb9b3ff23db8a31f057636</title>
<path fill="none" stroke="black" d="M402.98,-176.63C434.59,-174.55 485.46,-165.77 509.74,-132 521.16,-116.12 517.31,-106.03 509.74,-88 505.1,-76.95 496.91,-67.04 488.28,-58.86"/>
<polygon fill="black" stroke="black" points="490.48,-56.14 480.67,-52.14 485.85,-61.38 490.48,-56.14"/>
<g id="a_edge6&#45;headlabel"><a xlink:href="dir_000007_000014.html" target="_top" xlink:title="1">
<text text-anchor="middle" x="495.06" y="-53.89" font-family="Helvetica,sans-Serif" font-size="10.00">1</text>
</a>
</g>
</g>
<!-- dir_68267d1309a1af8e8297ef4c3efbcdba&#45;&gt;dir_660fa42b9e3230345806bc0b6602f61f -->
<g id="edge2" class="edge">
<title>dir_68267d1309a1af8e8297ef4c3efbcdba&#45;&gt;dir_660fa42b9e3230345806bc0b6602f61f</title>
<path fill="none" stroke="black" d="M401.43,-159.7C412.21,-151.05 424.5,-140.45 434.73,-131.03"/>
<polygon fill="black" stroke="black" points="437.2,-133.5 442.09,-124.1 432.41,-128.41 437.2,-133.5"/>
<g id="a_edge2&#45;headlabel"><a xlink:href="dir_000007_000001.html" target="_top" xlink:title="5">
<text text-anchor="middle" x="436.53" y="-135.54" font-family="Helvetica,sans-Serif" font-size="10.00">5</text>
</a>
</g>
</g>
</g>
</svg>
