<?xml version="1.0" encoding="UTF-8" standalone="no"?>
<!DOCTYPE svg PUBLIC "-//W3C//DTD SVG 1.1//EN"
 "http://www.w3.org/Graphics/SVG/1.1/DTD/svg11.dtd">
<!-- Generated by graphviz version 2.43.0 (0)
 -->
<!-- Title: Wocket Pages: 1 -->
<svg width="242pt" height="327pt"
 viewBox="0.00 0.00 242.00 327.00" xmlns="http://www.w3.org/2000/svg" xmlns:xlink="http://www.w3.org/1999/xlink">
<g id="graph0" class="graph" transform="scale(1 1) rotate(0) translate(4 323)">
<title>Wocket</title>
<polygon fill="white" stroke="transparent" points="-4,4 -4,-323 238,-323 238,4 -4,4"/>
<g id="clust1" class="cluster">
<title>clusterdir_97aefd0d527b934f1d99a682da8fe6a9</title>
<g id="a_clust1"><a xlink:href="dir_97aefd0d527b934f1d99a682da8fe6a9.html" target="_top" xlink:title="lib">
<polygon fill="#ddddee" stroke="black" points="8,-8 8,-311 172,-311 172,-8 8,-8"/>
<text text-anchor="middle" x="90" y="-299" font-family="Helvetica,sans-Serif" font-size="10.00">lib</text>
</a>
</g>
</g>
<g id="clust2" class="cluster">
<title>clusterdir_660fa42b9e3230345806bc0b6602f61f</title>
<g id="a_clust2"><a xlink:href="dir_660fa42b9e3230345806bc0b6602f61f.html" target="_top">
<polygon fill="#eeeeff" stroke="black" points="16,-16 16,-284 164,-284 164,-16 16,-16"/>
</a>
</g>
</g>
<!-- dir_660fa42b9e3230345806bc0b6602f61f -->
<g id="node1" class="node">
<title>dir_660fa42b9e3230345806bc0b6602f61f</title>
<text text-anchor="middle" x="129" y="-255.5" font-family="Helvetica,sans-Serif" font-size="10.00">Wocket</text>
</g>
<!-- dir_ca18b5d26a08dd1547acb9ac772ee217 -->
<g id="node2" class="node">
<title>dir_ca18b5d26a08dd1547acb9ac772ee217</title>
<g id="a_node2"><a xlink:href="dir_ca18b5d26a08dd1547acb9ac772ee217.html" target="_top" xlink:title="Hardware">
<polygon fill="white" stroke="red" points="143,-204 79,-204 79,-168 143,-168 143,-204"/>
<text text-anchor="middle" x="111" y="-183.5" font-family="Helvetica,sans-Serif" font-size="10.00">Hardware</text>
</a>
</g>
</g>
<!-- dir_21461704387a3e1b07b2b703bb5fc08b -->
<g id="node5" class="node">
<title>dir_21461704387a3e1b07b2b703bb5fc08b</title>
<g id="a_node5"><a xlink:href="dir_21461704387a3e1b07b2b703bb5fc08b.html" target="_top" xlink:title="Sensor">
<polygon fill="white" stroke="red" points="131,-132 77,-132 77,-96 131,-96 131,-132"/>
<text text-anchor="middle" x="104" y="-111.5" font-family="Helvetica,sans-Serif" font-size="10.00">Sensor</text>
</a>
</g>
</g>
<!-- dir_ca18b5d26a08dd1547acb9ac772ee217&#45;&gt;dir_21461704387a3e1b07b2b703bb5fc08b -->
<g id="edge1" class="edge">
<title>dir_ca18b5d26a08dd1547acb9ac772ee217&#45;&gt;dir_21461704387a3e1b07b2b703bb5fc08b</title>
<path fill="none" stroke="black" d="M109.27,-167.7C108.5,-159.98 107.57,-150.71 106.71,-142.11"/>
<polygon fill="black" stroke="black" points="110.19,-141.71 105.71,-132.1 103.22,-142.4 110.19,-141.71"/>
<g id="a_edge1&#45;headlabel"><a xlink:href="dir_000009_000002.html" target="_top" xlink:title="1">
<text text-anchor="middle" x="113.37" y="-142.5" font-family="Helvetica,sans-Serif" font-size="10.00">1</text>
</a>
</g>
</g>
<!-- dir_68267d1309a1af8e8297ef4c3efbcdba -->
<g id="node6" class="node">
<title>dir_68267d1309a1af8e8297ef4c3efbcdba</title>
<g id="a_node6"><a xlink:href="dir_68267d1309a1af8e8297ef4c3efbcdba.html" target="_top" xlink:title="src">
<polygon fill="none" stroke="black" points="234,-132 180,-132 180,-96 234,-96 234,-132"/>
<text text-anchor="middle" x="207" y="-111.5" font-family="Helvetica,sans-Serif" font-size="10.00">src</text>
</a>
</g>
</g>
<!-- dir_ca18b5d26a08dd1547acb9ac772ee217&#45;&gt;dir_68267d1309a1af8e8297ef4c3efbcdba -->
<g id="edge2" class="edge">
<title>dir_ca18b5d26a08dd1547acb9ac772ee217&#45;&gt;dir_68267d1309a1af8e8297ef4c3efbcdba</title>
<path fill="none" stroke="black" d="M128.81,-167.7C140.83,-158.22 156.93,-146.4 171.45,-136.35"/>
<polygon fill="black" stroke="black" points="173.48,-139.2 179.77,-130.67 169.54,-133.42 173.48,-139.2"/>
<g id="a_edge2&#45;headlabel"><a xlink:href="dir_000009_000013.html" target="_top" xlink:title="2">
<text text-anchor="middle" x="172.11" y="-141.07" font-family="Helvetica,sans-Serif" font-size="10.00">2</text>
</a>
</g>
</g>
<!-- dir_0ef0e180e5ad722e331acc662d4db775 -->
<g id="node3" class="node">
<title>dir_0ef0e180e5ad722e331acc662d4db775</title>
<g id="a_node3"><a xlink:href="dir_0ef0e180e5ad722e331acc662d4db775.html" target="_top" xlink:title="Kernel">
<polygon fill="white" stroke="red" points="156,-60 102,-60 102,-24 156,-24 156,-60"/>
<text text-anchor="middle" x="129" y="-39.5" font-family="Helvetica,sans-Serif" font-size="10.00">Kernel</text>
</a>
</g>
</g>
<!-- dir_0ef0e180e5ad722e331acc662d4db775&#45;&gt;dir_ca18b5d26a08dd1547acb9ac772ee217 -->
<g id="edge8" class="edge">
<title>dir_0ef0e180e5ad722e331acc662d4db775&#45;&gt;dir_ca18b5d26a08dd1547acb9ac772ee217</title>
<path fill="none" stroke="black" d="M134.89,-60.3C140.18,-78.41 146.25,-107.56 140,-132 137.62,-141.3 133.24,-150.73 128.58,-159"/>
<polygon fill="black" stroke="black" points="125.46,-157.41 123.31,-167.78 131.46,-161.01 125.46,-157.41"/>
<g id="a_edge8&#45;headlabel"><a xlink:href="dir_000011_000009.html" target="_top" xlink:title="3">
<text text-anchor="middle" x="124.87" y="-150.37" font-family="Helvetica,sans-Serif" font-size="10.00">3</text>
</a>
</g>
</g>
<!-- dir_adfc8f0c7b158e7578b58661775dac5f -->
<g id="node4" class="node">
<title>dir_adfc8f0c7b158e7578b58661775dac5f</title>
<g id="a_node4"><a xlink:href="dir_adfc8f0c7b158e7578b58661775dac5f.html" target="_top" xlink:title="Platform">
<polygon fill="white" stroke="red" points="83.5,-276 24.5,-276 24.5,-240 83.5,-240 83.5,-276"/>
<text text-anchor="middle" x="54" y="-255.5" font-family="Helvetica,sans-Serif" font-size="10.00">Platform</text>
</a>
</g>
</g>
<!-- dir_adfc8f0c7b158e7578b58661775dac5f&#45;&gt;dir_ca18b5d26a08dd1547acb9ac772ee217 -->
<g id="edge7" class="edge">
<title>dir_adfc8f0c7b158e7578b58661775dac5f&#45;&gt;dir_ca18b5d26a08dd1547acb9ac772ee217</title>
<path fill="none" stroke="black" d="M68.09,-239.7C74.92,-231.3 83.26,-221.07 90.76,-211.86"/>
<polygon fill="black" stroke="black" points="93.47,-214.07 97.07,-204.1 88.04,-209.65 93.47,-214.07"/>
<g id="a_edge7&#45;headlabel"><a xlink:href="dir_000005_000009.html" target="_top" xlink:title="2">
<text text-anchor="middle" x="93.4" y="-216.15" font-family="Helvetica,sans-Serif" font-size="10.00">2</text>
</a>
</g>
</g>
<!-- dir_adfc8f0c7b158e7578b58661775dac5f&#45;&gt;dir_21461704387a3e1b07b2b703bb5fc08b -->
<g id="edge6" class="edge">
<title>dir_adfc8f0c7b158e7578b58661775dac5f&#45;&gt;dir_21461704387a3e1b07b2b703bb5fc08b</title>
<path fill="none" stroke="black" d="M55.1,-239.73C56.72,-221.39 60.65,-191.82 70,-168 73.74,-158.48 79.28,-148.85 84.81,-140.45"/>
<polygon fill="black" stroke="black" points="87.7,-142.42 90.5,-132.2 81.94,-138.45 87.7,-142.42"/>
<g id="a_edge6&#45;headlabel"><a xlink:href="dir_000005_000002.html" target="_top" xlink:title="2">
<text text-anchor="middle" x="88" y="-144.49" font-family="Helvetica,sans-Serif" font-size="10.00">2</text>
</a>
</g>
</g>
<!-- dir_21461704387a3e1b07b2b703bb5fc08b&#45;&gt;dir_0ef0e180e5ad722e331acc662d4db775 -->
<g id="edge9" class="edge">
<title>dir_21461704387a3e1b07b2b703bb5fc08b&#45;&gt;dir_0ef0e180e5ad722e331acc662d4db775</title>
<path fill="none" stroke="black" d="M110.18,-95.7C113,-87.81 116.39,-78.3 119.52,-69.55"/>
<polygon fill="black" stroke="black" points="122.82,-70.7 122.89,-60.1 116.23,-68.34 122.82,-70.7"/>
<g id="a_edge9&#45;headlabel"><a xlink:href="dir_000002_000011.html" target="_top" xlink:title="1">
<text text-anchor="middle" x="124.29" y="-72.54" font-family="Helvetica,sans-Serif" font-size="10.00">1</text>
</a>
</g>
</g>
<!-- dir_21461704387a3e1b07b2b703bb5fc08b&#45;&gt;dir_68267d1309a1af8e8297ef4c3efbcdba -->
<g id="edge10" class="edge">
<title>dir_21461704387a3e1b07b2b703bb5fc08b&#45;&gt;dir_68267d1309a1af8e8297ef4c3efbcdba</title>
<path fill="none" stroke="black" d="M131.36,-114C144.1,-114 156.85,-114 169.6,-114"/>
<polygon fill="black" stroke="black" points="169.82,-117.5 179.82,-114 169.82,-110.5 169.82,-117.5"/>
<g id="a_edge10&#45;headlabel"><a xlink:href="dir_000002_000013.html" target="_top" xlink:title="1">
<text text-anchor="middle" x="166.22" y="-117.84" font-family="Helvetica,sans-Serif" font-size="10.00">1</text>
</a>
</g>
</g>
<!-- dir_68267d1309a1af8e8297ef4c3efbcdba&#45;&gt;dir_660fa42b9e3230345806bc0b6602f61f -->
<g id="edge4" class="edge">
<title>dir_68267d1309a1af8e8297ef4c3efbcdba&#45;&gt;dir_660fa42b9e3230345806bc0b6602f61f</title>
<path fill="none" stroke="black" d="M197.56,-132.19C184.07,-156.74 159.17,-202.07 143.38,-230.81"/>
<polygon fill="black" stroke="black" points="140.16,-229.42 138.41,-239.87 146.29,-232.79 140.16,-229.42"/>
<g id="a_edge4&#45;headlabel"><a xlink:href="dir_000013_000001.html" target="_top" xlink:title="10">
<text text-anchor="middle" x="139.4" y="-222.4" font-family="Helvetica,sans-Serif" font-size="10.00">10</text>
</a>
</g>
</g>
<!-- dir_68267d1309a1af8e8297ef4c3efbcdba&#45;&gt;dir_ca18b5d26a08dd1547acb9ac772ee217 -->
<g id="edge5" class="edge">
<title>dir_68267d1309a1af8e8297ef4c3efbcdba&#45;&gt;dir_ca18b5d26a08dd1547acb9ac772ee217</title>
<path fill="none" stroke="black" d="M189.33,-132.19C177.93,-141.18 162.82,-152.32 148.87,-162.04"/>
<polygon fill="black" stroke="black" points="146.64,-159.33 140.38,-167.88 150.6,-165.09 146.64,-159.33"/>
<g id="a_edge5&#45;headlabel"><a xlink:href="dir_000013_000009.html" target="_top" xlink:title="5">
<text text-anchor="middle" x="147.99" y="-152.45" font-family="Helvetica,sans-Serif" font-size="10.00">5</text>
</a>
</g>
</g>
<!-- dir_68267d1309a1af8e8297ef4c3efbcdba&#45;&gt;dir_0ef0e180e5ad722e331acc662d4db775 -->
<g id="edge3" class="edge">
<title>dir_68267d1309a1af8e8297ef4c3efbcdba&#45;&gt;dir_0ef0e180e5ad722e331acc662d4db775</title>
<path fill="none" stroke="black" d="M187.72,-95.7C178.08,-87.05 166.27,-76.45 155.77,-67.03"/>
<polygon fill="black" stroke="black" points="157.84,-64.18 148.06,-60.1 153.16,-69.39 157.84,-64.18"/>
<g id="a_edge3&#45;headlabel"><a xlink:href="dir_000013_000011.html" target="_top" xlink:title="5">
<text text-anchor="middle" x="162.41" y="-61.97" font-family="Helvetica,sans-Serif" font-size="10.00">5</text>
</a>
</g>
</g>
</g>
</svg>
