<?xml version="1.0" encoding="UTF-8" standalone="no"?>
<!DOCTYPE svg PUBLIC "-//W3C//DTD SVG 1.1//EN"
 "http://www.w3.org/Graphics/SVG/1.1/DTD/svg11.dtd">
<!-- Generated by graphviz version 2.43.0 (0)
 -->
<!-- Title: Wocket Pages: 1 -->
<svg width="314pt" height="340pt"
 viewBox="0.00 0.00 314.00 339.59" xmlns="http://www.w3.org/2000/svg" xmlns:xlink="http://www.w3.org/1999/xlink">
<g id="graph0" class="graph" transform="scale(1 1) rotate(0) translate(4 335.59)">
<title>Wocket</title>
<polygon fill="white" stroke="transparent" points="-4,4 -4,-335.59 310,-335.59 310,4 -4,4"/>
<g id="clust1" class="cluster">
<title>clusterdir_97aefd0d527b934f1d99a682da8fe6a9</title>
<g id="a_clust1"><a xlink:href="dir_97aefd0d527b934f1d99a682da8fe6a9.html" target="_top" xlink:title="lib">
<polygon fill="#ddddee" stroke="black" points="8,-8 8,-303 244,-303 244,-8 8,-8"/>
<text text-anchor="middle" x="126" y="-291" font-family="Helvetica,sans-Serif" font-size="10.00">lib</text>
</a>
</g>
</g>
<g id="clust2" class="cluster">
<title>clusterdir_660fa42b9e3230345806bc0b6602f61f</title>
<g id="a_clust2"><a xlink:href="dir_660fa42b9e3230345806bc0b6602f61f.html" target="_top">
<polygon fill="#eeeeff" stroke="black" points="16,-80 16,-276 236,-276 236,-80 16,-80"/>
</a>
</g>
</g>
<!-- dir_e31664174edb9b3ff23db8a31f057636 -->
<g id="node1" class="node">
<title>dir_e31664174edb9b3ff23db8a31f057636</title>
<g id="a_node1"><a xlink:href="dir_e31664174edb9b3ff23db8a31f057636.html" target="_top" xlink:title="kalman">
<polygon fill="none" stroke="black" points="204,-52 150,-52 150,-16 204,-16 204,-52"/>
<text text-anchor="middle" x="177" y="-31.5" font-family="Helvetica,sans-Serif" font-size="10.00">kalman</text>
</a>
</g>
</g>
<!-- dir_660fa42b9e3230345806bc0b6602f61f -->
<g id="node2" class="node">
<title>dir_660fa42b9e3230345806bc0b6602f61f</title>
<text text-anchor="middle" x="201" y="-247.5" font-family="Helvetica,sans-Serif" font-size="10.00">Wocket</text>
</g>
<!-- dir_ca18b5d26a08dd1547acb9ac772ee217 -->
<g id="node3" class="node">
<title>dir_ca18b5d26a08dd1547acb9ac772ee217</title>
<g id="a_node3"><a xlink:href="dir_ca18b5d26a08dd1547acb9ac772ee217.html" target="_top" xlink:title="Hardware">
<polygon fill="white" stroke="red" points="209,-196 145,-196 145,-160 209,-160 209,-196"/>
<text text-anchor="middle" x="177" y="-175.5" font-family="Helvetica,sans-Serif" font-size="10.00">Hardware</text>
</a>
</g>
</g>
<!-- dir_21461704387a3e1b07b2b703bb5fc08b -->
<g id="node6" class="node">
<title>dir_21461704387a3e1b07b2b703bb5fc08b</title>
<g id="a_node6"><a xlink:href="dir_21461704387a3e1b07b2b703bb5fc08b.html" target="_top" xlink:title="Sensor">
<polygon fill="white" stroke="red" points="204,-124 150,-124 150,-88 204,-88 204,-124"/>
<text text-anchor="middle" x="177" y="-103.5" font-family="Helvetica,sans-Serif" font-size="10.00">Sensor</text>
</a>
</g>
</g>
<!-- dir_ca18b5d26a08dd1547acb9ac772ee217&#45;&gt;dir_21461704387a3e1b07b2b703bb5fc08b -->
<g id="edge1" class="edge">
<title>dir_ca18b5d26a08dd1547acb9ac772ee217&#45;&gt;dir_21461704387a3e1b07b2b703bb5fc08b</title>
<path fill="none" stroke="black" d="M177,-159.7C177,-151.98 177,-142.71 177,-134.11"/>
<polygon fill="black" stroke="black" points="180.5,-134.1 177,-124.1 173.5,-134.1 180.5,-134.1"/>
<g id="a_edge1&#45;headlabel"><a xlink:href="dir_000009_000002.html" target="_top" xlink:title="1">
<text text-anchor="middle" x="183.34" y="-135.2" font-family="Helvetica,sans-Serif" font-size="10.00">1</text>
</a>
</g>
</g>
<!-- dir_68267d1309a1af8e8297ef4c3efbcdba -->
<g id="node7" class="node">
<title>dir_68267d1309a1af8e8297ef4c3efbcdba</title>
<g id="a_node7"><a xlink:href="dir_68267d1309a1af8e8297ef4c3efbcdba.html" target="_top" xlink:title="src">
<polygon fill="none" stroke="black" points="306,-268 252,-268 252,-232 306,-232 306,-268"/>
<text text-anchor="middle" x="279" y="-247.5" font-family="Helvetica,sans-Serif" font-size="10.00">src</text>
</a>
</g>
</g>
<!-- dir_ca18b5d26a08dd1547acb9ac772ee217&#45;&gt;dir_68267d1309a1af8e8297ef4c3efbcdba -->
<g id="edge2" class="edge">
<title>dir_ca18b5d26a08dd1547acb9ac772ee217&#45;&gt;dir_68267d1309a1af8e8297ef4c3efbcdba</title>
<path fill="none" stroke="black" d="M195.94,-196.04C209.24,-205.87 227.25,-218.31 243.15,-228.65"/>
<polygon fill="black" stroke="black" points="241.43,-231.7 251.73,-234.15 245.21,-225.81 241.43,-231.7"/>
<g id="a_edge2&#45;headlabel"><a xlink:href="dir_000009_000012.html" target="_top" xlink:title="2">
<text text-anchor="middle" x="236.87" y="-229.65" font-family="Helvetica,sans-Serif" font-size="10.00">2</text>
</a>
</g>
</g>
<!-- dir_0ef0e180e5ad722e331acc662d4db775 -->
<g id="node4" class="node">
<title>dir_0ef0e180e5ad722e331acc662d4db775</title>
<g id="a_node4"><a xlink:href="dir_0ef0e180e5ad722e331acc662d4db775.html" target="_top" xlink:title="Kernel">
<polygon fill="white" stroke="black" points="78,-268 24,-268 24,-232 78,-232 78,-268"/>
<text text-anchor="middle" x="51" y="-247.5" font-family="Helvetica,sans-Serif" font-size="10.00">Kernel</text>
</a>
</g>
</g>
<!-- dir_0ef0e180e5ad722e331acc662d4db775&#45;&gt;dir_e31664174edb9b3ff23db8a31f057636 -->
<g id="edge10" class="edge">
<title>dir_0ef0e180e5ad722e331acc662d4db775&#45;&gt;dir_e31664174edb9b3ff23db8a31f057636</title>
<path fill="none" stroke="black" d="M58.94,-231.61C73.52,-200.3 106.28,-132.76 141,-80 145.31,-73.45 150.36,-66.69 155.28,-60.47"/>
<polygon fill="black" stroke="black" points="158.26,-62.35 161.85,-52.38 152.83,-57.94 158.26,-62.35"/>
<g id="a_edge10&#45;headlabel"><a xlink:href="dir_000014_000015.html" target="_top" xlink:title="1">
<text text-anchor="middle" x="158.2" y="-64.43" font-family="Helvetica,sans-Serif" font-size="10.00">1</text>
</a>
</g>
</g>
<!-- dir_0ef0e180e5ad722e331acc662d4db775&#45;&gt;dir_ca18b5d26a08dd1547acb9ac772ee217 -->
<g id="edge9" class="edge">
<title>dir_0ef0e180e5ad722e331acc662d4db775&#45;&gt;dir_ca18b5d26a08dd1547acb9ac772ee217</title>
<path fill="none" stroke="black" d="M78.03,-233.98C95.26,-224.41 117.89,-211.84 137.16,-201.14"/>
<polygon fill="black" stroke="black" points="138.98,-204.13 146.02,-196.21 135.58,-198.01 138.98,-204.13"/>
<g id="a_edge9&#45;headlabel"><a xlink:href="dir_000014_000009.html" target="_top" xlink:title="3">
<text text-anchor="middle" x="137.22" y="-205.85" font-family="Helvetica,sans-Serif" font-size="10.00">3</text>
</a>
</g>
</g>
<!-- dir_adfc8f0c7b158e7578b58661775dac5f -->
<g id="node5" class="node">
<title>dir_adfc8f0c7b158e7578b58661775dac5f</title>
<g id="a_node5"><a xlink:href="dir_adfc8f0c7b158e7578b58661775dac5f.html" target="_top" xlink:title="Platform">
<polygon fill="white" stroke="red" points="155.5,-268 96.5,-268 96.5,-232 155.5,-232 155.5,-268"/>
<text text-anchor="middle" x="126" y="-247.5" font-family="Helvetica,sans-Serif" font-size="10.00">Platform</text>
</a>
</g>
</g>
<!-- dir_adfc8f0c7b158e7578b58661775dac5f&#45;&gt;dir_ca18b5d26a08dd1547acb9ac772ee217 -->
<g id="edge8" class="edge">
<title>dir_adfc8f0c7b158e7578b58661775dac5f&#45;&gt;dir_ca18b5d26a08dd1547acb9ac772ee217</title>
<path fill="none" stroke="black" d="M138.61,-231.7C144.6,-223.47 151.88,-213.48 158.48,-204.42"/>
<polygon fill="black" stroke="black" points="161.48,-206.25 164.54,-196.1 155.82,-202.13 161.48,-206.25"/>
<g id="a_edge8&#45;headlabel"><a xlink:href="dir_000005_000009.html" target="_top" xlink:title="2">
<text text-anchor="middle" x="161.66" y="-208.32" font-family="Helvetica,sans-Serif" font-size="10.00">2</text>
</a>
</g>
</g>
<!-- dir_adfc8f0c7b158e7578b58661775dac5f&#45;&gt;dir_21461704387a3e1b07b2b703bb5fc08b -->
<g id="edge7" class="edge">
<title>dir_adfc8f0c7b158e7578b58661775dac5f&#45;&gt;dir_21461704387a3e1b07b2b703bb5fc08b</title>
<path fill="none" stroke="black" d="M125.23,-231.93C125.01,-213.51 126.42,-183.63 136,-160 140.06,-149.97 146.59,-140.24 153.25,-131.9"/>
<polygon fill="black" stroke="black" points="156.08,-133.97 159.86,-124.08 150.73,-129.45 156.08,-133.97"/>
<g id="a_edge7&#45;headlabel"><a xlink:href="dir_000005_000002.html" target="_top" xlink:title="2">
<text text-anchor="middle" x="155.92" y="-136.05" font-family="Helvetica,sans-Serif" font-size="10.00">2</text>
</a>
</g>
</g>
<!-- dir_21461704387a3e1b07b2b703bb5fc08b&#45;&gt;dir_e31664174edb9b3ff23db8a31f057636 -->
<g id="edge12" class="edge">
<title>dir_21461704387a3e1b07b2b703bb5fc08b&#45;&gt;dir_e31664174edb9b3ff23db8a31f057636</title>
<path fill="none" stroke="black" d="M177,-87.7C177,-79.98 177,-70.71 177,-62.11"/>
<polygon fill="black" stroke="black" points="180.5,-62.1 177,-52.1 173.5,-62.1 180.5,-62.1"/>
<g id="a_edge12&#45;headlabel"><a xlink:href="dir_000002_000015.html" target="_top" xlink:title="1">
<text text-anchor="middle" x="183.34" y="-63.2" font-family="Helvetica,sans-Serif" font-size="10.00">1</text>
</a>
</g>
</g>
<!-- dir_21461704387a3e1b07b2b703bb5fc08b&#45;&gt;dir_68267d1309a1af8e8297ef4c3efbcdba -->
<g id="edge11" class="edge">
<title>dir_21461704387a3e1b07b2b703bb5fc08b&#45;&gt;dir_68267d1309a1af8e8297ef4c3efbcdba</title>
<path fill="none" stroke="black" d="M190.92,-124.47C198.98,-134.71 209.23,-147.96 218,-160 233.22,-180.89 249.75,-205.11 261.76,-223"/>
<polygon fill="black" stroke="black" points="259.13,-225.37 267.59,-231.73 264.95,-221.48 259.13,-225.37"/>
<g id="a_edge11&#45;headlabel"><a xlink:href="dir_000002_000012.html" target="_top" xlink:title="1">
<text text-anchor="middle" x="254.77" y="-221.46" font-family="Helvetica,sans-Serif" font-size="10.00">1</text>
</a>
</g>
</g>
<!-- dir_68267d1309a1af8e8297ef4c3efbcdba&#45;&gt;dir_e31664174edb9b3ff23db8a31f057636 -->
<g id="edge6" class="edge">
<title>dir_68267d1309a1af8e8297ef4c3efbcdba&#45;&gt;dir_e31664174edb9b3ff23db8a31f057636</title>
<path fill="none" stroke="black" d="M278.93,-231.61C277.99,-199.1 272.1,-128.08 240,-80 233.06,-69.61 222.85,-60.83 212.67,-53.86"/>
<polygon fill="black" stroke="black" points="214.5,-50.88 204.19,-48.44 210.73,-56.78 214.5,-50.88"/>
<g id="a_edge6&#45;headlabel"><a xlink:href="dir_000012_000015.html" target="_top" xlink:title="1">
<text text-anchor="middle" x="219.05" y="-47.92" font-family="Helvetica,sans-Serif" font-size="10.00">1</text>
</a>
</g>
</g>
<!-- dir_68267d1309a1af8e8297ef4c3efbcdba&#45;&gt;dir_660fa42b9e3230345806bc0b6602f61f -->
<g id="edge4" class="edge">
<title>dir_68267d1309a1af8e8297ef4c3efbcdba&#45;&gt;dir_660fa42b9e3230345806bc0b6602f61f</title>
<path fill="none" stroke="black" d="M251.97,-250C247.37,-250 242.78,-250 238.18,-250"/>
<polygon fill="black" stroke="black" points="238.12,-246.5 228.12,-250 238.12,-253.5 238.12,-246.5"/>
<g id="a_edge4&#45;headlabel"><a xlink:href="dir_000012_000001.html" target="_top" xlink:title="7">
<text text-anchor="middle" x="241.71" y="-241.16" font-family="Helvetica,sans-Serif" font-size="10.00">7</text>
</a>
</g>
</g>
<!-- dir_68267d1309a1af8e8297ef4c3efbcdba&#45;&gt;dir_ca18b5d26a08dd1547acb9ac772ee217 -->
<g id="edge5" class="edge">
<title>dir_68267d1309a1af8e8297ef4c3efbcdba&#45;&gt;dir_ca18b5d26a08dd1547acb9ac772ee217</title>
<path fill="none" stroke="black" d="M259.7,-231.7C247.42,-222.63 231.22,-211.4 216.37,-201.65"/>
<polygon fill="black" stroke="black" points="218.11,-198.61 207.82,-196.1 214.3,-204.48 218.11,-198.61"/>
<g id="a_edge5&#45;headlabel"><a xlink:href="dir_000012_000009.html" target="_top" xlink:title="5">
<text text-anchor="middle" x="222.67" y="-195.69" font-family="Helvetica,sans-Serif" font-size="10.00">5</text>
</a>
</g>
</g>
<!-- dir_68267d1309a1af8e8297ef4c3efbcdba&#45;&gt;dir_0ef0e180e5ad722e331acc662d4db775 -->
<g id="edge3" class="edge">
<title>dir_68267d1309a1af8e8297ef4c3efbcdba&#45;&gt;dir_0ef0e180e5ad722e331acc662d4db775</title>
<path fill="none" stroke="black" d="M272.55,-268.08C265.35,-285.2 251.89,-309.9 231,-321 204.7,-334.97 123.16,-335.22 97,-321 80.01,-311.76 68.33,-293.25 60.99,-277.44"/>
<polygon fill="black" stroke="black" points="64.12,-275.87 56.97,-268.05 57.69,-278.62 64.12,-275.87"/>
<g id="a_edge3&#45;headlabel"><a xlink:href="dir_000012_000014.html" target="_top" xlink:title="2">
<text text-anchor="middle" x="68.15" y="-275.55" font-family="Helvetica,sans-Serif" font-size="10.00">2</text>
</a>
</g>
</g>
</g>
</svg>
