<?xml version="1.0" encoding="UTF-8" standalone="no"?>
<!DOCTYPE svg PUBLIC "-//W3C//DTD SVG 1.1//EN"
 "http://www.w3.org/Graphics/SVG/1.1/DTD/svg11.dtd">
<!-- Generated by graphviz version 2.43.0 (0)
 -->
<!-- Title: stages Pages: 1 -->
<svg width="157pt" height="295pt"
 viewBox="0.00 0.00 156.50 295.00" xmlns="http://www.w3.org/2000/svg" xmlns:xlink="http://www.w3.org/1999/xlink">
<g id="graph0" class="graph" transform="scale(1 1) rotate(0) translate(4 291)">
<title>stages</title>
<polygon fill="white" stroke="transparent" points="-4,4 -4,-291 152.5,-291 152.5,4 -4,4"/>
<g id="clust1" class="cluster">
<title>clusterdir_889460a6948c19d4ce0b79c39cdefdc7</title>
<g id="a_clust1"><a xlink:href="dir_889460a6948c19d4ce0b79c39cdefdc7.html" target="_top" xlink:title="Computer">
<polygon fill="#ddddee" stroke="black" points="70.5,-208 70.5,-279 140.5,-279 140.5,-208 70.5,-208"/>
<text text-anchor="middle" x="105.5" y="-267" font-family="Helvetica,sans-Serif" font-size="10.00">Computer</text>
</a>
</g>
</g>
<!-- dir_a68b93b6967a6d429edb1b6c5de49b74 -->
<g id="node1" class="node">
<title>dir_a68b93b6967a6d429edb1b6c5de49b74</title>
<g id="a_node1"><a xlink:href="dir_a68b93b6967a6d429edb1b6c5de49b74.html" target="_top" xlink:title="stages">
<polygon fill="#eeeeff" stroke="black" points="132.5,-252 78.5,-252 78.5,-216 132.5,-216 132.5,-252"/>
<text text-anchor="middle" x="105.5" y="-231.5" font-family="Helvetica,sans-Serif" font-size="10.00">stages</text>
</a>
</g>
</g>
<!-- dir_493ca209223fc47b4c316544d4be99c8 -->
<g id="node2" class="node">
<title>dir_493ca209223fc47b4c316544d4be99c8</title>
<g id="a_node2"><a xlink:href="dir_493ca209223fc47b4c316544d4be99c8.html" target="_top" xlink:title="components">
<polygon fill="white" stroke="red" points="77,-180 0,-180 0,-144 77,-144 77,-180"/>
<text text-anchor="middle" x="38.5" y="-159.5" font-family="Helvetica,sans-Serif" font-size="10.00">components</text>
</a>
</g>
</g>
<!-- dir_a68b93b6967a6d429edb1b6c5de49b74&#45;&gt;dir_493ca209223fc47b4c316544d4be99c8 -->
<g id="edge3" class="edge">
<title>dir_a68b93b6967a6d429edb1b6c5de49b74&#45;&gt;dir_493ca209223fc47b4c316544d4be99c8</title>
<path fill="none" stroke="black" d="M88.94,-215.7C80.82,-207.22 70.91,-196.86 62.03,-187.58"/>
<polygon fill="black" stroke="black" points="64.31,-184.91 54.87,-180.1 59.26,-189.75 64.31,-184.91"/>
<g id="a_edge3&#45;headlabel"><a xlink:href="dir_000017_000015.html" target="_top" xlink:title="2">
<text text-anchor="middle" x="68.85" y="-183.04" font-family="Helvetica,sans-Serif" font-size="10.00">2</text>
</a>
</g>
</g>
<!-- dir_68267d1309a1af8e8297ef4c3efbcdba -->
<g id="node3" class="node">
<title>dir_68267d1309a1af8e8297ef4c3efbcdba</title>
<g id="a_node3"><a xlink:href="dir_68267d1309a1af8e8297ef4c3efbcdba.html" target="_top" xlink:title="src">
<polygon fill="none" stroke="black" points="90.5,-108 36.5,-108 36.5,-72 90.5,-72 90.5,-108"/>
<text text-anchor="middle" x="63.5" y="-87.5" font-family="Helvetica,sans-Serif" font-size="10.00">src</text>
</a>
</g>
</g>
<!-- dir_a68b93b6967a6d429edb1b6c5de49b74&#45;&gt;dir_68267d1309a1af8e8297ef4c3efbcdba -->
<g id="edge4" class="edge">
<title>dir_a68b93b6967a6d429edb1b6c5de49b74&#45;&gt;dir_68267d1309a1af8e8297ef4c3efbcdba</title>
<path fill="none" stroke="black" d="M102.85,-215.67C99.84,-197.54 94.31,-168.38 86.5,-144 83.69,-135.21 79.92,-125.89 76.26,-117.56"/>
<polygon fill="black" stroke="black" points="79.39,-115.99 72.06,-108.33 73.01,-118.88 79.39,-115.99"/>
<g id="a_edge4&#45;headlabel"><a xlink:href="dir_000017_000007.html" target="_top" xlink:title="1">
<text text-anchor="middle" x="83.46" y="-115.58" font-family="Helvetica,sans-Serif" font-size="10.00">1</text>
</a>
</g>
</g>
<!-- dir_e31664174edb9b3ff23db8a31f057636 -->
<g id="node4" class="node">
<title>dir_e31664174edb9b3ff23db8a31f057636</title>
<g id="a_node4"><a xlink:href="dir_e31664174edb9b3ff23db8a31f057636.html" target="_top" xlink:title="kalman">
<polygon fill="none" stroke="black" points="117.5,-36 63.5,-36 63.5,0 117.5,0 117.5,-36"/>
<text text-anchor="middle" x="90.5" y="-15.5" font-family="Helvetica,sans-Serif" font-size="10.00">kalman</text>
</a>
</g>
</g>
<!-- dir_a68b93b6967a6d429edb1b6c5de49b74&#45;&gt;dir_e31664174edb9b3ff23db8a31f057636 -->
<g id="edge5" class="edge">
<title>dir_a68b93b6967a6d429edb1b6c5de49b74&#45;&gt;dir_e31664174edb9b3ff23db8a31f057636</title>
<path fill="none" stroke="black" d="M105.78,-215.54C106.04,-185.9 105.7,-123.94 99.5,-72 98.49,-63.53 97.05,-54.35 95.62,-46.05"/>
<polygon fill="black" stroke="black" points="99.05,-45.35 93.85,-36.12 92.16,-46.58 99.05,-45.35"/>
<g id="a_edge5&#45;headlabel"><a xlink:href="dir_000017_000014.html" target="_top" xlink:title="1">
<text text-anchor="middle" x="102.48" y="-45.89" font-family="Helvetica,sans-Serif" font-size="10.00">1</text>
</a>
</g>
</g>
<!-- dir_493ca209223fc47b4c316544d4be99c8&#45;&gt;dir_68267d1309a1af8e8297ef4c3efbcdba -->
<g id="edge6" class="edge">
<title>dir_493ca209223fc47b4c316544d4be99c8&#45;&gt;dir_68267d1309a1af8e8297ef4c3efbcdba</title>
<path fill="none" stroke="black" d="M38.76,-143.7C40.77,-135.81 43.94,-126.3 47.45,-117.55"/>
<polygon fill="black" stroke="black" points="50.77,-118.67 51.5,-108.1 44.34,-115.92 50.77,-118.67"/>
<g id="a_edge6&#45;headlabel"><a xlink:href="dir_000015_000007.html" target="_top" xlink:title="2">
<text text-anchor="middle" x="51.96" y="-120.6" font-family="Helvetica,sans-Serif" font-size="10.00">2</text>
</a>
</g>
</g>
<!-- dir_68267d1309a1af8e8297ef4c3efbcdba&#45;&gt;dir_493ca209223fc47b4c316544d4be99c8 -->
<g id="edge1" class="edge">
<title>dir_68267d1309a1af8e8297ef4c3efbcdba&#45;&gt;dir_493ca209223fc47b4c316544d4be99c8</title>
<path fill="none" stroke="black" d="M63.29,-108.1C61.3,-115.96 58.14,-125.46 54.64,-134.23"/>
<polygon fill="black" stroke="black" points="51.31,-133.13 50.6,-143.7 57.74,-135.88 51.31,-133.13"/>
<g id="a_edge1&#45;headlabel"><a xlink:href="dir_000007_000015.html" target="_top" xlink:title="4">
<text text-anchor="middle" x="50.11" y="-126.2" font-family="Helvetica,sans-Serif" font-size="10.00">4</text>
</a>
</g>
</g>
<!-- dir_68267d1309a1af8e8297ef4c3efbcdba&#45;&gt;dir_e31664174edb9b3ff23db8a31f057636 -->
<g id="edge2" class="edge">
<title>dir_68267d1309a1af8e8297ef4c3efbcdba&#45;&gt;dir_e31664174edb9b3ff23db8a31f057636</title>
<path fill="none" stroke="black" d="M70.17,-71.7C73.21,-63.81 76.88,-54.3 80.26,-45.55"/>
<polygon fill="black" stroke="black" points="83.57,-46.69 83.9,-36.1 77.04,-44.17 83.57,-46.69"/>
<g id="a_edge2&#45;headlabel"><a xlink:href="dir_000007_000014.html" target="_top" xlink:title="1">
<text text-anchor="middle" x="84.92" y="-48.57" font-family="Helvetica,sans-Serif" font-size="10.00">1</text>
</a>
</g>
</g>
</g>
</svg>
