<?xml version="1.0" encoding="UTF-8" standalone="no"?>
<!DOCTYPE svg PUBLIC "-//W3C//DTD SVG 1.1//EN"
 "http://www.w3.org/Graphics/SVG/1.1/DTD/svg11.dtd">
<!-- Generated by graphviz version 2.43.0 (0)
 -->
<!-- Title: Arduino Pages: 1 -->
<svg width="182pt" height="159pt"
 viewBox="0.00 0.00 182.00 159.00" xmlns="http://www.w3.org/2000/svg" xmlns:xlink="http://www.w3.org/1999/xlink">
<g id="graph0" class="graph" transform="scale(1 1) rotate(0) translate(4 155)">
<title>Arduino</title>
<polygon fill="white" stroke="transparent" points="-4,4 -4,-155 178,-155 178,4 -4,4"/>
<g id="clust1" class="cluster">
<title>clusterdir_adfc8f0c7b158e7578b58661775dac5f</title>
<g id="a_clust1"><a xlink:href="dir_adfc8f0c7b158e7578b58661775dac5f.html" target="_top" xlink:title="Platform">
<polygon fill="#ddddee" stroke="black" points="8,-56 8,-143 166,-143 166,-56 8,-56"/>
<text text-anchor="middle" x="87" y="-131" font-family="Helvetica,sans-Serif" font-size="10.00">Platform</text>
</a>
</g>
</g>
<g id="clust2" class="cluster">
<title>clusterdir_7ddf9baf0e6ccd9037e42fe67735ab17</title>
<g id="a_clust2"><a xlink:href="dir_7ddf9baf0e6ccd9037e42fe67735ab17.html" target="_top">
<polygon fill="#eeeeff" stroke="black" points="16,-64 16,-116 158,-116 158,-64 16,-64"/>
</a>
</g>
</g>
<!-- dir_7ddf9baf0e6ccd9037e42fe67735ab17 -->
<g id="node1" class="node">
<title>dir_7ddf9baf0e6ccd9037e42fe67735ab17</title>
<text text-anchor="middle" x="123" y="-87.5" font-family="Helvetica,sans-Serif" font-size="10.00">Arduino</text>
</g>
<!-- dir_ec2c4ca9ad75f6d16b60cdecc7f41ce2 -->
<g id="node2" class="node">
<title>dir_ec2c4ca9ad75f6d16b60cdecc7f41ce2</title>
<g id="a_node2"><a xlink:href="dir_ec2c4ca9ad75f6d16b60cdecc7f41ce2.html" target="_top" xlink:title="Buzzer">
<polygon fill="white" stroke="black" points="78,-108 24,-108 24,-72 78,-72 78,-108"/>
<text text-anchor="middle" x="51" y="-87.5" font-family="Helvetica,sans-Serif" font-size="10.00">Buzzer</text>
</a>
</g>
</g>
<!-- dir_ca18b5d26a08dd1547acb9ac772ee217 -->
<g id="node3" class="node">
<title>dir_ca18b5d26a08dd1547acb9ac772ee217</title>
<g id="a_node3"><a xlink:href="dir_ca18b5d26a08dd1547acb9ac772ee217.html" target="_top" xlink:title="Hardware">
<polygon fill="white" stroke="red" points="83,-36 19,-36 19,0 83,0 83,-36"/>
<text text-anchor="middle" x="51" y="-15.5" font-family="Helvetica,sans-Serif" font-size="10.00">Hardware</text>
</a>
</g>
</g>
<!-- dir_ec2c4ca9ad75f6d16b60cdecc7f41ce2&#45;&gt;dir_ca18b5d26a08dd1547acb9ac772ee217 -->
<g id="edge1" class="edge">
<title>dir_ec2c4ca9ad75f6d16b60cdecc7f41ce2&#45;&gt;dir_ca18b5d26a08dd1547acb9ac772ee217</title>
<path fill="none" stroke="black" d="M51,-71.7C51,-63.98 51,-54.71 51,-46.11"/>
<polygon fill="black" stroke="black" points="54.5,-46.1 51,-36.1 47.5,-46.1 54.5,-46.1"/>
<g id="a_edge1&#45;headlabel"><a xlink:href="dir_000007_000009.html" target="_top" xlink:title="1">
<text text-anchor="middle" x="57.34" y="-47.2" font-family="Helvetica,sans-Serif" font-size="10.00">1</text>
</a>
</g>
</g>
</g>
</svg>
