<?xml version="1.0" encoding="UTF-8" standalone="no"?>
<!DOCTYPE svg PUBLIC "-//W3C//DTD SVG 1.1//EN"
 "http://www.w3.org/Graphics/SVG/1.1/DTD/svg11.dtd">
<!-- Generated by graphviz version 2.43.0 (0)
 -->
<!-- Title: platform Pages: 1 -->
<svg width="188pt" height="175pt"
 viewBox="0.00 0.00 188.00 175.00" xmlns="http://www.w3.org/2000/svg" xmlns:xlink="http://www.w3.org/1999/xlink">
<g id="graph0" class="graph" transform="scale(1 1) rotate(0) translate(4 171)">
<title>platform</title>
<polygon fill="white" stroke="transparent" points="-4,4 -4,-171 184,-171 184,4 -4,4"/>
<g id="clust1" class="cluster">
<title>clusterdir_97aefd0d527b934f1d99a682da8fe6a9</title>
<g id="a_clust1"><a xlink:href="dir_97aefd0d527b934f1d99a682da8fe6a9.html" target="_top" xlink:title="lib">
<polygon fill="#ddddee" stroke="black" points="8,-8 8,-159 172,-159 172,-8 8,-8"/>
<text text-anchor="middle" x="90" y="-147" font-family="Helvetica,sans-Serif" font-size="10.00">lib</text>
</a>
</g>
</g>
<g id="clust2" class="cluster">
<title>clusterdir_2c3e26c67e8926144e9dab970917e9f6</title>
<g id="a_clust2"><a xlink:href="dir_2c3e26c67e8926144e9dab970917e9f6.html" target="_top">
<polygon fill="#eeeeff" stroke="black" points="16,-80 16,-132 164,-132 164,-80 16,-80"/>
</a>
</g>
</g>
<!-- dir_32093826b9a59ad74b33274b578b865a -->
<g id="node1" class="node">
<title>dir_32093826b9a59ad74b33274b578b865a</title>
<g id="a_node1"><a xlink:href="dir_32093826b9a59ad74b33274b578b865a.html" target="_top" xlink:title="sensor">
<polygon fill="white" stroke="red" points="78,-52 24,-52 24,-16 78,-16 78,-52"/>
<text text-anchor="middle" x="51" y="-31.5" font-family="Helvetica,sans-Serif" font-size="10.00">sensor</text>
</a>
</g>
</g>
<!-- dir_2c3e26c67e8926144e9dab970917e9f6 -->
<g id="node2" class="node">
<title>dir_2c3e26c67e8926144e9dab970917e9f6</title>
<text text-anchor="middle" x="126" y="-103.5" font-family="Helvetica,sans-Serif" font-size="10.00">platform</text>
</g>
<!-- dir_839e96a54f01756292ac927100835634 -->
<g id="node3" class="node">
<title>dir_839e96a54f01756292ac927100835634</title>
<g id="a_node3"><a xlink:href="dir_839e96a54f01756292ac927100835634.html" target="_top" xlink:title="src">
<polygon fill="white" stroke="black" points="78,-124 24,-124 24,-88 78,-88 78,-124"/>
<text text-anchor="middle" x="51" y="-103.5" font-family="Helvetica,sans-Serif" font-size="10.00">src</text>
</a>
</g>
</g>
<!-- dir_839e96a54f01756292ac927100835634&#45;&gt;dir_32093826b9a59ad74b33274b578b865a -->
<g id="edge1" class="edge">
<title>dir_839e96a54f01756292ac927100835634&#45;&gt;dir_32093826b9a59ad74b33274b578b865a</title>
<path fill="none" stroke="black" d="M51,-87.7C51,-79.98 51,-70.71 51,-62.11"/>
<polygon fill="black" stroke="black" points="54.5,-62.1 51,-52.1 47.5,-62.1 54.5,-62.1"/>
<g id="a_edge1&#45;headlabel"><a xlink:href="dir_000012_000013.html" target="_top" xlink:title="2">
<text text-anchor="middle" x="57.34" y="-63.2" font-family="Helvetica,sans-Serif" font-size="10.00">2</text>
</a>
</g>
</g>
</g>
</svg>
