<?xml version="1.0" encoding="UTF-8" standalone="no"?>
<!DOCTYPE svg PUBLIC "-//W3C//DTD SVG 1.1//EN"
 "http://www.w3.org/Graphics/SVG/1.1/DTD/svg11.dtd">
<!-- Generated by graphviz version 2.43.0 (0)
 -->
<!-- Title: Hardware Pages: 1 -->
<svg width="246pt" height="175pt"
 viewBox="0.00 0.00 246.00 175.00" xmlns="http://www.w3.org/2000/svg" xmlns:xlink="http://www.w3.org/1999/xlink">
<g id="graph0" class="graph" transform="scale(1 1) rotate(0) translate(4 171)">
<title>Hardware</title>
<polygon fill="white" stroke="transparent" points="-4,4 -4,-171 242,-171 242,4 -4,4"/>
<g id="clust1" class="cluster">
<title>clusterdir_660fa42b9e3230345806bc0b6602f61f</title>
<g id="a_clust1"><a xlink:href="dir_660fa42b9e3230345806bc0b6602f61f.html" target="_top" xlink:title="Wocket">
<polygon fill="#ddddee" stroke="black" points="8,-8 8,-159 176,-159 176,-8 8,-8"/>
<text text-anchor="middle" x="92" y="-147" font-family="Helvetica,sans-Serif" font-size="10.00">Wocket</text>
</a>
</g>
</g>
<g id="clust2" class="cluster">
<title>clusterdir_ca18b5d26a08dd1547acb9ac772ee217</title>
<g id="a_clust2"><a xlink:href="dir_ca18b5d26a08dd1547acb9ac772ee217.html" target="_top">
<polygon fill="#eeeeff" stroke="black" points="16,-80 16,-132 168,-132 168,-80 16,-80"/>
</a>
</g>
</g>
<!-- dir_21461704387a3e1b07b2b703bb5fc08b -->
<g id="node1" class="node">
<title>dir_21461704387a3e1b07b2b703bb5fc08b</title>
<g id="a_node1"><a xlink:href="dir_21461704387a3e1b07b2b703bb5fc08b.html" target="_top" xlink:title="Sensor">
<polygon fill="white" stroke="red" points="160,-52 106,-52 106,-16 160,-16 160,-52"/>
<text text-anchor="middle" x="133" y="-31.5" font-family="Helvetica,sans-Serif" font-size="10.00">Sensor</text>
</a>
</g>
</g>
<!-- dir_68267d1309a1af8e8297ef4c3efbcdba -->
<g id="node4" class="node">
<title>dir_68267d1309a1af8e8297ef4c3efbcdba</title>
<g id="a_node4"><a xlink:href="dir_68267d1309a1af8e8297ef4c3efbcdba.html" target="_top" xlink:title="src">
<polygon fill="none" stroke="black" points="238,-52 184,-52 184,-16 238,-16 238,-52"/>
<text text-anchor="middle" x="211" y="-31.5" font-family="Helvetica,sans-Serif" font-size="10.00">src</text>
</a>
</g>
</g>
<!-- dir_21461704387a3e1b07b2b703bb5fc08b&#45;&gt;dir_68267d1309a1af8e8297ef4c3efbcdba -->
<g id="edge4" class="edge">
<title>dir_21461704387a3e1b07b2b703bb5fc08b&#45;&gt;dir_68267d1309a1af8e8297ef4c3efbcdba</title>
<path fill="none" stroke="black" d="M160.12,-34C164.71,-34 169.31,-34 173.91,-34"/>
<polygon fill="black" stroke="black" points="173.97,-37.5 183.97,-34 173.97,-30.5 173.97,-37.5"/>
<g id="a_edge4&#45;headlabel"><a xlink:href="dir_000002_000012.html" target="_top" xlink:title="1">
<text text-anchor="middle" x="170.37" y="-37.84" font-family="Helvetica,sans-Serif" font-size="10.00">1</text>
</a>
</g>
</g>
<!-- dir_ca18b5d26a08dd1547acb9ac772ee217 -->
<g id="node2" class="node">
<title>dir_ca18b5d26a08dd1547acb9ac772ee217</title>
<text text-anchor="middle" x="128" y="-103.5" font-family="Helvetica,sans-Serif" font-size="10.00">Hardware</text>
</g>
<!-- dir_ca18b5d26a08dd1547acb9ac772ee217&#45;&gt;dir_21461704387a3e1b07b2b703bb5fc08b -->
<g id="edge1" class="edge">
<title>dir_ca18b5d26a08dd1547acb9ac772ee217&#45;&gt;dir_21461704387a3e1b07b2b703bb5fc08b</title>
<path fill="none" stroke="black" d="M129.24,-87.7C129.79,-79.98 130.45,-70.71 131.06,-62.11"/>
<polygon fill="black" stroke="black" points="134.56,-62.33 131.78,-52.1 127.57,-61.83 134.56,-62.33"/>
<g id="a_edge1&#45;headlabel"><a xlink:href="dir_000009_000002.html" target="_top" xlink:title="1">
<text text-anchor="middle" x="137.13" y="-63.62" font-family="Helvetica,sans-Serif" font-size="10.00">1</text>
</a>
</g>
</g>
<!-- dir_ca18b5d26a08dd1547acb9ac772ee217&#45;&gt;dir_68267d1309a1af8e8297ef4c3efbcdba -->
<g id="edge2" class="edge">
<title>dir_ca18b5d26a08dd1547acb9ac772ee217&#45;&gt;dir_68267d1309a1af8e8297ef4c3efbcdba</title>
<path fill="none" stroke="black" d="M142.6,-87.7C152.14,-78.88 164.84,-68.03 176.75,-58.47"/>
<polygon fill="black" stroke="black" points="179.14,-61.05 184.82,-52.1 174.81,-55.55 179.14,-61.05"/>
<g id="a_edge2&#45;headlabel"><a xlink:href="dir_000009_000012.html" target="_top" xlink:title="2">
<text text-anchor="middle" x="178.08" y="-63" font-family="Helvetica,sans-Serif" font-size="10.00">2</text>
</a>
</g>
</g>
<!-- dir_43b5657d8398ec5c2c1f941eb5636f3d -->
<g id="node3" class="node">
<title>dir_43b5657d8398ec5c2c1f941eb5636f3d</title>
<g id="a_node3"><a xlink:href="dir_43b5657d8398ec5c2c1f941eb5636f3d.html" target="_top" xlink:title="Buzzer">
<polygon fill="white" stroke="black" points="78,-124 24,-124 24,-88 78,-88 78,-124"/>
<text text-anchor="middle" x="51" y="-103.5" font-family="Helvetica,sans-Serif" font-size="10.00">Buzzer</text>
</a>
</g>
</g>
<!-- dir_68267d1309a1af8e8297ef4c3efbcdba&#45;&gt;dir_ca18b5d26a08dd1547acb9ac772ee217 -->
<g id="edge3" class="edge">
<title>dir_68267d1309a1af8e8297ef4c3efbcdba&#45;&gt;dir_ca18b5d26a08dd1547acb9ac772ee217</title>
<path fill="none" stroke="black" d="M196.61,-52.1C187.12,-60.89 174.44,-71.73 162.52,-81.31"/>
<polygon fill="black" stroke="black" points="160.11,-78.75 154.43,-87.7 164.45,-84.24 160.11,-78.75"/>
<g id="a_edge3&#45;headlabel"><a xlink:href="dir_000012_000009.html" target="_top" xlink:title="5">
<text text-anchor="middle" x="161.17" y="-71.79" font-family="Helvetica,sans-Serif" font-size="10.00">5</text>
</a>
</g>
</g>
</g>
</svg>
