<?xml version="1.0" encoding="UTF-8" standalone="no"?>
<!DOCTYPE svg PUBLIC "-//W3C//DTD SVG 1.1//EN"
 "http://www.w3.org/Graphics/SVG/1.1/DTD/svg11.dtd">
<!-- Generated by graphviz version 2.43.0 (0)
 -->
<!-- Title: src Pages: 1 -->
<svg width="101pt" height="151pt"
 viewBox="0.00 0.00 101.00 151.00" xmlns="http://www.w3.org/2000/svg" xmlns:xlink="http://www.w3.org/1999/xlink">
<g id="graph0" class="graph" transform="scale(1 1) rotate(0) translate(4 147)">
<title>src</title>
<polygon fill="white" stroke="transparent" points="-4,4 -4,-147 97,-147 97,4 -4,4"/>
<g id="clust1" class="cluster">
<title>clusterdir_493ca209223fc47b4c316544d4be99c8</title>
<g id="a_clust1"><a xlink:href="dir_493ca209223fc47b4c316544d4be99c8.html" target="_top" xlink:title="components">
<polygon fill="#ddddee" stroke="black" points="8,-64 8,-135 85,-135 85,-64 8,-64"/>
<text text-anchor="middle" x="46.5" y="-123" font-family="Helvetica,sans-Serif" font-size="10.00">components</text>
</a>
</g>
</g>
<!-- dir_bb79ec3c53d60b6a910de1d46953a02e -->
<g id="node1" class="node">
<title>dir_bb79ec3c53d60b6a910de1d46953a02e</title>
<g id="a_node1"><a xlink:href="dir_bb79ec3c53d60b6a910de1d46953a02e.html" target="_top" xlink:title="src">
<polygon fill="#eeeeff" stroke="black" points="73,-108 19,-108 19,-72 73,-72 73,-108"/>
<text text-anchor="middle" x="46" y="-87.5" font-family="Helvetica,sans-Serif" font-size="10.00">src</text>
</a>
</g>
</g>
<!-- dir_68267d1309a1af8e8297ef4c3efbcdba -->
<g id="node2" class="node">
<title>dir_68267d1309a1af8e8297ef4c3efbcdba</title>
<g id="a_node2"><a xlink:href="dir_68267d1309a1af8e8297ef4c3efbcdba.html" target="_top" xlink:title="src">
<polygon fill="none" stroke="black" points="73,-36 19,-36 19,0 73,0 73,-36"/>
<text text-anchor="middle" x="46" y="-15.5" font-family="Helvetica,sans-Serif" font-size="10.00">src</text>
</a>
</g>
</g>
<!-- dir_bb79ec3c53d60b6a910de1d46953a02e&#45;&gt;dir_68267d1309a1af8e8297ef4c3efbcdba -->
<g id="edge2" class="edge">
<title>dir_bb79ec3c53d60b6a910de1d46953a02e&#45;&gt;dir_68267d1309a1af8e8297ef4c3efbcdba</title>
<path fill="none" stroke="black" d="M40.08,-71.7C39.29,-63.98 39.06,-54.71 39.4,-46.11"/>
<polygon fill="black" stroke="black" points="42.9,-46.32 40.1,-36.1 35.92,-45.84 42.9,-46.32"/>
<g id="a_edge2&#45;headlabel"><a xlink:href="dir_000016_000007.html" target="_top" xlink:title="2">
<text text-anchor="middle" x="45.48" y="-47.61" font-family="Helvetica,sans-Serif" font-size="10.00">2</text>
</a>
</g>
</g>
<!-- dir_68267d1309a1af8e8297ef4c3efbcdba&#45;&gt;dir_bb79ec3c53d60b6a910de1d46953a02e -->
<g id="edge1" class="edge">
<title>dir_68267d1309a1af8e8297ef4c3efbcdba&#45;&gt;dir_bb79ec3c53d60b6a910de1d46953a02e</title>
<path fill="none" stroke="black" d="M51.9,-36.1C52.7,-43.79 52.94,-53.05 52.6,-61.67"/>
<polygon fill="black" stroke="black" points="49.11,-61.48 51.92,-71.7 56.09,-61.96 49.11,-61.48"/>
<g id="a_edge1&#45;headlabel"><a xlink:href="dir_000007_000016.html" target="_top" xlink:title="4">
<text text-anchor="middle" x="46.52" y="-55.2" font-family="Helvetica,sans-Serif" font-size="10.00">4</text>
</a>
</g>
</g>
</g>
</svg>
