<?xml version="1.0" encoding="UTF-8" standalone="no"?>
<!DOCTYPE svg PUBLIC "-//W3C//DTD SVG 1.1//EN"
 "http://www.w3.org/Graphics/SVG/1.1/DTD/svg11.dtd">
<!-- Generated by graphviz version 2.43.0 (0)
 -->
<!-- Title: Accelerometer Pages: 1 -->
<svg width="224pt" height="159pt"
 viewBox="0.00 0.00 224.00 159.00" xmlns="http://www.w3.org/2000/svg" xmlns:xlink="http://www.w3.org/1999/xlink">
<g id="graph0" class="graph" transform="scale(1 1) rotate(0) translate(4 155)">
<title>Accelerometer</title>
<polygon fill="white" stroke="transparent" points="-4,4 -4,-155 220,-155 220,4 -4,4"/>
<g id="clust1" class="cluster">
<title>clusterdir_660fa42b9e3230345806bc0b6602f61f</title>
<g id="a_clust1"><a xlink:href="dir_660fa42b9e3230345806bc0b6602f61f.html" target="_top" xlink:title="Wocket">
<polygon fill="#ddddee" stroke="black" points="8,-56 8,-143 208,-143 208,-56 8,-56"/>
<text text-anchor="middle" x="108" y="-131" font-family="Helvetica,sans-Serif" font-size="10.00">Wocket</text>
</a>
</g>
</g>
<g id="clust2" class="cluster">
<title>clusterdir_7260ed149c883bc3d69b7c8817ac79c1</title>
<g id="a_clust2"><a xlink:href="dir_7260ed149c883bc3d69b7c8817ac79c1.html" target="_top">
<polygon fill="#eeeeff" stroke="black" points="16,-64 16,-116 200,-116 200,-64 16,-64"/>
</a>
</g>
</g>
<!-- dir_7260ed149c883bc3d69b7c8817ac79c1 -->
<g id="node1" class="node">
<title>dir_7260ed149c883bc3d69b7c8817ac79c1</title>
<text text-anchor="middle" x="148" y="-87.5" font-family="Helvetica,sans-Serif" font-size="10.00">Accelerometer</text>
</g>
<!-- dir_68267d1309a1af8e8297ef4c3efbcdba -->
<g id="node3" class="node">
<title>dir_68267d1309a1af8e8297ef4c3efbcdba</title>
<g id="a_node3"><a xlink:href="dir_68267d1309a1af8e8297ef4c3efbcdba.html" target="_top" xlink:title="src">
<polygon fill="white" stroke="red" points="175,-36 121,-36 121,0 175,0 175,-36"/>
<text text-anchor="middle" x="148" y="-15.5" font-family="Helvetica,sans-Serif" font-size="10.00">src</text>
</a>
</g>
</g>
<!-- dir_7260ed149c883bc3d69b7c8817ac79c1&#45;&gt;dir_68267d1309a1af8e8297ef4c3efbcdba -->
<g id="edge1" class="edge">
<title>dir_7260ed149c883bc3d69b7c8817ac79c1&#45;&gt;dir_68267d1309a1af8e8297ef4c3efbcdba</title>
<path fill="none" stroke="black" d="M148,-71.7C148,-63.98 148,-54.71 148,-46.11"/>
<polygon fill="black" stroke="black" points="151.5,-46.1 148,-36.1 144.5,-46.1 151.5,-46.1"/>
<g id="a_edge1&#45;headlabel"><a xlink:href="dir_000002_000006.html" target="_top" xlink:title="1">
<text text-anchor="middle" x="154.34" y="-47.2" font-family="Helvetica,sans-Serif" font-size="10.00">1</text>
</a>
</g>
</g>
<!-- dir_0a13d58e8bb9b9a5a4820dc2bb9ed4b6 -->
<g id="node2" class="node">
<title>dir_0a13d58e8bb9b9a5a4820dc2bb9ed4b6</title>
<g id="a_node2"><a xlink:href="dir_0a13d58e8bb9b9a5a4820dc2bb9ed4b6.html" target="_top" xlink:title="ADXL343">
<polygon fill="white" stroke="black" points="85.5,-108 24.5,-108 24.5,-72 85.5,-72 85.5,-108"/>
<text text-anchor="middle" x="55" y="-87.5" font-family="Helvetica,sans-Serif" font-size="10.00">ADXL343</text>
</a>
</g>
</g>
</g>
</svg>
