<?xml version="1.0" encoding="UTF-8" standalone="no"?>
<!DOCTYPE svg PUBLIC "-//W3C//DTD SVG 1.1//EN"
 "http://www.w3.org/Graphics/SVG/1.1/DTD/svg11.dtd">
<!-- Generated by graphviz version 2.43.0 (0)
 -->
<!-- Title: Kernel Pages: 1 -->
<svg width="371pt" height="183pt"
 viewBox="0.00 0.00 371.00 183.00" xmlns="http://www.w3.org/2000/svg" xmlns:xlink="http://www.w3.org/1999/xlink">
<g id="graph0" class="graph" transform="scale(1 1) rotate(0) translate(4 179)">
<title>Kernel</title>
<polygon fill="white" stroke="transparent" points="-4,4 -4,-179 367,-179 367,4 -4,4"/>
<g id="clust1" class="cluster">
<title>clusterdir_660fa42b9e3230345806bc0b6602f61f</title>
<g id="a_clust1"><a xlink:href="dir_660fa42b9e3230345806bc0b6602f61f.html" target="_top" xlink:title="Wocket">
<polygon fill="#ddddee" stroke="black" points="8,-8 8,-167 355,-167 355,-8 8,-8"/>
<text text-anchor="middle" x="181.5" y="-155" font-family="Helvetica,sans-Serif" font-size="10.00">Wocket</text>
</a>
</g>
</g>
<g id="clust2" class="cluster">
<title>clusterdir_0ef0e180e5ad722e331acc662d4db775</title>
<g id="a_clust2"><a xlink:href="dir_0ef0e180e5ad722e331acc662d4db775.html" target="_top">
<polygon fill="#eeeeff" stroke="black" points="16,-16 16,-140 275,-140 275,-16 16,-16"/>
</a>
</g>
</g>
<!-- dir_ca18b5d26a08dd1547acb9ac772ee217 -->
<g id="node1" class="node">
<title>dir_ca18b5d26a08dd1547acb9ac772ee217</title>
<g id="a_node1"><a xlink:href="dir_ca18b5d26a08dd1547acb9ac772ee217.html" target="_top" xlink:title="Hardware">
<polygon fill="white" stroke="red" points="347,-60 283,-60 283,-24 347,-24 347,-60"/>
<text text-anchor="middle" x="315" y="-39.5" font-family="Helvetica,sans-Serif" font-size="10.00">Hardware</text>
</a>
</g>
</g>
<!-- dir_0ef0e180e5ad722e331acc662d4db775 -->
<g id="node2" class="node">
<title>dir_0ef0e180e5ad722e331acc662d4db775</title>
<text text-anchor="middle" x="240" y="-111.5" font-family="Helvetica,sans-Serif" font-size="10.00">Kernel</text>
</g>
<!-- dir_0ef0e180e5ad722e331acc662d4db775&#45;&gt;dir_ca18b5d26a08dd1547acb9ac772ee217 -->
<g id="edge2" class="edge">
<title>dir_0ef0e180e5ad722e331acc662d4db775&#45;&gt;dir_ca18b5d26a08dd1547acb9ac772ee217</title>
<path fill="none" stroke="black" d="M258.54,-95.7C267.8,-87.05 279.16,-76.45 289.26,-67.03"/>
<polygon fill="black" stroke="black" points="291.75,-69.49 296.67,-60.1 286.98,-64.37 291.75,-69.49"/>
<g id="a_edge2&#45;headlabel"><a xlink:href="dir_000011_000009.html" target="_top" xlink:title="3">
<text text-anchor="middle" x="291.06" y="-71.51" font-family="Helvetica,sans-Serif" font-size="10.00">3</text>
</a>
</g>
</g>
<!-- dir_a7e745a4f4adbe822b01e3c26b6774e8 -->
<g id="node5" class="node">
<title>dir_a7e745a4f4adbe822b01e3c26b6774e8</title>
<g id="a_node5"><a xlink:href="dir_a7e745a4f4adbe822b01e3c26b6774e8.html" target="_top" xlink:title="kalman">
<polygon fill="white" stroke="black" points="265,-60 211,-60 211,-24 265,-24 265,-60"/>
<text text-anchor="middle" x="238" y="-39.5" font-family="Helvetica,sans-Serif" font-size="10.00">kalman</text>
</a>
</g>
</g>
<!-- dir_0ef0e180e5ad722e331acc662d4db775&#45;&gt;dir_a7e745a4f4adbe822b01e3c26b6774e8 -->
<g id="edge1" class="edge">
<title>dir_0ef0e180e5ad722e331acc662d4db775&#45;&gt;dir_a7e745a4f4adbe822b01e3c26b6774e8</title>
<path fill="none" stroke="black" d="M239.51,-95.7C239.29,-87.98 239.02,-78.71 238.77,-70.11"/>
<polygon fill="black" stroke="black" points="242.27,-70 238.49,-60.1 235.28,-70.2 242.27,-70"/>
<g id="a_edge1&#45;headlabel"><a xlink:href="dir_000011_000015.html" target="_top" xlink:title="1">
<text text-anchor="middle" x="245.21" y="-71.01" font-family="Helvetica,sans-Serif" font-size="10.00">1</text>
</a>
</g>
</g>
<!-- dir_0d7b81d9c2e52fcb0fb6dbc54659889c -->
<g id="node3" class="node">
<title>dir_0d7b81d9c2e52fcb0fb6dbc54659889c</title>
<g id="a_node3"><a xlink:href="dir_0d7b81d9c2e52fcb0fb6dbc54659889c.html" target="_top" xlink:title="CircularBuffer">
<polygon fill="white" stroke="black" points="194.5,-132 111.5,-132 111.5,-96 194.5,-96 194.5,-132"/>
<text text-anchor="middle" x="153" y="-111.5" font-family="Helvetica,sans-Serif" font-size="10.00">CircularBuffer</text>
</a>
</g>
</g>
<!-- dir_be17e30fcdd496ad276be56146f933b1 -->
<g id="node4" class="node">
<title>dir_be17e30fcdd496ad276be56146f933b1</title>
<g id="a_node4"><a xlink:href="dir_be17e30fcdd496ad276be56146f933b1.html" target="_top" xlink:title="datalogger">
<polygon fill="white" stroke="black" points="93.5,-132 24.5,-132 24.5,-96 93.5,-96 93.5,-132"/>
<text text-anchor="middle" x="59" y="-111.5" font-family="Helvetica,sans-Serif" font-size="10.00">datalogger</text>
</a>
</g>
</g>
</g>
</svg>
