<?xml version="1.0" encoding="UTF-8" standalone="no"?>
<!DOCTYPE svg PUBLIC "-//W3C//DTD SVG 1.1//EN"
 "http://www.w3.org/Graphics/SVG/1.1/DTD/svg11.dtd">
<!-- Generated by graphviz version 2.43.0 (0)
 -->
<!-- Title: Sensor Pages: 1 -->
<svg width="302pt" height="231pt"
 viewBox="0.00 0.00 302.00 231.00" xmlns="http://www.w3.org/2000/svg" xmlns:xlink="http://www.w3.org/1999/xlink">
<g id="graph0" class="graph" transform="scale(1 1) rotate(0) translate(4 227)">
<title>Sensor</title>
<polygon fill="white" stroke="transparent" points="-4,4 -4,-227 298,-227 298,4 -4,4"/>
<g id="clust1" class="cluster">
<title>clusterdir_660fa42b9e3230345806bc0b6602f61f</title>
<g id="a_clust1"><a xlink:href="dir_660fa42b9e3230345806bc0b6602f61f.html" target="_top" xlink:title="Wocket">
<polygon fill="#ddddee" stroke="black" points="8,-128 8,-215 286,-215 286,-128 8,-128"/>
<text text-anchor="middle" x="147" y="-203" font-family="Helvetica,sans-Serif" font-size="10.00">Wocket</text>
</a>
</g>
</g>
<g id="clust2" class="cluster">
<title>clusterdir_21461704387a3e1b07b2b703bb5fc08b</title>
<g id="a_clust2"><a xlink:href="dir_21461704387a3e1b07b2b703bb5fc08b.html" target="_top">
<polygon fill="#eeeeff" stroke="black" points="16,-136 16,-188 278,-188 278,-136 16,-136"/>
</a>
</g>
</g>
<!-- dir_21461704387a3e1b07b2b703bb5fc08b -->
<g id="node1" class="node">
<title>dir_21461704387a3e1b07b2b703bb5fc08b</title>
<text text-anchor="middle" x="243" y="-159.5" font-family="Helvetica,sans-Serif" font-size="10.00">Sensor</text>
</g>
<!-- dir_3c9caf8b91afc606295fedaa2bdfb269 -->
<g id="node2" class="node">
<title>dir_3c9caf8b91afc606295fedaa2bdfb269</title>
<g id="a_node2"><a xlink:href="dir_3c9caf8b91afc606295fedaa2bdfb269.html" target="_top" xlink:title="Accelerometer">
<polygon fill="white" stroke="red" points="112,-180 24,-180 24,-144 112,-144 112,-180"/>
<text text-anchor="middle" x="68" y="-159.5" font-family="Helvetica,sans-Serif" font-size="10.00">Accelerometer</text>
</a>
</g>
</g>
<!-- dir_68267d1309a1af8e8297ef4c3efbcdba -->
<g id="node4" class="node">
<title>dir_68267d1309a1af8e8297ef4c3efbcdba</title>
<g id="a_node4"><a xlink:href="dir_68267d1309a1af8e8297ef4c3efbcdba.html" target="_top" xlink:title="src">
<polygon fill="none" stroke="black" points="115,-108 61,-108 61,-72 115,-72 115,-108"/>
<text text-anchor="middle" x="88" y="-87.5" font-family="Helvetica,sans-Serif" font-size="10.00">src</text>
</a>
</g>
</g>
<!-- dir_3c9caf8b91afc606295fedaa2bdfb269&#45;&gt;dir_68267d1309a1af8e8297ef4c3efbcdba -->
<g id="edge2" class="edge">
<title>dir_3c9caf8b91afc606295fedaa2bdfb269&#45;&gt;dir_68267d1309a1af8e8297ef4c3efbcdba</title>
<path fill="none" stroke="black" d="M72.94,-143.7C75.17,-135.9 77.85,-126.51 80.33,-117.83"/>
<polygon fill="black" stroke="black" points="83.73,-118.68 83.11,-108.1 77,-116.76 83.73,-118.68"/>
<g id="a_edge2&#45;headlabel"><a xlink:href="dir_000003_000012.html" target="_top" xlink:title="1">
<text text-anchor="middle" x="85.47" y="-120.42" font-family="Helvetica,sans-Serif" font-size="10.00">1</text>
</a>
</g>
</g>
<!-- dir_ec5f3ddd5ff97f67ccd56a055db374ab -->
<g id="node3" class="node">
<title>dir_ec5f3ddd5ff97f67ccd56a055db374ab</title>
<g id="a_node3"><a xlink:href="dir_ec5f3ddd5ff97f67ccd56a055db374ab.html" target="_top" xlink:title="Barometer">
<polygon fill="white" stroke="black" points="198,-180 130,-180 130,-144 198,-144 198,-180"/>
<text text-anchor="middle" x="164" y="-159.5" font-family="Helvetica,sans-Serif" font-size="10.00">Barometer</text>
</a>
</g>
</g>
<!-- dir_e31664174edb9b3ff23db8a31f057636 -->
<g id="node5" class="node">
<title>dir_e31664174edb9b3ff23db8a31f057636</title>
<g id="a_node5"><a xlink:href="dir_e31664174edb9b3ff23db8a31f057636.html" target="_top" xlink:title="kalman">
<polygon fill="none" stroke="black" points="142,-36 88,-36 88,0 142,0 142,-36"/>
<text text-anchor="middle" x="115" y="-15.5" font-family="Helvetica,sans-Serif" font-size="10.00">kalman</text>
</a>
</g>
</g>
<!-- dir_ec5f3ddd5ff97f67ccd56a055db374ab&#45;&gt;dir_e31664174edb9b3ff23db8a31f057636 -->
<g id="edge3" class="edge">
<title>dir_ec5f3ddd5ff97f67ccd56a055db374ab&#45;&gt;dir_e31664174edb9b3ff23db8a31f057636</title>
<path fill="none" stroke="black" d="M158.09,-143.87C149.7,-119.56 134.26,-74.82 124.32,-46.01"/>
<polygon fill="black" stroke="black" points="127.5,-44.5 120.93,-36.19 120.88,-46.78 127.5,-44.5"/>
<g id="a_edge3&#45;headlabel"><a xlink:href="dir_000008_000015.html" target="_top" xlink:title="1">
<text text-anchor="middle" x="131.36" y="-44.47" font-family="Helvetica,sans-Serif" font-size="10.00">1</text>
</a>
</g>
</g>
<!-- dir_68267d1309a1af8e8297ef4c3efbcdba&#45;&gt;dir_e31664174edb9b3ff23db8a31f057636 -->
<g id="edge1" class="edge">
<title>dir_68267d1309a1af8e8297ef4c3efbcdba&#45;&gt;dir_e31664174edb9b3ff23db8a31f057636</title>
<path fill="none" stroke="black" d="M94.67,-71.7C97.71,-63.81 101.38,-54.3 104.76,-45.55"/>
<polygon fill="black" stroke="black" points="108.07,-46.69 108.4,-36.1 101.54,-44.17 108.07,-46.69"/>
<g id="a_edge1&#45;headlabel"><a xlink:href="dir_000012_000015.html" target="_top" xlink:title="1">
<text text-anchor="middle" x="109.42" y="-48.57" font-family="Helvetica,sans-Serif" font-size="10.00">1</text>
</a>
</g>
</g>
</g>
</svg>
