<?xml version="1.0" encoding="UTF-8" standalone="no"?>
<!DOCTYPE svg PUBLIC "-//W3C//DTD SVG 1.1//EN"
 "http://www.w3.org/Graphics/SVG/1.1/DTD/svg11.dtd">
<!-- Generated by graphviz version 2.43.0 (0)
 -->
<!-- Title: lib Pages: 1 -->
<svg width="301pt" height="276pt"
 viewBox="0.00 0.00 300.91 276.00" xmlns="http://www.w3.org/2000/svg" xmlns:xlink="http://www.w3.org/1999/xlink">
<g id="graph0" class="graph" transform="scale(1 1) rotate(0) translate(4 272)">
<title>lib</title>
<polygon fill="white" stroke="transparent" points="-4,4 -4,-272 296.91,-272 296.91,4 -4,4"/>
<g id="clust1" class="cluster">
<title>clusterdir_97aefd0d527b934f1d99a682da8fe6a9</title>
<g id="a_clust1"><a xlink:href="dir_97aefd0d527b934f1d99a682da8fe6a9.html" target="_top">
<polygon fill="#eeeeff" stroke="black" points="8.27,-8 8.27,-204 267.27,-204 267.27,-8 8.27,-8"/>
</a>
</g>
</g>
<!-- dir_97aefd0d527b934f1d99a682da8fe6a9 -->
<g id="node1" class="node">
<title>dir_97aefd0d527b934f1d99a682da8fe6a9</title>
<text text-anchor="middle" x="232.27" y="-175.5" font-family="Helvetica,sans-Serif" font-size="10.00">lib</text>
</g>
<!-- dir_897ab7de725cc6ace30e1fb715ec8b67 -->
<g id="node2" class="node">
<title>dir_897ab7de725cc6ace30e1fb715ec8b67</title>
<g id="a_node2"><a xlink:href="dir_897ab7de725cc6ace30e1fb715ec8b67.html" target="_top" xlink:title="CircularBuffer">
<polygon fill="white" stroke="black" points="186.77,-196 103.77,-196 103.77,-160 186.77,-160 186.77,-196"/>
<text text-anchor="middle" x="145.27" y="-175.5" font-family="Helvetica,sans-Serif" font-size="10.00">CircularBuffer</text>
</a>
</g>
</g>
<!-- dir_dc6f1320b3047e255d656d6e0e55f6d5 -->
<g id="node3" class="node">
<title>dir_dc6f1320b3047e255d656d6e0e55f6d5</title>
<g id="a_node3"><a xlink:href="dir_dc6f1320b3047e255d656d6e0e55f6d5.html" target="_top" xlink:title="datalogger">
<polygon fill="white" stroke="black" points="85.77,-196 16.77,-196 16.77,-160 85.77,-160 85.77,-196"/>
<text text-anchor="middle" x="51.27" y="-175.5" font-family="Helvetica,sans-Serif" font-size="10.00">datalogger</text>
</a>
</g>
</g>
<!-- dir_660fa42b9e3230345806bc0b6602f61f -->
<g id="node5" class="node">
<title>dir_660fa42b9e3230345806bc0b6602f61f</title>
<g id="a_node5"><a xlink:href="dir_660fa42b9e3230345806bc0b6602f61f.html" target="_top" xlink:title="Wocket">
<polygon fill="white" stroke="red" points="123.27,-124 69.27,-124 69.27,-88 123.27,-88 123.27,-124"/>
<text text-anchor="middle" x="96.27" y="-103.5" font-family="Helvetica,sans-Serif" font-size="10.00">Wocket</text>
</a>
</g>
</g>
<!-- dir_dc6f1320b3047e255d656d6e0e55f6d5&#45;&gt;dir_660fa42b9e3230345806bc0b6602f61f -->
<g id="edge6" class="edge">
<title>dir_dc6f1320b3047e255d656d6e0e55f6d5&#45;&gt;dir_660fa42b9e3230345806bc0b6602f61f</title>
<path fill="none" stroke="black" d="M62.4,-159.7C67.63,-151.56 73.97,-141.69 79.75,-132.7"/>
<polygon fill="black" stroke="black" points="82.81,-134.41 85.28,-124.1 76.92,-130.62 82.81,-134.41"/>
<g id="a_edge6&#45;headlabel"><a xlink:href="dir_000013_000001.html" target="_top" xlink:title="1">
<text text-anchor="middle" x="83.26" y="-136.47" font-family="Helvetica,sans-Serif" font-size="10.00">1</text>
</a>
</g>
</g>
<!-- dir_e31664174edb9b3ff23db8a31f057636 -->
<g id="node4" class="node">
<title>dir_e31664174edb9b3ff23db8a31f057636</title>
<g id="a_node4"><a xlink:href="dir_e31664174edb9b3ff23db8a31f057636.html" target="_top" xlink:title="kalman">
<polygon fill="white" stroke="black" points="213.27,-52 159.27,-52 159.27,-16 213.27,-16 213.27,-52"/>
<text text-anchor="middle" x="186.27" y="-31.5" font-family="Helvetica,sans-Serif" font-size="10.00">kalman</text>
</a>
</g>
</g>
<!-- dir_660fa42b9e3230345806bc0b6602f61f&#45;&gt;dir_e31664174edb9b3ff23db8a31f057636 -->
<g id="edge8" class="edge">
<title>dir_660fa42b9e3230345806bc0b6602f61f&#45;&gt;dir_e31664174edb9b3ff23db8a31f057636</title>
<path fill="none" stroke="black" d="M118.52,-87.7C129.85,-78.88 143.8,-68.03 156.09,-58.47"/>
<polygon fill="black" stroke="black" points="158.54,-61.01 164.28,-52.1 154.24,-55.48 158.54,-61.01"/>
<g id="a_edge8&#45;headlabel"><a xlink:href="dir_000001_000015.html" target="_top" xlink:title="2">
<text text-anchor="middle" x="157.44" y="-62.95" font-family="Helvetica,sans-Serif" font-size="10.00">2</text>
</a>
</g>
</g>
<!-- dir_68267d1309a1af8e8297ef4c3efbcdba -->
<g id="node6" class="node">
<title>dir_68267d1309a1af8e8297ef4c3efbcdba</title>
<g id="a_node6"><a xlink:href="dir_68267d1309a1af8e8297ef4c3efbcdba.html" target="_top" xlink:title="src">
<polygon fill="none" stroke="black" points="215.27,-268 161.27,-268 161.27,-232 215.27,-232 215.27,-268"/>
<text text-anchor="middle" x="188.27" y="-247.5" font-family="Helvetica,sans-Serif" font-size="10.00">src</text>
</a>
</g>
</g>
<!-- dir_660fa42b9e3230345806bc0b6602f61f&#45;&gt;dir_68267d1309a1af8e8297ef4c3efbcdba -->
<g id="edge7" class="edge">
<title>dir_660fa42b9e3230345806bc0b6602f61f&#45;&gt;dir_68267d1309a1af8e8297ef4c3efbcdba</title>
<path fill="none" stroke="black" d="M69.01,-115.23C48.27,-123.09 21.17,-137.18 8.27,-160 -1.35,-177.03 -3.76,-188.59 8.27,-204 25.64,-226.25 103.58,-239.12 151.02,-245.03"/>
<polygon fill="black" stroke="black" points="150.88,-248.54 161.23,-246.26 151.71,-241.59 150.88,-248.54"/>
<g id="a_edge7&#45;headlabel"><a xlink:href="dir_000001_000012.html" target="_top" xlink:title="3">
<text text-anchor="middle" x="146.97" y="-248.43" font-family="Helvetica,sans-Serif" font-size="10.00">3</text>
</a>
</g>
</g>
<!-- dir_68267d1309a1af8e8297ef4c3efbcdba&#45;&gt;dir_97aefd0d527b934f1d99a682da8fe6a9 -->
<g id="edge3" class="edge">
<title>dir_68267d1309a1af8e8297ef4c3efbcdba&#45;&gt;dir_97aefd0d527b934f1d99a682da8fe6a9</title>
<path fill="none" stroke="black" d="M199.15,-231.7C204.26,-223.56 210.47,-213.69 216.12,-204.7"/>
<polygon fill="black" stroke="black" points="219.16,-206.43 221.52,-196.1 213.24,-202.71 219.16,-206.43"/>
<g id="a_edge3&#45;headlabel"><a xlink:href="dir_000012_000000.html" target="_top" xlink:title="10">
<text text-anchor="middle" x="219.65" y="-208.49" font-family="Helvetica,sans-Serif" font-size="10.00">10</text>
</a>
</g>
</g>
<!-- dir_68267d1309a1af8e8297ef4c3efbcdba&#45;&gt;dir_897ab7de725cc6ace30e1fb715ec8b67 -->
<g id="edge2" class="edge">
<title>dir_68267d1309a1af8e8297ef4c3efbcdba&#45;&gt;dir_897ab7de725cc6ace30e1fb715ec8b67</title>
<path fill="none" stroke="black" d="M177.64,-231.7C172.64,-223.56 166.58,-213.69 161.06,-204.7"/>
<polygon fill="black" stroke="black" points="164,-202.79 155.78,-196.1 158.03,-206.46 164,-202.79"/>
<g id="a_edge2&#45;headlabel"><a xlink:href="dir_000012_000011.html" target="_top" xlink:title="1">
<text text-anchor="middle" x="168.3" y="-201.87" font-family="Helvetica,sans-Serif" font-size="10.00">1</text>
</a>
</g>
</g>
<!-- dir_68267d1309a1af8e8297ef4c3efbcdba&#45;&gt;dir_dc6f1320b3047e255d656d6e0e55f6d5 -->
<g id="edge4" class="edge">
<title>dir_68267d1309a1af8e8297ef4c3efbcdba&#45;&gt;dir_dc6f1320b3047e255d656d6e0e55f6d5</title>
<path fill="none" stroke="black" d="M161.18,-236.47C142.5,-227.69 117.18,-215.51 95.27,-204 93.52,-203.08 91.74,-202.13 89.94,-201.16"/>
<polygon fill="black" stroke="black" points="91.4,-197.96 80.95,-196.21 88.02,-204.1 91.4,-197.96"/>
<g id="a_edge4&#45;headlabel"><a xlink:href="dir_000012_000013.html" target="_top" xlink:title="1">
<text text-anchor="middle" x="95.91" y="-194.71" font-family="Helvetica,sans-Serif" font-size="10.00">1</text>
</a>
</g>
</g>
<!-- dir_68267d1309a1af8e8297ef4c3efbcdba&#45;&gt;dir_e31664174edb9b3ff23db8a31f057636 -->
<g id="edge5" class="edge">
<title>dir_68267d1309a1af8e8297ef4c3efbcdba&#45;&gt;dir_e31664174edb9b3ff23db8a31f057636</title>
<path fill="none" stroke="black" d="M215.59,-244.72C238.83,-239.48 270.81,-228.11 286.27,-204 296.83,-187.54 292.74,-178.45 286.27,-160 272.08,-119.54 238.66,-82.44 214.36,-59.35"/>
<polygon fill="black" stroke="black" points="216.53,-56.59 206.82,-52.36 211.77,-61.73 216.53,-56.59"/>
<g id="a_edge5&#45;headlabel"><a xlink:href="dir_000012_000015.html" target="_top" xlink:title="1">
<text text-anchor="middle" x="221.1" y="-54.46" font-family="Helvetica,sans-Serif" font-size="10.00">1</text>
</a>
</g>
</g>
<!-- dir_68267d1309a1af8e8297ef4c3efbcdba&#45;&gt;dir_660fa42b9e3230345806bc0b6602f61f -->
<g id="edge1" class="edge">
<title>dir_68267d1309a1af8e8297ef4c3efbcdba&#45;&gt;dir_660fa42b9e3230345806bc0b6602f61f</title>
<path fill="none" stroke="black" d="M215.33,-241.66C233.81,-235.08 256.93,-223.4 268.27,-204 278.14,-187.12 279.89,-175.73 268.27,-160 237.46,-118.26 174.25,-108.37 133.64,-106.57"/>
<polygon fill="black" stroke="black" points="133.69,-103.07 123.59,-106.27 133.48,-110.07 133.69,-103.07"/>
<g id="a_edge1&#45;headlabel"><a xlink:href="dir_000012_000001.html" target="_top" xlink:title="7">
<text text-anchor="middle" x="137.37" y="-97.84" font-family="Helvetica,sans-Serif" font-size="10.00">7</text>
</a>
</g>
</g>
</g>
</svg>
