<?xml version="1.0" encoding="UTF-8" standalone="no"?>
<!DOCTYPE svg PUBLIC "-//W3C//DTD SVG 1.1//EN"
 "http://www.w3.org/Graphics/SVG/1.1/DTD/svg11.dtd">
<!-- Generated by graphviz version 2.43.0 (0)
 -->
<!-- Title: sensor Pages: 1 -->
<svg width="183pt" height="211pt"
 viewBox="0.00 0.00 182.67 211.00" xmlns="http://www.w3.org/2000/svg" xmlns:xlink="http://www.w3.org/1999/xlink">
<g id="graph0" class="graph" transform="scale(1 1) rotate(0) translate(4 207)">
<title>sensor</title>
<polygon fill="white" stroke="transparent" points="-4,4 -4,-207 178.67,-207 178.67,4 -4,4"/>
<g id="clust1" class="cluster">
<title>clusterdir_97aefd0d527b934f1d99a682da8fe6a9</title>
<g id="a_clust1"><a xlink:href="dir_97aefd0d527b934f1d99a682da8fe6a9.html" target="_top" xlink:title="lib">
<polygon fill="#ddddee" stroke="black" points="8,-8 8,-159 166,-159 166,-8 8,-8"/>
<text text-anchor="middle" x="87" y="-147" font-family="Helvetica,sans-Serif" font-size="10.00">lib</text>
</a>
</g>
</g>
<g id="clust2" class="cluster">
<title>clusterdir_32093826b9a59ad74b33274b578b865a</title>
<g id="a_clust2"><a xlink:href="dir_32093826b9a59ad74b33274b578b865a.html" target="_top">
<polygon fill="#eeeeff" stroke="black" points="16,-80 16,-132 158,-132 158,-80 16,-80"/>
</a>
</g>
</g>
<!-- dir_e31664174edb9b3ff23db8a31f057636 -->
<g id="node1" class="node">
<title>dir_e31664174edb9b3ff23db8a31f057636</title>
<g id="a_node1"><a xlink:href="dir_e31664174edb9b3ff23db8a31f057636.html" target="_top" xlink:title="kalman">
<polygon fill="none" stroke="black" points="118,-52 64,-52 64,-16 118,-16 118,-52"/>
<text text-anchor="middle" x="91" y="-31.5" font-family="Helvetica,sans-Serif" font-size="10.00">kalman</text>
</a>
</g>
</g>
<!-- dir_32093826b9a59ad74b33274b578b865a -->
<g id="node2" class="node">
<title>dir_32093826b9a59ad74b33274b578b865a</title>
<text text-anchor="middle" x="123" y="-103.5" font-family="Helvetica,sans-Serif" font-size="10.00">sensor</text>
</g>
<!-- dir_ef264873728e6d3be1defbf39bd6b72f -->
<g id="node3" class="node">
<title>dir_ef264873728e6d3be1defbf39bd6b72f</title>
<g id="a_node3"><a xlink:href="dir_ef264873728e6d3be1defbf39bd6b72f.html" target="_top" xlink:title="src">
<polygon fill="white" stroke="black" points="78,-124 24,-124 24,-88 78,-88 78,-124"/>
<text text-anchor="middle" x="51" y="-103.5" font-family="Helvetica,sans-Serif" font-size="10.00">src</text>
</a>
</g>
</g>
<!-- dir_ef264873728e6d3be1defbf39bd6b72f&#45;&gt;dir_e31664174edb9b3ff23db8a31f057636 -->
<g id="edge5" class="edge">
<title>dir_ef264873728e6d3be1defbf39bd6b72f&#45;&gt;dir_e31664174edb9b3ff23db8a31f057636</title>
<path fill="none" stroke="black" d="M60.89,-87.7C65.49,-79.64 71.06,-69.89 76.15,-60.98"/>
<polygon fill="black" stroke="black" points="79.3,-62.52 81.23,-52.1 73.23,-59.05 79.3,-62.52"/>
<g id="a_edge5&#45;headlabel"><a xlink:href="dir_000014_000009.html" target="_top" xlink:title="1">
<text text-anchor="middle" x="79.99" y="-64.55" font-family="Helvetica,sans-Serif" font-size="10.00">1</text>
</a>
</g>
</g>
<!-- dir_68267d1309a1af8e8297ef4c3efbcdba -->
<g id="node4" class="node">
<title>dir_68267d1309a1af8e8297ef4c3efbcdba</title>
<g id="a_node4"><a xlink:href="dir_68267d1309a1af8e8297ef4c3efbcdba.html" target="_top" xlink:title="src">
<polygon fill="white" stroke="red" points="150,-203 96,-203 96,-167 150,-167 150,-203"/>
<text text-anchor="middle" x="123" y="-182.5" font-family="Helvetica,sans-Serif" font-size="10.00">src</text>
</a>
</g>
</g>
<!-- dir_ef264873728e6d3be1defbf39bd6b72f&#45;&gt;dir_68267d1309a1af8e8297ef4c3efbcdba -->
<g id="edge4" class="edge">
<title>dir_ef264873728e6d3be1defbf39bd6b72f&#45;&gt;dir_68267d1309a1af8e8297ef4c3efbcdba</title>
<path fill="none" stroke="black" d="M52.94,-124.08C58.23,-134.83 67.6,-148.59 78,-159 80.9,-161.91 84.18,-164.7 87.64,-167.3"/>
<polygon fill="black" stroke="black" points="85.69,-170.2 95.91,-172.97 89.64,-164.43 85.69,-170.2"/>
<g id="a_edge4&#45;headlabel"><a xlink:href="dir_000014_000003.html" target="_top" xlink:title="1">
<text text-anchor="middle" x="81.12" y="-168.02" font-family="Helvetica,sans-Serif" font-size="10.00">1</text>
</a>
</g>
</g>
<!-- dir_68267d1309a1af8e8297ef4c3efbcdba&#45;&gt;dir_e31664174edb9b3ff23db8a31f057636 -->
<g id="edge2" class="edge">
<title>dir_68267d1309a1af8e8297ef4c3efbcdba&#45;&gt;dir_e31664174edb9b3ff23db8a31f057636</title>
<path fill="none" stroke="black" d="M150.17,-171.69C154.92,-168.28 159.22,-164.08 162,-159 178.84,-128.19 178.92,-110.76 162,-80 154.46,-66.29 140.77,-56.17 127.42,-49.03"/>
<polygon fill="black" stroke="black" points="128.82,-45.82 118.3,-44.57 125.74,-52.11 128.82,-45.82"/>
<g id="a_edge2&#45;headlabel"><a xlink:href="dir_000003_000009.html" target="_top" xlink:title="2">
<text text-anchor="middle" x="133.3" y="-42.36" font-family="Helvetica,sans-Serif" font-size="10.00">2</text>
</a>
</g>
</g>
<!-- dir_68267d1309a1af8e8297ef4c3efbcdba&#45;&gt;dir_32093826b9a59ad74b33274b578b865a -->
<g id="edge1" class="edge">
<title>dir_68267d1309a1af8e8297ef4c3efbcdba&#45;&gt;dir_32093826b9a59ad74b33274b578b865a</title>
<path fill="none" stroke="black" d="M123,-166.91C123,-157.34 123,-145.18 123,-134.32"/>
<polygon fill="black" stroke="black" points="126.5,-134.04 123,-124.04 119.5,-134.04 126.5,-134.04"/>
<g id="a_edge1&#45;headlabel"><a xlink:href="dir_000003_000013.html" target="_top" xlink:title="5">
<text text-anchor="middle" x="129.34" y="-135.14" font-family="Helvetica,sans-Serif" font-size="10.00">5</text>
</a>
</g>
</g>
<!-- dir_68267d1309a1af8e8297ef4c3efbcdba&#45;&gt;dir_ef264873728e6d3be1defbf39bd6b72f -->
<g id="edge3" class="edge">
<title>dir_68267d1309a1af8e8297ef4c3efbcdba&#45;&gt;dir_ef264873728e6d3be1defbf39bd6b72f</title>
<path fill="none" stroke="black" d="M104.74,-166.72C101.7,-164.29 98.69,-161.69 96,-159 88.12,-151.11 80.83,-141.3 74.34,-132.33"/>
<polygon fill="black" stroke="black" points="77.06,-130.13 68.36,-124.08 71.39,-134.23 77.06,-130.13"/>
<g id="a_edge3&#45;headlabel"><a xlink:href="dir_000003_000014.html" target="_top" xlink:title="5">
<text text-anchor="middle" x="81.47" y="-128.87" font-family="Helvetica,sans-Serif" font-size="10.00">5</text>
</a>
</g>
</g>
</g>
</svg>
