<?xml version="1.0" encoding="UTF-8" standalone="no"?>
<!DOCTYPE svg PUBLIC "-//W3C//DTD SVG 1.1//EN"
 "http://www.w3.org/Graphics/SVG/1.1/DTD/svg11.dtd">
<!-- Generated by graphviz version 2.43.0 (0)
 -->
<!-- Title: Kernel Pages: 1 -->
<svg width="160pt" height="167pt"
 viewBox="0.00 0.00 160.00 167.00" xmlns="http://www.w3.org/2000/svg" xmlns:xlink="http://www.w3.org/1999/xlink">
<g id="graph0" class="graph" transform="scale(1 1) rotate(0) translate(4 163)">
<title>Kernel</title>
<polygon fill="white" stroke="transparent" points="-4,4 -4,-163 156,-163 156,4 -4,4"/>
<g id="clust1" class="cluster">
<title>clusterdir_660fa42b9e3230345806bc0b6602f61f</title>
<g id="a_clust1"><a xlink:href="dir_660fa42b9e3230345806bc0b6602f61f.html" target="_top" xlink:title="Wocket">
<polygon fill="#ddddee" stroke="black" points="8,-8 8,-151 88,-151 88,-8 8,-8"/>
<text text-anchor="middle" x="48" y="-139" font-family="Helvetica,sans-Serif" font-size="10.00">Wocket</text>
</a>
</g>
</g>
<!-- dir_ca18b5d26a08dd1547acb9ac772ee217 -->
<g id="node1" class="node">
<title>dir_ca18b5d26a08dd1547acb9ac772ee217</title>
<g id="a_node1"><a xlink:href="dir_ca18b5d26a08dd1547acb9ac772ee217.html" target="_top" xlink:title="Hardware">
<polygon fill="white" stroke="red" points="80,-52 16,-52 16,-16 80,-16 80,-52"/>
<text text-anchor="middle" x="48" y="-31.5" font-family="Helvetica,sans-Serif" font-size="10.00">Hardware</text>
</a>
</g>
</g>
<!-- dir_0ef0e180e5ad722e331acc662d4db775 -->
<g id="node2" class="node">
<title>dir_0ef0e180e5ad722e331acc662d4db775</title>
<g id="a_node2"><a xlink:href="dir_0ef0e180e5ad722e331acc662d4db775.html" target="_top" xlink:title="Kernel">
<polygon fill="#eeeeff" stroke="black" points="77,-124 23,-124 23,-88 77,-88 77,-124"/>
<text text-anchor="middle" x="50" y="-103.5" font-family="Helvetica,sans-Serif" font-size="10.00">Kernel</text>
</a>
</g>
</g>
<!-- dir_0ef0e180e5ad722e331acc662d4db775&#45;&gt;dir_ca18b5d26a08dd1547acb9ac772ee217 -->
<g id="edge1" class="edge">
<title>dir_0ef0e180e5ad722e331acc662d4db775&#45;&gt;dir_ca18b5d26a08dd1547acb9ac772ee217</title>
<path fill="none" stroke="black" d="M49.51,-87.7C49.29,-79.98 49.02,-70.71 48.77,-62.11"/>
<polygon fill="black" stroke="black" points="52.27,-62 48.49,-52.1 45.28,-62.2 52.27,-62"/>
<g id="a_edge1&#45;headlabel"><a xlink:href="dir_000014_000009.html" target="_top" xlink:title="3">
<text text-anchor="middle" x="55.21" y="-63.01" font-family="Helvetica,sans-Serif" font-size="10.00">3</text>
</a>
</g>
</g>
<!-- dir_e31664174edb9b3ff23db8a31f057636 -->
<g id="node3" class="node">
<title>dir_e31664174edb9b3ff23db8a31f057636</title>
<g id="a_node3"><a xlink:href="dir_e31664174edb9b3ff23db8a31f057636.html" target="_top" xlink:title="kalman">
<polygon fill="none" stroke="black" points="152,-52 98,-52 98,-16 152,-16 152,-52"/>
<text text-anchor="middle" x="125" y="-31.5" font-family="Helvetica,sans-Serif" font-size="10.00">kalman</text>
</a>
</g>
</g>
<!-- dir_0ef0e180e5ad722e331acc662d4db775&#45;&gt;dir_e31664174edb9b3ff23db8a31f057636 -->
<g id="edge2" class="edge">
<title>dir_0ef0e180e5ad722e331acc662d4db775&#45;&gt;dir_e31664174edb9b3ff23db8a31f057636</title>
<path fill="none" stroke="black" d="M68.54,-87.7C77.8,-79.05 89.16,-68.45 99.26,-59.03"/>
<polygon fill="black" stroke="black" points="101.75,-61.49 106.67,-52.1 96.98,-56.37 101.75,-61.49"/>
<g id="a_edge2&#45;headlabel"><a xlink:href="dir_000014_000015.html" target="_top" xlink:title="1">
<text text-anchor="middle" x="101.06" y="-63.51" font-family="Helvetica,sans-Serif" font-size="10.00">1</text>
</a>
</g>
</g>
</g>
</svg>
