<?xml version="1.0" encoding="UTF-8" standalone="no"?>
<!DOCTYPE svg PUBLIC "-//W3C//DTD SVG 1.1//EN"
 "http://www.w3.org/Graphics/SVG/1.1/DTD/svg11.dtd">
<!-- Generated by graphviz version 2.43.0 (0)
 -->
<!-- Title: Accelerometer Pages: 1 -->
<svg width="224pt" height="159pt"
 viewBox="0.00 0.00 224.00 159.00" xmlns="http://www.w3.org/2000/svg" xmlns:xlink="http://www.w3.org/1999/xlink">
<g id="graph0" class="graph" transform="scale(1 1) rotate(0) translate(4 155)">
<title>Accelerometer</title>
<polygon fill="white" stroke="transparent" points="-4,4 -4,-155 220,-155 220,4 -4,4"/>
<g id="clust1" class="cluster">
<title>clusterdir_21461704387a3e1b07b2b703bb5fc08b</title>
<g id="a_clust1"><a xlink:href="dir_21461704387a3e1b07b2b703bb5fc08b.html" target="_top" xlink:title="Sensor">
<polygon fill="#ddddee" stroke="black" points="8,-56 8,-143 208,-143 208,-56 8,-56"/>
<text text-anchor="middle" x="108" y="-131" font-family="Helvetica,sans-Serif" font-size="10.00">Sensor</text>
</a>
</g>
</g>
<g id="clust2" class="cluster">
<title>clusterdir_3c9caf8b91afc606295fedaa2bdfb269</title>
<g id="a_clust2"><a xlink:href="dir_3c9caf8b91afc606295fedaa2bdfb269.html" target="_top">
<polygon fill="#eeeeff" stroke="black" points="16,-64 16,-116 200,-116 200,-64 16,-64"/>
</a>
</g>
</g>
<!-- dir_3c9caf8b91afc606295fedaa2bdfb269 -->
<g id="node1" class="node">
<title>dir_3c9caf8b91afc606295fedaa2bdfb269</title>
<text text-anchor="middle" x="148" y="-87.5" font-family="Helvetica,sans-Serif" font-size="10.00">Accelerometer</text>
</g>
<!-- dir_68267d1309a1af8e8297ef4c3efbcdba -->
<g id="node3" class="node">
<title>dir_68267d1309a1af8e8297ef4c3efbcdba</title>
<g id="a_node3"><a xlink:href="dir_68267d1309a1af8e8297ef4c3efbcdba.html" target="_top" xlink:title="src">
<polygon fill="none" stroke="black" points="175,-36 121,-36 121,0 175,0 175,-36"/>
<text text-anchor="middle" x="148" y="-15.5" font-family="Helvetica,sans-Serif" font-size="10.00">src</text>
</a>
</g>
</g>
<!-- dir_3c9caf8b91afc606295fedaa2bdfb269&#45;&gt;dir_68267d1309a1af8e8297ef4c3efbcdba -->
<g id="edge2" class="edge">
<title>dir_3c9caf8b91afc606295fedaa2bdfb269&#45;&gt;dir_68267d1309a1af8e8297ef4c3efbcdba</title>
<path fill="none" stroke="black" d="M142.08,-71.7C141.29,-63.98 141.06,-54.71 141.4,-46.11"/>
<polygon fill="black" stroke="black" points="144.9,-46.32 142.1,-36.1 137.92,-45.84 144.9,-46.32"/>
<g id="a_edge2&#45;headlabel"><a xlink:href="dir_000003_000007.html" target="_top" xlink:title="1">
<text text-anchor="middle" x="147.48" y="-47.61" font-family="Helvetica,sans-Serif" font-size="10.00">1</text>
</a>
</g>
</g>
<!-- dir_8725c67a9acb038cf41b6ad2acb699e9 -->
<g id="node2" class="node">
<title>dir_8725c67a9acb038cf41b6ad2acb699e9</title>
<g id="a_node2"><a xlink:href="dir_8725c67a9acb038cf41b6ad2acb699e9.html" target="_top" xlink:title="ADXL343">
<polygon fill="white" stroke="black" points="85.5,-108 24.5,-108 24.5,-72 85.5,-72 85.5,-108"/>
<text text-anchor="middle" x="55" y="-87.5" font-family="Helvetica,sans-Serif" font-size="10.00">ADXL343</text>
</a>
</g>
</g>
<!-- dir_68267d1309a1af8e8297ef4c3efbcdba&#45;&gt;dir_3c9caf8b91afc606295fedaa2bdfb269 -->
<g id="edge1" class="edge">
<title>dir_68267d1309a1af8e8297ef4c3efbcdba&#45;&gt;dir_3c9caf8b91afc606295fedaa2bdfb269</title>
<path fill="none" stroke="black" d="M153.9,-36.1C154.7,-43.79 154.94,-53.05 154.6,-61.67"/>
<polygon fill="black" stroke="black" points="151.11,-61.48 153.92,-71.7 158.09,-61.96 151.11,-61.48"/>
<g id="a_edge1&#45;headlabel"><a xlink:href="dir_000007_000003.html" target="_top" xlink:title="1">
<text text-anchor="middle" x="148.52" y="-55.2" font-family="Helvetica,sans-Serif" font-size="10.00">1</text>
</a>
</g>
</g>
</g>
</svg>
